G04*
G04 #@! TF.GenerationSoftware,Altium Limited,Altium Designer,18.1.9 (240)*
G04*
G04 Layer_Physical_Order=2*
G04 Layer_Color=255*
%FSLAX44Y44*%
%MOMM*%
G71*
G01*
G75*
%ADD10C,0.2000*%
%ADD11C,0.3000*%
%ADD51C,1.3000*%
%ADD52R,1.3000X1.3000*%
%ADD53C,1.6000*%
%ADD54R,1.6000X1.6000*%
%ADD55R,1.4000X1.2000*%
%ADD56O,1.5000X1.2000*%
%ADD57C,2.2000*%
%ADD59C,1.0000*%
%ADD61C,0.6000*%
%ADD62C,1.0000*%
%ADD63C,0.4000*%
%ADD66C,0.6000*%
G36*
X1574938Y1109640D02*
X1039059D01*
Y1645520D01*
X1574938D01*
Y1109640D01*
D02*
G37*
G36*
X1374509Y1037101D02*
X1372160D01*
Y1039800D01*
X1374509D01*
Y1037101D01*
D02*
G37*
G36*
X1400027Y1034776D02*
X1400352Y1034751D01*
X1400702Y1034676D01*
X1401102Y1034601D01*
X1401502Y1034476D01*
X1401902Y1034326D01*
X1401952Y1034301D01*
X1402077Y1034251D01*
X1402252Y1034151D01*
X1402502Y1034001D01*
X1402752Y1033851D01*
X1403002Y1033652D01*
X1403252Y1033401D01*
X1403477Y1033152D01*
X1403502Y1033127D01*
X1403552Y1033027D01*
X1403652Y1032877D01*
X1403777Y1032652D01*
X1403876Y1032402D01*
X1404001Y1032102D01*
X1404102Y1031777D01*
X1404201Y1031402D01*
Y1031377D01*
X1404226Y1031277D01*
X1404251Y1031102D01*
X1404276Y1030877D01*
X1404301Y1030552D01*
X1404326Y1030177D01*
X1404351Y1029703D01*
Y1029128D01*
Y1020580D01*
X1402002D01*
Y1029028D01*
Y1029053D01*
Y1029103D01*
Y1029153D01*
Y1029253D01*
X1401977Y1029528D01*
Y1029827D01*
X1401927Y1030177D01*
X1401877Y1030527D01*
X1401802Y1030852D01*
X1401702Y1031152D01*
Y1031177D01*
X1401652Y1031277D01*
X1401577Y1031402D01*
X1401477Y1031577D01*
X1401352Y1031752D01*
X1401177Y1031952D01*
X1400977Y1032127D01*
X1400727Y1032302D01*
X1400702Y1032327D01*
X1400602Y1032377D01*
X1400452Y1032452D01*
X1400252Y1032527D01*
X1400027Y1032602D01*
X1399753Y1032677D01*
X1399428Y1032727D01*
X1399103Y1032752D01*
X1398953D01*
X1398853Y1032727D01*
X1398553Y1032702D01*
X1398203Y1032627D01*
X1397803Y1032527D01*
X1397353Y1032352D01*
X1396903Y1032102D01*
X1396478Y1031777D01*
X1396428Y1031727D01*
X1396378Y1031677D01*
X1396304Y1031577D01*
X1396228Y1031477D01*
X1396129Y1031327D01*
X1396053Y1031177D01*
X1395954Y1030977D01*
X1395854Y1030727D01*
X1395754Y1030477D01*
X1395654Y1030177D01*
X1395579Y1029852D01*
X1395504Y1029477D01*
X1395454Y1029078D01*
X1395429Y1028628D01*
X1395404Y1028153D01*
Y1020580D01*
X1393054D01*
Y1034501D01*
X1395179D01*
Y1032502D01*
X1395204Y1032527D01*
X1395254Y1032602D01*
X1395329Y1032727D01*
X1395454Y1032852D01*
X1395629Y1033027D01*
X1395804Y1033227D01*
X1396028Y1033427D01*
X1396304Y1033652D01*
X1396603Y1033876D01*
X1396928Y1034076D01*
X1397278Y1034276D01*
X1397678Y1034451D01*
X1398103Y1034601D01*
X1398553Y1034701D01*
X1399053Y1034776D01*
X1399578Y1034801D01*
X1399803D01*
X1400027Y1034776D01*
D02*
G37*
G36*
X1355339Y1034751D02*
X1355639Y1034701D01*
X1356014Y1034601D01*
X1356439Y1034476D01*
X1356864Y1034276D01*
X1357338Y1034026D01*
X1356514Y1031852D01*
X1356464Y1031877D01*
X1356364Y1031927D01*
X1356189Y1032002D01*
X1355964Y1032102D01*
X1355714Y1032202D01*
X1355414Y1032277D01*
X1355089Y1032327D01*
X1354764Y1032352D01*
X1354639D01*
X1354489Y1032327D01*
X1354289Y1032302D01*
X1354089Y1032227D01*
X1353839Y1032152D01*
X1353614Y1032027D01*
X1353365Y1031877D01*
X1353340Y1031852D01*
X1353264Y1031802D01*
X1353165Y1031677D01*
X1353040Y1031527D01*
X1352890Y1031352D01*
X1352740Y1031127D01*
X1352615Y1030877D01*
X1352490Y1030577D01*
Y1030552D01*
X1352465Y1030527D01*
Y1030452D01*
X1352440Y1030352D01*
X1352365Y1030102D01*
X1352315Y1029778D01*
X1352240Y1029353D01*
X1352165Y1028903D01*
X1352140Y1028378D01*
X1352115Y1027828D01*
Y1020580D01*
X1349765D01*
Y1034501D01*
X1351890D01*
Y1032377D01*
X1351915Y1032427D01*
X1351965Y1032502D01*
X1352015Y1032602D01*
X1352190Y1032852D01*
X1352365Y1033152D01*
X1352590Y1033502D01*
X1352840Y1033826D01*
X1353114Y1034101D01*
X1353365Y1034326D01*
X1353389Y1034351D01*
X1353489Y1034401D01*
X1353639Y1034476D01*
X1353814Y1034576D01*
X1354039Y1034651D01*
X1354314Y1034726D01*
X1354589Y1034776D01*
X1354889Y1034801D01*
X1355089D01*
X1355339Y1034751D01*
D02*
G37*
G36*
X1212075D02*
X1212375Y1034701D01*
X1212750Y1034601D01*
X1213175Y1034476D01*
X1213600Y1034276D01*
X1214074Y1034026D01*
X1213250Y1031852D01*
X1213200Y1031877D01*
X1213100Y1031927D01*
X1212925Y1032002D01*
X1212700Y1032102D01*
X1212450Y1032202D01*
X1212150Y1032277D01*
X1211825Y1032327D01*
X1211500Y1032352D01*
X1211375D01*
X1211225Y1032327D01*
X1211025Y1032302D01*
X1210825Y1032227D01*
X1210575Y1032152D01*
X1210350Y1032027D01*
X1210100Y1031877D01*
X1210076Y1031852D01*
X1210001Y1031802D01*
X1209901Y1031677D01*
X1209776Y1031527D01*
X1209626Y1031352D01*
X1209476Y1031127D01*
X1209351Y1030877D01*
X1209226Y1030577D01*
Y1030552D01*
X1209201Y1030527D01*
Y1030452D01*
X1209176Y1030352D01*
X1209101Y1030102D01*
X1209051Y1029778D01*
X1208976Y1029353D01*
X1208901Y1028903D01*
X1208876Y1028378D01*
X1208851Y1027828D01*
Y1020580D01*
X1206501D01*
Y1034501D01*
X1208626D01*
Y1032377D01*
X1208651Y1032427D01*
X1208701Y1032502D01*
X1208751Y1032602D01*
X1208926Y1032852D01*
X1209101Y1033152D01*
X1209326Y1033502D01*
X1209576Y1033826D01*
X1209851Y1034101D01*
X1210100Y1034326D01*
X1210126Y1034351D01*
X1210226Y1034401D01*
X1210376Y1034476D01*
X1210550Y1034576D01*
X1210775Y1034651D01*
X1211050Y1034726D01*
X1211325Y1034776D01*
X1211625Y1034801D01*
X1211825D01*
X1212075Y1034751D01*
D02*
G37*
G36*
X1218823Y1031802D02*
X1216124D01*
Y1034501D01*
X1218823D01*
Y1031802D01*
D02*
G37*
G36*
X1363737Y1034776D02*
X1363887D01*
X1364287Y1034751D01*
X1364711Y1034676D01*
X1365211Y1034601D01*
X1365686Y1034476D01*
X1366161Y1034326D01*
X1366186D01*
X1366211Y1034301D01*
X1366361Y1034251D01*
X1366586Y1034126D01*
X1366861Y1033976D01*
X1367161Y1033801D01*
X1367461Y1033577D01*
X1367761Y1033327D01*
X1368011Y1033027D01*
X1368036Y1033002D01*
X1368111Y1032877D01*
X1368211Y1032702D01*
X1368336Y1032452D01*
X1368486Y1032152D01*
X1368611Y1031802D01*
X1368736Y1031377D01*
X1368835Y1030902D01*
X1366536Y1030577D01*
Y1030627D01*
X1366486Y1030752D01*
X1366436Y1030952D01*
X1366361Y1031177D01*
X1366236Y1031452D01*
X1366061Y1031727D01*
X1365861Y1031977D01*
X1365611Y1032227D01*
X1365586Y1032252D01*
X1365461Y1032327D01*
X1365311Y1032427D01*
X1365061Y1032552D01*
X1364762Y1032652D01*
X1364387Y1032752D01*
X1363962Y1032827D01*
X1363462Y1032852D01*
X1363187D01*
X1362912Y1032827D01*
X1362562Y1032777D01*
X1362187Y1032727D01*
X1361787Y1032627D01*
X1361437Y1032477D01*
X1361138Y1032302D01*
X1361113Y1032277D01*
X1361037Y1032202D01*
X1360912Y1032102D01*
X1360813Y1031952D01*
X1360688Y1031777D01*
X1360563Y1031552D01*
X1360488Y1031327D01*
X1360463Y1031052D01*
Y1031027D01*
Y1030977D01*
X1360488Y1030902D01*
Y1030777D01*
X1360588Y1030527D01*
X1360638Y1030377D01*
X1360738Y1030227D01*
X1360763Y1030202D01*
X1360788Y1030177D01*
X1360862Y1030102D01*
X1360963Y1030002D01*
X1361087Y1029902D01*
X1361237Y1029802D01*
X1361437Y1029703D01*
X1361637Y1029603D01*
X1361662D01*
X1361712Y1029577D01*
X1361837Y1029528D01*
X1362037Y1029477D01*
X1362312Y1029403D01*
X1362487Y1029353D01*
X1362687Y1029303D01*
X1362912Y1029228D01*
X1363162Y1029178D01*
X1363437Y1029078D01*
X1363737Y1029003D01*
X1363762D01*
X1363837Y1028978D01*
X1363987Y1028953D01*
X1364137Y1028903D01*
X1364337Y1028828D01*
X1364587Y1028778D01*
X1365111Y1028628D01*
X1365686Y1028453D01*
X1366261Y1028278D01*
X1366786Y1028103D01*
X1367011Y1028003D01*
X1367211Y1027928D01*
X1367261Y1027903D01*
X1367386Y1027853D01*
X1367561Y1027753D01*
X1367786Y1027603D01*
X1368036Y1027428D01*
X1368286Y1027228D01*
X1368561Y1026978D01*
X1368786Y1026678D01*
X1368810Y1026653D01*
X1368885Y1026528D01*
X1368961Y1026353D01*
X1369085Y1026128D01*
X1369185Y1025828D01*
X1369260Y1025504D01*
X1369335Y1025104D01*
X1369360Y1024679D01*
Y1024654D01*
Y1024629D01*
Y1024479D01*
X1369335Y1024254D01*
X1369285Y1023954D01*
X1369185Y1023604D01*
X1369060Y1023229D01*
X1368885Y1022829D01*
X1368660Y1022429D01*
X1368636Y1022379D01*
X1368536Y1022254D01*
X1368361Y1022079D01*
X1368161Y1021854D01*
X1367861Y1021580D01*
X1367511Y1021330D01*
X1367111Y1021055D01*
X1366661Y1020830D01*
X1366636D01*
X1366611Y1020805D01*
X1366536Y1020780D01*
X1366436Y1020755D01*
X1366161Y1020655D01*
X1365811Y1020555D01*
X1365386Y1020455D01*
X1364886Y1020355D01*
X1364337Y1020305D01*
X1363737Y1020280D01*
X1363487D01*
X1363287Y1020305D01*
X1363062D01*
X1362812Y1020330D01*
X1362512Y1020380D01*
X1362187Y1020430D01*
X1361537Y1020555D01*
X1360838Y1020755D01*
X1360188Y1021030D01*
X1359863Y1021180D01*
X1359588Y1021380D01*
X1359563Y1021405D01*
X1359538Y1021430D01*
X1359463Y1021505D01*
X1359363Y1021580D01*
X1359238Y1021704D01*
X1359113Y1021854D01*
X1358988Y1022029D01*
X1358838Y1022229D01*
X1358688Y1022454D01*
X1358513Y1022704D01*
X1358363Y1022979D01*
X1358238Y1023279D01*
X1358088Y1023604D01*
X1357963Y1023954D01*
X1357863Y1024329D01*
X1357788Y1024729D01*
X1360113Y1025104D01*
Y1025079D01*
Y1025054D01*
X1360138Y1024979D01*
X1360163Y1024879D01*
X1360213Y1024629D01*
X1360313Y1024304D01*
X1360463Y1023954D01*
X1360638Y1023604D01*
X1360887Y1023254D01*
X1361187Y1022954D01*
X1361237Y1022929D01*
X1361362Y1022854D01*
X1361562Y1022729D01*
X1361837Y1022604D01*
X1362212Y1022454D01*
X1362637Y1022354D01*
X1363137Y1022254D01*
X1363712Y1022229D01*
X1363987D01*
X1364262Y1022254D01*
X1364637Y1022304D01*
X1365011Y1022379D01*
X1365411Y1022504D01*
X1365811Y1022654D01*
X1366136Y1022879D01*
X1366161Y1022904D01*
X1366261Y1023004D01*
X1366386Y1023129D01*
X1366536Y1023329D01*
X1366686Y1023554D01*
X1366811Y1023804D01*
X1366911Y1024104D01*
X1366936Y1024429D01*
Y1024454D01*
Y1024554D01*
X1366911Y1024704D01*
X1366861Y1024879D01*
X1366761Y1025079D01*
X1366636Y1025279D01*
X1366461Y1025479D01*
X1366236Y1025678D01*
X1366211Y1025704D01*
X1366136Y1025729D01*
X1365986Y1025804D01*
X1365736Y1025879D01*
X1365586Y1025953D01*
X1365436Y1026003D01*
X1365236Y1026053D01*
X1365011Y1026128D01*
X1364762Y1026203D01*
X1364462Y1026278D01*
X1364162Y1026378D01*
X1363812Y1026453D01*
X1363787D01*
X1363687Y1026478D01*
X1363562Y1026528D01*
X1363387Y1026578D01*
X1363187Y1026628D01*
X1362937Y1026703D01*
X1362387Y1026853D01*
X1361787Y1027028D01*
X1361187Y1027228D01*
X1360912Y1027328D01*
X1360663Y1027428D01*
X1360413Y1027503D01*
X1360213Y1027603D01*
X1360163Y1027628D01*
X1360038Y1027703D01*
X1359863Y1027803D01*
X1359638Y1027953D01*
X1359413Y1028128D01*
X1359138Y1028353D01*
X1358913Y1028603D01*
X1358688Y1028903D01*
X1358663Y1028953D01*
X1358613Y1029053D01*
X1358538Y1029228D01*
X1358438Y1029453D01*
X1358338Y1029727D01*
X1358263Y1030052D01*
X1358213Y1030402D01*
X1358188Y1030777D01*
Y1030827D01*
Y1030927D01*
X1358213Y1031102D01*
X1358238Y1031352D01*
X1358288Y1031602D01*
X1358363Y1031902D01*
X1358463Y1032202D01*
X1358613Y1032502D01*
X1358638Y1032527D01*
X1358688Y1032627D01*
X1358788Y1032777D01*
X1358913Y1032977D01*
X1359088Y1033177D01*
X1359288Y1033401D01*
X1359513Y1033626D01*
X1359763Y1033826D01*
X1359788Y1033851D01*
X1359863Y1033901D01*
X1359988Y1033976D01*
X1360163Y1034051D01*
X1360363Y1034176D01*
X1360638Y1034276D01*
X1360938Y1034401D01*
X1361262Y1034501D01*
X1361312Y1034526D01*
X1361437Y1034551D01*
X1361612Y1034601D01*
X1361887Y1034651D01*
X1362187Y1034701D01*
X1362537Y1034751D01*
X1362912Y1034801D01*
X1363587D01*
X1363737Y1034776D01*
D02*
G37*
G36*
X1184507Y1026353D02*
X1177259D01*
Y1028728D01*
X1184507D01*
Y1026353D01*
D02*
G37*
G36*
X1202552Y1020580D02*
X1199928D01*
X1189856Y1035651D01*
Y1020580D01*
X1187406D01*
Y1039800D01*
X1190006D01*
X1200103Y1024704D01*
Y1039800D01*
X1202552D01*
Y1020580D01*
D02*
G37*
G36*
X1325397D02*
X1322747D01*
X1315299Y1039800D01*
X1318073D01*
X1323072Y1025828D01*
Y1025804D01*
X1323097Y1025753D01*
X1323122Y1025654D01*
X1323172Y1025554D01*
X1323222Y1025404D01*
X1323272Y1025229D01*
X1323422Y1024804D01*
X1323572Y1024329D01*
X1323747Y1023804D01*
X1323922Y1023229D01*
X1324072Y1022679D01*
Y1022704D01*
X1324097Y1022754D01*
X1324122Y1022829D01*
X1324147Y1022954D01*
X1324197Y1023104D01*
X1324247Y1023254D01*
X1324372Y1023654D01*
X1324522Y1024129D01*
X1324697Y1024679D01*
X1324897Y1025254D01*
X1325122Y1025828D01*
X1330320Y1039800D01*
X1332895D01*
X1325397Y1020580D01*
D02*
G37*
G36*
X1433719D02*
X1431020D01*
Y1023279D01*
X1433719D01*
Y1020580D01*
D02*
G37*
G36*
X1421547Y1039850D02*
X1421797Y1039825D01*
X1422072Y1039800D01*
X1422372Y1039750D01*
X1422697Y1039675D01*
X1423396Y1039500D01*
X1423746Y1039375D01*
X1424121Y1039225D01*
X1424496Y1039050D01*
X1424846Y1038825D01*
X1425171Y1038600D01*
X1425496Y1038325D01*
X1425521Y1038300D01*
X1425571Y1038250D01*
X1425646Y1038175D01*
X1425746Y1038050D01*
X1425871Y1037900D01*
X1426021Y1037725D01*
X1426146Y1037525D01*
X1426321Y1037275D01*
X1426471Y1037026D01*
X1426596Y1036726D01*
X1426871Y1036076D01*
X1426971Y1035726D01*
X1427046Y1035351D01*
X1427096Y1034951D01*
X1427121Y1034526D01*
Y1034476D01*
Y1034326D01*
X1427096Y1034101D01*
X1427071Y1033801D01*
X1426996Y1033476D01*
X1426921Y1033077D01*
X1426796Y1032677D01*
X1426646Y1032252D01*
X1426621Y1032202D01*
X1426546Y1032052D01*
X1426446Y1031827D01*
X1426271Y1031552D01*
X1426046Y1031202D01*
X1425771Y1030802D01*
X1425446Y1030352D01*
X1425071Y1029902D01*
Y1029877D01*
X1425021Y1029852D01*
X1424946Y1029778D01*
X1424871Y1029678D01*
X1424746Y1029553D01*
X1424596Y1029403D01*
X1424421Y1029228D01*
X1424196Y1029028D01*
X1423971Y1028803D01*
X1423696Y1028553D01*
X1423396Y1028253D01*
X1423072Y1027953D01*
X1422697Y1027628D01*
X1422322Y1027303D01*
X1421872Y1026928D01*
X1421422Y1026528D01*
X1421397Y1026503D01*
X1421322Y1026453D01*
X1421222Y1026353D01*
X1421072Y1026253D01*
X1420922Y1026103D01*
X1420722Y1025928D01*
X1420297Y1025554D01*
X1419822Y1025154D01*
X1419373Y1024754D01*
X1419173Y1024579D01*
X1418998Y1024404D01*
X1418823Y1024229D01*
X1418698Y1024104D01*
X1418673Y1024079D01*
X1418598Y1024004D01*
X1418498Y1023879D01*
X1418348Y1023704D01*
X1418198Y1023529D01*
X1418023Y1023304D01*
X1417698Y1022854D01*
X1427146D01*
Y1020580D01*
X1414424D01*
Y1020630D01*
Y1020730D01*
Y1020880D01*
X1414449Y1021105D01*
X1414474Y1021355D01*
X1414524Y1021630D01*
X1414599Y1021905D01*
X1414699Y1022204D01*
Y1022229D01*
X1414724Y1022254D01*
X1414749Y1022329D01*
X1414799Y1022429D01*
X1414899Y1022679D01*
X1415074Y1023004D01*
X1415299Y1023404D01*
X1415549Y1023829D01*
X1415873Y1024279D01*
X1416248Y1024754D01*
X1416273Y1024779D01*
X1416298Y1024804D01*
X1416373Y1024879D01*
X1416448Y1024979D01*
X1416698Y1025254D01*
X1417048Y1025603D01*
X1417473Y1026028D01*
X1417998Y1026528D01*
X1418623Y1027078D01*
X1419348Y1027678D01*
X1419373Y1027703D01*
X1419473Y1027803D01*
X1419648Y1027928D01*
X1419847Y1028103D01*
X1420097Y1028328D01*
X1420397Y1028578D01*
X1420722Y1028853D01*
X1421047Y1029153D01*
X1421747Y1029802D01*
X1422447Y1030477D01*
X1422772Y1030827D01*
X1423072Y1031152D01*
X1423347Y1031452D01*
X1423571Y1031752D01*
X1423596Y1031777D01*
X1423622Y1031827D01*
X1423671Y1031902D01*
X1423746Y1032002D01*
X1423821Y1032152D01*
X1423921Y1032302D01*
X1424146Y1032677D01*
X1424346Y1033102D01*
X1424521Y1033577D01*
X1424646Y1034101D01*
X1424696Y1034351D01*
Y1034601D01*
Y1034626D01*
Y1034676D01*
Y1034726D01*
X1424671Y1034826D01*
X1424646Y1035101D01*
X1424571Y1035426D01*
X1424446Y1035801D01*
X1424271Y1036176D01*
X1424021Y1036576D01*
X1423671Y1036951D01*
X1423622Y1037001D01*
X1423497Y1037101D01*
X1423272Y1037251D01*
X1422972Y1037450D01*
X1422597Y1037626D01*
X1422147Y1037775D01*
X1421622Y1037875D01*
X1421047Y1037925D01*
X1420872D01*
X1420772Y1037900D01*
X1420622D01*
X1420447Y1037875D01*
X1420072Y1037800D01*
X1419648Y1037675D01*
X1419173Y1037501D01*
X1418723Y1037251D01*
X1418323Y1036901D01*
X1418273Y1036851D01*
X1418173Y1036726D01*
X1417998Y1036476D01*
X1417823Y1036176D01*
X1417623Y1035751D01*
X1417448Y1035276D01*
X1417348Y1034726D01*
X1417298Y1034076D01*
X1414874Y1034326D01*
Y1034351D01*
X1414899Y1034451D01*
Y1034576D01*
X1414924Y1034776D01*
X1414974Y1035001D01*
X1415024Y1035251D01*
X1415099Y1035551D01*
X1415199Y1035851D01*
X1415424Y1036526D01*
X1415573Y1036876D01*
X1415748Y1037201D01*
X1415948Y1037551D01*
X1416173Y1037875D01*
X1416423Y1038175D01*
X1416723Y1038450D01*
X1416748Y1038475D01*
X1416798Y1038500D01*
X1416898Y1038575D01*
X1417023Y1038675D01*
X1417198Y1038775D01*
X1417398Y1038900D01*
X1417623Y1039025D01*
X1417898Y1039175D01*
X1418198Y1039300D01*
X1418523Y1039425D01*
X1418873Y1039550D01*
X1419273Y1039650D01*
X1419673Y1039750D01*
X1420122Y1039825D01*
X1420597Y1039850D01*
X1421097Y1039875D01*
X1421372D01*
X1421547Y1039850D01*
D02*
G37*
G36*
X1374509Y1020580D02*
X1372160D01*
Y1034501D01*
X1374509D01*
Y1020580D01*
D02*
G37*
G36*
X1301103Y1034776D02*
X1301503Y1034751D01*
X1301953Y1034701D01*
X1302453Y1034626D01*
X1302902Y1034526D01*
X1303352Y1034376D01*
X1303377D01*
X1303402Y1034351D01*
X1303527Y1034301D01*
X1303727Y1034201D01*
X1303977Y1034076D01*
X1304252Y1033926D01*
X1304527Y1033752D01*
X1304777Y1033527D01*
X1305002Y1033302D01*
X1305027Y1033277D01*
X1305077Y1033202D01*
X1305177Y1033052D01*
X1305302Y1032877D01*
X1305427Y1032652D01*
X1305552Y1032377D01*
X1305652Y1032077D01*
X1305752Y1031727D01*
Y1031702D01*
X1305777Y1031602D01*
X1305802Y1031452D01*
X1305827Y1031227D01*
Y1030927D01*
X1305852Y1030552D01*
X1305877Y1030102D01*
Y1029553D01*
Y1026403D01*
Y1026378D01*
Y1026253D01*
Y1026103D01*
Y1025879D01*
Y1025629D01*
Y1025329D01*
Y1025004D01*
X1305902Y1024654D01*
Y1023954D01*
X1305927Y1023279D01*
X1305952Y1022954D01*
Y1022679D01*
X1305977Y1022454D01*
X1306002Y1022254D01*
Y1022204D01*
X1306027Y1022104D01*
X1306077Y1021929D01*
X1306127Y1021730D01*
X1306227Y1021455D01*
X1306326Y1021180D01*
X1306452Y1020880D01*
X1306601Y1020580D01*
X1304127D01*
X1304102Y1020605D01*
X1304077Y1020705D01*
X1304002Y1020855D01*
X1303952Y1021080D01*
X1303852Y1021330D01*
X1303802Y1021630D01*
X1303727Y1021954D01*
X1303677Y1022329D01*
X1303652D01*
X1303627Y1022279D01*
X1303552Y1022229D01*
X1303452Y1022154D01*
X1303202Y1021954D01*
X1302852Y1021704D01*
X1302478Y1021455D01*
X1302053Y1021180D01*
X1301578Y1020930D01*
X1301128Y1020730D01*
X1301103D01*
X1301078Y1020705D01*
X1301003Y1020680D01*
X1300928Y1020655D01*
X1300678Y1020580D01*
X1300353Y1020505D01*
X1299978Y1020430D01*
X1299528Y1020355D01*
X1299053Y1020305D01*
X1298553Y1020280D01*
X1298329D01*
X1298179Y1020305D01*
X1297979D01*
X1297754Y1020330D01*
X1297254Y1020430D01*
X1296679Y1020555D01*
X1296104Y1020755D01*
X1295529Y1021030D01*
X1295279Y1021180D01*
X1295029Y1021380D01*
X1295004Y1021405D01*
X1294979Y1021430D01*
X1294829Y1021580D01*
X1294655Y1021830D01*
X1294429Y1022154D01*
X1294205Y1022579D01*
X1294005Y1023054D01*
X1293855Y1023604D01*
X1293830Y1023904D01*
X1293805Y1024229D01*
Y1024279D01*
Y1024404D01*
X1293830Y1024604D01*
X1293855Y1024854D01*
X1293905Y1025129D01*
X1294005Y1025454D01*
X1294105Y1025779D01*
X1294255Y1026103D01*
X1294280Y1026153D01*
X1294330Y1026253D01*
X1294454Y1026403D01*
X1294579Y1026603D01*
X1294754Y1026803D01*
X1294979Y1027028D01*
X1295204Y1027253D01*
X1295479Y1027453D01*
X1295504Y1027478D01*
X1295604Y1027528D01*
X1295779Y1027628D01*
X1295979Y1027753D01*
X1296229Y1027878D01*
X1296504Y1028003D01*
X1296829Y1028128D01*
X1297179Y1028228D01*
X1297204D01*
X1297304Y1028253D01*
X1297479Y1028303D01*
X1297704Y1028328D01*
X1298004Y1028403D01*
X1298353Y1028453D01*
X1298778Y1028503D01*
X1299278Y1028578D01*
X1299303D01*
X1299403Y1028603D01*
X1299553D01*
X1299753Y1028653D01*
X1299978Y1028678D01*
X1300253Y1028703D01*
X1300553Y1028753D01*
X1300878Y1028803D01*
X1301553Y1028928D01*
X1302253Y1029078D01*
X1302902Y1029228D01*
X1303202Y1029328D01*
X1303477Y1029403D01*
Y1029428D01*
Y1029477D01*
Y1029553D01*
X1303502Y1029652D01*
Y1029852D01*
Y1029952D01*
Y1030002D01*
Y1030027D01*
Y1030077D01*
Y1030152D01*
Y1030227D01*
X1303477Y1030502D01*
X1303427Y1030802D01*
X1303327Y1031152D01*
X1303227Y1031477D01*
X1303052Y1031802D01*
X1302827Y1032052D01*
X1302777Y1032077D01*
X1302652Y1032177D01*
X1302453Y1032302D01*
X1302153Y1032452D01*
X1301753Y1032602D01*
X1301303Y1032727D01*
X1300753Y1032827D01*
X1300128Y1032852D01*
X1299853D01*
X1299553Y1032827D01*
X1299203Y1032777D01*
X1298778Y1032702D01*
X1298378Y1032602D01*
X1297979Y1032452D01*
X1297654Y1032252D01*
X1297629Y1032227D01*
X1297529Y1032152D01*
X1297379Y1032002D01*
X1297229Y1031777D01*
X1297029Y1031502D01*
X1296854Y1031152D01*
X1296654Y1030702D01*
X1296504Y1030202D01*
X1294205Y1030527D01*
Y1030552D01*
X1294230Y1030602D01*
Y1030677D01*
X1294255Y1030777D01*
X1294330Y1031052D01*
X1294454Y1031377D01*
X1294579Y1031752D01*
X1294754Y1032152D01*
X1294979Y1032552D01*
X1295229Y1032902D01*
X1295254Y1032952D01*
X1295354Y1033052D01*
X1295529Y1033202D01*
X1295754Y1033427D01*
X1296054Y1033652D01*
X1296404Y1033876D01*
X1296829Y1034101D01*
X1297304Y1034301D01*
X1297329D01*
X1297379Y1034326D01*
X1297454Y1034351D01*
X1297554Y1034376D01*
X1297679Y1034426D01*
X1297829Y1034451D01*
X1298229Y1034551D01*
X1298678Y1034651D01*
X1299228Y1034726D01*
X1299828Y1034776D01*
X1300478Y1034801D01*
X1300928D01*
X1301103Y1034776D01*
D02*
G37*
G36*
X1284707Y1039775D02*
X1284932D01*
X1285207Y1039750D01*
X1285507Y1039725D01*
X1286132Y1039675D01*
X1286781Y1039575D01*
X1287406Y1039450D01*
X1287706Y1039375D01*
X1287956Y1039275D01*
X1287981D01*
X1288006Y1039250D01*
X1288081Y1039225D01*
X1288181Y1039175D01*
X1288431Y1039050D01*
X1288731Y1038850D01*
X1289081Y1038600D01*
X1289431Y1038275D01*
X1289781Y1037875D01*
X1290106Y1037426D01*
Y1037401D01*
X1290131Y1037375D01*
X1290181Y1037300D01*
X1290231Y1037201D01*
X1290356Y1036926D01*
X1290506Y1036576D01*
X1290656Y1036151D01*
X1290780Y1035651D01*
X1290880Y1035101D01*
X1290905Y1034526D01*
Y1034501D01*
Y1034426D01*
Y1034326D01*
X1290880Y1034176D01*
X1290856Y1034001D01*
X1290831Y1033801D01*
X1290730Y1033327D01*
X1290580Y1032777D01*
X1290356Y1032202D01*
X1290206Y1031927D01*
X1290031Y1031627D01*
X1289806Y1031352D01*
X1289581Y1031077D01*
X1289556Y1031052D01*
X1289531Y1031027D01*
X1289431Y1030952D01*
X1289331Y1030852D01*
X1289181Y1030752D01*
X1289006Y1030627D01*
X1288806Y1030477D01*
X1288581Y1030327D01*
X1288306Y1030177D01*
X1288006Y1030027D01*
X1287656Y1029877D01*
X1287281Y1029727D01*
X1286882Y1029603D01*
X1286457Y1029477D01*
X1285982Y1029378D01*
X1285482Y1029303D01*
X1285532Y1029278D01*
X1285657Y1029228D01*
X1285832Y1029128D01*
X1286057Y1029003D01*
X1286557Y1028678D01*
X1286781Y1028503D01*
X1287006Y1028328D01*
X1287031D01*
X1287056Y1028278D01*
X1287206Y1028153D01*
X1287406Y1027928D01*
X1287706Y1027628D01*
X1288031Y1027278D01*
X1288381Y1026828D01*
X1288756Y1026328D01*
X1289131Y1025779D01*
X1292455Y1020580D01*
X1289256D01*
X1286732Y1024554D01*
Y1024579D01*
X1286682Y1024629D01*
X1286631Y1024729D01*
X1286557Y1024829D01*
X1286457Y1024979D01*
X1286332Y1025154D01*
X1286082Y1025529D01*
X1285782Y1025953D01*
X1285482Y1026378D01*
X1285182Y1026803D01*
X1284882Y1027178D01*
X1284857Y1027228D01*
X1284757Y1027328D01*
X1284632Y1027503D01*
X1284457Y1027678D01*
X1284257Y1027903D01*
X1284032Y1028128D01*
X1283807Y1028303D01*
X1283582Y1028478D01*
X1283557Y1028503D01*
X1283482Y1028528D01*
X1283382Y1028603D01*
X1283232Y1028678D01*
X1283058Y1028778D01*
X1282858Y1028853D01*
X1282433Y1029003D01*
X1282408D01*
X1282358Y1029028D01*
X1282258D01*
X1282108Y1029053D01*
X1281908Y1029078D01*
X1281658D01*
X1281383Y1029103D01*
X1278084D01*
Y1020580D01*
X1275534D01*
Y1039800D01*
X1284482D01*
X1284707Y1039775D01*
D02*
G37*
G36*
X1248116Y1022854D02*
X1257564D01*
Y1020580D01*
X1245567D01*
Y1039800D01*
X1248116D01*
Y1022854D01*
D02*
G37*
G36*
X1218823Y1020580D02*
X1216124D01*
Y1023279D01*
X1218823D01*
Y1020580D01*
D02*
G37*
G36*
X1168911Y1039775D02*
X1169361Y1039750D01*
X1169861Y1039725D01*
X1170336Y1039675D01*
X1170736Y1039600D01*
X1170811D01*
X1170861Y1039575D01*
X1170960Y1039550D01*
X1171236Y1039500D01*
X1171560Y1039400D01*
X1171935Y1039275D01*
X1172310Y1039125D01*
X1172710Y1038925D01*
X1173085Y1038700D01*
X1173135Y1038675D01*
X1173235Y1038575D01*
X1173435Y1038425D01*
X1173635Y1038225D01*
X1173885Y1037975D01*
X1174160Y1037651D01*
X1174410Y1037275D01*
X1174635Y1036851D01*
Y1036826D01*
X1174660Y1036801D01*
X1174685Y1036726D01*
X1174735Y1036651D01*
X1174835Y1036401D01*
X1174934Y1036076D01*
X1175034Y1035676D01*
X1175135Y1035226D01*
X1175210Y1034751D01*
X1175235Y1034226D01*
Y1034201D01*
Y1034126D01*
Y1034001D01*
X1175210Y1033826D01*
X1175184Y1033602D01*
X1175160Y1033352D01*
X1175109Y1033077D01*
X1175034Y1032802D01*
X1174860Y1032127D01*
X1174735Y1031802D01*
X1174560Y1031452D01*
X1174385Y1031102D01*
X1174185Y1030752D01*
X1173935Y1030402D01*
X1173660Y1030077D01*
X1173635Y1030052D01*
X1173585Y1030002D01*
X1173485Y1029927D01*
X1173360Y1029802D01*
X1173185Y1029678D01*
X1172960Y1029553D01*
X1172685Y1029378D01*
X1172385Y1029228D01*
X1172010Y1029078D01*
X1171610Y1028928D01*
X1171135Y1028778D01*
X1170636Y1028653D01*
X1170061Y1028528D01*
X1169436Y1028453D01*
X1168761Y1028403D01*
X1168036Y1028378D01*
X1163138D01*
Y1020580D01*
X1160588D01*
Y1039800D01*
X1168486D01*
X1168911Y1039775D01*
D02*
G37*
G36*
X1148116Y1022854D02*
X1157564D01*
Y1020580D01*
X1145567D01*
Y1039800D01*
X1148116D01*
Y1022854D01*
D02*
G37*
G36*
X1384232Y1034776D02*
X1384482Y1034751D01*
X1384756Y1034701D01*
X1385081Y1034651D01*
X1385431Y1034576D01*
X1385781Y1034476D01*
X1386156Y1034326D01*
X1386556Y1034176D01*
X1386956Y1034001D01*
X1387356Y1033776D01*
X1387731Y1033527D01*
X1388106Y1033227D01*
X1388456Y1032902D01*
X1388481Y1032877D01*
X1388530Y1032827D01*
X1388630Y1032702D01*
X1388730Y1032552D01*
X1388880Y1032377D01*
X1389030Y1032127D01*
X1389205Y1031852D01*
X1389380Y1031552D01*
X1389530Y1031202D01*
X1389705Y1030827D01*
X1389855Y1030402D01*
X1390005Y1029927D01*
X1390105Y1029428D01*
X1390205Y1028903D01*
X1390255Y1028328D01*
X1390280Y1027728D01*
Y1027703D01*
Y1027603D01*
Y1027478D01*
Y1027278D01*
X1390255Y1027053D01*
X1390230Y1026803D01*
X1390205Y1026503D01*
X1390180Y1026203D01*
X1390080Y1025529D01*
X1389930Y1024829D01*
X1389730Y1024129D01*
X1389605Y1023804D01*
X1389455Y1023504D01*
Y1023479D01*
X1389430Y1023429D01*
X1389380Y1023354D01*
X1389305Y1023254D01*
X1389130Y1022979D01*
X1388855Y1022629D01*
X1388530Y1022254D01*
X1388130Y1021854D01*
X1387656Y1021480D01*
X1387106Y1021130D01*
X1387081D01*
X1387031Y1021105D01*
X1386956Y1021055D01*
X1386831Y1021005D01*
X1386706Y1020930D01*
X1386531Y1020855D01*
X1386106Y1020705D01*
X1385631Y1020555D01*
X1385056Y1020405D01*
X1384431Y1020305D01*
X1383757Y1020280D01*
X1383632D01*
X1383482Y1020305D01*
X1383282D01*
X1383032Y1020330D01*
X1382757Y1020380D01*
X1382432Y1020430D01*
X1382082Y1020505D01*
X1381707Y1020605D01*
X1381332Y1020730D01*
X1380957Y1020880D01*
X1380558Y1021055D01*
X1380158Y1021280D01*
X1379783Y1021530D01*
X1379408Y1021805D01*
X1379058Y1022129D01*
X1379033Y1022154D01*
X1378983Y1022229D01*
X1378883Y1022329D01*
X1378783Y1022479D01*
X1378633Y1022679D01*
X1378483Y1022904D01*
X1378333Y1023179D01*
X1378158Y1023504D01*
X1377983Y1023879D01*
X1377833Y1024279D01*
X1377683Y1024704D01*
X1377533Y1025204D01*
X1377433Y1025729D01*
X1377333Y1026278D01*
X1377283Y1026878D01*
X1377258Y1027528D01*
Y1027578D01*
Y1027703D01*
X1377283Y1027903D01*
Y1028153D01*
X1377333Y1028478D01*
X1377383Y1028853D01*
X1377433Y1029253D01*
X1377533Y1029678D01*
X1377633Y1030152D01*
X1377783Y1030627D01*
X1377958Y1031102D01*
X1378158Y1031577D01*
X1378408Y1032027D01*
X1378683Y1032477D01*
X1379008Y1032877D01*
X1379383Y1033252D01*
X1379408Y1033277D01*
X1379458Y1033327D01*
X1379558Y1033401D01*
X1379708Y1033502D01*
X1379883Y1033602D01*
X1380083Y1033752D01*
X1380332Y1033876D01*
X1380607Y1034026D01*
X1380907Y1034176D01*
X1381232Y1034301D01*
X1381607Y1034451D01*
X1381982Y1034551D01*
X1382407Y1034651D01*
X1382832Y1034726D01*
X1383282Y1034776D01*
X1383757Y1034801D01*
X1384032D01*
X1384232Y1034776D01*
D02*
G37*
G36*
X1341018D02*
X1341243Y1034751D01*
X1341517Y1034701D01*
X1341842Y1034651D01*
X1342167Y1034576D01*
X1342517Y1034476D01*
X1342892Y1034326D01*
X1343267Y1034176D01*
X1343642Y1034001D01*
X1344042Y1033776D01*
X1344417Y1033527D01*
X1344767Y1033227D01*
X1345117Y1032902D01*
X1345142Y1032877D01*
X1345191Y1032802D01*
X1345291Y1032702D01*
X1345392Y1032552D01*
X1345517Y1032352D01*
X1345666Y1032127D01*
X1345841Y1031852D01*
X1346016Y1031527D01*
X1346166Y1031152D01*
X1346341Y1030752D01*
X1346491Y1030327D01*
X1346616Y1029852D01*
X1346716Y1029328D01*
X1346816Y1028778D01*
X1346866Y1028178D01*
X1346891Y1027553D01*
Y1027503D01*
Y1027403D01*
Y1027203D01*
X1346866Y1026928D01*
X1336494D01*
Y1026903D01*
Y1026828D01*
X1336519Y1026703D01*
X1336544Y1026553D01*
X1336569Y1026353D01*
X1336594Y1026128D01*
X1336694Y1025629D01*
X1336869Y1025054D01*
X1337094Y1024479D01*
X1337393Y1023929D01*
X1337569Y1023679D01*
X1337768Y1023429D01*
X1337793Y1023404D01*
X1337818Y1023379D01*
X1337893Y1023329D01*
X1337968Y1023254D01*
X1338243Y1023054D01*
X1338568Y1022829D01*
X1338993Y1022604D01*
X1339493Y1022429D01*
X1340068Y1022279D01*
X1340368Y1022254D01*
X1340693Y1022229D01*
X1340918D01*
X1341143Y1022254D01*
X1341467Y1022304D01*
X1341792Y1022404D01*
X1342167Y1022504D01*
X1342542Y1022679D01*
X1342892Y1022904D01*
X1342942Y1022929D01*
X1343042Y1023029D01*
X1343217Y1023204D01*
X1343417Y1023429D01*
X1343642Y1023729D01*
X1343892Y1024129D01*
X1344142Y1024579D01*
X1344342Y1025104D01*
X1346791Y1024779D01*
Y1024754D01*
X1346766Y1024679D01*
X1346741Y1024579D01*
X1346666Y1024429D01*
X1346616Y1024254D01*
X1346516Y1024029D01*
X1346316Y1023554D01*
X1346016Y1023029D01*
X1345641Y1022479D01*
X1345191Y1021929D01*
X1344667Y1021455D01*
X1344642D01*
X1344592Y1021405D01*
X1344517Y1021355D01*
X1344392Y1021280D01*
X1344242Y1021180D01*
X1344042Y1021080D01*
X1343842Y1020980D01*
X1343592Y1020880D01*
X1343317Y1020755D01*
X1343017Y1020655D01*
X1342692Y1020555D01*
X1342342Y1020455D01*
X1341568Y1020330D01*
X1341143Y1020305D01*
X1340693Y1020280D01*
X1340568D01*
X1340393Y1020305D01*
X1340193D01*
X1339943Y1020330D01*
X1339643Y1020380D01*
X1339293Y1020430D01*
X1338943Y1020505D01*
X1338568Y1020605D01*
X1338168Y1020730D01*
X1337768Y1020880D01*
X1337368Y1021080D01*
X1336969Y1021280D01*
X1336569Y1021530D01*
X1336194Y1021830D01*
X1335844Y1022154D01*
X1335819Y1022179D01*
X1335769Y1022254D01*
X1335669Y1022354D01*
X1335569Y1022504D01*
X1335444Y1022704D01*
X1335294Y1022929D01*
X1335119Y1023204D01*
X1334969Y1023504D01*
X1334794Y1023879D01*
X1334619Y1024254D01*
X1334469Y1024704D01*
X1334344Y1025154D01*
X1334244Y1025678D01*
X1334144Y1026203D01*
X1334094Y1026778D01*
X1334069Y1027403D01*
Y1027453D01*
Y1027553D01*
X1334094Y1027753D01*
Y1027978D01*
X1334119Y1028278D01*
X1334169Y1028628D01*
X1334219Y1029003D01*
X1334294Y1029403D01*
X1334394Y1029827D01*
X1334519Y1030277D01*
X1334644Y1030727D01*
X1334819Y1031177D01*
X1335044Y1031627D01*
X1335269Y1032077D01*
X1335544Y1032477D01*
X1335869Y1032852D01*
X1335894Y1032877D01*
X1335944Y1032927D01*
X1336044Y1033027D01*
X1336194Y1033152D01*
X1336369Y1033302D01*
X1336594Y1033476D01*
X1336844Y1033652D01*
X1337119Y1033826D01*
X1337444Y1034001D01*
X1337793Y1034176D01*
X1338193Y1034351D01*
X1338593Y1034501D01*
X1339043Y1034626D01*
X1339518Y1034726D01*
X1340018Y1034776D01*
X1340543Y1034801D01*
X1340818D01*
X1341018Y1034776D01*
D02*
G37*
G36*
X1266387D02*
X1266637Y1034751D01*
X1266912Y1034701D01*
X1267236Y1034651D01*
X1267586Y1034576D01*
X1267936Y1034476D01*
X1268311Y1034326D01*
X1268711Y1034176D01*
X1269111Y1034001D01*
X1269511Y1033776D01*
X1269886Y1033527D01*
X1270261Y1033227D01*
X1270611Y1032902D01*
X1270636Y1032877D01*
X1270686Y1032827D01*
X1270786Y1032702D01*
X1270886Y1032552D01*
X1271036Y1032377D01*
X1271186Y1032127D01*
X1271360Y1031852D01*
X1271535Y1031552D01*
X1271685Y1031202D01*
X1271860Y1030827D01*
X1272010Y1030402D01*
X1272160Y1029927D01*
X1272260Y1029428D01*
X1272360Y1028903D01*
X1272410Y1028328D01*
X1272435Y1027728D01*
Y1027703D01*
Y1027603D01*
Y1027478D01*
Y1027278D01*
X1272410Y1027053D01*
X1272385Y1026803D01*
X1272360Y1026503D01*
X1272335Y1026203D01*
X1272235Y1025529D01*
X1272085Y1024829D01*
X1271885Y1024129D01*
X1271760Y1023804D01*
X1271610Y1023504D01*
Y1023479D01*
X1271585Y1023429D01*
X1271535Y1023354D01*
X1271460Y1023254D01*
X1271285Y1022979D01*
X1271011Y1022629D01*
X1270686Y1022254D01*
X1270286Y1021854D01*
X1269811Y1021480D01*
X1269261Y1021130D01*
X1269236D01*
X1269186Y1021105D01*
X1269111Y1021055D01*
X1268986Y1021005D01*
X1268861Y1020930D01*
X1268686Y1020855D01*
X1268261Y1020705D01*
X1267786Y1020555D01*
X1267212Y1020405D01*
X1266587Y1020305D01*
X1265912Y1020280D01*
X1265787D01*
X1265637Y1020305D01*
X1265437D01*
X1265187Y1020330D01*
X1264912Y1020380D01*
X1264587Y1020430D01*
X1264237Y1020505D01*
X1263862Y1020605D01*
X1263487Y1020730D01*
X1263113Y1020880D01*
X1262713Y1021055D01*
X1262313Y1021280D01*
X1261938Y1021530D01*
X1261563Y1021805D01*
X1261213Y1022129D01*
X1261188Y1022154D01*
X1261138Y1022229D01*
X1261038Y1022329D01*
X1260938Y1022479D01*
X1260788Y1022679D01*
X1260638Y1022904D01*
X1260488Y1023179D01*
X1260313Y1023504D01*
X1260138Y1023879D01*
X1259988Y1024279D01*
X1259838Y1024704D01*
X1259688Y1025204D01*
X1259588Y1025729D01*
X1259489Y1026278D01*
X1259438Y1026878D01*
X1259414Y1027528D01*
Y1027578D01*
Y1027703D01*
X1259438Y1027903D01*
Y1028153D01*
X1259489Y1028478D01*
X1259538Y1028853D01*
X1259588Y1029253D01*
X1259688Y1029678D01*
X1259788Y1030152D01*
X1259938Y1030627D01*
X1260113Y1031102D01*
X1260313Y1031577D01*
X1260563Y1032027D01*
X1260838Y1032477D01*
X1261163Y1032877D01*
X1261538Y1033252D01*
X1261563Y1033277D01*
X1261613Y1033327D01*
X1261713Y1033401D01*
X1261863Y1033502D01*
X1262038Y1033602D01*
X1262238Y1033752D01*
X1262488Y1033876D01*
X1262763Y1034026D01*
X1263063Y1034176D01*
X1263388Y1034301D01*
X1263762Y1034451D01*
X1264137Y1034551D01*
X1264562Y1034651D01*
X1264987Y1034726D01*
X1265437Y1034776D01*
X1265912Y1034801D01*
X1266187D01*
X1266387Y1034776D01*
D02*
G37*
G36*
X1443791Y1039850D02*
X1443941D01*
X1444316Y1039800D01*
X1444741Y1039725D01*
X1445191Y1039600D01*
X1445666Y1039450D01*
X1446116Y1039250D01*
X1446141D01*
X1446166Y1039225D01*
X1446316Y1039125D01*
X1446516Y1039000D01*
X1446790Y1038800D01*
X1447090Y1038525D01*
X1447415Y1038225D01*
X1447740Y1037875D01*
X1448040Y1037450D01*
Y1037426D01*
X1448065Y1037401D01*
X1448115Y1037326D01*
X1448165Y1037251D01*
X1448290Y1037001D01*
X1448465Y1036651D01*
X1448665Y1036226D01*
X1448865Y1035751D01*
X1449040Y1035176D01*
X1449215Y1034576D01*
Y1034551D01*
X1449240Y1034501D01*
X1449265Y1034401D01*
X1449290Y1034276D01*
X1449315Y1034101D01*
X1449365Y1033901D01*
X1449390Y1033652D01*
X1449440Y1033376D01*
X1449490Y1033077D01*
X1449515Y1032727D01*
X1449565Y1032377D01*
X1449590Y1031952D01*
X1449615Y1031527D01*
X1449640Y1031077D01*
X1449665Y1030577D01*
Y1030052D01*
Y1030002D01*
Y1029902D01*
Y1029727D01*
Y1029477D01*
X1449640Y1029203D01*
Y1028878D01*
X1449615Y1028503D01*
X1449590Y1028103D01*
X1449490Y1027228D01*
X1449365Y1026303D01*
X1449190Y1025404D01*
X1449090Y1024979D01*
X1448965Y1024579D01*
Y1024554D01*
X1448940Y1024479D01*
X1448890Y1024379D01*
X1448840Y1024229D01*
X1448765Y1024054D01*
X1448665Y1023854D01*
X1448440Y1023404D01*
X1448140Y1022879D01*
X1447790Y1022354D01*
X1447365Y1021830D01*
X1446866Y1021380D01*
X1446841D01*
X1446815Y1021330D01*
X1446716Y1021280D01*
X1446616Y1021205D01*
X1446491Y1021130D01*
X1446316Y1021030D01*
X1446141Y1020930D01*
X1445916Y1020830D01*
X1445416Y1020605D01*
X1444816Y1020430D01*
X1444141Y1020305D01*
X1443766Y1020280D01*
X1443391Y1020255D01*
X1443266D01*
X1443116Y1020280D01*
X1442941D01*
X1442692Y1020305D01*
X1442442Y1020355D01*
X1442142Y1020430D01*
X1441817Y1020505D01*
X1441467Y1020605D01*
X1441117Y1020730D01*
X1440742Y1020905D01*
X1440367Y1021080D01*
X1440017Y1021305D01*
X1439667Y1021580D01*
X1439342Y1021880D01*
X1439017Y1022229D01*
X1438992Y1022254D01*
X1438943Y1022354D01*
X1438843Y1022479D01*
X1438718Y1022679D01*
X1438593Y1022954D01*
X1438418Y1023279D01*
X1438268Y1023654D01*
X1438093Y1024104D01*
X1437918Y1024629D01*
X1437743Y1025204D01*
X1437568Y1025828D01*
X1437443Y1026553D01*
X1437318Y1027328D01*
X1437218Y1028153D01*
X1437168Y1029078D01*
X1437143Y1030052D01*
Y1030102D01*
Y1030202D01*
Y1030377D01*
Y1030627D01*
X1437168Y1030902D01*
X1437193Y1031227D01*
Y1031602D01*
X1437243Y1032002D01*
X1437318Y1032877D01*
X1437443Y1033801D01*
X1437618Y1034701D01*
X1437718Y1035126D01*
X1437843Y1035526D01*
Y1035551D01*
X1437868Y1035626D01*
X1437918Y1035726D01*
X1437968Y1035876D01*
X1438043Y1036051D01*
X1438143Y1036251D01*
X1438368Y1036726D01*
X1438668Y1037226D01*
X1439017Y1037775D01*
X1439442Y1038300D01*
X1439917Y1038750D01*
X1439942Y1038775D01*
X1439992Y1038800D01*
X1440067Y1038850D01*
X1440167Y1038925D01*
X1440292Y1039000D01*
X1440467Y1039100D01*
X1440642Y1039200D01*
X1440867Y1039325D01*
X1441367Y1039525D01*
X1441967Y1039700D01*
X1442642Y1039825D01*
X1443017Y1039875D01*
X1443641D01*
X1443791Y1039850D01*
D02*
G37*
G36*
X1260613Y990580D02*
X1258064D01*
Y999628D01*
X1248116D01*
Y990580D01*
X1245567D01*
Y1009800D01*
X1248116D01*
Y1001902D01*
X1258064D01*
Y1009800D01*
X1260613D01*
Y990580D01*
D02*
G37*
G36*
X1474470Y1009850D02*
X1474620D01*
X1474820Y1009825D01*
X1475269Y1009750D01*
X1475794Y1009625D01*
X1476369Y1009450D01*
X1476969Y1009200D01*
X1477569Y1008850D01*
X1477594D01*
X1477644Y1008800D01*
X1477719Y1008750D01*
X1477819Y1008675D01*
X1478094Y1008425D01*
X1478444Y1008125D01*
X1478819Y1007700D01*
X1479218Y1007226D01*
X1479593Y1006651D01*
X1479918Y1005976D01*
Y1005951D01*
X1479943Y1005901D01*
X1479993Y1005776D01*
X1480043Y1005626D01*
X1480118Y1005426D01*
X1480168Y1005201D01*
X1480243Y1004926D01*
X1480343Y1004601D01*
X1480418Y1004226D01*
X1480493Y1003826D01*
X1480543Y1003401D01*
X1480618Y1002902D01*
X1480668Y1002377D01*
X1480718Y1001827D01*
X1480743Y1001227D01*
Y1000577D01*
Y1000527D01*
Y1000427D01*
Y1000227D01*
Y999977D01*
X1480718Y999652D01*
X1480693Y999303D01*
X1480668Y998903D01*
X1480643Y998453D01*
X1480593Y998003D01*
X1480543Y997528D01*
X1480418Y996528D01*
X1480218Y995579D01*
X1480093Y995129D01*
X1479943Y994704D01*
Y994679D01*
X1479918Y994604D01*
X1479868Y994504D01*
X1479793Y994354D01*
X1479718Y994154D01*
X1479618Y993954D01*
X1479343Y993479D01*
X1479019Y992929D01*
X1478594Y992379D01*
X1478119Y991854D01*
X1477544Y991380D01*
X1477519D01*
X1477469Y991330D01*
X1477394Y991280D01*
X1477269Y991205D01*
X1477119Y991130D01*
X1476944Y991030D01*
X1476719Y990930D01*
X1476494Y990830D01*
X1475944Y990605D01*
X1475320Y990430D01*
X1474620Y990305D01*
X1474245Y990280D01*
X1473845Y990255D01*
X1473620D01*
X1473470Y990280D01*
X1473270Y990305D01*
X1473070Y990330D01*
X1472820Y990355D01*
X1472545Y990405D01*
X1471970Y990555D01*
X1471346Y990780D01*
X1471046Y990930D01*
X1470746Y991105D01*
X1470446Y991280D01*
X1470171Y991505D01*
X1470146Y991530D01*
X1470121Y991555D01*
X1470046Y991630D01*
X1469946Y991730D01*
X1469821Y991854D01*
X1469696Y992029D01*
X1469571Y992204D01*
X1469421Y992404D01*
X1469271Y992654D01*
X1469121Y992904D01*
X1468996Y993204D01*
X1468846Y993529D01*
X1468721Y993854D01*
X1468621Y994229D01*
X1468546Y994604D01*
X1468471Y995029D01*
X1470746Y995204D01*
Y995179D01*
X1470771Y995129D01*
Y995054D01*
X1470796Y994954D01*
X1470871Y994654D01*
X1470996Y994329D01*
X1471120Y993929D01*
X1471320Y993554D01*
X1471545Y993204D01*
X1471820Y992904D01*
X1471870Y992879D01*
X1471970Y992804D01*
X1472145Y992679D01*
X1472395Y992554D01*
X1472695Y992429D01*
X1473045Y992304D01*
X1473470Y992229D01*
X1473920Y992204D01*
X1474095D01*
X1474295Y992229D01*
X1474570Y992254D01*
X1474845Y992329D01*
X1475170Y992404D01*
X1475494Y992529D01*
X1475819Y992679D01*
X1475844Y992704D01*
X1475969Y992779D01*
X1476119Y992879D01*
X1476294Y993029D01*
X1476519Y993229D01*
X1476744Y993454D01*
X1476969Y993704D01*
X1477169Y994004D01*
X1477194Y994054D01*
X1477269Y994154D01*
X1477344Y994354D01*
X1477469Y994604D01*
X1477619Y994929D01*
X1477769Y995304D01*
X1477919Y995753D01*
X1478044Y996253D01*
Y996278D01*
X1478069Y996328D01*
Y996403D01*
X1478094Y996503D01*
X1478119Y996628D01*
X1478144Y996778D01*
X1478219Y997153D01*
X1478294Y997578D01*
X1478344Y998078D01*
X1478369Y998603D01*
X1478394Y999153D01*
Y999178D01*
Y999278D01*
Y999428D01*
Y999628D01*
X1478369Y999577D01*
X1478269Y999453D01*
X1478094Y999228D01*
X1477869Y998978D01*
X1477594Y998678D01*
X1477269Y998378D01*
X1476869Y998078D01*
X1476444Y997803D01*
X1476419D01*
X1476394Y997778D01*
X1476319Y997728D01*
X1476219Y997703D01*
X1475994Y997578D01*
X1475644Y997453D01*
X1475269Y997328D01*
X1474820Y997203D01*
X1474320Y997128D01*
X1473795Y997103D01*
X1473570D01*
X1473395Y997128D01*
X1473195Y997153D01*
X1472945Y997203D01*
X1472695Y997253D01*
X1472395Y997328D01*
X1472095Y997403D01*
X1471770Y997528D01*
X1471445Y997653D01*
X1471095Y997828D01*
X1470746Y998028D01*
X1470421Y998253D01*
X1470096Y998528D01*
X1469771Y998828D01*
X1469746Y998853D01*
X1469696Y998903D01*
X1469621Y999003D01*
X1469521Y999153D01*
X1469396Y999303D01*
X1469246Y999528D01*
X1469096Y999778D01*
X1468946Y1000052D01*
X1468796Y1000352D01*
X1468646Y1000702D01*
X1468496Y1001077D01*
X1468371Y1001477D01*
X1468271Y1001902D01*
X1468196Y1002377D01*
X1468146Y1002852D01*
X1468121Y1003377D01*
Y1003401D01*
Y1003502D01*
Y1003652D01*
X1468146Y1003851D01*
X1468171Y1004101D01*
X1468221Y1004401D01*
X1468271Y1004726D01*
X1468346Y1005051D01*
X1468546Y1005801D01*
X1468671Y1006201D01*
X1468846Y1006601D01*
X1469046Y1006976D01*
X1469271Y1007375D01*
X1469521Y1007725D01*
X1469821Y1008075D01*
X1469846Y1008100D01*
X1469896Y1008150D01*
X1469996Y1008250D01*
X1470121Y1008350D01*
X1470296Y1008500D01*
X1470496Y1008650D01*
X1470746Y1008800D01*
X1471021Y1008975D01*
X1471295Y1009150D01*
X1471645Y1009300D01*
X1471995Y1009450D01*
X1472370Y1009600D01*
X1472770Y1009700D01*
X1473220Y1009800D01*
X1473670Y1009850D01*
X1474145Y1009875D01*
X1474320D01*
X1474470Y1009850D01*
D02*
G37*
G36*
X1462073Y990580D02*
X1459723D01*
Y1005601D01*
X1459673Y1005576D01*
X1459574Y1005476D01*
X1459373Y1005301D01*
X1459124Y1005101D01*
X1458799Y1004851D01*
X1458399Y1004576D01*
X1457974Y1004276D01*
X1457474Y1003976D01*
X1457449D01*
X1457424Y1003951D01*
X1457349Y1003901D01*
X1457249Y1003851D01*
X1456974Y1003701D01*
X1456649Y1003527D01*
X1456274Y1003327D01*
X1455849Y1003127D01*
X1455424Y1002927D01*
X1455000Y1002752D01*
Y1005051D01*
X1455025D01*
X1455100Y1005101D01*
X1455200Y1005151D01*
X1455325Y1005226D01*
X1455500Y1005301D01*
X1455699Y1005426D01*
X1456174Y1005676D01*
X1456699Y1006001D01*
X1457299Y1006401D01*
X1457874Y1006826D01*
X1458449Y1007301D01*
X1458474Y1007326D01*
X1458524Y1007350D01*
X1458599Y1007426D01*
X1458699Y1007525D01*
X1458949Y1007775D01*
X1459274Y1008125D01*
X1459599Y1008500D01*
X1459948Y1008950D01*
X1460273Y1009400D01*
X1460548Y1009875D01*
X1462073D01*
Y990580D01*
D02*
G37*
G36*
X1430131Y1009850D02*
X1430381Y1009825D01*
X1430656Y1009800D01*
X1430956Y1009750D01*
X1431281Y1009675D01*
X1431980Y1009500D01*
X1432330Y1009375D01*
X1432705Y1009225D01*
X1433080Y1009050D01*
X1433430Y1008825D01*
X1433755Y1008600D01*
X1434080Y1008325D01*
X1434105Y1008300D01*
X1434155Y1008250D01*
X1434230Y1008175D01*
X1434330Y1008050D01*
X1434455Y1007900D01*
X1434605Y1007725D01*
X1434730Y1007525D01*
X1434905Y1007276D01*
X1435055Y1007026D01*
X1435180Y1006726D01*
X1435455Y1006076D01*
X1435555Y1005726D01*
X1435630Y1005351D01*
X1435680Y1004951D01*
X1435705Y1004526D01*
Y1004476D01*
Y1004326D01*
X1435680Y1004101D01*
X1435655Y1003801D01*
X1435580Y1003476D01*
X1435505Y1003077D01*
X1435380Y1002677D01*
X1435230Y1002252D01*
X1435205Y1002202D01*
X1435130Y1002052D01*
X1435030Y1001827D01*
X1434855Y1001552D01*
X1434630Y1001202D01*
X1434355Y1000802D01*
X1434030Y1000352D01*
X1433655Y999902D01*
Y999877D01*
X1433605Y999853D01*
X1433530Y999778D01*
X1433455Y999678D01*
X1433330Y999553D01*
X1433180Y999403D01*
X1433005Y999228D01*
X1432780Y999028D01*
X1432555Y998803D01*
X1432280Y998553D01*
X1431980Y998253D01*
X1431656Y997953D01*
X1431281Y997628D01*
X1430906Y997303D01*
X1430456Y996928D01*
X1430006Y996528D01*
X1429981Y996503D01*
X1429906Y996453D01*
X1429806Y996353D01*
X1429656Y996253D01*
X1429506Y996103D01*
X1429306Y995928D01*
X1428881Y995554D01*
X1428407Y995154D01*
X1427957Y994754D01*
X1427757Y994579D01*
X1427582Y994404D01*
X1427407Y994229D01*
X1427282Y994104D01*
X1427257Y994079D01*
X1427182Y994004D01*
X1427082Y993879D01*
X1426932Y993704D01*
X1426782Y993529D01*
X1426607Y993304D01*
X1426282Y992854D01*
X1435730D01*
Y990580D01*
X1423008D01*
Y990630D01*
Y990730D01*
Y990880D01*
X1423033Y991105D01*
X1423058Y991355D01*
X1423108Y991630D01*
X1423183Y991905D01*
X1423283Y992204D01*
Y992229D01*
X1423308Y992254D01*
X1423333Y992329D01*
X1423383Y992429D01*
X1423483Y992679D01*
X1423658Y993004D01*
X1423883Y993404D01*
X1424133Y993829D01*
X1424458Y994279D01*
X1424832Y994754D01*
X1424857Y994779D01*
X1424882Y994804D01*
X1424957Y994879D01*
X1425032Y994979D01*
X1425282Y995254D01*
X1425632Y995603D01*
X1426057Y996028D01*
X1426582Y996528D01*
X1427207Y997078D01*
X1427932Y997678D01*
X1427957Y997703D01*
X1428057Y997803D01*
X1428232Y997928D01*
X1428432Y998103D01*
X1428681Y998328D01*
X1428981Y998578D01*
X1429306Y998853D01*
X1429631Y999153D01*
X1430331Y999802D01*
X1431031Y1000477D01*
X1431356Y1000827D01*
X1431656Y1001152D01*
X1431931Y1001452D01*
X1432155Y1001752D01*
X1432180Y1001777D01*
X1432206Y1001827D01*
X1432256Y1001902D01*
X1432330Y1002002D01*
X1432405Y1002152D01*
X1432505Y1002302D01*
X1432730Y1002677D01*
X1432930Y1003102D01*
X1433105Y1003577D01*
X1433230Y1004101D01*
X1433280Y1004351D01*
Y1004601D01*
Y1004626D01*
Y1004676D01*
Y1004726D01*
X1433255Y1004826D01*
X1433230Y1005101D01*
X1433155Y1005426D01*
X1433030Y1005801D01*
X1432855Y1006176D01*
X1432605Y1006576D01*
X1432256Y1006951D01*
X1432206Y1007001D01*
X1432081Y1007101D01*
X1431856Y1007251D01*
X1431556Y1007450D01*
X1431181Y1007626D01*
X1430731Y1007775D01*
X1430206Y1007875D01*
X1429631Y1007925D01*
X1429456D01*
X1429356Y1007900D01*
X1429206D01*
X1429031Y1007875D01*
X1428656Y1007800D01*
X1428232Y1007675D01*
X1427757Y1007501D01*
X1427307Y1007251D01*
X1426907Y1006901D01*
X1426857Y1006851D01*
X1426757Y1006726D01*
X1426582Y1006476D01*
X1426407Y1006176D01*
X1426207Y1005751D01*
X1426032Y1005276D01*
X1425932Y1004726D01*
X1425882Y1004076D01*
X1423458Y1004326D01*
Y1004351D01*
X1423483Y1004451D01*
Y1004576D01*
X1423508Y1004776D01*
X1423558Y1005001D01*
X1423608Y1005251D01*
X1423683Y1005551D01*
X1423783Y1005851D01*
X1424008Y1006526D01*
X1424158Y1006876D01*
X1424332Y1007201D01*
X1424532Y1007551D01*
X1424757Y1007875D01*
X1425007Y1008175D01*
X1425307Y1008450D01*
X1425332Y1008475D01*
X1425382Y1008500D01*
X1425482Y1008575D01*
X1425607Y1008675D01*
X1425782Y1008775D01*
X1425982Y1008900D01*
X1426207Y1009025D01*
X1426482Y1009175D01*
X1426782Y1009300D01*
X1427107Y1009425D01*
X1427457Y1009550D01*
X1427857Y1009650D01*
X1428257Y1009750D01*
X1428706Y1009825D01*
X1429181Y1009850D01*
X1429681Y1009875D01*
X1429956D01*
X1430131Y1009850D01*
D02*
G37*
G36*
X1419934Y990580D02*
X1417234D01*
Y993279D01*
X1419934D01*
Y990580D01*
D02*
G37*
G36*
X1382643D02*
X1379944D01*
Y993279D01*
X1382643D01*
Y990580D01*
D02*
G37*
G36*
X1376270Y1007700D02*
X1376245Y1007675D01*
X1376195Y1007600D01*
X1376095Y1007501D01*
X1375945Y1007350D01*
X1375795Y1007151D01*
X1375595Y1006901D01*
X1375370Y1006626D01*
X1375120Y1006326D01*
X1374845Y1005976D01*
X1374570Y1005576D01*
X1374270Y1005151D01*
X1373945Y1004676D01*
X1373620Y1004201D01*
X1373296Y1003652D01*
X1372971Y1003102D01*
X1372621Y1002502D01*
X1372596Y1002477D01*
X1372546Y1002352D01*
X1372446Y1002177D01*
X1372321Y1001952D01*
X1372171Y1001652D01*
X1372021Y1001302D01*
X1371821Y1000902D01*
X1371621Y1000452D01*
X1371396Y999977D01*
X1371171Y999453D01*
X1370946Y998903D01*
X1370721Y998328D01*
X1370271Y997128D01*
X1369872Y995854D01*
Y995828D01*
X1369846Y995753D01*
X1369796Y995603D01*
X1369747Y995429D01*
X1369697Y995204D01*
X1369621Y994929D01*
X1369572Y994629D01*
X1369496Y994279D01*
X1369422Y993904D01*
X1369322Y993504D01*
X1369247Y993054D01*
X1369197Y992604D01*
X1369072Y991630D01*
X1368972Y990580D01*
X1366547D01*
Y990605D01*
Y990680D01*
Y990805D01*
X1366572Y990980D01*
Y991205D01*
X1366597Y991455D01*
X1366622Y991755D01*
X1366672Y992104D01*
X1366722Y992479D01*
X1366772Y992904D01*
X1366847Y993354D01*
X1366922Y993829D01*
X1367022Y994329D01*
X1367147Y994879D01*
X1367272Y995429D01*
X1367422Y996028D01*
Y996078D01*
X1367472Y996178D01*
X1367522Y996353D01*
X1367572Y996578D01*
X1367672Y996878D01*
X1367772Y997203D01*
X1367897Y997578D01*
X1368047Y998003D01*
X1368197Y998478D01*
X1368397Y998953D01*
X1368797Y1000002D01*
X1369297Y1001102D01*
X1369846Y1002227D01*
X1369872Y1002252D01*
X1369921Y1002352D01*
X1369996Y1002527D01*
X1370121Y1002727D01*
X1370271Y1002977D01*
X1370446Y1003277D01*
X1370646Y1003626D01*
X1370871Y1003976D01*
X1371371Y1004776D01*
X1371946Y1005626D01*
X1372596Y1006476D01*
X1373246Y1007276D01*
X1363848D01*
Y1009550D01*
X1376270D01*
Y1007700D01*
D02*
G37*
G36*
X1355550Y1009850D02*
X1355800Y1009825D01*
X1356075Y1009800D01*
X1356375Y1009750D01*
X1356700Y1009675D01*
X1357400Y1009500D01*
X1357750Y1009375D01*
X1358125Y1009225D01*
X1358499Y1009050D01*
X1358849Y1008825D01*
X1359174Y1008600D01*
X1359499Y1008325D01*
X1359524Y1008300D01*
X1359574Y1008250D01*
X1359649Y1008175D01*
X1359749Y1008050D01*
X1359874Y1007900D01*
X1360024Y1007725D01*
X1360149Y1007525D01*
X1360324Y1007276D01*
X1360474Y1007026D01*
X1360599Y1006726D01*
X1360874Y1006076D01*
X1360974Y1005726D01*
X1361049Y1005351D01*
X1361099Y1004951D01*
X1361124Y1004526D01*
Y1004476D01*
Y1004326D01*
X1361099Y1004101D01*
X1361074Y1003801D01*
X1360999Y1003476D01*
X1360924Y1003077D01*
X1360799Y1002677D01*
X1360649Y1002252D01*
X1360624Y1002202D01*
X1360549Y1002052D01*
X1360449Y1001827D01*
X1360274Y1001552D01*
X1360049Y1001202D01*
X1359774Y1000802D01*
X1359449Y1000352D01*
X1359074Y999902D01*
Y999877D01*
X1359024Y999853D01*
X1358949Y999778D01*
X1358874Y999678D01*
X1358749Y999553D01*
X1358599Y999403D01*
X1358424Y999228D01*
X1358199Y999028D01*
X1357975Y998803D01*
X1357700Y998553D01*
X1357400Y998253D01*
X1357075Y997953D01*
X1356700Y997628D01*
X1356325Y997303D01*
X1355875Y996928D01*
X1355425Y996528D01*
X1355400Y996503D01*
X1355325Y996453D01*
X1355225Y996353D01*
X1355075Y996253D01*
X1354925Y996103D01*
X1354725Y995928D01*
X1354300Y995554D01*
X1353826Y995154D01*
X1353376Y994754D01*
X1353176Y994579D01*
X1353001Y994404D01*
X1352826Y994229D01*
X1352701Y994104D01*
X1352676Y994079D01*
X1352601Y994004D01*
X1352501Y993879D01*
X1352351Y993704D01*
X1352201Y993529D01*
X1352026Y993304D01*
X1351701Y992854D01*
X1361149D01*
Y990580D01*
X1348427D01*
Y990630D01*
Y990730D01*
Y990880D01*
X1348452Y991105D01*
X1348477Y991355D01*
X1348527Y991630D01*
X1348602Y991905D01*
X1348702Y992204D01*
Y992229D01*
X1348727Y992254D01*
X1348752Y992329D01*
X1348802Y992429D01*
X1348902Y992679D01*
X1349077Y993004D01*
X1349302Y993404D01*
X1349552Y993829D01*
X1349877Y994279D01*
X1350251Y994754D01*
X1350276Y994779D01*
X1350302Y994804D01*
X1350376Y994879D01*
X1350451Y994979D01*
X1350701Y995254D01*
X1351051Y995603D01*
X1351476Y996028D01*
X1352001Y996528D01*
X1352626Y997078D01*
X1353351Y997678D01*
X1353376Y997703D01*
X1353476Y997803D01*
X1353651Y997928D01*
X1353851Y998103D01*
X1354100Y998328D01*
X1354400Y998578D01*
X1354725Y998853D01*
X1355050Y999153D01*
X1355750Y999802D01*
X1356450Y1000477D01*
X1356775Y1000827D01*
X1357075Y1001152D01*
X1357350Y1001452D01*
X1357575Y1001752D01*
X1357600Y1001777D01*
X1357625Y1001827D01*
X1357675Y1001902D01*
X1357750Y1002002D01*
X1357825Y1002152D01*
X1357924Y1002302D01*
X1358150Y1002677D01*
X1358349Y1003102D01*
X1358524Y1003577D01*
X1358649Y1004101D01*
X1358699Y1004351D01*
Y1004601D01*
Y1004626D01*
Y1004676D01*
Y1004726D01*
X1358674Y1004826D01*
X1358649Y1005101D01*
X1358574Y1005426D01*
X1358449Y1005801D01*
X1358274Y1006176D01*
X1358024Y1006576D01*
X1357675Y1006951D01*
X1357625Y1007001D01*
X1357500Y1007101D01*
X1357275Y1007251D01*
X1356975Y1007450D01*
X1356600Y1007626D01*
X1356150Y1007775D01*
X1355625Y1007875D01*
X1355050Y1007925D01*
X1354875D01*
X1354775Y1007900D01*
X1354625D01*
X1354450Y1007875D01*
X1354075Y1007800D01*
X1353651Y1007675D01*
X1353176Y1007501D01*
X1352726Y1007251D01*
X1352326Y1006901D01*
X1352276Y1006851D01*
X1352176Y1006726D01*
X1352001Y1006476D01*
X1351826Y1006176D01*
X1351626Y1005751D01*
X1351451Y1005276D01*
X1351351Y1004726D01*
X1351301Y1004076D01*
X1348877Y1004326D01*
Y1004351D01*
X1348902Y1004451D01*
Y1004576D01*
X1348927Y1004776D01*
X1348977Y1005001D01*
X1349027Y1005251D01*
X1349102Y1005551D01*
X1349202Y1005851D01*
X1349427Y1006526D01*
X1349577Y1006876D01*
X1349752Y1007201D01*
X1349952Y1007551D01*
X1350177Y1007875D01*
X1350426Y1008175D01*
X1350726Y1008450D01*
X1350751Y1008475D01*
X1350801Y1008500D01*
X1350901Y1008575D01*
X1351026Y1008675D01*
X1351201Y1008775D01*
X1351401Y1008900D01*
X1351626Y1009025D01*
X1351901Y1009175D01*
X1352201Y1009300D01*
X1352526Y1009425D01*
X1352876Y1009550D01*
X1353276Y1009650D01*
X1353676Y1009750D01*
X1354126Y1009825D01*
X1354600Y1009850D01*
X1355100Y1009875D01*
X1355375D01*
X1355550Y1009850D01*
D02*
G37*
G36*
X1312775Y1009775D02*
X1313000D01*
X1313500Y1009725D01*
X1314050Y1009650D01*
X1314649Y1009550D01*
X1315224Y1009400D01*
X1315749Y1009200D01*
X1315774D01*
X1315799Y1009175D01*
X1315874Y1009150D01*
X1315974Y1009100D01*
X1316199Y1008950D01*
X1316499Y1008750D01*
X1316849Y1008500D01*
X1317174Y1008200D01*
X1317524Y1007825D01*
X1317824Y1007401D01*
Y1007375D01*
X1317849Y1007350D01*
X1317948Y1007201D01*
X1318073Y1006951D01*
X1318223Y1006626D01*
X1318348Y1006251D01*
X1318473Y1005826D01*
X1318573Y1005376D01*
X1318598Y1004876D01*
Y1004851D01*
Y1004826D01*
Y1004751D01*
Y1004676D01*
X1318573Y1004426D01*
X1318523Y1004126D01*
X1318423Y1003752D01*
X1318323Y1003352D01*
X1318148Y1002952D01*
X1317923Y1002527D01*
X1317899Y1002477D01*
X1317799Y1002352D01*
X1317649Y1002152D01*
X1317424Y1001902D01*
X1317124Y1001627D01*
X1316774Y1001352D01*
X1316374Y1001052D01*
X1315899Y1000802D01*
X1315924D01*
X1315974Y1000777D01*
X1316074Y1000752D01*
X1316199Y1000702D01*
X1316324Y1000652D01*
X1316499Y1000577D01*
X1316899Y1000377D01*
X1317324Y1000127D01*
X1317774Y999827D01*
X1318199Y999453D01*
X1318573Y999028D01*
Y999003D01*
X1318623Y998978D01*
X1318673Y998903D01*
X1318723Y998803D01*
X1318873Y998553D01*
X1319048Y998203D01*
X1319223Y997778D01*
X1319373Y997278D01*
X1319473Y996728D01*
X1319523Y996128D01*
Y996103D01*
Y996078D01*
Y996003D01*
Y995903D01*
X1319498Y995654D01*
X1319448Y995304D01*
X1319373Y994929D01*
X1319273Y994504D01*
X1319148Y994079D01*
X1318948Y993629D01*
X1318923Y993579D01*
X1318848Y993429D01*
X1318723Y993229D01*
X1318548Y992979D01*
X1318348Y992679D01*
X1318098Y992379D01*
X1317824Y992104D01*
X1317524Y991830D01*
X1317499Y991805D01*
X1317374Y991730D01*
X1317199Y991605D01*
X1316949Y991480D01*
X1316649Y991330D01*
X1316299Y991155D01*
X1315874Y991005D01*
X1315424Y990880D01*
X1315374D01*
X1315299Y990855D01*
X1315199Y990830D01*
X1315074Y990805D01*
X1314924Y990780D01*
X1314574Y990730D01*
X1314124Y990680D01*
X1313600Y990630D01*
X1313000Y990605D01*
X1312325Y990580D01*
X1305027D01*
Y1009800D01*
X1312600D01*
X1312775Y1009775D01*
D02*
G37*
G36*
X1303052Y990580D02*
X1300178D01*
X1297954Y996403D01*
X1289906D01*
X1287806Y990580D01*
X1285132D01*
X1292455Y1009800D01*
X1295229D01*
X1303052Y990580D01*
D02*
G37*
G36*
X1270661Y1004776D02*
X1270911Y1004751D01*
X1271186Y1004701D01*
X1271510Y1004651D01*
X1271860Y1004576D01*
X1272210Y1004476D01*
X1272585Y1004326D01*
X1272985Y1004176D01*
X1273385Y1004001D01*
X1273785Y1003776D01*
X1274160Y1003527D01*
X1274535Y1003227D01*
X1274884Y1002902D01*
X1274910Y1002877D01*
X1274959Y1002827D01*
X1275060Y1002702D01*
X1275160Y1002552D01*
X1275309Y1002377D01*
X1275459Y1002127D01*
X1275634Y1001852D01*
X1275809Y1001552D01*
X1275959Y1001202D01*
X1276134Y1000827D01*
X1276284Y1000402D01*
X1276434Y999927D01*
X1276534Y999428D01*
X1276634Y998903D01*
X1276684Y998328D01*
X1276709Y997728D01*
Y997703D01*
Y997603D01*
Y997478D01*
Y997278D01*
X1276684Y997053D01*
X1276659Y996803D01*
X1276634Y996503D01*
X1276609Y996203D01*
X1276509Y995529D01*
X1276359Y994829D01*
X1276159Y994129D01*
X1276034Y993804D01*
X1275884Y993504D01*
Y993479D01*
X1275859Y993429D01*
X1275809Y993354D01*
X1275734Y993254D01*
X1275559Y992979D01*
X1275284Y992629D01*
X1274959Y992254D01*
X1274560Y991854D01*
X1274085Y991480D01*
X1273535Y991130D01*
X1273510D01*
X1273460Y991105D01*
X1273385Y991055D01*
X1273260Y991005D01*
X1273135Y990930D01*
X1272960Y990855D01*
X1272535Y990705D01*
X1272060Y990555D01*
X1271485Y990405D01*
X1270861Y990305D01*
X1270186Y990280D01*
X1270061D01*
X1269911Y990305D01*
X1269711D01*
X1269461Y990330D01*
X1269186Y990380D01*
X1268861Y990430D01*
X1268511Y990505D01*
X1268136Y990605D01*
X1267761Y990730D01*
X1267386Y990880D01*
X1266987Y991055D01*
X1266587Y991280D01*
X1266212Y991530D01*
X1265837Y991805D01*
X1265487Y992129D01*
X1265462Y992154D01*
X1265412Y992229D01*
X1265312Y992329D01*
X1265212Y992479D01*
X1265062Y992679D01*
X1264912Y992904D01*
X1264762Y993179D01*
X1264587Y993504D01*
X1264412Y993879D01*
X1264262Y994279D01*
X1264112Y994704D01*
X1263962Y995204D01*
X1263862Y995729D01*
X1263762Y996278D01*
X1263712Y996878D01*
X1263687Y997528D01*
Y997578D01*
Y997703D01*
X1263712Y997903D01*
Y998153D01*
X1263762Y998478D01*
X1263812Y998853D01*
X1263862Y999253D01*
X1263962Y999678D01*
X1264062Y1000152D01*
X1264212Y1000627D01*
X1264387Y1001102D01*
X1264587Y1001577D01*
X1264837Y1002027D01*
X1265112Y1002477D01*
X1265437Y1002877D01*
X1265812Y1003252D01*
X1265837Y1003277D01*
X1265887Y1003327D01*
X1265987Y1003401D01*
X1266137Y1003502D01*
X1266312Y1003602D01*
X1266512Y1003752D01*
X1266762Y1003876D01*
X1267037Y1004026D01*
X1267337Y1004176D01*
X1267661Y1004301D01*
X1268036Y1004451D01*
X1268411Y1004551D01*
X1268836Y1004651D01*
X1269261Y1004726D01*
X1269711Y1004776D01*
X1270186Y1004801D01*
X1270461D01*
X1270661Y1004776D01*
D02*
G37*
G36*
X1444927Y1009850D02*
X1445077D01*
X1445452Y1009800D01*
X1445877Y1009725D01*
X1446327Y1009600D01*
X1446802Y1009450D01*
X1447252Y1009250D01*
X1447277D01*
X1447302Y1009225D01*
X1447452Y1009125D01*
X1447652Y1009000D01*
X1447926Y1008800D01*
X1448226Y1008525D01*
X1448551Y1008225D01*
X1448876Y1007875D01*
X1449176Y1007450D01*
Y1007426D01*
X1449201Y1007401D01*
X1449251Y1007326D01*
X1449301Y1007251D01*
X1449426Y1007001D01*
X1449601Y1006651D01*
X1449801Y1006226D01*
X1450001Y1005751D01*
X1450176Y1005176D01*
X1450351Y1004576D01*
Y1004551D01*
X1450376Y1004501D01*
X1450401Y1004401D01*
X1450426Y1004276D01*
X1450451Y1004101D01*
X1450501Y1003901D01*
X1450526Y1003652D01*
X1450576Y1003377D01*
X1450626Y1003077D01*
X1450651Y1002727D01*
X1450701Y1002377D01*
X1450726Y1001952D01*
X1450751Y1001527D01*
X1450776Y1001077D01*
X1450801Y1000577D01*
Y1000052D01*
Y1000002D01*
Y999902D01*
Y999727D01*
Y999478D01*
X1450776Y999203D01*
Y998878D01*
X1450751Y998503D01*
X1450726Y998103D01*
X1450626Y997228D01*
X1450501Y996303D01*
X1450326Y995404D01*
X1450226Y994979D01*
X1450101Y994579D01*
Y994554D01*
X1450076Y994479D01*
X1450026Y994379D01*
X1449976Y994229D01*
X1449901Y994054D01*
X1449801Y993854D01*
X1449576Y993404D01*
X1449276Y992879D01*
X1448926Y992354D01*
X1448501Y991830D01*
X1448001Y991380D01*
X1447977D01*
X1447952Y991330D01*
X1447852Y991280D01*
X1447751Y991205D01*
X1447626Y991130D01*
X1447452Y991030D01*
X1447277Y990930D01*
X1447052Y990830D01*
X1446552Y990605D01*
X1445952Y990430D01*
X1445277Y990305D01*
X1444902Y990280D01*
X1444527Y990255D01*
X1444402D01*
X1444252Y990280D01*
X1444077D01*
X1443828Y990305D01*
X1443578Y990355D01*
X1443278Y990430D01*
X1442953Y990505D01*
X1442603Y990605D01*
X1442253Y990730D01*
X1441878Y990905D01*
X1441503Y991080D01*
X1441153Y991305D01*
X1440803Y991580D01*
X1440478Y991880D01*
X1440154Y992229D01*
X1440128Y992254D01*
X1440078Y992354D01*
X1439978Y992479D01*
X1439854Y992679D01*
X1439729Y992954D01*
X1439554Y993279D01*
X1439404Y993654D01*
X1439229Y994104D01*
X1439054Y994629D01*
X1438879Y995204D01*
X1438704Y995828D01*
X1438579Y996553D01*
X1438454Y997328D01*
X1438354Y998153D01*
X1438304Y999078D01*
X1438279Y1000052D01*
Y1000102D01*
Y1000202D01*
Y1000377D01*
Y1000627D01*
X1438304Y1000902D01*
X1438329Y1001227D01*
Y1001602D01*
X1438379Y1002002D01*
X1438454Y1002877D01*
X1438579Y1003801D01*
X1438754Y1004701D01*
X1438854Y1005126D01*
X1438979Y1005526D01*
Y1005551D01*
X1439004Y1005626D01*
X1439054Y1005726D01*
X1439104Y1005876D01*
X1439179Y1006051D01*
X1439279Y1006251D01*
X1439504Y1006726D01*
X1439803Y1007226D01*
X1440154Y1007775D01*
X1440578Y1008300D01*
X1441053Y1008750D01*
X1441078Y1008775D01*
X1441128Y1008800D01*
X1441203Y1008850D01*
X1441303Y1008925D01*
X1441428Y1009000D01*
X1441603Y1009100D01*
X1441778Y1009200D01*
X1442003Y1009325D01*
X1442503Y1009525D01*
X1443103Y1009700D01*
X1443777Y1009825D01*
X1444152Y1009875D01*
X1444777D01*
X1444927Y1009850D01*
D02*
G37*
G36*
X1407662D02*
X1407862Y1009825D01*
X1408112Y1009800D01*
X1408387Y1009750D01*
X1408687Y1009700D01*
X1409336Y1009525D01*
X1409661Y1009400D01*
X1410011Y1009250D01*
X1410336Y1009075D01*
X1410686Y1008900D01*
X1410986Y1008650D01*
X1411286Y1008400D01*
X1411311Y1008375D01*
X1411361Y1008325D01*
X1411436Y1008250D01*
X1411536Y1008150D01*
X1411636Y1008000D01*
X1411786Y1007825D01*
X1411911Y1007626D01*
X1412061Y1007426D01*
X1412336Y1006901D01*
X1412585Y1006301D01*
X1412686Y1005951D01*
X1412760Y1005601D01*
X1412811Y1005226D01*
X1412836Y1004851D01*
Y1004826D01*
Y1004801D01*
Y1004726D01*
Y1004626D01*
X1412811Y1004376D01*
X1412735Y1004051D01*
X1412661Y1003677D01*
X1412536Y1003302D01*
X1412361Y1002902D01*
X1412111Y1002502D01*
X1412086Y1002452D01*
X1411986Y1002352D01*
X1411811Y1002177D01*
X1411586Y1001952D01*
X1411286Y1001702D01*
X1410911Y1001452D01*
X1410486Y1001202D01*
X1409986Y1000977D01*
X1410011D01*
X1410061Y1000952D01*
X1410161Y1000927D01*
X1410286Y1000877D01*
X1410436Y1000802D01*
X1410586Y1000727D01*
X1410986Y1000527D01*
X1411436Y1000277D01*
X1411886Y999952D01*
X1412311Y999577D01*
X1412686Y999128D01*
Y999103D01*
X1412735Y999078D01*
X1412760Y999003D01*
X1412836Y998903D01*
X1412910Y998778D01*
X1412985Y998628D01*
X1413160Y998278D01*
X1413310Y997828D01*
X1413460Y997303D01*
X1413560Y996703D01*
X1413610Y996053D01*
Y996028D01*
Y995954D01*
Y995828D01*
X1413585Y995654D01*
X1413560Y995429D01*
X1413510Y995179D01*
X1413460Y994929D01*
X1413385Y994629D01*
X1413310Y994304D01*
X1413185Y993979D01*
X1413035Y993629D01*
X1412885Y993279D01*
X1412661Y992929D01*
X1412436Y992579D01*
X1412161Y992254D01*
X1411861Y991929D01*
X1411836Y991905D01*
X1411786Y991854D01*
X1411686Y991779D01*
X1411536Y991680D01*
X1411361Y991530D01*
X1411161Y991405D01*
X1410911Y991255D01*
X1410636Y991105D01*
X1410311Y990930D01*
X1409986Y990780D01*
X1409611Y990655D01*
X1409186Y990530D01*
X1408761Y990405D01*
X1408287Y990330D01*
X1407812Y990280D01*
X1407287Y990255D01*
X1407012D01*
X1406812Y990280D01*
X1406562Y990305D01*
X1406287Y990355D01*
X1405987Y990405D01*
X1405637Y990455D01*
X1404913Y990655D01*
X1404538Y990805D01*
X1404138Y990955D01*
X1403763Y991155D01*
X1403388Y991380D01*
X1403038Y991630D01*
X1402688Y991929D01*
X1402663Y991954D01*
X1402613Y992004D01*
X1402538Y992104D01*
X1402413Y992229D01*
X1402288Y992404D01*
X1402138Y992604D01*
X1401988Y992829D01*
X1401838Y993079D01*
X1401663Y993379D01*
X1401513Y993679D01*
X1401363Y994029D01*
X1401238Y994404D01*
X1401113Y994804D01*
X1401039Y995229D01*
X1400988Y995678D01*
X1400963Y996128D01*
Y996153D01*
Y996203D01*
Y996303D01*
X1400988Y996453D01*
Y996603D01*
X1401013Y996778D01*
X1401089Y997228D01*
X1401188Y997728D01*
X1401363Y998228D01*
X1401588Y998753D01*
X1401913Y999253D01*
Y999278D01*
X1401963Y999303D01*
X1402088Y999453D01*
X1402313Y999678D01*
X1402613Y999952D01*
X1402988Y1000227D01*
X1403463Y1000527D01*
X1403988Y1000777D01*
X1404613Y1000977D01*
X1404588D01*
X1404538Y1001002D01*
X1404463Y1001027D01*
X1404363Y1001077D01*
X1404113Y1001202D01*
X1403788Y1001377D01*
X1403438Y1001602D01*
X1403063Y1001852D01*
X1402738Y1002177D01*
X1402438Y1002527D01*
X1402413Y1002577D01*
X1402338Y1002702D01*
X1402213Y1002927D01*
X1402088Y1003202D01*
X1401963Y1003551D01*
X1401838Y1003951D01*
X1401763Y1004401D01*
X1401738Y1004901D01*
Y1004926D01*
Y1005001D01*
Y1005101D01*
X1401763Y1005251D01*
X1401788Y1005426D01*
X1401813Y1005651D01*
X1401938Y1006126D01*
X1402113Y1006676D01*
X1402238Y1006976D01*
X1402363Y1007276D01*
X1402538Y1007576D01*
X1402738Y1007875D01*
X1402963Y1008150D01*
X1403238Y1008425D01*
X1403263Y1008450D01*
X1403313Y1008500D01*
X1403388Y1008550D01*
X1403513Y1008650D01*
X1403663Y1008750D01*
X1403838Y1008875D01*
X1404063Y1009025D01*
X1404313Y1009150D01*
X1404563Y1009275D01*
X1404863Y1009425D01*
X1405212Y1009550D01*
X1405562Y1009650D01*
X1405937Y1009750D01*
X1406337Y1009825D01*
X1406787Y1009850D01*
X1407237Y1009875D01*
X1407487D01*
X1407662Y1009850D01*
D02*
G37*
G36*
X1392716D02*
X1392866D01*
X1393241Y1009800D01*
X1393665Y1009725D01*
X1394115Y1009600D01*
X1394590Y1009450D01*
X1395040Y1009250D01*
X1395065D01*
X1395090Y1009225D01*
X1395240Y1009125D01*
X1395440Y1009000D01*
X1395715Y1008800D01*
X1396015Y1008525D01*
X1396340Y1008225D01*
X1396665Y1007875D01*
X1396965Y1007450D01*
Y1007426D01*
X1396989Y1007401D01*
X1397039Y1007326D01*
X1397090Y1007251D01*
X1397215Y1007001D01*
X1397389Y1006651D01*
X1397589Y1006226D01*
X1397789Y1005751D01*
X1397964Y1005176D01*
X1398139Y1004576D01*
Y1004551D01*
X1398164Y1004501D01*
X1398189Y1004401D01*
X1398214Y1004276D01*
X1398239Y1004101D01*
X1398289Y1003901D01*
X1398314Y1003652D01*
X1398364Y1003377D01*
X1398414Y1003077D01*
X1398439Y1002727D01*
X1398489Y1002377D01*
X1398514Y1001952D01*
X1398539Y1001527D01*
X1398564Y1001077D01*
X1398589Y1000577D01*
Y1000052D01*
Y1000002D01*
Y999902D01*
Y999727D01*
Y999478D01*
X1398564Y999203D01*
Y998878D01*
X1398539Y998503D01*
X1398514Y998103D01*
X1398414Y997228D01*
X1398289Y996303D01*
X1398114Y995404D01*
X1398014Y994979D01*
X1397889Y994579D01*
Y994554D01*
X1397864Y994479D01*
X1397814Y994379D01*
X1397764Y994229D01*
X1397689Y994054D01*
X1397589Y993854D01*
X1397364Y993404D01*
X1397065Y992879D01*
X1396715Y992354D01*
X1396290Y991830D01*
X1395790Y991380D01*
X1395765D01*
X1395740Y991330D01*
X1395640Y991280D01*
X1395540Y991205D01*
X1395415Y991130D01*
X1395240Y991030D01*
X1395065Y990930D01*
X1394840Y990830D01*
X1394340Y990605D01*
X1393740Y990430D01*
X1393065Y990305D01*
X1392691Y990280D01*
X1392316Y990255D01*
X1392191D01*
X1392041Y990280D01*
X1391866D01*
X1391616Y990305D01*
X1391366Y990355D01*
X1391066Y990430D01*
X1390741Y990505D01*
X1390391Y990605D01*
X1390041Y990730D01*
X1389666Y990905D01*
X1389292Y991080D01*
X1388942Y991305D01*
X1388592Y991580D01*
X1388267Y991880D01*
X1387942Y992229D01*
X1387917Y992254D01*
X1387867Y992354D01*
X1387767Y992479D01*
X1387642Y992679D01*
X1387517Y992954D01*
X1387342Y993279D01*
X1387192Y993654D01*
X1387017Y994104D01*
X1386842Y994629D01*
X1386667Y995204D01*
X1386492Y995828D01*
X1386367Y996553D01*
X1386242Y997328D01*
X1386142Y998153D01*
X1386092Y999078D01*
X1386067Y1000052D01*
Y1000102D01*
Y1000202D01*
Y1000377D01*
Y1000627D01*
X1386092Y1000902D01*
X1386117Y1001227D01*
Y1001602D01*
X1386167Y1002002D01*
X1386242Y1002877D01*
X1386367Y1003801D01*
X1386542Y1004701D01*
X1386642Y1005126D01*
X1386767Y1005526D01*
Y1005551D01*
X1386792Y1005626D01*
X1386842Y1005726D01*
X1386892Y1005876D01*
X1386967Y1006051D01*
X1387067Y1006251D01*
X1387292Y1006726D01*
X1387592Y1007226D01*
X1387942Y1007775D01*
X1388367Y1008300D01*
X1388842Y1008750D01*
X1388867Y1008775D01*
X1388917Y1008800D01*
X1388992Y1008850D01*
X1389091Y1008925D01*
X1389216Y1009000D01*
X1389391Y1009100D01*
X1389566Y1009200D01*
X1389791Y1009325D01*
X1390291Y1009525D01*
X1390891Y1009700D01*
X1391566Y1009825D01*
X1391941Y1009875D01*
X1392566D01*
X1392716Y1009850D01*
D02*
G37*
G36*
X1279608Y990255D02*
X1277709D01*
X1283282Y1010125D01*
X1285182D01*
X1279608Y990255D01*
D02*
G37*
G36*
X1306156Y977101D02*
X1303807D01*
Y979800D01*
X1306156D01*
Y977101D01*
D02*
G37*
G36*
X1274489Y974776D02*
X1274639D01*
X1274839Y974751D01*
X1275264Y974676D01*
X1275739Y974576D01*
X1276289Y974401D01*
X1276814Y974176D01*
X1277339Y973876D01*
X1277364D01*
X1277389Y973826D01*
X1277464Y973776D01*
X1277563Y973701D01*
X1277813Y973502D01*
X1278113Y973202D01*
X1278438Y972827D01*
X1278788Y972402D01*
X1279113Y971877D01*
X1279413Y971277D01*
Y971252D01*
X1279438Y971202D01*
X1279488Y971102D01*
X1279513Y970977D01*
X1279588Y970827D01*
X1279638Y970652D01*
X1279688Y970427D01*
X1279763Y970202D01*
X1279888Y969652D01*
X1280013Y969053D01*
X1280088Y968353D01*
X1280113Y967628D01*
Y967603D01*
Y967528D01*
Y967428D01*
Y967278D01*
X1280088Y967078D01*
X1280063Y966853D01*
X1280038Y966628D01*
X1280013Y966353D01*
X1279913Y965753D01*
X1279788Y965104D01*
X1279588Y964429D01*
X1279338Y963779D01*
Y963754D01*
X1279313Y963704D01*
X1279263Y963629D01*
X1279188Y963504D01*
X1279113Y963354D01*
X1279013Y963204D01*
X1278763Y962829D01*
X1278438Y962404D01*
X1278063Y961954D01*
X1277614Y961555D01*
X1277089Y961180D01*
X1277064D01*
X1277014Y961130D01*
X1276939Y961105D01*
X1276839Y961030D01*
X1276714Y960980D01*
X1276539Y960905D01*
X1276164Y960730D01*
X1275714Y960555D01*
X1275189Y960430D01*
X1274614Y960330D01*
X1274014Y960280D01*
X1273814D01*
X1273590Y960305D01*
X1273315Y960355D01*
X1272990Y960405D01*
X1272615Y960480D01*
X1272265Y960605D01*
X1271890Y960780D01*
X1271840Y960805D01*
X1271740Y960880D01*
X1271565Y960980D01*
X1271365Y961130D01*
X1271115Y961305D01*
X1270865Y961530D01*
X1270615Y961755D01*
X1270365Y962029D01*
Y955256D01*
X1268016D01*
Y974501D01*
X1270165D01*
Y972677D01*
X1270190Y972727D01*
X1270290Y972852D01*
X1270465Y973027D01*
X1270665Y973277D01*
X1270915Y973527D01*
X1271190Y973776D01*
X1271515Y974026D01*
X1271865Y974251D01*
X1271915Y974276D01*
X1272040Y974326D01*
X1272240Y974426D01*
X1272515Y974526D01*
X1272865Y974626D01*
X1273265Y974726D01*
X1273715Y974776D01*
X1274189Y974801D01*
X1274364D01*
X1274489Y974776D01*
D02*
G37*
G36*
X1337698Y960580D02*
X1335274D01*
X1333049Y968903D01*
X1332500Y971277D01*
X1329675Y960580D01*
X1327201D01*
X1322977Y974501D01*
X1325426D01*
X1327651Y966453D01*
X1328450Y963454D01*
Y963479D01*
X1328475Y963529D01*
X1328501Y963654D01*
X1328526Y963779D01*
X1328551Y963904D01*
X1328600Y964054D01*
X1328651Y964254D01*
X1328700Y964479D01*
X1328775Y964754D01*
X1328850Y965079D01*
X1328950Y965454D01*
X1329050Y965854D01*
X1329175Y966328D01*
X1331375Y974501D01*
X1333799D01*
X1335899Y966403D01*
X1336573Y963754D01*
X1337373Y966453D01*
X1339773Y974501D01*
X1342072D01*
X1337698Y960580D01*
D02*
G37*
G36*
X1296459D02*
X1294184D01*
X1288936Y974501D01*
X1291435D01*
X1294409Y966153D01*
Y966128D01*
X1294434Y966103D01*
X1294459Y966028D01*
X1294484Y965928D01*
X1294584Y965654D01*
X1294709Y965304D01*
X1294859Y964879D01*
X1295009Y964404D01*
X1295159Y963879D01*
X1295309Y963354D01*
Y963379D01*
X1295334Y963404D01*
X1295359Y963554D01*
X1295434Y963779D01*
X1295534Y964104D01*
X1295659Y964479D01*
X1295809Y964929D01*
X1295984Y965454D01*
X1296184Y966003D01*
X1299258Y974501D01*
X1301707D01*
X1296459Y960580D01*
D02*
G37*
G36*
X1306156D02*
X1303807D01*
Y974501D01*
X1306156D01*
Y960580D01*
D02*
G37*
G36*
X1248396Y974501D02*
X1250770D01*
Y972677D01*
X1248396D01*
Y964529D01*
Y964479D01*
Y964354D01*
Y964179D01*
X1248421Y963979D01*
Y963754D01*
X1248446Y963529D01*
X1248471Y963354D01*
X1248496Y963204D01*
X1248521Y963154D01*
X1248596Y963054D01*
X1248721Y962904D01*
X1248896Y962754D01*
X1248921D01*
X1248946Y962729D01*
X1249021Y962704D01*
X1249121Y962679D01*
X1249371Y962629D01*
X1249721Y962604D01*
X1249996D01*
X1250146Y962629D01*
X1250346D01*
X1250546Y962654D01*
X1250770Y962679D01*
X1251095Y960605D01*
X1251045D01*
X1250920Y960580D01*
X1250745Y960555D01*
X1250496Y960505D01*
X1250220Y960480D01*
X1249921Y960430D01*
X1249296Y960405D01*
X1249096D01*
X1248846Y960430D01*
X1248571Y960455D01*
X1248246Y960505D01*
X1247921Y960580D01*
X1247596Y960680D01*
X1247321Y960805D01*
X1247296Y960830D01*
X1247196Y960880D01*
X1247096Y960955D01*
X1246946Y961080D01*
X1246771Y961230D01*
X1246597Y961430D01*
X1246447Y961630D01*
X1246321Y961854D01*
Y961880D01*
X1246272Y962004D01*
X1246247Y962179D01*
X1246197Y962454D01*
X1246172Y962629D01*
X1246147Y962829D01*
X1246122Y963054D01*
X1246097Y963329D01*
X1246072Y963604D01*
Y963929D01*
X1246047Y964279D01*
Y964654D01*
Y972677D01*
X1244297D01*
Y974501D01*
X1246047D01*
Y977925D01*
X1248396Y979350D01*
Y974501D01*
D02*
G37*
G36*
X1315929Y974776D02*
X1316154Y974751D01*
X1316429Y974701D01*
X1316754Y974651D01*
X1317078Y974576D01*
X1317428Y974476D01*
X1317803Y974326D01*
X1318178Y974176D01*
X1318553Y974001D01*
X1318953Y973776D01*
X1319328Y973527D01*
X1319678Y973227D01*
X1320028Y972902D01*
X1320053Y972877D01*
X1320103Y972802D01*
X1320203Y972702D01*
X1320303Y972552D01*
X1320428Y972352D01*
X1320578Y972127D01*
X1320753Y971852D01*
X1320927Y971527D01*
X1321077Y971152D01*
X1321252Y970752D01*
X1321402Y970327D01*
X1321527Y969853D01*
X1321627Y969328D01*
X1321727Y968778D01*
X1321777Y968178D01*
X1321802Y967553D01*
Y967503D01*
Y967403D01*
Y967203D01*
X1321777Y966928D01*
X1311405D01*
Y966903D01*
Y966828D01*
X1311430Y966703D01*
X1311455Y966553D01*
X1311480Y966353D01*
X1311505Y966128D01*
X1311605Y965629D01*
X1311780Y965054D01*
X1312005Y964479D01*
X1312305Y963929D01*
X1312480Y963679D01*
X1312679Y963429D01*
X1312704Y963404D01*
X1312729Y963379D01*
X1312805Y963329D01*
X1312879Y963254D01*
X1313154Y963054D01*
X1313479Y962829D01*
X1313904Y962604D01*
X1314404Y962429D01*
X1314979Y962279D01*
X1315279Y962254D01*
X1315604Y962229D01*
X1315829D01*
X1316054Y962254D01*
X1316379Y962304D01*
X1316703Y962404D01*
X1317078Y962504D01*
X1317453Y962679D01*
X1317803Y962904D01*
X1317853Y962929D01*
X1317953Y963029D01*
X1318128Y963204D01*
X1318328Y963429D01*
X1318553Y963729D01*
X1318803Y964129D01*
X1319053Y964579D01*
X1319253Y965104D01*
X1321702Y964779D01*
Y964754D01*
X1321677Y964679D01*
X1321652Y964579D01*
X1321577Y964429D01*
X1321527Y964254D01*
X1321427Y964029D01*
X1321227Y963554D01*
X1320927Y963029D01*
X1320553Y962479D01*
X1320103Y961929D01*
X1319578Y961455D01*
X1319553D01*
X1319503Y961405D01*
X1319428Y961355D01*
X1319303Y961280D01*
X1319153Y961180D01*
X1318953Y961080D01*
X1318753Y960980D01*
X1318503Y960880D01*
X1318228Y960755D01*
X1317928Y960655D01*
X1317603Y960555D01*
X1317253Y960455D01*
X1316479Y960330D01*
X1316054Y960305D01*
X1315604Y960280D01*
X1315479D01*
X1315304Y960305D01*
X1315104D01*
X1314854Y960330D01*
X1314554Y960380D01*
X1314204Y960430D01*
X1313854Y960505D01*
X1313479Y960605D01*
X1313079Y960730D01*
X1312679Y960880D01*
X1312280Y961080D01*
X1311880Y961280D01*
X1311480Y961530D01*
X1311105Y961830D01*
X1310755Y962154D01*
X1310730Y962179D01*
X1310680Y962254D01*
X1310580Y962354D01*
X1310480Y962504D01*
X1310355Y962704D01*
X1310205Y962929D01*
X1310030Y963204D01*
X1309880Y963504D01*
X1309705Y963879D01*
X1309530Y964254D01*
X1309380Y964704D01*
X1309255Y965154D01*
X1309155Y965678D01*
X1309055Y966203D01*
X1309005Y966778D01*
X1308981Y967403D01*
Y967453D01*
Y967553D01*
X1309005Y967753D01*
Y967978D01*
X1309030Y968278D01*
X1309081Y968628D01*
X1309131Y969003D01*
X1309205Y969403D01*
X1309305Y969827D01*
X1309430Y970277D01*
X1309555Y970727D01*
X1309730Y971177D01*
X1309955Y971627D01*
X1310180Y972077D01*
X1310455Y972477D01*
X1310780Y972852D01*
X1310805Y972877D01*
X1310855Y972927D01*
X1310955Y973027D01*
X1311105Y973152D01*
X1311280Y973302D01*
X1311505Y973476D01*
X1311755Y973652D01*
X1312030Y973826D01*
X1312355Y974001D01*
X1312704Y974176D01*
X1313104Y974351D01*
X1313504Y974501D01*
X1313954Y974626D01*
X1314429Y974726D01*
X1314929Y974776D01*
X1315454Y974801D01*
X1315729D01*
X1315929Y974776D01*
D02*
G37*
G36*
X1259193D02*
X1259443Y974751D01*
X1259718Y974701D01*
X1260043Y974651D01*
X1260393Y974576D01*
X1260743Y974476D01*
X1261118Y974326D01*
X1261518Y974176D01*
X1261917Y974001D01*
X1262317Y973776D01*
X1262692Y973527D01*
X1263067Y973227D01*
X1263417Y972902D01*
X1263442Y972877D01*
X1263492Y972827D01*
X1263592Y972702D01*
X1263692Y972552D01*
X1263842Y972377D01*
X1263992Y972127D01*
X1264167Y971852D01*
X1264342Y971552D01*
X1264492Y971202D01*
X1264667Y970827D01*
X1264817Y970402D01*
X1264967Y969927D01*
X1265067Y969428D01*
X1265167Y968903D01*
X1265217Y968328D01*
X1265242Y967728D01*
Y967703D01*
Y967603D01*
Y967478D01*
Y967278D01*
X1265217Y967053D01*
X1265192Y966803D01*
X1265167Y966503D01*
X1265142Y966203D01*
X1265042Y965529D01*
X1264892Y964829D01*
X1264692Y964129D01*
X1264567Y963804D01*
X1264417Y963504D01*
Y963479D01*
X1264392Y963429D01*
X1264342Y963354D01*
X1264267Y963254D01*
X1264092Y962979D01*
X1263817Y962629D01*
X1263492Y962254D01*
X1263092Y961854D01*
X1262617Y961480D01*
X1262067Y961130D01*
X1262042D01*
X1261992Y961105D01*
X1261917Y961055D01*
X1261793Y961005D01*
X1261668Y960930D01*
X1261493Y960855D01*
X1261068Y960705D01*
X1260593Y960555D01*
X1260018Y960405D01*
X1259393Y960305D01*
X1258718Y960280D01*
X1258593D01*
X1258443Y960305D01*
X1258243D01*
X1257993Y960330D01*
X1257719Y960380D01*
X1257394Y960430D01*
X1257044Y960505D01*
X1256669Y960605D01*
X1256294Y960730D01*
X1255919Y960880D01*
X1255519Y961055D01*
X1255119Y961280D01*
X1254744Y961530D01*
X1254370Y961805D01*
X1254020Y962129D01*
X1253995Y962154D01*
X1253945Y962229D01*
X1253845Y962329D01*
X1253745Y962479D01*
X1253595Y962679D01*
X1253445Y962904D01*
X1253295Y963179D01*
X1253120Y963504D01*
X1252945Y963879D01*
X1252795Y964279D01*
X1252645Y964704D01*
X1252495Y965204D01*
X1252395Y965729D01*
X1252295Y966278D01*
X1252245Y966878D01*
X1252220Y967528D01*
Y967578D01*
Y967703D01*
X1252245Y967903D01*
Y968153D01*
X1252295Y968478D01*
X1252345Y968853D01*
X1252395Y969253D01*
X1252495Y969678D01*
X1252595Y970152D01*
X1252745Y970627D01*
X1252920Y971102D01*
X1253120Y971577D01*
X1253370Y972027D01*
X1253645Y972477D01*
X1253970Y972877D01*
X1254344Y973252D01*
X1254370Y973277D01*
X1254419Y973327D01*
X1254519Y973402D01*
X1254669Y973502D01*
X1254844Y973602D01*
X1255044Y973752D01*
X1255294Y973876D01*
X1255569Y974026D01*
X1255869Y974176D01*
X1256194Y974301D01*
X1256569Y974451D01*
X1256944Y974551D01*
X1257369Y974651D01*
X1257794Y974726D01*
X1258243Y974776D01*
X1258718Y974801D01*
X1258993D01*
X1259193Y974776D01*
D02*
G37*
%LPC*%
G36*
X1344698Y1605648D02*
D01*
Y1599079D01*
X1352569D01*
X1352492Y1599668D01*
X1351686Y1601614D01*
X1350403Y1603285D01*
X1348732Y1604567D01*
X1346786Y1605373D01*
X1344698Y1605648D01*
D02*
G37*
G36*
X1260598D02*
D01*
Y1599079D01*
X1268469D01*
X1268392Y1599668D01*
X1267586Y1601614D01*
X1266303Y1603285D01*
X1264632Y1604567D01*
X1262686Y1605373D01*
X1260598Y1605648D01*
D02*
G37*
G36*
X1176498D02*
D01*
Y1599079D01*
X1184369D01*
X1184292Y1599668D01*
X1183486Y1601614D01*
X1182204Y1603285D01*
X1180532Y1604567D01*
X1178586Y1605373D01*
X1176498Y1605648D01*
D02*
G37*
G36*
X1092398D02*
D01*
Y1599079D01*
X1100269D01*
X1100192Y1599668D01*
X1099386Y1601614D01*
X1098104Y1603285D01*
X1096432Y1604567D01*
X1094486Y1605373D01*
X1092398Y1605648D01*
D02*
G37*
G36*
X1341698D02*
X1339609Y1605373D01*
X1337663Y1604567D01*
X1335992Y1603285D01*
X1334710Y1601614D01*
X1333904Y1599668D01*
X1333826Y1599079D01*
X1341698D01*
Y1605648D01*
D02*
G37*
G36*
X1257598D02*
X1255509Y1605373D01*
X1253563Y1604567D01*
X1251892Y1603285D01*
X1250610Y1601614D01*
X1249804Y1599668D01*
X1249726Y1599079D01*
X1257598D01*
Y1605648D01*
D02*
G37*
G36*
X1173498D02*
X1171410Y1605373D01*
X1169463Y1604567D01*
X1167792Y1603285D01*
X1166510Y1601614D01*
X1165704Y1599668D01*
X1165626Y1599079D01*
X1173498D01*
Y1605648D01*
D02*
G37*
G36*
X1089398D02*
X1087310Y1605373D01*
X1085363Y1604567D01*
X1083692Y1603285D01*
X1082410Y1601614D01*
X1081604Y1599668D01*
X1081526Y1599079D01*
X1089398D01*
Y1605648D01*
D02*
G37*
G36*
X1141999Y1612666D02*
X1139388Y1612322D01*
X1136956Y1611315D01*
X1134867Y1609712D01*
X1133264Y1607623D01*
X1132256Y1605190D01*
X1131913Y1602580D01*
X1132256Y1599969D01*
X1133264Y1597537D01*
X1134867Y1595448D01*
X1136956Y1593845D01*
X1139388Y1592837D01*
X1141999Y1592493D01*
X1144609Y1592837D01*
X1147042Y1593845D01*
X1149131Y1595448D01*
X1150734Y1597537D01*
X1151741Y1599969D01*
X1152085Y1602580D01*
X1151741Y1605190D01*
X1150734Y1607623D01*
X1149131Y1609712D01*
X1147042Y1611315D01*
X1144609Y1612322D01*
X1141999Y1612666D01*
D02*
G37*
G36*
X1352569Y1596079D02*
X1344698D01*
Y1589510D01*
X1346786Y1589785D01*
X1348732Y1590591D01*
X1350403Y1591874D01*
X1351686Y1593545D01*
X1352492Y1595491D01*
X1352569Y1596079D01*
D02*
G37*
G36*
X1268469D02*
X1260598D01*
Y1589510D01*
X1262686Y1589785D01*
X1264632Y1590591D01*
X1266303Y1591874D01*
X1267586Y1593545D01*
X1268392Y1595491D01*
X1268469Y1596079D01*
D02*
G37*
G36*
X1184369D02*
X1176498D01*
Y1589510D01*
X1178586Y1589785D01*
X1180532Y1590591D01*
X1182204Y1591874D01*
X1183486Y1593545D01*
X1184292Y1595491D01*
X1184369Y1596079D01*
D02*
G37*
G36*
X1100269D02*
X1092398D01*
Y1589510D01*
X1094486Y1589785D01*
X1096432Y1590591D01*
X1098104Y1591874D01*
X1099386Y1593545D01*
X1100192Y1595491D01*
X1100269Y1596079D01*
D02*
G37*
G36*
X1341698D02*
X1333826D01*
X1333904Y1595491D01*
X1334710Y1593545D01*
X1335992Y1591874D01*
X1337663Y1590591D01*
X1339609Y1589785D01*
X1341698Y1589510D01*
D01*
Y1596079D01*
D02*
G37*
G36*
X1257598D02*
X1249726D01*
X1249804Y1595491D01*
X1250610Y1593545D01*
X1251892Y1591874D01*
X1253563Y1590591D01*
X1255509Y1589785D01*
X1257598Y1589510D01*
D01*
Y1596079D01*
D02*
G37*
G36*
X1173498D02*
X1165626D01*
X1165704Y1595491D01*
X1166510Y1593545D01*
X1167792Y1591874D01*
X1169463Y1590591D01*
X1171410Y1589785D01*
X1173498Y1589510D01*
D01*
Y1596079D01*
D02*
G37*
G36*
X1089398D02*
X1081526D01*
X1081604Y1595491D01*
X1082410Y1593545D01*
X1083692Y1591874D01*
X1085363Y1590591D01*
X1087310Y1589785D01*
X1089398Y1589510D01*
D01*
Y1596079D01*
D02*
G37*
G36*
X1344698Y1585648D02*
X1341698D01*
X1339609Y1585373D01*
X1337663Y1584567D01*
X1335992Y1583285D01*
X1334710Y1581614D01*
X1333904Y1579668D01*
X1333629Y1577579D01*
X1333904Y1575491D01*
X1334710Y1573545D01*
X1335992Y1571874D01*
X1337663Y1570591D01*
X1339609Y1569785D01*
X1341698Y1569510D01*
X1344698D01*
X1346786Y1569785D01*
X1348732Y1570591D01*
X1350403Y1571874D01*
X1351686Y1573545D01*
X1352492Y1575491D01*
X1352767Y1577579D01*
X1352492Y1579668D01*
X1351686Y1581614D01*
X1350403Y1583285D01*
X1348732Y1584567D01*
X1346786Y1585373D01*
X1344698Y1585648D01*
D02*
G37*
G36*
X1260598D02*
X1257598D01*
X1255509Y1585373D01*
X1253563Y1584567D01*
X1251892Y1583285D01*
X1250610Y1581614D01*
X1249804Y1579668D01*
X1249529Y1577579D01*
X1249804Y1575491D01*
X1250610Y1573545D01*
X1251892Y1571874D01*
X1253563Y1570591D01*
X1255509Y1569785D01*
X1257598Y1569510D01*
X1260598D01*
X1262686Y1569785D01*
X1264632Y1570591D01*
X1266303Y1571874D01*
X1267586Y1573545D01*
X1268392Y1575491D01*
X1268667Y1577579D01*
X1268392Y1579668D01*
X1267586Y1581614D01*
X1266303Y1583285D01*
X1264632Y1584567D01*
X1262686Y1585373D01*
X1260598Y1585648D01*
D02*
G37*
G36*
X1176498D02*
X1173498D01*
X1171410Y1585373D01*
X1169463Y1584567D01*
X1167792Y1583285D01*
X1166510Y1581614D01*
X1165704Y1579668D01*
X1165429Y1577579D01*
X1165704Y1575491D01*
X1166510Y1573545D01*
X1167792Y1571874D01*
X1169463Y1570591D01*
X1171410Y1569785D01*
X1173498Y1569510D01*
X1176498D01*
X1178586Y1569785D01*
X1180532Y1570591D01*
X1182204Y1571874D01*
X1183486Y1573545D01*
X1184292Y1575491D01*
X1184567Y1577579D01*
X1184292Y1579668D01*
X1183486Y1581614D01*
X1182204Y1583285D01*
X1180532Y1584567D01*
X1178586Y1585373D01*
X1176498Y1585648D01*
D02*
G37*
G36*
X1092398D02*
X1089398D01*
X1087310Y1585373D01*
X1085363Y1584567D01*
X1083692Y1583285D01*
X1082410Y1581614D01*
X1081604Y1579668D01*
X1081329Y1577579D01*
X1081604Y1575491D01*
X1082410Y1573545D01*
X1083692Y1571874D01*
X1085363Y1570591D01*
X1087310Y1569785D01*
X1089398Y1569510D01*
X1092398D01*
X1094486Y1569785D01*
X1096432Y1570591D01*
X1098104Y1571874D01*
X1099386Y1573545D01*
X1100192Y1575491D01*
X1100467Y1577579D01*
X1100192Y1579668D01*
X1099386Y1581614D01*
X1098104Y1583285D01*
X1096432Y1584567D01*
X1094486Y1585373D01*
X1092398Y1585648D01*
D02*
G37*
G36*
X1462128Y1570495D02*
Y1559080D01*
X1473543D01*
X1473294Y1560974D01*
X1471984Y1564136D01*
X1469900Y1566852D01*
X1467185Y1568935D01*
X1464022Y1570245D01*
X1462128Y1570495D01*
D02*
G37*
G36*
X1459129D02*
X1457235Y1570245D01*
X1454072Y1568935D01*
X1451357Y1566852D01*
X1449273Y1564136D01*
X1447963Y1560974D01*
X1447714Y1559080D01*
X1459129D01*
Y1570495D01*
D02*
G37*
G36*
X1344698Y1565649D02*
X1341698D01*
X1339609Y1565374D01*
X1337663Y1564568D01*
X1335992Y1563286D01*
X1334710Y1561614D01*
X1333904Y1559668D01*
X1333629Y1557580D01*
X1333904Y1555491D01*
X1334710Y1553545D01*
X1335992Y1551874D01*
X1337663Y1550592D01*
X1339609Y1549786D01*
X1341698Y1549511D01*
X1344698D01*
X1346786Y1549786D01*
X1348732Y1550592D01*
X1350403Y1551874D01*
X1351686Y1553545D01*
X1352492Y1555491D01*
X1352767Y1557580D01*
X1352492Y1559668D01*
X1351686Y1561614D01*
X1350403Y1563286D01*
X1348732Y1564568D01*
X1346786Y1565374D01*
X1344698Y1565649D01*
D02*
G37*
G36*
X1260598D02*
X1257598D01*
X1255509Y1565374D01*
X1253563Y1564568D01*
X1251892Y1563286D01*
X1250610Y1561614D01*
X1249804Y1559668D01*
X1249529Y1557580D01*
X1249804Y1555491D01*
X1250610Y1553545D01*
X1251892Y1551874D01*
X1253563Y1550592D01*
X1255509Y1549786D01*
X1257598Y1549511D01*
X1260598D01*
X1262686Y1549786D01*
X1264632Y1550592D01*
X1266303Y1551874D01*
X1267586Y1553545D01*
X1268392Y1555491D01*
X1268667Y1557580D01*
X1268392Y1559668D01*
X1267586Y1561614D01*
X1266303Y1563286D01*
X1264632Y1564568D01*
X1262686Y1565374D01*
X1260598Y1565649D01*
D02*
G37*
G36*
X1176498D02*
X1173498D01*
X1171410Y1565374D01*
X1169463Y1564568D01*
X1167792Y1563286D01*
X1166510Y1561614D01*
X1165704Y1559668D01*
X1165429Y1557580D01*
X1165704Y1555491D01*
X1166510Y1553545D01*
X1167792Y1551874D01*
X1169463Y1550592D01*
X1171410Y1549786D01*
X1173498Y1549511D01*
X1176498D01*
X1178586Y1549786D01*
X1180532Y1550592D01*
X1182204Y1551874D01*
X1183486Y1553545D01*
X1184292Y1555491D01*
X1184567Y1557580D01*
X1184292Y1559668D01*
X1183486Y1561614D01*
X1182204Y1563286D01*
X1180532Y1564568D01*
X1178586Y1565374D01*
X1176498Y1565649D01*
D02*
G37*
G36*
X1092398D02*
X1089398D01*
X1087310Y1565374D01*
X1085363Y1564568D01*
X1083692Y1563286D01*
X1082410Y1561614D01*
X1081604Y1559668D01*
X1081329Y1557580D01*
X1081604Y1555491D01*
X1082410Y1553545D01*
X1083692Y1551874D01*
X1085363Y1550592D01*
X1087310Y1549786D01*
X1089398Y1549511D01*
X1092398D01*
X1094486Y1549786D01*
X1096432Y1550592D01*
X1098104Y1551874D01*
X1099386Y1553545D01*
X1100192Y1555491D01*
X1100467Y1557580D01*
X1100192Y1559668D01*
X1099386Y1561614D01*
X1098104Y1563286D01*
X1096432Y1564568D01*
X1094486Y1565374D01*
X1092398Y1565649D01*
D02*
G37*
G36*
X1473543Y1556080D02*
X1462128D01*
Y1544665D01*
X1464022Y1544915D01*
X1467185Y1546224D01*
X1469900Y1548308D01*
X1471984Y1551024D01*
X1473294Y1554186D01*
X1473543Y1556080D01*
D02*
G37*
G36*
X1459129D02*
X1447714D01*
X1447963Y1554186D01*
X1449273Y1551024D01*
X1451357Y1548308D01*
X1454072Y1546224D01*
X1457235Y1544915D01*
X1459129Y1544665D01*
Y1556080D01*
D02*
G37*
G36*
X1511429Y1570692D02*
X1508035Y1570245D01*
X1504872Y1568935D01*
X1502157Y1566852D01*
X1500073Y1564136D01*
X1498763Y1560974D01*
X1498316Y1557580D01*
X1498763Y1554186D01*
X1500073Y1551024D01*
X1502157Y1548308D01*
X1504872Y1546224D01*
X1508035Y1544915D01*
X1511429Y1544468D01*
X1514822Y1544915D01*
X1517985Y1546224D01*
X1520700Y1548308D01*
X1522784Y1551024D01*
X1524094Y1554186D01*
X1524541Y1557580D01*
X1524094Y1560974D01*
X1522784Y1564136D01*
X1520700Y1566852D01*
X1517985Y1568935D01*
X1514822Y1570245D01*
X1511429Y1570692D01*
D02*
G37*
G36*
X1352198Y1545580D02*
X1334198D01*
Y1529580D01*
X1352198D01*
Y1545580D01*
D02*
G37*
G36*
X1268098D02*
X1250098D01*
Y1529580D01*
X1268098D01*
Y1545580D01*
D02*
G37*
G36*
X1183998D02*
X1165998D01*
Y1529580D01*
X1183998D01*
Y1545580D01*
D02*
G37*
G36*
X1099898D02*
X1081898D01*
Y1529580D01*
X1099898D01*
Y1545580D01*
D02*
G37*
G36*
X1388499Y1513678D02*
X1386548Y1513290D01*
X1384894Y1512185D01*
X1384300Y1511297D01*
X1382109Y1511117D01*
X1381987Y1511160D01*
X1381803Y1511435D01*
X1380149Y1512540D01*
X1378198Y1512928D01*
X1376247Y1512540D01*
X1374593Y1511435D01*
X1373488Y1509781D01*
X1373100Y1507830D01*
X1373488Y1505879D01*
X1374593Y1504225D01*
X1376247Y1503120D01*
X1378198Y1502732D01*
X1378842Y1502860D01*
X1391785Y1489917D01*
X1391785Y1489917D01*
X1392777Y1489254D01*
X1393948Y1489021D01*
X1393948Y1489021D01*
X1407681D01*
X1408046Y1488475D01*
X1409700Y1487370D01*
X1411651Y1486982D01*
X1413602Y1487370D01*
X1415255Y1488475D01*
X1416360Y1490129D01*
X1416749Y1492080D01*
X1416360Y1494031D01*
X1415255Y1495685D01*
X1414279Y1496337D01*
X1413672Y1497509D01*
X1413798Y1498790D01*
X1414458Y1499778D01*
X1414846Y1501729D01*
X1414458Y1503680D01*
X1413353Y1505334D01*
X1411700Y1506439D01*
X1409749Y1506827D01*
X1407798Y1506439D01*
X1406144Y1505334D01*
X1405779Y1504788D01*
X1396616D01*
X1393468Y1507936D01*
X1393597Y1508580D01*
X1393208Y1510531D01*
X1392103Y1512185D01*
X1390450Y1513290D01*
X1388499Y1513678D01*
D02*
G37*
G36*
X1130999Y1471678D02*
X1129048Y1471290D01*
X1127394Y1470185D01*
X1125188Y1470484D01*
X1124704Y1470807D01*
X1122753Y1471196D01*
X1120802Y1470807D01*
X1119148Y1469702D01*
X1118043Y1468049D01*
X1117655Y1466098D01*
X1118043Y1464147D01*
X1119148Y1462493D01*
X1119690Y1462131D01*
Y1456550D01*
X1119144Y1456185D01*
X1118039Y1454531D01*
X1117651Y1452580D01*
X1118039Y1450629D01*
X1119144Y1448975D01*
X1120798Y1447870D01*
X1122749Y1447482D01*
X1124699Y1447870D01*
X1124770Y1447878D01*
X1126910Y1446942D01*
X1127054Y1446328D01*
X1126289Y1445183D01*
X1125901Y1443232D01*
X1126289Y1441281D01*
X1127394Y1439627D01*
X1129048Y1438522D01*
X1130999Y1438134D01*
X1132950Y1438522D01*
X1134603Y1439627D01*
X1135708Y1441281D01*
X1136097Y1443232D01*
X1135708Y1445183D01*
X1134603Y1446837D01*
X1134057Y1447202D01*
Y1462610D01*
X1134603Y1462975D01*
X1135708Y1464629D01*
X1136097Y1466580D01*
X1135708Y1468531D01*
X1134603Y1470185D01*
X1132950Y1471290D01*
X1130999Y1471678D01*
D02*
G37*
G36*
X1269248Y1498178D02*
X1267297Y1497790D01*
X1265643Y1496685D01*
X1264538Y1495031D01*
X1264150Y1493080D01*
X1264538Y1491129D01*
X1265643Y1489475D01*
X1266189Y1489110D01*
Y1479981D01*
X1266189Y1479980D01*
X1266422Y1478810D01*
X1267085Y1477818D01*
X1286753Y1458150D01*
X1286753Y1458150D01*
X1287745Y1457487D01*
X1288916Y1457254D01*
X1288916Y1457254D01*
X1302732D01*
X1302732Y1457254D01*
X1303902Y1457487D01*
X1304895Y1458150D01*
X1307354Y1460609D01*
X1307998Y1460481D01*
X1309949Y1460869D01*
X1311603Y1461974D01*
X1312708Y1463628D01*
X1313096Y1465579D01*
X1312708Y1467530D01*
X1311603Y1469184D01*
X1309949Y1470289D01*
X1307998Y1470677D01*
X1306047Y1470289D01*
X1304393Y1469184D01*
X1303288Y1467530D01*
X1302900Y1465579D01*
X1303028Y1464935D01*
X1301465Y1463372D01*
X1290182D01*
X1272307Y1481247D01*
Y1489110D01*
X1272853Y1489475D01*
X1273958Y1491129D01*
X1274346Y1493080D01*
X1273958Y1495031D01*
X1272853Y1496685D01*
X1271199Y1497790D01*
X1269248Y1498178D01*
D02*
G37*
G36*
X1195998Y1489677D02*
X1194047Y1489289D01*
X1192393Y1488184D01*
X1191288Y1486530D01*
X1190900Y1484579D01*
X1191288Y1482628D01*
X1192393Y1480974D01*
X1192940Y1480609D01*
Y1450759D01*
X1192588Y1450233D01*
X1192557Y1450217D01*
X1190557Y1451420D01*
Y1468855D01*
X1190324Y1470026D01*
X1189661Y1471018D01*
X1189661Y1471018D01*
X1182726Y1477954D01*
X1182854Y1478598D01*
X1182466Y1480549D01*
X1181360Y1482203D01*
X1179707Y1483308D01*
X1177756Y1483696D01*
X1175805Y1483308D01*
X1174151Y1482203D01*
X1173046Y1480549D01*
X1172658Y1478598D01*
X1173046Y1476647D01*
X1174151Y1474993D01*
X1175805Y1473888D01*
X1177756Y1473500D01*
X1178400Y1473628D01*
X1184440Y1467588D01*
Y1448607D01*
X1183894Y1448242D01*
X1182789Y1446588D01*
X1182401Y1444637D01*
X1182789Y1442686D01*
X1183894Y1441032D01*
X1185548Y1439927D01*
X1187499Y1439539D01*
X1189449Y1439927D01*
X1191103Y1441032D01*
X1193369Y1440823D01*
X1194048Y1440370D01*
X1195999Y1439982D01*
X1197950Y1440370D01*
X1199603Y1441475D01*
X1200708Y1443129D01*
X1201097Y1445080D01*
X1200708Y1447031D01*
X1199603Y1448685D01*
X1199057Y1449050D01*
Y1480610D01*
X1199603Y1480974D01*
X1200708Y1482628D01*
X1201096Y1484579D01*
X1200708Y1486530D01*
X1199603Y1488184D01*
X1197949Y1489289D01*
X1195998Y1489677D01*
D02*
G37*
G36*
X1359999Y1485928D02*
X1358048Y1485540D01*
X1356394Y1484435D01*
X1355289Y1482781D01*
X1354901Y1480830D01*
X1355289Y1478879D01*
X1356394Y1477225D01*
X1356690Y1477027D01*
Y1457800D01*
X1356144Y1457435D01*
X1355039Y1455781D01*
X1354651Y1453830D01*
X1355039Y1451879D01*
X1356144Y1450225D01*
X1357798Y1449120D01*
X1359749Y1448732D01*
X1361700Y1449120D01*
X1363353Y1450225D01*
X1364458Y1451879D01*
X1364846Y1453830D01*
X1364458Y1455781D01*
X1363353Y1457435D01*
X1362807Y1457800D01*
Y1476693D01*
X1363603Y1477225D01*
X1364709Y1478879D01*
X1365097Y1480830D01*
X1364709Y1482781D01*
X1363603Y1484435D01*
X1361949Y1485540D01*
X1359999Y1485928D01*
D02*
G37*
G36*
X1155148Y1474678D02*
X1153197Y1474290D01*
X1151543Y1473184D01*
X1150438Y1471530D01*
X1150050Y1469580D01*
X1150438Y1467629D01*
X1151069Y1466684D01*
Y1458497D01*
X1151069Y1458497D01*
X1151380Y1456936D01*
X1152264Y1455613D01*
X1158689Y1449188D01*
X1159045Y1447396D01*
X1160150Y1445742D01*
X1161804Y1444637D01*
X1163755Y1444249D01*
X1165706Y1444637D01*
X1167360Y1445742D01*
X1168465Y1447396D01*
X1168853Y1449347D01*
X1168465Y1451298D01*
X1167360Y1452952D01*
X1165706Y1454057D01*
X1165268Y1454144D01*
X1159226Y1460186D01*
Y1466684D01*
X1159857Y1467629D01*
X1160246Y1469580D01*
X1159857Y1471530D01*
X1158752Y1473184D01*
X1157098Y1474290D01*
X1155148Y1474678D01*
D02*
G37*
G36*
X1379265Y1446444D02*
X1377315Y1446056D01*
X1375661Y1444951D01*
X1374556Y1443297D01*
X1374168Y1441346D01*
X1374296Y1440702D01*
X1366732Y1433139D01*
X1361218D01*
X1360853Y1433685D01*
X1359200Y1434790D01*
X1357249Y1435178D01*
X1355298Y1434790D01*
X1353644Y1433685D01*
X1352539Y1432031D01*
X1352151Y1430080D01*
X1352437Y1428638D01*
X1351313Y1426638D01*
X1348968D01*
X1348603Y1427184D01*
X1346949Y1428289D01*
X1344998Y1428677D01*
X1343047Y1428289D01*
X1341393Y1427184D01*
X1340288Y1425530D01*
X1339900Y1423579D01*
X1340288Y1421628D01*
X1341393Y1419974D01*
X1343047Y1418869D01*
X1344366Y1418607D01*
X1346151Y1417330D01*
X1346539Y1415379D01*
X1347644Y1413725D01*
X1349298Y1412620D01*
X1351249Y1412232D01*
X1353199Y1412620D01*
X1354853Y1413725D01*
X1355218Y1414271D01*
X1377296D01*
X1377494Y1413975D01*
X1379148Y1412870D01*
X1381099Y1412482D01*
X1383050Y1412870D01*
X1384704Y1413975D01*
X1385809Y1415629D01*
X1386197Y1417580D01*
X1385809Y1419531D01*
X1384704Y1421185D01*
X1383050Y1422290D01*
X1381332Y1422632D01*
X1381099Y1422678D01*
X1381003Y1424581D01*
X1381199Y1424620D01*
X1382853Y1425725D01*
X1383958Y1427379D01*
X1384347Y1429330D01*
X1383958Y1431281D01*
X1382853Y1432935D01*
X1381199Y1434040D01*
X1379807Y1434317D01*
Y1436356D01*
X1381216Y1436637D01*
X1382870Y1437742D01*
X1383975Y1439395D01*
X1384364Y1441346D01*
X1383975Y1443297D01*
X1382870Y1444951D01*
X1381216Y1446056D01*
X1379265Y1446444D01*
D02*
G37*
G36*
X1461999Y1452666D02*
X1459388Y1452322D01*
X1456956Y1451315D01*
X1454867Y1449712D01*
X1453264Y1447623D01*
X1452256Y1445190D01*
X1451913Y1442580D01*
X1452256Y1439969D01*
X1453264Y1437537D01*
X1454867Y1435448D01*
X1456956Y1433845D01*
X1459388Y1432837D01*
X1461999Y1432494D01*
X1464609Y1432837D01*
X1467042Y1433845D01*
X1469131Y1435448D01*
X1470734Y1437537D01*
X1471741Y1439969D01*
X1472085Y1442580D01*
X1471741Y1445190D01*
X1470734Y1447623D01*
X1469131Y1449712D01*
X1467042Y1451315D01*
X1464609Y1452322D01*
X1461999Y1452666D01*
D02*
G37*
G36*
X1516999Y1436706D02*
Y1429830D01*
X1523875D01*
X1523780Y1430549D01*
X1522923Y1432616D01*
X1521561Y1434392D01*
X1519785Y1435755D01*
X1517717Y1436611D01*
X1516999Y1436706D01*
D02*
G37*
G36*
X1513999Y1436706D02*
X1513280Y1436611D01*
X1511212Y1435755D01*
X1509436Y1434392D01*
X1508074Y1432616D01*
X1507217Y1430549D01*
X1507123Y1429830D01*
X1513999D01*
Y1436706D01*
D02*
G37*
G36*
X1239999Y1434677D02*
X1238048Y1434289D01*
X1236394Y1433184D01*
X1235289Y1431530D01*
X1234901Y1429579D01*
X1234908Y1429541D01*
X1219917Y1414550D01*
X1219272Y1414678D01*
X1217321Y1414290D01*
X1215668Y1413185D01*
X1214563Y1411531D01*
X1214174Y1409580D01*
X1214563Y1407629D01*
X1215668Y1405975D01*
X1217321Y1404870D01*
X1219272Y1404482D01*
X1221223Y1404870D01*
X1222877Y1405975D01*
X1223982Y1407629D01*
X1224370Y1409580D01*
X1224242Y1410224D01*
X1238748Y1424730D01*
X1239999Y1424481D01*
X1241949Y1424869D01*
X1243603Y1425974D01*
X1244708Y1427628D01*
X1245097Y1429579D01*
X1244708Y1431530D01*
X1243603Y1433184D01*
X1241949Y1434289D01*
X1239999Y1434677D01*
D02*
G37*
G36*
X1523874Y1426830D02*
X1516999D01*
Y1419954D01*
X1517717Y1420049D01*
X1519785Y1420905D01*
X1521561Y1422268D01*
X1522923Y1424043D01*
X1523780Y1426111D01*
X1523874Y1426830D01*
D02*
G37*
G36*
X1513999D02*
X1507123D01*
X1507217Y1426111D01*
X1508074Y1424043D01*
X1509436Y1422268D01*
X1511212Y1420905D01*
X1513280Y1420049D01*
X1513999Y1419954D01*
Y1426830D01*
D02*
G37*
G36*
X1399999Y1438553D02*
X1398048Y1438165D01*
X1396394Y1437060D01*
X1395289Y1435406D01*
X1394901Y1433455D01*
X1395289Y1431504D01*
X1396394Y1429850D01*
X1398048Y1428745D01*
X1399999Y1428357D01*
X1400643Y1428485D01*
X1404091Y1425037D01*
X1403901Y1424080D01*
X1404289Y1422129D01*
X1405394Y1420475D01*
X1407048Y1419370D01*
X1408999Y1418982D01*
X1410950Y1419370D01*
X1412603Y1420475D01*
X1413708Y1422129D01*
X1414097Y1424080D01*
X1413708Y1426031D01*
X1412603Y1427685D01*
X1410950Y1428790D01*
X1408999Y1429178D01*
X1408667Y1429112D01*
X1404968Y1432811D01*
X1405097Y1433455D01*
X1404709Y1435406D01*
X1403603Y1437060D01*
X1401949Y1438165D01*
X1399999Y1438553D01*
D02*
G37*
G36*
X1140249Y1425969D02*
Y1417580D01*
X1148637D01*
X1148491Y1418690D01*
X1147484Y1421123D01*
X1145881Y1423212D01*
X1143792Y1424815D01*
X1141359Y1425822D01*
X1140249Y1425969D01*
D02*
G37*
G36*
X1137249D02*
X1136138Y1425822D01*
X1133706Y1424815D01*
X1131617Y1423212D01*
X1130014Y1421123D01*
X1129006Y1418690D01*
X1128860Y1417580D01*
X1137249D01*
Y1425969D01*
D02*
G37*
G36*
X1148637Y1414580D02*
X1140249D01*
Y1406191D01*
X1141359Y1406337D01*
X1143792Y1407345D01*
X1145881Y1408948D01*
X1147484Y1411037D01*
X1148491Y1413469D01*
X1148637Y1414580D01*
D02*
G37*
G36*
X1137249D02*
X1128860D01*
X1129006Y1413469D01*
X1130014Y1411037D01*
X1131617Y1408948D01*
X1133706Y1407345D01*
X1136138Y1406337D01*
X1137249Y1406191D01*
Y1414580D01*
D02*
G37*
G36*
X1072546Y1426078D02*
X1052547D01*
Y1406078D01*
X1072546D01*
Y1426078D01*
D02*
G37*
G36*
X1164149Y1426166D02*
X1161538Y1425822D01*
X1159106Y1424815D01*
X1157017Y1423212D01*
X1155414Y1421123D01*
X1154406Y1418690D01*
X1154062Y1416080D01*
X1154406Y1413469D01*
X1155414Y1411037D01*
X1157017Y1408948D01*
X1159106Y1407345D01*
X1161538Y1406337D01*
X1164149Y1405994D01*
X1166759Y1406337D01*
X1169192Y1407345D01*
X1171281Y1408948D01*
X1172884Y1411037D01*
X1173891Y1413469D01*
X1174235Y1416080D01*
X1173891Y1418690D01*
X1172884Y1421123D01*
X1171281Y1423212D01*
X1169192Y1424815D01*
X1166759Y1425822D01*
X1164149Y1426166D01*
D02*
G37*
G36*
X1113347Y1426165D02*
X1110737Y1425821D01*
X1108304Y1424813D01*
X1106215Y1423210D01*
X1104612Y1421121D01*
X1103605Y1418689D01*
X1103261Y1416078D01*
X1103605Y1413468D01*
X1104612Y1411035D01*
X1106215Y1408946D01*
X1108304Y1407343D01*
X1110737Y1406336D01*
X1113347Y1405992D01*
X1115958Y1406336D01*
X1118390Y1407343D01*
X1120479Y1408946D01*
X1122082Y1411035D01*
X1123090Y1413468D01*
X1123433Y1416078D01*
X1123090Y1418689D01*
X1122082Y1421121D01*
X1120479Y1423210D01*
X1118390Y1424813D01*
X1115958Y1425821D01*
X1113347Y1426165D01*
D02*
G37*
G36*
X1087947Y1426163D02*
X1085337Y1425819D01*
X1082904Y1424812D01*
X1080815Y1423209D01*
X1079212Y1421120D01*
X1078204Y1418687D01*
X1077861Y1416077D01*
X1078204Y1413466D01*
X1079212Y1411034D01*
X1080815Y1408945D01*
X1082904Y1407342D01*
X1085337Y1406334D01*
X1087947Y1405990D01*
X1090558Y1406334D01*
X1092990Y1407342D01*
X1095079Y1408945D01*
X1096682Y1411034D01*
X1097690Y1413466D01*
X1098033Y1416077D01*
X1097690Y1418687D01*
X1096682Y1421120D01*
X1095079Y1423209D01*
X1092990Y1424812D01*
X1090558Y1425819D01*
X1087947Y1426163D01*
D02*
G37*
G36*
X1415767Y1411193D02*
X1413816Y1410804D01*
X1412162Y1409699D01*
X1411057Y1408046D01*
X1410669Y1406095D01*
X1410797Y1405451D01*
X1391603Y1386257D01*
X1390940Y1385264D01*
X1390708Y1384094D01*
X1390708Y1384093D01*
Y1361562D01*
X1390161Y1361197D01*
X1389056Y1359543D01*
X1388668Y1357592D01*
X1389056Y1355641D01*
X1390161Y1353987D01*
X1391815Y1352882D01*
X1393766Y1352494D01*
X1395717Y1352882D01*
X1397371Y1353987D01*
X1398476Y1355641D01*
X1398864Y1357592D01*
X1398476Y1359543D01*
X1397371Y1361197D01*
X1396825Y1361562D01*
Y1382827D01*
X1415123Y1401125D01*
X1415767Y1400997D01*
X1417718Y1401385D01*
X1419372Y1402490D01*
X1420477Y1404144D01*
X1420865Y1406095D01*
X1420477Y1408046D01*
X1419372Y1409699D01*
X1417718Y1410804D01*
X1415767Y1411193D01*
D02*
G37*
G36*
X1550013Y1396578D02*
X1541513D01*
Y1388078D01*
X1550013D01*
Y1396578D01*
D02*
G37*
G36*
Y1385078D02*
X1541513D01*
Y1376578D01*
X1550013D01*
Y1385078D01*
D02*
G37*
G36*
X1526113Y1396666D02*
X1523502Y1396322D01*
X1521069Y1395315D01*
X1518981Y1393712D01*
X1517378Y1391623D01*
X1516370Y1389190D01*
X1516026Y1386580D01*
X1516370Y1383969D01*
X1517378Y1381537D01*
X1518981Y1379448D01*
X1521069Y1377845D01*
X1523502Y1376837D01*
X1526113Y1376494D01*
X1528723Y1376837D01*
X1531156Y1377845D01*
X1533245Y1379448D01*
X1534848Y1381537D01*
X1535855Y1383969D01*
X1536199Y1386580D01*
X1535855Y1389190D01*
X1534848Y1391623D01*
X1533245Y1393712D01*
X1531156Y1395315D01*
X1528723Y1396322D01*
X1526113Y1396666D01*
D02*
G37*
G36*
X1424513D02*
X1421902Y1396322D01*
X1419469Y1395315D01*
X1417381Y1393712D01*
X1415778Y1391623D01*
X1414770Y1389190D01*
X1414426Y1386580D01*
X1414770Y1383969D01*
X1415778Y1381537D01*
X1417381Y1379448D01*
X1419469Y1377845D01*
X1421902Y1376837D01*
X1424513Y1376494D01*
X1427123Y1376837D01*
X1429556Y1377845D01*
X1431645Y1379448D01*
X1433248Y1381537D01*
X1434255Y1383969D01*
X1434599Y1386580D01*
X1434255Y1389190D01*
X1433248Y1391623D01*
X1431645Y1393712D01*
X1429556Y1395315D01*
X1427123Y1396322D01*
X1424513Y1396666D01*
D02*
G37*
G36*
X1500713Y1396665D02*
X1498102Y1396321D01*
X1495670Y1395313D01*
X1493581Y1393710D01*
X1491978Y1391621D01*
X1490970Y1389189D01*
X1490626Y1386578D01*
X1490970Y1383968D01*
X1491978Y1381535D01*
X1493581Y1379446D01*
X1495670Y1377843D01*
X1498102Y1376836D01*
X1500713Y1376492D01*
X1503323Y1376836D01*
X1505756Y1377843D01*
X1507845Y1379446D01*
X1509448Y1381535D01*
X1510455Y1383968D01*
X1510799Y1386578D01*
X1510455Y1389189D01*
X1509448Y1391621D01*
X1507845Y1393710D01*
X1505756Y1395313D01*
X1503323Y1396321D01*
X1500713Y1396665D01*
D02*
G37*
G36*
X1475313Y1396666D02*
X1472702Y1396322D01*
X1470269Y1395315D01*
X1468181Y1393712D01*
X1466578Y1391623D01*
X1465570Y1389190D01*
X1465226Y1386580D01*
X1465570Y1383969D01*
X1466392Y1381985D01*
X1460296Y1375889D01*
X1455463D01*
X1454994Y1377696D01*
X1455015Y1377889D01*
X1457045Y1379446D01*
X1458648Y1381535D01*
X1459655Y1383968D01*
X1459999Y1386578D01*
X1459655Y1389189D01*
X1458648Y1391621D01*
X1457045Y1393710D01*
X1454956Y1395313D01*
X1452523Y1396321D01*
X1449913Y1396665D01*
X1447302Y1396321D01*
X1444870Y1395313D01*
X1442781Y1393710D01*
X1441178Y1391621D01*
X1440170Y1389189D01*
X1439826Y1386578D01*
X1440170Y1383968D01*
X1440992Y1381983D01*
X1412391Y1353382D01*
X1412162Y1353428D01*
X1410212Y1353040D01*
X1408558Y1351935D01*
X1407453Y1350281D01*
X1407065Y1348330D01*
X1407453Y1346379D01*
X1408558Y1344725D01*
X1410212Y1343620D01*
X1412162Y1343232D01*
X1413735Y1341505D01*
X1413808Y1341141D01*
X1414913Y1339487D01*
X1416567Y1338382D01*
X1418517Y1337994D01*
X1420468Y1338382D01*
X1422122Y1339487D01*
X1423227Y1341141D01*
X1423615Y1343092D01*
X1423487Y1343736D01*
X1449523Y1369771D01*
X1461562D01*
X1461563Y1369771D01*
X1462733Y1370004D01*
X1463725Y1370667D01*
X1470718Y1377659D01*
X1472702Y1376837D01*
X1475313Y1376494D01*
X1477923Y1376837D01*
X1480356Y1377845D01*
X1482445Y1379448D01*
X1484048Y1381537D01*
X1485055Y1383969D01*
X1485399Y1386580D01*
X1485055Y1389190D01*
X1484048Y1391623D01*
X1482445Y1393712D01*
X1480356Y1395315D01*
X1477923Y1396322D01*
X1475313Y1396666D01*
D02*
G37*
G36*
X1265999Y1446678D02*
X1264048Y1446290D01*
X1262394Y1445185D01*
X1261289Y1443531D01*
X1260901Y1441580D01*
X1261289Y1439629D01*
X1262394Y1437975D01*
X1262940Y1437610D01*
Y1388549D01*
X1262394Y1388185D01*
X1261289Y1386531D01*
X1260901Y1384580D01*
X1261289Y1382629D01*
X1262394Y1380975D01*
X1264048Y1379870D01*
X1264946Y1379691D01*
X1266901Y1379266D01*
X1267289Y1377315D01*
X1268394Y1375661D01*
X1270048Y1374556D01*
X1271999Y1374168D01*
X1273950Y1374556D01*
X1275603Y1375661D01*
X1276709Y1377315D01*
X1277096Y1379266D01*
X1276709Y1381217D01*
X1275665Y1382778D01*
Y1429718D01*
X1276211Y1430083D01*
X1277316Y1431737D01*
X1277704Y1433688D01*
X1277316Y1435639D01*
X1276211Y1437293D01*
X1274557Y1438398D01*
X1272607Y1438786D01*
X1272417Y1438748D01*
X1272241Y1438839D01*
X1270878Y1440481D01*
X1271096Y1441580D01*
X1270708Y1443531D01*
X1269603Y1445185D01*
X1267950Y1446290D01*
X1265999Y1446678D01*
D02*
G37*
G36*
X1516499Y1342206D02*
Y1335330D01*
X1523374D01*
X1523280Y1336049D01*
X1522423Y1338116D01*
X1521061Y1339892D01*
X1519285Y1341255D01*
X1517218Y1342111D01*
X1516499Y1342206D01*
D02*
G37*
G36*
X1513499Y1342206D02*
X1512780Y1342111D01*
X1510712Y1341255D01*
X1508936Y1339892D01*
X1507574Y1338116D01*
X1506717Y1336049D01*
X1506623Y1335330D01*
X1513499D01*
Y1342206D01*
D02*
G37*
G36*
X1438499Y1337399D02*
X1436548Y1337011D01*
X1434894Y1335905D01*
X1433789Y1334252D01*
X1433401Y1332301D01*
X1431486Y1331672D01*
X1414218D01*
X1413853Y1332218D01*
X1412200Y1333323D01*
X1410249Y1333712D01*
X1408298Y1333323D01*
X1406644Y1332218D01*
X1405539Y1330564D01*
X1405151Y1328613D01*
X1405539Y1326663D01*
X1406644Y1325009D01*
X1408298Y1323904D01*
X1410249Y1323516D01*
X1412200Y1323904D01*
X1413853Y1325009D01*
X1414218Y1325555D01*
X1434541D01*
X1434541Y1325555D01*
X1435712Y1325788D01*
X1436704Y1326451D01*
X1437629Y1327376D01*
X1438499Y1327203D01*
X1440450Y1327591D01*
X1442103Y1328696D01*
X1443208Y1330350D01*
X1443597Y1332301D01*
X1443208Y1334252D01*
X1442103Y1335905D01*
X1440450Y1337011D01*
X1438499Y1337399D01*
D02*
G37*
G36*
X1246999Y1334178D02*
X1245048Y1333790D01*
X1243394Y1332685D01*
X1242575Y1331459D01*
X1241786Y1330990D01*
X1240216Y1330861D01*
X1239200Y1331540D01*
X1237249Y1331928D01*
X1235298Y1331540D01*
X1233644Y1330435D01*
X1232539Y1328781D01*
X1232151Y1326830D01*
X1232539Y1324879D01*
X1233644Y1323225D01*
X1235298Y1322120D01*
X1237249Y1321732D01*
X1237893Y1321860D01*
X1238836Y1320917D01*
X1238836Y1320917D01*
X1239828Y1320254D01*
X1240999Y1320021D01*
X1282232D01*
X1301779Y1300474D01*
X1301651Y1299830D01*
X1302039Y1297879D01*
X1303144Y1296225D01*
X1304798Y1295120D01*
X1306749Y1294732D01*
X1308699Y1295120D01*
X1310353Y1296225D01*
X1311458Y1297879D01*
X1311847Y1299830D01*
X1311458Y1301781D01*
X1310353Y1303435D01*
X1309690Y1303878D01*
X1309603Y1306225D01*
X1310708Y1307879D01*
X1311097Y1309830D01*
X1310708Y1311781D01*
X1309603Y1313435D01*
X1307950Y1314540D01*
X1305999Y1314928D01*
X1305354Y1314800D01*
X1288911Y1331243D01*
X1287919Y1331906D01*
X1286749Y1332139D01*
X1286749Y1332139D01*
X1250968D01*
X1250603Y1332685D01*
X1248950Y1333790D01*
X1246999Y1334178D01*
D02*
G37*
G36*
X1523374Y1332330D02*
X1516499D01*
Y1325454D01*
X1517218Y1325549D01*
X1519285Y1326405D01*
X1521061Y1327768D01*
X1522423Y1329543D01*
X1523280Y1331611D01*
X1523374Y1332330D01*
D02*
G37*
G36*
X1513499D02*
X1506623D01*
X1506717Y1331611D01*
X1507574Y1329543D01*
X1508936Y1327768D01*
X1510712Y1326405D01*
X1512780Y1325549D01*
X1513499Y1325454D01*
Y1332330D01*
D02*
G37*
G36*
X1543499Y1342330D02*
X1526499D01*
Y1325330D01*
X1543499D01*
Y1342330D01*
D02*
G37*
G36*
X1356514Y1319438D02*
X1354563Y1319050D01*
X1352910Y1317945D01*
X1351805Y1316291D01*
X1351416Y1314340D01*
X1351805Y1312389D01*
X1352910Y1310735D01*
X1354563Y1309630D01*
X1356514Y1309242D01*
X1358465Y1309630D01*
X1360119Y1310735D01*
X1360484Y1311281D01*
X1369186D01*
X1369889Y1310230D01*
X1371543Y1309125D01*
X1373493Y1308737D01*
X1375444Y1309125D01*
X1377098Y1310230D01*
X1378203Y1311884D01*
X1378591Y1313835D01*
X1378203Y1315786D01*
X1377098Y1317440D01*
X1375444Y1318545D01*
X1373493Y1318933D01*
X1371543Y1318545D01*
X1369889Y1317440D01*
X1369861Y1317399D01*
X1360484D01*
X1360119Y1317945D01*
X1358465Y1319050D01*
X1356514Y1319438D01*
D02*
G37*
G36*
X1320999Y1340678D02*
X1319048Y1340290D01*
X1317394Y1339185D01*
X1316289Y1337531D01*
X1315901Y1335580D01*
X1316289Y1333629D01*
X1317394Y1331975D01*
X1317940Y1331610D01*
Y1326471D01*
X1317940Y1326471D01*
X1318173Y1325301D01*
X1318836Y1324308D01*
X1328920Y1314224D01*
X1328792Y1313580D01*
X1329180Y1311629D01*
X1330285Y1309975D01*
X1331939Y1308870D01*
X1333890Y1308482D01*
X1335841Y1308870D01*
X1337495Y1309975D01*
X1338600Y1311629D01*
X1338988Y1313580D01*
X1338600Y1315531D01*
X1337495Y1317185D01*
X1335841Y1318290D01*
X1333890Y1318678D01*
X1333246Y1318550D01*
X1324057Y1327738D01*
Y1331610D01*
X1324603Y1331975D01*
X1325708Y1333629D01*
X1326097Y1335580D01*
X1325708Y1337531D01*
X1324603Y1339185D01*
X1322950Y1340290D01*
X1320999Y1340678D01*
D02*
G37*
G36*
X1488499Y1291678D02*
X1486548Y1291290D01*
X1484894Y1290185D01*
X1484529Y1289639D01*
X1478920D01*
X1478722Y1289935D01*
X1477068Y1291040D01*
X1475117Y1291428D01*
X1473166Y1291040D01*
X1471512Y1289935D01*
X1470407Y1288281D01*
X1470019Y1286330D01*
X1470407Y1284379D01*
X1471512Y1282725D01*
X1473166Y1281620D01*
X1475117Y1281232D01*
X1477068Y1281620D01*
X1478722Y1282725D01*
X1479254Y1283521D01*
X1484529D01*
X1484894Y1282975D01*
X1486548Y1281870D01*
X1488499Y1281482D01*
X1490450Y1281870D01*
X1492103Y1282975D01*
X1493208Y1284629D01*
X1493597Y1286580D01*
X1493208Y1288531D01*
X1492103Y1290185D01*
X1490450Y1291290D01*
X1488499Y1291678D01*
D02*
G37*
G36*
X1264848Y1313730D02*
X1244848D01*
Y1293730D01*
X1260523D01*
X1264440Y1289813D01*
Y1285542D01*
X1262440Y1284863D01*
X1261981Y1285462D01*
X1259892Y1287065D01*
X1257459Y1288072D01*
X1254848Y1288416D01*
X1252238Y1288072D01*
X1249805Y1287065D01*
X1247716Y1285462D01*
X1246114Y1283373D01*
X1245106Y1280940D01*
X1244762Y1278330D01*
X1245106Y1275719D01*
X1246114Y1273287D01*
X1247716Y1271198D01*
X1249805Y1269595D01*
X1252238Y1268587D01*
X1254848Y1268243D01*
X1257459Y1268587D01*
X1259443Y1269409D01*
X1265561Y1263291D01*
X1265803Y1262072D01*
X1266908Y1260418D01*
X1268562Y1259313D01*
X1269889Y1259050D01*
X1270002Y1258975D01*
X1270948Y1257532D01*
X1271113Y1257005D01*
X1270506Y1255540D01*
X1270360Y1254430D01*
X1280249D01*
X1290137D01*
X1289991Y1255540D01*
X1289308Y1257190D01*
X1289490Y1258701D01*
X1290183Y1259695D01*
X1291214Y1260385D01*
X1292319Y1262038D01*
X1292707Y1263989D01*
X1292319Y1265940D01*
X1291214Y1267594D01*
X1289560Y1268699D01*
X1287853Y1269039D01*
X1287453Y1269793D01*
X1287175Y1271040D01*
X1287381Y1271198D01*
X1288983Y1273287D01*
X1289991Y1275719D01*
X1290335Y1278330D01*
X1289991Y1280940D01*
X1288983Y1283373D01*
X1287381Y1285462D01*
X1285292Y1287065D01*
X1282859Y1288072D01*
X1280249Y1288416D01*
X1277638Y1288072D01*
X1275205Y1287065D01*
X1273116Y1285462D01*
X1272557Y1284733D01*
X1270557Y1285412D01*
Y1291080D01*
X1270324Y1292250D01*
X1269661Y1293242D01*
X1269661Y1293242D01*
X1264848Y1298055D01*
Y1313730D01*
D02*
G37*
G36*
X1416249Y1300678D02*
X1414298Y1300290D01*
X1412644Y1299185D01*
X1411539Y1297531D01*
X1411151Y1295580D01*
X1411539Y1293629D01*
X1412644Y1291975D01*
X1413349Y1291504D01*
Y1277133D01*
X1412803Y1276768D01*
X1411698Y1275114D01*
X1411310Y1273163D01*
X1411698Y1271212D01*
X1412803Y1269558D01*
X1414457Y1268453D01*
X1416408Y1268065D01*
X1418359Y1268453D01*
X1420013Y1269558D01*
X1421118Y1271212D01*
X1421506Y1273163D01*
X1421118Y1275114D01*
X1420013Y1276768D01*
X1419467Y1277133D01*
Y1291717D01*
X1419853Y1291975D01*
X1420959Y1293629D01*
X1421346Y1295580D01*
X1420959Y1297531D01*
X1419853Y1299185D01*
X1418199Y1300290D01*
X1416249Y1300678D01*
D02*
G37*
G36*
X1526749Y1276436D02*
X1516507D01*
X1514556Y1276048D01*
X1512902Y1274943D01*
X1498644Y1260685D01*
X1497539Y1259031D01*
X1497151Y1257080D01*
X1497539Y1255129D01*
X1498644Y1253475D01*
X1500298Y1252370D01*
X1502249Y1251982D01*
X1509749D01*
X1511700Y1252370D01*
X1513353Y1253475D01*
X1514458Y1255129D01*
X1514677Y1256229D01*
X1518931Y1260482D01*
X1523139D01*
X1523144Y1260475D01*
X1524798Y1259370D01*
X1526749Y1258982D01*
X1528699Y1259370D01*
X1530353Y1260475D01*
X1531458Y1262129D01*
X1531846Y1264080D01*
X1531763Y1264500D01*
X1531846Y1264920D01*
Y1271338D01*
X1531458Y1273289D01*
X1530353Y1274943D01*
X1528699Y1276048D01*
X1526749Y1276436D01*
D02*
G37*
G36*
X1280249Y1313816D02*
X1277638Y1313472D01*
X1275205Y1312465D01*
X1273116Y1310862D01*
X1271514Y1308773D01*
X1270506Y1306340D01*
X1270162Y1303730D01*
X1270506Y1301119D01*
X1271514Y1298687D01*
X1273116Y1296598D01*
X1275205Y1294995D01*
X1277638Y1293987D01*
X1280249Y1293643D01*
X1282859Y1293987D01*
X1283824Y1294387D01*
X1300045Y1278165D01*
Y1254026D01*
X1299414Y1253081D01*
X1299026Y1251130D01*
X1299414Y1249179D01*
X1300519Y1247525D01*
X1302173Y1246420D01*
X1304124Y1246032D01*
X1306074Y1246420D01*
X1307728Y1247525D01*
X1308833Y1249179D01*
X1309221Y1251130D01*
X1308833Y1253081D01*
X1308202Y1254026D01*
Y1279855D01*
X1308202Y1279855D01*
X1307891Y1281415D01*
X1307007Y1282738D01*
X1307007Y1282739D01*
X1289592Y1300154D01*
X1289991Y1301119D01*
X1290335Y1303730D01*
X1289991Y1306340D01*
X1288983Y1308773D01*
X1287381Y1310862D01*
X1285292Y1312465D01*
X1282859Y1313472D01*
X1280249Y1313816D01*
D02*
G37*
G36*
X1278748Y1251430D02*
X1270360D01*
X1270506Y1250319D01*
X1271514Y1247887D01*
X1273116Y1245798D01*
X1275205Y1244195D01*
X1277638Y1243187D01*
X1278748Y1243041D01*
Y1251430D01*
D02*
G37*
G36*
X1290137D02*
X1281749D01*
Y1243041D01*
X1282859Y1243187D01*
X1285292Y1244195D01*
X1287381Y1245798D01*
X1288983Y1247887D01*
X1289991Y1250319D01*
X1290137Y1251430D01*
D02*
G37*
G36*
X1254848Y1263016D02*
X1252238Y1262672D01*
X1249805Y1261665D01*
X1247716Y1260062D01*
X1246114Y1257973D01*
X1245106Y1255540D01*
X1244762Y1252930D01*
X1245106Y1250319D01*
X1246114Y1247887D01*
X1247716Y1245798D01*
X1249805Y1244195D01*
X1252238Y1243187D01*
X1254848Y1242843D01*
X1257459Y1243187D01*
X1259892Y1244195D01*
X1261981Y1245798D01*
X1263584Y1247887D01*
X1264591Y1250319D01*
X1264935Y1252930D01*
X1264591Y1255540D01*
X1263584Y1257973D01*
X1261981Y1260062D01*
X1259892Y1261665D01*
X1257459Y1262672D01*
X1254848Y1263016D01*
D02*
G37*
G36*
X1543999Y1436830D02*
X1526999D01*
Y1419830D01*
X1536789D01*
X1558193Y1398426D01*
X1557427Y1396578D01*
X1553013D01*
Y1386578D01*
Y1376578D01*
X1561513D01*
X1561651Y1374635D01*
Y1362580D01*
Y1245442D01*
X1556144Y1239935D01*
X1549887Y1233678D01*
X1534479D01*
X1534458Y1233781D01*
X1533353Y1235434D01*
X1531700Y1236540D01*
X1529749Y1236928D01*
X1527798Y1236540D01*
X1526144Y1235434D01*
X1525039Y1233781D01*
X1524651Y1231830D01*
Y1225285D01*
X1525039Y1223334D01*
X1526144Y1221680D01*
X1526349Y1221475D01*
X1528003Y1220370D01*
X1529954Y1219982D01*
X1531905Y1220370D01*
X1533559Y1221475D01*
X1534664Y1223129D01*
X1534734Y1223482D01*
X1551999D01*
X1553949Y1223870D01*
X1555603Y1224975D01*
X1563353Y1232725D01*
X1570353Y1239725D01*
X1571458Y1241379D01*
X1571847Y1243330D01*
Y1362580D01*
Y1397080D01*
X1571458Y1399031D01*
X1570353Y1400685D01*
X1543999Y1427039D01*
Y1436830D01*
D02*
G37*
G36*
X1333998Y1265677D02*
X1332047Y1265289D01*
X1330393Y1264184D01*
X1329288Y1262530D01*
X1328900Y1260580D01*
X1329288Y1258629D01*
X1330393Y1256975D01*
X1330939Y1256610D01*
Y1239635D01*
X1330939Y1239635D01*
X1331172Y1238464D01*
X1331835Y1237472D01*
X1337279Y1232028D01*
X1337151Y1231384D01*
X1337539Y1229433D01*
X1338644Y1227779D01*
X1340298Y1226674D01*
X1342249Y1226286D01*
X1344200Y1226674D01*
X1345853Y1227779D01*
X1346958Y1229433D01*
X1347347Y1231384D01*
X1346958Y1233335D01*
X1345853Y1234989D01*
X1344200Y1236094D01*
X1342249Y1236482D01*
X1341604Y1236354D01*
X1337057Y1240902D01*
Y1256610D01*
X1337603Y1256975D01*
X1338708Y1258629D01*
X1339096Y1260580D01*
X1338708Y1262530D01*
X1337603Y1264184D01*
X1335949Y1265289D01*
X1333998Y1265677D01*
D02*
G37*
G36*
X1395749Y1237677D02*
X1393798Y1237289D01*
X1392144Y1236184D01*
X1391039Y1234530D01*
X1390651Y1232579D01*
X1391039Y1230629D01*
X1392144Y1228975D01*
X1392690Y1228610D01*
Y1214891D01*
X1392690Y1214890D01*
X1392923Y1213720D01*
X1393586Y1212728D01*
X1393779Y1212534D01*
X1393651Y1211890D01*
X1394039Y1209939D01*
X1395144Y1208286D01*
X1396798Y1207180D01*
X1398749Y1206792D01*
X1400699Y1207180D01*
X1402353Y1208286D01*
X1403459Y1209939D01*
X1403846Y1211890D01*
X1403679Y1212734D01*
X1405129Y1214464D01*
X1405212Y1214495D01*
X1407095Y1214870D01*
X1408748Y1215975D01*
X1409854Y1217629D01*
X1410242Y1219580D01*
X1409854Y1221531D01*
X1408748Y1223185D01*
X1408203Y1223549D01*
Y1228405D01*
X1408748Y1228770D01*
X1409854Y1230424D01*
X1410242Y1232375D01*
X1409854Y1234326D01*
X1408748Y1235980D01*
X1407095Y1237085D01*
X1405144Y1237473D01*
X1403193Y1237085D01*
X1401659Y1236060D01*
X1401539Y1235980D01*
X1399353Y1236184D01*
X1397699Y1237289D01*
X1395749Y1237677D01*
D02*
G37*
G36*
X1473249Y1232928D02*
X1471298Y1232540D01*
X1469644Y1231435D01*
X1468539Y1229781D01*
X1468151Y1227830D01*
X1468539Y1225879D01*
X1469644Y1224225D01*
X1470190Y1223860D01*
Y1208955D01*
X1470190Y1208955D01*
X1470423Y1207784D01*
X1471086Y1206792D01*
X1472654Y1205224D01*
X1472526Y1204580D01*
X1472914Y1202629D01*
X1474019Y1200975D01*
X1475673Y1199870D01*
X1477624Y1199482D01*
X1479574Y1199870D01*
X1481228Y1200975D01*
X1482334Y1202629D01*
X1482722Y1204580D01*
X1482334Y1206531D01*
X1481228Y1208185D01*
X1479574Y1209290D01*
X1477624Y1209678D01*
X1476307Y1211323D01*
Y1223860D01*
X1476853Y1224225D01*
X1477959Y1225879D01*
X1478347Y1227830D01*
X1477959Y1229781D01*
X1476853Y1231435D01*
X1475199Y1232540D01*
X1473249Y1232928D01*
D02*
G37*
G36*
X1491978Y1201725D02*
X1490027Y1201337D01*
X1488373Y1200232D01*
X1487268Y1198578D01*
X1486880Y1196627D01*
X1487008Y1195983D01*
X1469836Y1178811D01*
X1469173Y1177819D01*
X1468940Y1176648D01*
X1468940Y1176648D01*
Y1155799D01*
X1468394Y1155435D01*
X1467289Y1153781D01*
X1466901Y1151830D01*
X1467289Y1149879D01*
X1468394Y1148225D01*
X1470048Y1147120D01*
X1471999Y1146732D01*
X1473949Y1147120D01*
X1475603Y1148225D01*
X1476709Y1149879D01*
X1477097Y1151830D01*
X1476709Y1153781D01*
X1475603Y1155435D01*
X1475057Y1155799D01*
Y1175381D01*
X1491334Y1191657D01*
X1491978Y1191529D01*
X1493929Y1191917D01*
X1495582Y1193022D01*
X1496688Y1194676D01*
X1497076Y1196627D01*
X1496688Y1198578D01*
X1495582Y1200232D01*
X1493929Y1201337D01*
X1491978Y1201725D01*
D02*
G37*
G36*
X1329097Y1212225D02*
X1320999D01*
X1319048Y1211837D01*
X1317394Y1210732D01*
X1304657Y1197996D01*
X1303552Y1196342D01*
X1303164Y1194391D01*
Y1182084D01*
X1303552Y1180133D01*
X1304657Y1178479D01*
X1306311Y1177374D01*
X1308262Y1176986D01*
X1316360D01*
X1318311Y1177374D01*
X1319965Y1178479D01*
X1321070Y1180133D01*
X1321458Y1182084D01*
Y1192279D01*
X1332701Y1203523D01*
X1333806Y1205176D01*
X1334194Y1207127D01*
X1333806Y1209078D01*
X1332701Y1210732D01*
X1331048Y1211837D01*
X1329097Y1212225D01*
D02*
G37*
G36*
X1510249Y1193523D02*
X1509791Y1193432D01*
X1502021D01*
X1500071Y1193044D01*
X1498417Y1191939D01*
X1495394Y1188916D01*
X1494289Y1187262D01*
X1493901Y1185311D01*
Y1165580D01*
X1494289Y1163629D01*
X1495394Y1161975D01*
X1497048Y1160870D01*
X1498999Y1160482D01*
X1505999D01*
X1507950Y1160870D01*
X1509603Y1161975D01*
X1510708Y1163629D01*
X1511096Y1165580D01*
Y1182063D01*
X1513853Y1184820D01*
X1514958Y1186474D01*
X1515347Y1188425D01*
X1514958Y1190376D01*
X1513853Y1192030D01*
X1512200Y1193135D01*
X1510249Y1193523D01*
D02*
G37*
G36*
X1271999Y1162666D02*
X1269388Y1162322D01*
X1266956Y1161315D01*
X1264867Y1159712D01*
X1263264Y1157623D01*
X1262256Y1155190D01*
X1261913Y1152580D01*
X1262256Y1149969D01*
X1263264Y1147537D01*
X1264867Y1145448D01*
X1266956Y1143845D01*
X1269388Y1142837D01*
X1271999Y1142494D01*
X1274609Y1142837D01*
X1277042Y1143845D01*
X1279131Y1145448D01*
X1280734Y1147537D01*
X1281741Y1149969D01*
X1282085Y1152580D01*
X1281741Y1155190D01*
X1280734Y1157623D01*
X1279131Y1159712D01*
X1277042Y1161315D01*
X1274609Y1162322D01*
X1271999Y1162666D01*
D02*
G37*
G36*
X1424998Y1141227D02*
X1407776D01*
Y1127580D01*
X1424998D01*
Y1141227D01*
D02*
G37*
%LPD*%
G36*
X1413050Y1139215D02*
X1413288Y1139202D01*
X1413513Y1139165D01*
X1413713Y1139115D01*
X1413913Y1139065D01*
X1414088Y1139002D01*
X1414250Y1138940D01*
X1414400Y1138877D01*
X1414538Y1138802D01*
X1414650Y1138740D01*
X1414750Y1138678D01*
X1414837Y1138627D01*
X1414900Y1138577D01*
X1414950Y1138540D01*
X1414975Y1138528D01*
X1414987Y1138515D01*
X1415137Y1138378D01*
X1415262Y1138228D01*
X1415375Y1138065D01*
X1415475Y1137890D01*
X1415562Y1137728D01*
X1415637Y1137553D01*
X1415750Y1137215D01*
X1415800Y1137065D01*
X1415837Y1136916D01*
X1415862Y1136790D01*
X1415887Y1136678D01*
X1415900Y1136578D01*
Y1136516D01*
X1415912Y1136466D01*
Y1136453D01*
X1414700Y1136328D01*
X1414675Y1136653D01*
X1414625Y1136928D01*
X1414538Y1137165D01*
X1414438Y1137378D01*
X1414350Y1137528D01*
X1414263Y1137653D01*
X1414213Y1137715D01*
X1414188Y1137740D01*
X1413988Y1137915D01*
X1413763Y1138040D01*
X1413525Y1138128D01*
X1413313Y1138190D01*
X1413125Y1138228D01*
X1413038Y1138240D01*
X1412963D01*
X1412913Y1138253D01*
X1412825D01*
X1412538Y1138228D01*
X1412276Y1138178D01*
X1412051Y1138103D01*
X1411863Y1138015D01*
X1411713Y1137915D01*
X1411601Y1137840D01*
X1411538Y1137790D01*
X1411513Y1137765D01*
X1411338Y1137578D01*
X1411213Y1137378D01*
X1411126Y1137190D01*
X1411063Y1137003D01*
X1411026Y1136841D01*
X1411013Y1136703D01*
X1411001Y1136653D01*
Y1136628D01*
Y1136603D01*
Y1136590D01*
Y1136466D01*
X1411026Y1136341D01*
X1411088Y1136078D01*
X1411176Y1135841D01*
X1411276Y1135628D01*
X1411388Y1135441D01*
X1411438Y1135366D01*
X1411476Y1135291D01*
X1411513Y1135241D01*
X1411538Y1135203D01*
X1411551Y1135178D01*
X1411563Y1135166D01*
X1411676Y1135016D01*
X1411813Y1134866D01*
X1411963Y1134704D01*
X1412126Y1134529D01*
X1412475Y1134191D01*
X1412825Y1133866D01*
X1412988Y1133716D01*
X1413150Y1133579D01*
X1413300Y1133454D01*
X1413425Y1133341D01*
X1413525Y1133254D01*
X1413613Y1133191D01*
X1413663Y1133141D01*
X1413675Y1133129D01*
X1414038Y1132829D01*
X1414350Y1132554D01*
X1414612Y1132304D01*
X1414825Y1132092D01*
X1415000Y1131917D01*
X1415125Y1131779D01*
X1415162Y1131729D01*
X1415200Y1131692D01*
X1415212Y1131679D01*
X1415225Y1131667D01*
X1415412Y1131429D01*
X1415575Y1131204D01*
X1415700Y1130992D01*
X1415812Y1130792D01*
X1415900Y1130630D01*
X1415950Y1130505D01*
X1415975Y1130455D01*
X1415987Y1130417D01*
X1416000Y1130405D01*
Y1130392D01*
X1416050Y1130242D01*
X1416087Y1130105D01*
X1416112Y1129967D01*
X1416125Y1129842D01*
X1416137Y1129730D01*
Y1129655D01*
Y1129605D01*
Y1129580D01*
X1409776D01*
Y1130717D01*
X1414500D01*
X1414337Y1130942D01*
X1414250Y1131055D01*
X1414175Y1131142D01*
X1414100Y1131229D01*
X1414050Y1131292D01*
X1414013Y1131329D01*
X1414000Y1131342D01*
X1413938Y1131404D01*
X1413850Y1131492D01*
X1413763Y1131579D01*
X1413663Y1131667D01*
X1413438Y1131867D01*
X1413200Y1132067D01*
X1412988Y1132254D01*
X1412888Y1132342D01*
X1412813Y1132417D01*
X1412738Y1132467D01*
X1412688Y1132517D01*
X1412650Y1132542D01*
X1412638Y1132554D01*
X1412413Y1132754D01*
X1412188Y1132942D01*
X1412001Y1133104D01*
X1411813Y1133266D01*
X1411651Y1133416D01*
X1411501Y1133566D01*
X1411363Y1133691D01*
X1411251Y1133804D01*
X1411138Y1133904D01*
X1411051Y1133991D01*
X1410976Y1134066D01*
X1410913Y1134129D01*
X1410876Y1134179D01*
X1410838Y1134216D01*
X1410813Y1134229D01*
Y1134241D01*
X1410626Y1134466D01*
X1410464Y1134691D01*
X1410326Y1134891D01*
X1410214Y1135066D01*
X1410126Y1135203D01*
X1410076Y1135316D01*
X1410039Y1135391D01*
X1410026Y1135416D01*
X1409951Y1135628D01*
X1409889Y1135828D01*
X1409851Y1136028D01*
X1409814Y1136191D01*
X1409801Y1136341D01*
X1409789Y1136453D01*
Y1136528D01*
Y1136553D01*
X1409801Y1136766D01*
X1409826Y1136965D01*
X1409864Y1137153D01*
X1409914Y1137328D01*
X1410051Y1137653D01*
X1410114Y1137803D01*
X1410189Y1137928D01*
X1410276Y1138053D01*
X1410339Y1138153D01*
X1410414Y1138240D01*
X1410476Y1138315D01*
X1410526Y1138378D01*
X1410564Y1138415D01*
X1410589Y1138440D01*
X1410601Y1138453D01*
X1410763Y1138590D01*
X1410926Y1138702D01*
X1411101Y1138815D01*
X1411288Y1138902D01*
X1411476Y1138977D01*
X1411651Y1139040D01*
X1412001Y1139127D01*
X1412163Y1139165D01*
X1412313Y1139190D01*
X1412451Y1139202D01*
X1412576Y1139215D01*
X1412663Y1139227D01*
X1412800D01*
X1413050Y1139215D01*
D02*
G37*
G36*
X1422998Y1129580D02*
X1416999D01*
Y1130717D01*
X1421723D01*
Y1139190D01*
X1422998D01*
Y1129580D01*
D02*
G37*
%LPC*%
G36*
X1303477Y1027553D02*
X1303452D01*
X1303427Y1027528D01*
X1303352Y1027503D01*
X1303227Y1027478D01*
X1303102Y1027428D01*
X1302927Y1027378D01*
X1302727Y1027303D01*
X1302502Y1027253D01*
X1302253Y1027178D01*
X1301978Y1027103D01*
X1301653Y1027028D01*
X1301303Y1026953D01*
X1300928Y1026878D01*
X1300528Y1026803D01*
X1300103Y1026728D01*
X1299628Y1026653D01*
X1299553D01*
X1299503Y1026628D01*
X1299403D01*
X1299128Y1026578D01*
X1298828Y1026528D01*
X1298504Y1026453D01*
X1298154Y1026378D01*
X1297829Y1026278D01*
X1297579Y1026178D01*
X1297554D01*
X1297479Y1026128D01*
X1297379Y1026078D01*
X1297229Y1026003D01*
X1296929Y1025753D01*
X1296779Y1025603D01*
X1296654Y1025429D01*
X1296629Y1025404D01*
X1296604Y1025354D01*
X1296554Y1025229D01*
X1296504Y1025104D01*
X1296429Y1024929D01*
X1296379Y1024754D01*
X1296354Y1024529D01*
X1296329Y1024304D01*
Y1024254D01*
Y1024154D01*
X1296379Y1023979D01*
X1296429Y1023754D01*
X1296504Y1023529D01*
X1296629Y1023254D01*
X1296804Y1023004D01*
X1297029Y1022754D01*
X1297054Y1022729D01*
X1297154Y1022654D01*
X1297329Y1022554D01*
X1297554Y1022454D01*
X1297854Y1022329D01*
X1298229Y1022229D01*
X1298654Y1022154D01*
X1299128Y1022129D01*
X1299353D01*
X1299603Y1022154D01*
X1299928Y1022204D01*
X1300303Y1022279D01*
X1300703Y1022379D01*
X1301128Y1022504D01*
X1301528Y1022704D01*
X1301553D01*
X1301578Y1022729D01*
X1301703Y1022804D01*
X1301903Y1022954D01*
X1302128Y1023129D01*
X1302377Y1023354D01*
X1302652Y1023654D01*
X1302902Y1023954D01*
X1303102Y1024329D01*
X1303127Y1024379D01*
X1303152Y1024479D01*
X1303227Y1024654D01*
X1303302Y1024929D01*
X1303352Y1025254D01*
X1303427Y1025654D01*
X1303452Y1026128D01*
X1303477Y1026678D01*
Y1027553D01*
D02*
G37*
G36*
X1284532Y1037675D02*
X1278084D01*
Y1031302D01*
X1283957D01*
X1284132Y1031327D01*
X1284532Y1031352D01*
X1284957Y1031377D01*
X1285432Y1031452D01*
X1285857Y1031527D01*
X1286257Y1031652D01*
X1286307Y1031677D01*
X1286432Y1031727D01*
X1286606Y1031802D01*
X1286832Y1031927D01*
X1287056Y1032077D01*
X1287306Y1032277D01*
X1287556Y1032527D01*
X1287756Y1032802D01*
X1287781Y1032827D01*
X1287831Y1032952D01*
X1287931Y1033102D01*
X1288031Y1033327D01*
X1288106Y1033577D01*
X1288206Y1033876D01*
X1288256Y1034176D01*
X1288281Y1034526D01*
Y1034551D01*
Y1034576D01*
Y1034651D01*
X1288256Y1034751D01*
X1288231Y1035001D01*
X1288156Y1035326D01*
X1288031Y1035676D01*
X1287856Y1036051D01*
X1287606Y1036426D01*
X1287281Y1036776D01*
X1287231Y1036826D01*
X1287081Y1036926D01*
X1286857Y1037051D01*
X1286507Y1037226D01*
X1286307Y1037300D01*
X1286082Y1037401D01*
X1285832Y1037476D01*
X1285532Y1037525D01*
X1285232Y1037600D01*
X1284907Y1037626D01*
X1284532Y1037675D01*
D02*
G37*
G36*
X1168636Y1037525D02*
X1163138D01*
Y1030652D01*
X1168311D01*
X1168486Y1030677D01*
X1168686D01*
X1168911Y1030702D01*
X1169436Y1030777D01*
X1170011Y1030877D01*
X1170586Y1031027D01*
X1171111Y1031252D01*
X1171360Y1031402D01*
X1171560Y1031552D01*
X1171610Y1031602D01*
X1171735Y1031727D01*
X1171885Y1031927D01*
X1172085Y1032227D01*
X1172285Y1032602D01*
X1172435Y1033052D01*
X1172560Y1033551D01*
X1172610Y1034151D01*
Y1034176D01*
Y1034201D01*
Y1034351D01*
X1172585Y1034576D01*
X1172535Y1034851D01*
X1172460Y1035176D01*
X1172335Y1035526D01*
X1172185Y1035876D01*
X1171985Y1036201D01*
X1171960Y1036251D01*
X1171885Y1036351D01*
X1171735Y1036501D01*
X1171560Y1036676D01*
X1171336Y1036876D01*
X1171060Y1037051D01*
X1170736Y1037226D01*
X1170386Y1037350D01*
X1170361D01*
X1170261Y1037375D01*
X1170086Y1037401D01*
X1169861Y1037450D01*
X1169536Y1037476D01*
X1169136Y1037501D01*
X1168636Y1037525D01*
D02*
G37*
G36*
X1383757Y1032852D02*
X1383582D01*
X1383457Y1032827D01*
X1383307Y1032802D01*
X1383132Y1032777D01*
X1382732Y1032677D01*
X1382282Y1032527D01*
X1381782Y1032302D01*
X1381532Y1032152D01*
X1381307Y1031977D01*
X1381057Y1031752D01*
X1380832Y1031527D01*
Y1031502D01*
X1380782Y1031477D01*
X1380732Y1031377D01*
X1380658Y1031277D01*
X1380558Y1031127D01*
X1380457Y1030977D01*
X1380358Y1030777D01*
X1380258Y1030527D01*
X1380158Y1030277D01*
X1380058Y1029977D01*
X1379958Y1029652D01*
X1379858Y1029278D01*
X1379783Y1028903D01*
X1379733Y1028478D01*
X1379708Y1028003D01*
X1379683Y1027528D01*
Y1027503D01*
Y1027403D01*
Y1027278D01*
X1379708Y1027103D01*
Y1026878D01*
X1379733Y1026628D01*
X1379783Y1026328D01*
X1379833Y1026028D01*
X1379958Y1025404D01*
X1380158Y1024729D01*
X1380457Y1024104D01*
X1380632Y1023829D01*
X1380832Y1023554D01*
X1380857Y1023529D01*
X1380882Y1023504D01*
X1380957Y1023429D01*
X1381032Y1023354D01*
X1381307Y1023129D01*
X1381632Y1022904D01*
X1382057Y1022654D01*
X1382557Y1022429D01*
X1383132Y1022279D01*
X1383432Y1022254D01*
X1383757Y1022229D01*
X1383932D01*
X1384057Y1022254D01*
X1384207Y1022279D01*
X1384382Y1022304D01*
X1384781Y1022404D01*
X1385231Y1022554D01*
X1385731Y1022779D01*
X1385981Y1022929D01*
X1386231Y1023129D01*
X1386456Y1023329D01*
X1386681Y1023554D01*
X1386706Y1023579D01*
X1386731Y1023629D01*
X1386781Y1023704D01*
X1386856Y1023804D01*
X1386956Y1023954D01*
X1387056Y1024129D01*
X1387156Y1024329D01*
X1387281Y1024554D01*
X1387381Y1024829D01*
X1387481Y1025129D01*
X1387581Y1025454D01*
X1387681Y1025828D01*
X1387756Y1026228D01*
X1387806Y1026653D01*
X1387856Y1027103D01*
Y1027603D01*
Y1027628D01*
Y1027728D01*
Y1027853D01*
X1387831Y1028028D01*
Y1028253D01*
X1387806Y1028478D01*
X1387756Y1028753D01*
X1387706Y1029053D01*
X1387581Y1029678D01*
X1387356Y1030327D01*
X1387081Y1030952D01*
X1386881Y1031252D01*
X1386681Y1031502D01*
X1386656Y1031527D01*
X1386631Y1031552D01*
X1386556Y1031627D01*
X1386481Y1031702D01*
X1386206Y1031927D01*
X1385881Y1032177D01*
X1385456Y1032427D01*
X1384956Y1032652D01*
X1384382Y1032802D01*
X1384082Y1032827D01*
X1383757Y1032852D01*
D02*
G37*
G36*
X1340568D02*
X1340418D01*
X1340293Y1032827D01*
X1340168D01*
X1339993Y1032802D01*
X1339618Y1032727D01*
X1339193Y1032577D01*
X1338718Y1032377D01*
X1338268Y1032127D01*
X1338043Y1031952D01*
X1337818Y1031752D01*
X1337768Y1031702D01*
X1337643Y1031552D01*
X1337469Y1031327D01*
X1337269Y1031002D01*
X1337044Y1030577D01*
X1336844Y1030077D01*
X1336694Y1029528D01*
X1336619Y1028878D01*
X1344392D01*
Y1028903D01*
Y1028953D01*
X1344367Y1029053D01*
X1344342Y1029153D01*
Y1029303D01*
X1344292Y1029477D01*
X1344217Y1029852D01*
X1344092Y1030277D01*
X1343942Y1030702D01*
X1343742Y1031127D01*
X1343492Y1031477D01*
Y1031502D01*
X1343442Y1031527D01*
X1343367Y1031602D01*
X1343292Y1031702D01*
X1343042Y1031902D01*
X1342717Y1032177D01*
X1342292Y1032427D01*
X1341792Y1032627D01*
X1341218Y1032802D01*
X1340893Y1032827D01*
X1340568Y1032852D01*
D02*
G37*
G36*
X1265912D02*
X1265737D01*
X1265612Y1032827D01*
X1265462Y1032802D01*
X1265287Y1032777D01*
X1264887Y1032677D01*
X1264437Y1032527D01*
X1263937Y1032302D01*
X1263687Y1032152D01*
X1263463Y1031977D01*
X1263213Y1031752D01*
X1262988Y1031527D01*
Y1031502D01*
X1262938Y1031477D01*
X1262888Y1031377D01*
X1262813Y1031277D01*
X1262713Y1031127D01*
X1262613Y1030977D01*
X1262513Y1030777D01*
X1262413Y1030527D01*
X1262313Y1030277D01*
X1262213Y1029977D01*
X1262113Y1029652D01*
X1262013Y1029278D01*
X1261938Y1028903D01*
X1261888Y1028478D01*
X1261863Y1028003D01*
X1261838Y1027528D01*
Y1027503D01*
Y1027403D01*
Y1027278D01*
X1261863Y1027103D01*
Y1026878D01*
X1261888Y1026628D01*
X1261938Y1026328D01*
X1261988Y1026028D01*
X1262113Y1025404D01*
X1262313Y1024729D01*
X1262613Y1024104D01*
X1262788Y1023829D01*
X1262988Y1023554D01*
X1263013Y1023529D01*
X1263038Y1023504D01*
X1263113Y1023429D01*
X1263187Y1023354D01*
X1263463Y1023129D01*
X1263787Y1022904D01*
X1264212Y1022654D01*
X1264712Y1022429D01*
X1265287Y1022279D01*
X1265587Y1022254D01*
X1265912Y1022229D01*
X1266087D01*
X1266212Y1022254D01*
X1266362Y1022279D01*
X1266537Y1022304D01*
X1266937Y1022404D01*
X1267386Y1022554D01*
X1267886Y1022779D01*
X1268136Y1022929D01*
X1268386Y1023129D01*
X1268611Y1023329D01*
X1268836Y1023554D01*
X1268861Y1023579D01*
X1268886Y1023629D01*
X1268936Y1023704D01*
X1269011Y1023804D01*
X1269111Y1023954D01*
X1269211Y1024129D01*
X1269311Y1024329D01*
X1269436Y1024554D01*
X1269536Y1024829D01*
X1269636Y1025129D01*
X1269736Y1025454D01*
X1269836Y1025828D01*
X1269911Y1026228D01*
X1269961Y1026653D01*
X1270011Y1027103D01*
Y1027603D01*
Y1027628D01*
Y1027728D01*
Y1027853D01*
X1269986Y1028028D01*
Y1028253D01*
X1269961Y1028478D01*
X1269911Y1028753D01*
X1269861Y1029053D01*
X1269736Y1029678D01*
X1269511Y1030327D01*
X1269236Y1030952D01*
X1269036Y1031252D01*
X1268836Y1031502D01*
X1268811Y1031527D01*
X1268786Y1031552D01*
X1268711Y1031627D01*
X1268636Y1031702D01*
X1268361Y1031927D01*
X1268036Y1032177D01*
X1267611Y1032427D01*
X1267112Y1032652D01*
X1266537Y1032802D01*
X1266237Y1032827D01*
X1265912Y1032852D01*
D02*
G37*
G36*
X1443366Y1037925D02*
X1443216D01*
X1443091Y1037900D01*
X1442792Y1037850D01*
X1442442Y1037750D01*
X1442017Y1037576D01*
X1441592Y1037326D01*
X1441367Y1037176D01*
X1441167Y1037001D01*
X1440967Y1036776D01*
X1440767Y1036526D01*
X1440742Y1036501D01*
X1440717Y1036451D01*
X1440667Y1036326D01*
X1440592Y1036176D01*
X1440492Y1035976D01*
X1440392Y1035726D01*
X1440292Y1035426D01*
X1440167Y1035051D01*
X1440067Y1034651D01*
X1439942Y1034176D01*
X1439842Y1033652D01*
X1439767Y1033052D01*
X1439667Y1032402D01*
X1439617Y1031677D01*
X1439592Y1030902D01*
X1439567Y1030052D01*
Y1030027D01*
Y1030002D01*
Y1029852D01*
Y1029603D01*
X1439592Y1029278D01*
Y1028903D01*
X1439617Y1028478D01*
X1439667Y1028003D01*
X1439717Y1027478D01*
X1439842Y1026428D01*
X1439917Y1025903D01*
X1440042Y1025404D01*
X1440167Y1024904D01*
X1440317Y1024479D01*
X1440467Y1024079D01*
X1440667Y1023754D01*
X1440692Y1023729D01*
X1440717Y1023679D01*
X1440792Y1023604D01*
X1440867Y1023504D01*
X1441092Y1023254D01*
X1441417Y1022979D01*
X1441817Y1022704D01*
X1442292Y1022454D01*
X1442542Y1022354D01*
X1442816Y1022279D01*
X1443091Y1022229D01*
X1443391Y1022204D01*
X1443541D01*
X1443666Y1022229D01*
X1443791Y1022254D01*
X1443966Y1022279D01*
X1444341Y1022404D01*
X1444766Y1022579D01*
X1444991Y1022704D01*
X1445216Y1022854D01*
X1445466Y1023029D01*
X1445691Y1023254D01*
X1445916Y1023479D01*
X1446116Y1023754D01*
X1446141Y1023779D01*
X1446166Y1023829D01*
X1446216Y1023929D01*
X1446291Y1024079D01*
X1446366Y1024254D01*
X1446466Y1024504D01*
X1446566Y1024779D01*
X1446691Y1025129D01*
X1446790Y1025529D01*
X1446891Y1025978D01*
X1446991Y1026503D01*
X1447065Y1027078D01*
X1447140Y1027728D01*
X1447190Y1028428D01*
X1447240Y1029203D01*
Y1030052D01*
Y1030077D01*
Y1030102D01*
Y1030252D01*
Y1030502D01*
X1447215Y1030827D01*
Y1031202D01*
X1447190Y1031627D01*
X1447140Y1032127D01*
X1447090Y1032627D01*
X1446965Y1033677D01*
X1446866Y1034201D01*
X1446765Y1034726D01*
X1446641Y1035201D01*
X1446491Y1035626D01*
X1446316Y1036026D01*
X1446116Y1036351D01*
Y1036376D01*
X1446066Y1036426D01*
X1446016Y1036501D01*
X1445916Y1036601D01*
X1445691Y1036851D01*
X1445366Y1037151D01*
X1444966Y1037426D01*
X1444491Y1037675D01*
X1444241Y1037775D01*
X1443966Y1037850D01*
X1443666Y1037900D01*
X1443366Y1037925D01*
D02*
G37*
G36*
X1474420Y1007925D02*
X1474270D01*
X1474145Y1007900D01*
X1474020Y1007875D01*
X1473870Y1007850D01*
X1473495Y1007775D01*
X1473070Y1007600D01*
X1472595Y1007375D01*
X1472370Y1007226D01*
X1472145Y1007051D01*
X1471920Y1006851D01*
X1471695Y1006626D01*
Y1006601D01*
X1471645Y1006576D01*
X1471595Y1006501D01*
X1471520Y1006401D01*
X1471420Y1006276D01*
X1471320Y1006126D01*
X1471221Y1005926D01*
X1471120Y1005726D01*
X1470921Y1005251D01*
X1470721Y1004676D01*
X1470596Y1004026D01*
X1470571Y1003677D01*
X1470546Y1003302D01*
Y1003277D01*
Y1003227D01*
Y1003127D01*
X1470571Y1003002D01*
Y1002827D01*
X1470596Y1002652D01*
X1470671Y1002227D01*
X1470821Y1001752D01*
X1470996Y1001252D01*
X1471270Y1000752D01*
X1471420Y1000527D01*
X1471620Y1000302D01*
X1471645D01*
X1471670Y1000252D01*
X1471820Y1000127D01*
X1472045Y999952D01*
X1472370Y999753D01*
X1472770Y999528D01*
X1473245Y999353D01*
X1473770Y999228D01*
X1474070Y999203D01*
X1474370Y999178D01*
X1474520D01*
X1474645Y999203D01*
X1474770D01*
X1474944Y999228D01*
X1475320Y999328D01*
X1475744Y999453D01*
X1476194Y999652D01*
X1476619Y999927D01*
X1476844Y1000102D01*
X1477044Y1000302D01*
X1477069Y1000327D01*
X1477094Y1000352D01*
X1477144Y1000427D01*
X1477219Y1000527D01*
X1477294Y1000627D01*
X1477394Y1000777D01*
X1477594Y1001127D01*
X1477769Y1001577D01*
X1477944Y1002127D01*
X1478069Y1002777D01*
X1478119Y1003127D01*
Y1003502D01*
Y1003527D01*
Y1003602D01*
Y1003701D01*
X1478094Y1003826D01*
Y1004001D01*
X1478069Y1004201D01*
X1477994Y1004676D01*
X1477869Y1005176D01*
X1477669Y1005726D01*
X1477394Y1006251D01*
X1477244Y1006501D01*
X1477044Y1006726D01*
Y1006751D01*
X1476994Y1006776D01*
X1476844Y1006926D01*
X1476619Y1007101D01*
X1476319Y1007326D01*
X1475944Y1007551D01*
X1475494Y1007750D01*
X1474969Y1007875D01*
X1474695Y1007900D01*
X1474420Y1007925D01*
D02*
G37*
G36*
X1312125Y1007525D02*
X1307576D01*
Y1001727D01*
X1312300D01*
X1312650Y1001752D01*
X1313050Y1001777D01*
X1313450Y1001802D01*
X1313825Y1001852D01*
X1314124Y1001927D01*
X1314174Y1001952D01*
X1314274Y1001977D01*
X1314449Y1002052D01*
X1314674Y1002152D01*
X1314924Y1002302D01*
X1315149Y1002452D01*
X1315399Y1002652D01*
X1315599Y1002877D01*
X1315624Y1002902D01*
X1315674Y1003002D01*
X1315749Y1003152D01*
X1315849Y1003352D01*
X1315949Y1003577D01*
X1316024Y1003876D01*
X1316074Y1004201D01*
X1316099Y1004576D01*
Y1004626D01*
Y1004726D01*
X1316074Y1004926D01*
X1316049Y1005151D01*
X1315974Y1005401D01*
X1315899Y1005676D01*
X1315774Y1005976D01*
X1315624Y1006251D01*
X1315599Y1006276D01*
X1315549Y1006376D01*
X1315449Y1006501D01*
X1315299Y1006651D01*
X1315099Y1006826D01*
X1314899Y1006976D01*
X1314624Y1007126D01*
X1314324Y1007251D01*
X1314274Y1007276D01*
X1314149Y1007301D01*
X1313949Y1007350D01*
X1313650Y1007401D01*
X1313450Y1007426D01*
X1313250Y1007450D01*
X1313000D01*
X1312725Y1007476D01*
X1312450Y1007501D01*
X1312125Y1007525D01*
D02*
G37*
G36*
X1312000Y999453D02*
X1307576D01*
Y992854D01*
X1313025D01*
X1313600Y992879D01*
X1313850Y992904D01*
X1314075Y992929D01*
X1314124D01*
X1314225Y992954D01*
X1314374Y993004D01*
X1314574Y993054D01*
X1314824Y993129D01*
X1315049Y993204D01*
X1315299Y993329D01*
X1315524Y993454D01*
X1315549Y993479D01*
X1315624Y993529D01*
X1315724Y993604D01*
X1315874Y993729D01*
X1316024Y993879D01*
X1316199Y994079D01*
X1316349Y994279D01*
X1316499Y994529D01*
X1316524Y994554D01*
X1316574Y994654D01*
X1316624Y994804D01*
X1316699Y995004D01*
X1316774Y995229D01*
X1316849Y995504D01*
X1316874Y995828D01*
X1316899Y996153D01*
Y996203D01*
Y996328D01*
X1316874Y996528D01*
X1316824Y996778D01*
X1316749Y997078D01*
X1316649Y997378D01*
X1316524Y997703D01*
X1316324Y998003D01*
X1316299Y998028D01*
X1316224Y998128D01*
X1316099Y998278D01*
X1315924Y998453D01*
X1315699Y998628D01*
X1315449Y998828D01*
X1315149Y998978D01*
X1314799Y999128D01*
X1314749Y999153D01*
X1314624Y999178D01*
X1314399Y999228D01*
X1314075Y999303D01*
X1313700Y999353D01*
X1313200Y999403D01*
X1312650Y999428D01*
X1312000Y999453D01*
D02*
G37*
G36*
X1293780Y1007800D02*
Y1007775D01*
X1293755Y1007725D01*
X1293730Y1007626D01*
X1293705Y1007476D01*
X1293680Y1007301D01*
X1293630Y1007101D01*
X1293580Y1006876D01*
X1293505Y1006626D01*
X1293355Y1006076D01*
X1293180Y1005451D01*
X1292980Y1004776D01*
X1292730Y1004101D01*
X1290630Y998478D01*
X1297154D01*
X1295154Y1003776D01*
Y1003801D01*
X1295104Y1003876D01*
X1295054Y1004001D01*
X1295004Y1004176D01*
X1294929Y1004376D01*
X1294829Y1004626D01*
X1294729Y1004901D01*
X1294630Y1005201D01*
X1294404Y1005826D01*
X1294180Y1006501D01*
X1293980Y1007176D01*
X1293780Y1007800D01*
D02*
G37*
G36*
X1270186Y1002852D02*
X1270011D01*
X1269886Y1002827D01*
X1269736Y1002802D01*
X1269561Y1002777D01*
X1269161Y1002677D01*
X1268711Y1002527D01*
X1268211Y1002302D01*
X1267961Y1002152D01*
X1267736Y1001977D01*
X1267486Y1001752D01*
X1267262Y1001527D01*
Y1001502D01*
X1267212Y1001477D01*
X1267161Y1001377D01*
X1267086Y1001277D01*
X1266987Y1001127D01*
X1266887Y1000977D01*
X1266787Y1000777D01*
X1266687Y1000527D01*
X1266587Y1000277D01*
X1266487Y999977D01*
X1266387Y999652D01*
X1266287Y999278D01*
X1266212Y998903D01*
X1266162Y998478D01*
X1266137Y998003D01*
X1266112Y997528D01*
Y997503D01*
Y997403D01*
Y997278D01*
X1266137Y997103D01*
Y996878D01*
X1266162Y996628D01*
X1266212Y996328D01*
X1266262Y996028D01*
X1266387Y995404D01*
X1266587Y994729D01*
X1266887Y994104D01*
X1267062Y993829D01*
X1267262Y993554D01*
X1267287Y993529D01*
X1267311Y993504D01*
X1267386Y993429D01*
X1267461Y993354D01*
X1267736Y993129D01*
X1268061Y992904D01*
X1268486Y992654D01*
X1268986Y992429D01*
X1269561Y992279D01*
X1269861Y992254D01*
X1270186Y992229D01*
X1270361D01*
X1270486Y992254D01*
X1270636Y992279D01*
X1270811Y992304D01*
X1271210Y992404D01*
X1271660Y992554D01*
X1272160Y992779D01*
X1272410Y992929D01*
X1272660Y993129D01*
X1272885Y993329D01*
X1273110Y993554D01*
X1273135Y993579D01*
X1273160Y993629D01*
X1273210Y993704D01*
X1273285Y993804D01*
X1273385Y993954D01*
X1273485Y994129D01*
X1273585Y994329D01*
X1273710Y994554D01*
X1273810Y994829D01*
X1273910Y995129D01*
X1274010Y995454D01*
X1274110Y995828D01*
X1274185Y996228D01*
X1274235Y996653D01*
X1274285Y997103D01*
Y997603D01*
Y997628D01*
Y997728D01*
Y997853D01*
X1274260Y998028D01*
Y998253D01*
X1274235Y998478D01*
X1274185Y998753D01*
X1274135Y999053D01*
X1274010Y999678D01*
X1273785Y1000327D01*
X1273510Y1000952D01*
X1273310Y1001252D01*
X1273110Y1001502D01*
X1273085Y1001527D01*
X1273060Y1001552D01*
X1272985Y1001627D01*
X1272910Y1001702D01*
X1272635Y1001927D01*
X1272310Y1002177D01*
X1271885Y1002427D01*
X1271385Y1002652D01*
X1270811Y1002802D01*
X1270511Y1002827D01*
X1270186Y1002852D01*
D02*
G37*
G36*
X1444502Y1007925D02*
X1444352D01*
X1444227Y1007900D01*
X1443927Y1007850D01*
X1443578Y1007750D01*
X1443153Y1007576D01*
X1442728Y1007326D01*
X1442503Y1007176D01*
X1442303Y1007001D01*
X1442103Y1006776D01*
X1441903Y1006526D01*
X1441878Y1006501D01*
X1441853Y1006451D01*
X1441803Y1006326D01*
X1441728Y1006176D01*
X1441628Y1005976D01*
X1441528Y1005726D01*
X1441428Y1005426D01*
X1441303Y1005051D01*
X1441203Y1004651D01*
X1441078Y1004176D01*
X1440978Y1003652D01*
X1440903Y1003052D01*
X1440803Y1002402D01*
X1440753Y1001677D01*
X1440728Y1000902D01*
X1440703Y1000052D01*
Y1000027D01*
Y1000002D01*
Y999853D01*
Y999603D01*
X1440728Y999278D01*
Y998903D01*
X1440753Y998478D01*
X1440803Y998003D01*
X1440853Y997478D01*
X1440978Y996428D01*
X1441053Y995903D01*
X1441178Y995404D01*
X1441303Y994904D01*
X1441453Y994479D01*
X1441603Y994079D01*
X1441803Y993754D01*
X1441828Y993729D01*
X1441853Y993679D01*
X1441928Y993604D01*
X1442003Y993504D01*
X1442228Y993254D01*
X1442553Y992979D01*
X1442953Y992704D01*
X1443428Y992454D01*
X1443678Y992354D01*
X1443952Y992279D01*
X1444227Y992229D01*
X1444527Y992204D01*
X1444677D01*
X1444802Y992229D01*
X1444927Y992254D01*
X1445102Y992279D01*
X1445477Y992404D01*
X1445902Y992579D01*
X1446127Y992704D01*
X1446352Y992854D01*
X1446602Y993029D01*
X1446827Y993254D01*
X1447052Y993479D01*
X1447252Y993754D01*
X1447277Y993779D01*
X1447302Y993829D01*
X1447352Y993929D01*
X1447427Y994079D01*
X1447502Y994254D01*
X1447601Y994504D01*
X1447702Y994779D01*
X1447827Y995129D01*
X1447926Y995529D01*
X1448026Y995978D01*
X1448126Y996503D01*
X1448201Y997078D01*
X1448276Y997728D01*
X1448326Y998428D01*
X1448376Y999203D01*
Y1000052D01*
Y1000077D01*
Y1000102D01*
Y1000252D01*
Y1000502D01*
X1448351Y1000827D01*
Y1001202D01*
X1448326Y1001627D01*
X1448276Y1002127D01*
X1448226Y1002627D01*
X1448101Y1003677D01*
X1448001Y1004201D01*
X1447901Y1004726D01*
X1447776Y1005201D01*
X1447626Y1005626D01*
X1447452Y1006026D01*
X1447252Y1006351D01*
Y1006376D01*
X1447202Y1006426D01*
X1447152Y1006501D01*
X1447052Y1006601D01*
X1446827Y1006851D01*
X1446502Y1007151D01*
X1446102Y1007426D01*
X1445627Y1007675D01*
X1445377Y1007775D01*
X1445102Y1007850D01*
X1444802Y1007900D01*
X1444502Y1007925D01*
D02*
G37*
G36*
X1407287D02*
X1407162D01*
X1407062Y1007900D01*
X1406812Y1007875D01*
X1406487Y1007825D01*
X1406137Y1007700D01*
X1405762Y1007551D01*
X1405387Y1007350D01*
X1405037Y1007051D01*
X1405013Y1007001D01*
X1404913Y1006901D01*
X1404763Y1006701D01*
X1404613Y1006476D01*
X1404438Y1006151D01*
X1404313Y1005801D01*
X1404213Y1005401D01*
X1404163Y1004976D01*
Y1004951D01*
Y1004926D01*
Y1004851D01*
X1404188Y1004751D01*
X1404213Y1004501D01*
X1404263Y1004201D01*
X1404363Y1003851D01*
X1404513Y1003476D01*
X1404738Y1003102D01*
X1405013Y1002752D01*
X1405062Y1002727D01*
X1405162Y1002627D01*
X1405362Y1002477D01*
X1405637Y1002327D01*
X1405962Y1002177D01*
X1406362Y1002027D01*
X1406812Y1001927D01*
X1407312Y1001902D01*
X1407437D01*
X1407537Y1001927D01*
X1407787Y1001952D01*
X1408087Y1002002D01*
X1408437Y1002102D01*
X1408811Y1002252D01*
X1409186Y1002477D01*
X1409536Y1002752D01*
X1409586Y1002802D01*
X1409686Y1002902D01*
X1409811Y1003077D01*
X1409986Y1003327D01*
X1410136Y1003626D01*
X1410286Y1004001D01*
X1410386Y1004401D01*
X1410411Y1004851D01*
Y1004876D01*
Y1004901D01*
Y1004976D01*
X1410386Y1005076D01*
X1410361Y1005301D01*
X1410311Y1005601D01*
X1410186Y1005951D01*
X1410036Y1006326D01*
X1409811Y1006676D01*
X1409511Y1007026D01*
X1409461Y1007076D01*
X1409361Y1007176D01*
X1409161Y1007301D01*
X1408887Y1007476D01*
X1408562Y1007651D01*
X1408187Y1007775D01*
X1407762Y1007875D01*
X1407287Y1007925D01*
D02*
G37*
G36*
X1407537Y999977D02*
X1407062D01*
X1406937Y999952D01*
X1406787D01*
X1406637Y999927D01*
X1406237Y999853D01*
X1405812Y999703D01*
X1405337Y999502D01*
X1404888Y999253D01*
X1404662Y999078D01*
X1404463Y998878D01*
X1404413Y998828D01*
X1404288Y998678D01*
X1404113Y998453D01*
X1403938Y998128D01*
X1403738Y997728D01*
X1403563Y997253D01*
X1403438Y996728D01*
X1403413Y996428D01*
X1403388Y996128D01*
Y996078D01*
Y995954D01*
X1403413Y995753D01*
X1403438Y995504D01*
X1403488Y995204D01*
X1403588Y994854D01*
X1403688Y994504D01*
X1403838Y994154D01*
X1403863Y994104D01*
X1403938Y994004D01*
X1404038Y993829D01*
X1404188Y993629D01*
X1404388Y993404D01*
X1404638Y993154D01*
X1404937Y992929D01*
X1405262Y992704D01*
X1405312Y992679D01*
X1405437Y992629D01*
X1405612Y992554D01*
X1405862Y992454D01*
X1406187Y992354D01*
X1406512Y992279D01*
X1406887Y992229D01*
X1407287Y992204D01*
X1407462D01*
X1407562Y992229D01*
X1407712D01*
X1407887Y992254D01*
X1408287Y992329D01*
X1408712Y992479D01*
X1409186Y992654D01*
X1409661Y992929D01*
X1409886Y993079D01*
X1410086Y993279D01*
X1410111Y993304D01*
X1410136Y993329D01*
X1410261Y993479D01*
X1410436Y993704D01*
X1410636Y994029D01*
X1410836Y994429D01*
X1411011Y994904D01*
X1411136Y995429D01*
X1411186Y995729D01*
Y996028D01*
Y996053D01*
Y996103D01*
Y996203D01*
X1411161Y996328D01*
Y996453D01*
X1411136Y996628D01*
X1411036Y997028D01*
X1410911Y997478D01*
X1410711Y997953D01*
X1410436Y998428D01*
X1410261Y998653D01*
X1410061Y998853D01*
Y998878D01*
X1410011Y998903D01*
X1409861Y999028D01*
X1409611Y999203D01*
X1409286Y999428D01*
X1408862Y999628D01*
X1408387Y999802D01*
X1407837Y999927D01*
X1407537Y999977D01*
D02*
G37*
G36*
X1392291Y1007925D02*
X1392141D01*
X1392016Y1007900D01*
X1391716Y1007850D01*
X1391366Y1007750D01*
X1390941Y1007576D01*
X1390516Y1007326D01*
X1390291Y1007176D01*
X1390091Y1007001D01*
X1389891Y1006776D01*
X1389691Y1006526D01*
X1389666Y1006501D01*
X1389641Y1006451D01*
X1389591Y1006326D01*
X1389516Y1006176D01*
X1389416Y1005976D01*
X1389317Y1005726D01*
X1389216Y1005426D01*
X1389091Y1005051D01*
X1388992Y1004651D01*
X1388867Y1004176D01*
X1388767Y1003652D01*
X1388692Y1003052D01*
X1388592Y1002402D01*
X1388542Y1001677D01*
X1388517Y1000902D01*
X1388492Y1000052D01*
Y1000027D01*
Y1000002D01*
Y999853D01*
Y999603D01*
X1388517Y999278D01*
Y998903D01*
X1388542Y998478D01*
X1388592Y998003D01*
X1388642Y997478D01*
X1388767Y996428D01*
X1388842Y995903D01*
X1388967Y995404D01*
X1389091Y994904D01*
X1389241Y994479D01*
X1389391Y994079D01*
X1389591Y993754D01*
X1389616Y993729D01*
X1389641Y993679D01*
X1389716Y993604D01*
X1389791Y993504D01*
X1390016Y993254D01*
X1390341Y992979D01*
X1390741Y992704D01*
X1391216Y992454D01*
X1391466Y992354D01*
X1391741Y992279D01*
X1392016Y992229D01*
X1392316Y992204D01*
X1392466D01*
X1392591Y992229D01*
X1392716Y992254D01*
X1392891Y992279D01*
X1393266Y992404D01*
X1393690Y992579D01*
X1393915Y992704D01*
X1394140Y992854D01*
X1394390Y993029D01*
X1394615Y993254D01*
X1394840Y993479D01*
X1395040Y993754D01*
X1395065Y993779D01*
X1395090Y993829D01*
X1395140Y993929D01*
X1395215Y994079D01*
X1395290Y994254D01*
X1395390Y994504D01*
X1395490Y994779D01*
X1395615Y995129D01*
X1395715Y995529D01*
X1395815Y995978D01*
X1395915Y996503D01*
X1395990Y997078D01*
X1396065Y997728D01*
X1396115Y998428D01*
X1396165Y999203D01*
Y1000052D01*
Y1000077D01*
Y1000102D01*
Y1000252D01*
Y1000502D01*
X1396140Y1000827D01*
Y1001202D01*
X1396115Y1001627D01*
X1396065Y1002127D01*
X1396015Y1002627D01*
X1395890Y1003677D01*
X1395790Y1004201D01*
X1395690Y1004726D01*
X1395565Y1005201D01*
X1395415Y1005626D01*
X1395240Y1006026D01*
X1395040Y1006351D01*
Y1006376D01*
X1394990Y1006426D01*
X1394940Y1006501D01*
X1394840Y1006601D01*
X1394615Y1006851D01*
X1394290Y1007151D01*
X1393890Y1007426D01*
X1393415Y1007675D01*
X1393165Y1007775D01*
X1392891Y1007850D01*
X1392591Y1007900D01*
X1392291Y1007925D01*
D02*
G37*
G36*
X1273964Y972952D02*
X1273814D01*
X1273715Y972927D01*
X1273415Y972877D01*
X1273065Y972777D01*
X1272640Y972602D01*
X1272415Y972502D01*
X1272190Y972352D01*
X1271965Y972177D01*
X1271740Y972002D01*
X1271515Y971777D01*
X1271290Y971527D01*
Y971502D01*
X1271240Y971452D01*
X1271190Y971377D01*
X1271115Y971277D01*
X1271015Y971127D01*
X1270915Y970952D01*
X1270815Y970727D01*
X1270715Y970502D01*
X1270615Y970227D01*
X1270515Y969927D01*
X1270415Y969577D01*
X1270315Y969228D01*
X1270240Y968828D01*
X1270190Y968403D01*
X1270165Y967928D01*
X1270140Y967453D01*
Y967428D01*
Y967328D01*
Y967203D01*
X1270165Y967028D01*
Y966803D01*
X1270190Y966528D01*
X1270240Y966253D01*
X1270265Y965954D01*
X1270415Y965304D01*
X1270590Y964654D01*
X1270865Y964029D01*
X1271015Y963754D01*
X1271215Y963504D01*
X1271240Y963479D01*
X1271265Y963454D01*
X1271415Y963304D01*
X1271640Y963104D01*
X1271965Y962879D01*
X1272340Y962629D01*
X1272790Y962429D01*
X1273315Y962279D01*
X1273590Y962254D01*
X1273865Y962229D01*
X1274014D01*
X1274139Y962254D01*
X1274264Y962279D01*
X1274414Y962304D01*
X1274789Y962404D01*
X1275214Y962554D01*
X1275664Y962779D01*
X1275889Y962929D01*
X1276114Y963129D01*
X1276339Y963329D01*
X1276564Y963554D01*
X1276589Y963579D01*
X1276614Y963629D01*
X1276664Y963704D01*
X1276739Y963804D01*
X1276814Y963954D01*
X1276914Y964129D01*
X1277014Y964329D01*
X1277139Y964554D01*
X1277239Y964829D01*
X1277339Y965129D01*
X1277439Y965479D01*
X1277514Y965854D01*
X1277589Y966253D01*
X1277638Y966678D01*
X1277689Y967153D01*
Y967653D01*
Y967678D01*
Y967778D01*
Y967903D01*
X1277663Y968078D01*
Y968303D01*
X1277638Y968553D01*
X1277589Y968853D01*
X1277563Y969153D01*
X1277414Y969778D01*
X1277214Y970452D01*
X1276964Y971077D01*
X1276789Y971377D01*
X1276589Y971627D01*
Y971652D01*
X1276539Y971677D01*
X1276389Y971827D01*
X1276164Y972052D01*
X1275839Y972302D01*
X1275464Y972527D01*
X1275014Y972752D01*
X1274514Y972902D01*
X1274239Y972927D01*
X1273964Y972952D01*
D02*
G37*
G36*
X1315479Y972852D02*
X1315329D01*
X1315204Y972827D01*
X1315079D01*
X1314904Y972802D01*
X1314529Y972727D01*
X1314104Y972577D01*
X1313629Y972377D01*
X1313179Y972127D01*
X1312955Y971952D01*
X1312729Y971752D01*
X1312679Y971702D01*
X1312555Y971552D01*
X1312380Y971327D01*
X1312180Y971002D01*
X1311955Y970577D01*
X1311755Y970077D01*
X1311605Y969528D01*
X1311530Y968878D01*
X1319303D01*
Y968903D01*
Y968953D01*
X1319278Y969053D01*
X1319253Y969153D01*
Y969303D01*
X1319203Y969478D01*
X1319128Y969853D01*
X1319003Y970277D01*
X1318853Y970702D01*
X1318653Y971127D01*
X1318403Y971477D01*
Y971502D01*
X1318353Y971527D01*
X1318278Y971602D01*
X1318203Y971702D01*
X1317953Y971902D01*
X1317628Y972177D01*
X1317203Y972427D01*
X1316703Y972627D01*
X1316129Y972802D01*
X1315804Y972827D01*
X1315479Y972852D01*
D02*
G37*
G36*
X1258718D02*
X1258543D01*
X1258418Y972827D01*
X1258269Y972802D01*
X1258093Y972777D01*
X1257694Y972677D01*
X1257244Y972527D01*
X1256744Y972302D01*
X1256494Y972152D01*
X1256269Y971977D01*
X1256019Y971752D01*
X1255794Y971527D01*
Y971502D01*
X1255744Y971477D01*
X1255694Y971377D01*
X1255619Y971277D01*
X1255519Y971127D01*
X1255419Y970977D01*
X1255319Y970777D01*
X1255219Y970527D01*
X1255119Y970277D01*
X1255019Y969977D01*
X1254919Y969652D01*
X1254819Y969278D01*
X1254744Y968903D01*
X1254694Y968478D01*
X1254669Y968003D01*
X1254644Y967528D01*
Y967503D01*
Y967403D01*
Y967278D01*
X1254669Y967103D01*
Y966878D01*
X1254694Y966628D01*
X1254744Y966328D01*
X1254794Y966028D01*
X1254919Y965404D01*
X1255119Y964729D01*
X1255419Y964104D01*
X1255594Y963829D01*
X1255794Y963554D01*
X1255819Y963529D01*
X1255844Y963504D01*
X1255919Y963429D01*
X1255994Y963354D01*
X1256269Y963129D01*
X1256594Y962904D01*
X1257019Y962654D01*
X1257519Y962429D01*
X1258093Y962279D01*
X1258393Y962254D01*
X1258718Y962229D01*
X1258893D01*
X1259018Y962254D01*
X1259168Y962279D01*
X1259343Y962304D01*
X1259743Y962404D01*
X1260193Y962554D01*
X1260693Y962779D01*
X1260943Y962929D01*
X1261193Y963129D01*
X1261418Y963329D01*
X1261643Y963554D01*
X1261668Y963579D01*
X1261693Y963629D01*
X1261743Y963704D01*
X1261818Y963804D01*
X1261917Y963954D01*
X1262018Y964129D01*
X1262117Y964329D01*
X1262243Y964554D01*
X1262342Y964829D01*
X1262442Y965129D01*
X1262542Y965454D01*
X1262642Y965828D01*
X1262717Y966228D01*
X1262767Y966653D01*
X1262817Y967103D01*
Y967603D01*
Y967628D01*
Y967728D01*
Y967853D01*
X1262792Y968028D01*
Y968253D01*
X1262767Y968478D01*
X1262717Y968753D01*
X1262667Y969053D01*
X1262542Y969678D01*
X1262317Y970327D01*
X1262042Y970952D01*
X1261843Y971252D01*
X1261643Y971502D01*
X1261618Y971527D01*
X1261593Y971552D01*
X1261518Y971627D01*
X1261443Y971702D01*
X1261168Y971927D01*
X1260843Y972177D01*
X1260418Y972427D01*
X1259918Y972652D01*
X1259343Y972802D01*
X1259043Y972827D01*
X1258718Y972852D01*
D02*
G37*
%LPD*%
D10*
X1395749Y1214890D02*
X1398749Y1211890D01*
X1395749Y1214890D02*
Y1232579D01*
X1405144Y1219580D02*
Y1232375D01*
X1320999Y1326471D02*
Y1335580D01*
Y1326471D02*
X1333890Y1313580D01*
X1356514Y1314340D02*
X1372988D01*
X1373493Y1313835D01*
X1359749Y1480580D02*
X1359999Y1480830D01*
X1359749Y1453830D02*
Y1480580D01*
X1367999Y1430080D02*
X1379265Y1441346D01*
X1357249Y1430080D02*
X1367999D01*
X1399999Y1433455D02*
X1408999Y1424455D01*
Y1424080D02*
Y1424455D01*
X1421649Y1385080D02*
X1422331Y1384398D01*
X1475117Y1286330D02*
X1475367Y1286580D01*
X1488499D01*
X1471999Y1176648D02*
X1491978Y1196627D01*
X1471999Y1151830D02*
Y1176648D01*
X1412162Y1348828D02*
X1449913Y1386578D01*
X1412162Y1348330D02*
Y1348828D01*
X1448256Y1372830D02*
X1461563D01*
X1418517Y1343092D02*
X1448256Y1372830D01*
X1461563D02*
X1475313Y1386580D01*
X1416408Y1273163D02*
Y1295420D01*
X1416249Y1295580D02*
X1416408Y1295420D01*
X1272607Y1379874D02*
Y1433688D01*
X1271999Y1379266D02*
X1272607Y1379874D01*
X1265999Y1384580D02*
Y1441580D01*
X1239272Y1429579D02*
X1239999D01*
X1219272Y1409580D02*
X1239272Y1429579D01*
X1333998Y1239635D02*
X1342249Y1231384D01*
X1333998Y1239635D02*
Y1260580D01*
X1240999Y1323080D02*
X1283499D01*
X1237249Y1326830D02*
X1240999Y1323080D01*
X1283499D02*
X1306749Y1299830D01*
X1434541Y1328613D02*
X1438228Y1332301D01*
X1410249Y1328613D02*
X1434541D01*
X1438228Y1332301D02*
X1438499D01*
X1393766Y1357592D02*
Y1384094D01*
X1122749Y1452580D02*
Y1466093D01*
X1122753Y1466098D01*
X1177756Y1478598D02*
X1187499Y1468855D01*
Y1444637D02*
Y1468855D01*
X1195999Y1445080D02*
Y1484579D01*
X1195998Y1484579D02*
X1195999Y1484579D01*
X1393766Y1384094D02*
X1415767Y1406095D01*
X1393948Y1492080D02*
X1411651D01*
X1378198Y1507830D02*
X1393948Y1492080D01*
X1473249Y1208955D02*
Y1227830D01*
Y1208955D02*
X1477624Y1204580D01*
X1288916Y1460313D02*
X1302732D01*
X1269248Y1479980D02*
X1288916Y1460313D01*
X1269248Y1479980D02*
Y1493080D01*
X1302732Y1460313D02*
X1307998Y1465579D01*
X1267499Y1275523D02*
X1279033Y1263989D01*
X1287610D01*
X1130999Y1443232D02*
Y1466580D01*
X1269155Y1264023D02*
X1270513D01*
X1254848Y1278330D02*
X1269155Y1264023D01*
X1267499Y1275523D02*
Y1291080D01*
X1254848Y1303730D02*
X1267499Y1291080D01*
X1286749Y1329080D02*
X1305999Y1309830D01*
X1246999Y1329080D02*
X1286749D01*
X1344998Y1423579D02*
X1372998D01*
X1351249Y1417330D02*
X1380849D01*
X1372998Y1423579D02*
X1378749Y1429330D01*
X1379249D01*
X1380849Y1417330D02*
X1381099Y1417580D01*
X1566651Y1362677D02*
X1566749Y1362580D01*
X1395349Y1501729D02*
X1409749D01*
X1388499Y1508580D02*
X1395349Y1501729D01*
D11*
X1135567Y950580D02*
X1485567D01*
X1135567D02*
Y1047580D01*
X1485567Y950580D02*
Y1047580D01*
X1135567D02*
X1485567D01*
D51*
X1515499Y1428330D02*
D03*
X1514999Y1333830D02*
D03*
D52*
X1535499Y1428330D02*
D03*
X1534999Y1333830D02*
D03*
D53*
X1280249Y1252930D02*
D03*
Y1278330D02*
D03*
Y1303730D02*
D03*
X1254848Y1278330D02*
D03*
Y1252930D02*
D03*
X1424513Y1386580D02*
D03*
X1475313D02*
D03*
X1449913Y1386578D02*
D03*
X1500713D02*
D03*
X1526113Y1386580D02*
D03*
X1138749Y1416080D02*
D03*
X1164149D02*
D03*
X1113347Y1416078D02*
D03*
X1087947Y1416077D02*
D03*
D54*
X1254848Y1303730D02*
D03*
X1551513Y1386578D02*
D03*
X1062547Y1416078D02*
D03*
D55*
X1174998Y1537580D02*
D03*
X1259098D02*
D03*
X1343198D02*
D03*
X1090898D02*
D03*
D56*
X1174998Y1557580D02*
D03*
Y1577579D02*
D03*
Y1597579D02*
D03*
X1259098Y1557580D02*
D03*
Y1577579D02*
D03*
Y1597579D02*
D03*
X1343198Y1557580D02*
D03*
Y1577579D02*
D03*
Y1597579D02*
D03*
X1090898Y1557580D02*
D03*
Y1577579D02*
D03*
Y1597579D02*
D03*
D57*
X1460629Y1557580D02*
D03*
X1511429D02*
D03*
D59*
X1271999Y1152580D02*
D03*
X1461999Y1442580D02*
D03*
X1141999Y1602580D02*
D03*
D61*
X1316360Y1194391D02*
X1329097Y1207127D01*
X1312579Y1182084D02*
X1316360D01*
X1308262D02*
X1312579D01*
Y1190610D01*
X1316360Y1194391D01*
Y1182084D02*
Y1194391D01*
X1308262Y1182084D02*
Y1194391D01*
X1320999Y1207127D01*
X1526749Y1265580D02*
Y1271338D01*
Y1264920D02*
Y1265580D01*
X1516819D02*
X1526749D01*
X1502249Y1257080D02*
X1516507Y1271338D01*
X1509749Y1258510D02*
X1516819Y1265580D01*
X1509749Y1257080D02*
Y1258510D01*
X1516507Y1271338D02*
X1526749D01*
X1502499Y1180675D02*
X1505999Y1184175D01*
X1510158Y1188334D01*
X1505999Y1165580D02*
Y1184175D01*
X1498999Y1165580D02*
Y1185311D01*
X1502021Y1188334D01*
X1498999Y1165580D02*
X1505999D01*
X1510158Y1188334D02*
X1510249Y1188425D01*
X1502021Y1188334D02*
X1510158D01*
X1502499Y1180675D02*
Y1187857D01*
X1529749Y1228580D02*
Y1231830D01*
Y1228580D02*
X1551999D01*
X1320999Y1207127D02*
X1329097D01*
X1559749Y1236330D02*
X1566749Y1243330D01*
X1551999Y1228580D02*
X1559749Y1236330D01*
X1529749Y1225285D02*
X1529954Y1225080D01*
X1529749Y1225285D02*
Y1228580D01*
X1502249Y1257080D02*
X1509749D01*
X1566749Y1243330D02*
Y1362580D01*
Y1397080D01*
X1535499Y1428330D02*
X1566749Y1397080D01*
D62*
X1502499Y1167580D02*
Y1180675D01*
D63*
X1155148Y1458497D02*
Y1469580D01*
Y1458497D02*
X1163755Y1449889D01*
Y1449347D02*
Y1449889D01*
X1304124Y1251130D02*
Y1279855D01*
X1280249Y1303730D02*
X1304124Y1279855D01*
D66*
X1398749Y1211890D02*
D03*
X1395749Y1232579D02*
D03*
X1405144Y1219580D02*
D03*
Y1232375D02*
D03*
X1320999Y1335580D02*
D03*
X1373493Y1313835D02*
D03*
X1356514Y1314340D02*
D03*
X1333890Y1313580D02*
D03*
X1359749Y1453830D02*
D03*
X1379265Y1441346D02*
D03*
X1399999Y1433455D02*
D03*
X1408999Y1424080D02*
D03*
X1359999Y1480830D02*
D03*
X1488499Y1286580D02*
D03*
X1475117Y1286330D02*
D03*
X1398766Y1180334D02*
D03*
X1491978Y1196627D02*
D03*
X1505999Y1165580D02*
D03*
X1529749Y1231830D02*
D03*
X1502021Y1188334D02*
D03*
X1498999Y1165580D02*
D03*
X1510249Y1188425D02*
D03*
X1418517Y1343092D02*
D03*
X1412162Y1348330D02*
D03*
X1416249Y1295580D02*
D03*
X1416408Y1273163D02*
D03*
X1272607Y1433688D02*
D03*
X1265999Y1441580D02*
D03*
X1219272Y1409580D02*
D03*
X1239999Y1429579D02*
D03*
X1265999Y1384580D02*
D03*
X1271999Y1379266D02*
D03*
X1333998Y1260580D02*
D03*
X1284999Y1432580D02*
D03*
X1137999Y1133080D02*
D03*
X1055746Y1205955D02*
D03*
X1092575Y1157455D02*
D03*
X1099743Y1148455D02*
D03*
X1099746Y1139080D02*
D03*
X1092251Y1115966D02*
D03*
X1092249Y1125341D02*
D03*
X1082874Y1125339D02*
D03*
X1082876Y1115964D02*
D03*
X1054749Y1125330D02*
D03*
X1064124Y1125333D02*
D03*
X1073499Y1125336D02*
D03*
X1073502Y1115961D02*
D03*
X1064127Y1115958D02*
D03*
X1054752Y1115955D02*
D03*
X1046012Y1118455D02*
D03*
X1046009Y1127830D02*
D03*
X1045989Y1202827D02*
D03*
X1045992Y1193452D02*
D03*
X1045995Y1184077D02*
D03*
X1045997Y1174702D02*
D03*
X1046000Y1165327D02*
D03*
X1046003Y1155952D02*
D03*
X1092151Y1202330D02*
D03*
X1092575Y1167080D02*
D03*
X1072548Y1352580D02*
D03*
X1059791Y1326580D02*
D03*
Y1343080D02*
D03*
X1225749Y1343622D02*
D03*
Y1327122D02*
D03*
X1082749Y1197830D02*
D03*
X1074999Y1202882D02*
D03*
X1065438Y1201080D02*
D03*
X1082575Y1167080D02*
D03*
X1062423Y1166330D02*
D03*
X1060749Y1175330D02*
D03*
X1060499Y1185080D02*
D03*
X1060249Y1193925D02*
D03*
X1500054Y1227374D02*
D03*
X1506760Y1233930D02*
D03*
X1506610Y1220669D02*
D03*
X1493349Y1220818D02*
D03*
X1493499Y1234080D02*
D03*
X1342249Y1231384D02*
D03*
X1410249Y1328613D02*
D03*
X1438499Y1332301D02*
D03*
X1393766Y1357592D02*
D03*
X1122749Y1452580D02*
D03*
X1187499Y1444637D02*
D03*
X1195999Y1445080D02*
D03*
X1415767Y1406095D02*
D03*
X1411651Y1492080D02*
D03*
X1378198Y1507830D02*
D03*
X1356999Y1322430D02*
D03*
X1477624Y1204580D02*
D03*
X1414998Y1235580D02*
D03*
X1307998Y1465579D02*
D03*
X1320999Y1207127D02*
D03*
X1329097D02*
D03*
X1316360Y1182084D02*
D03*
X1155148Y1469580D02*
D03*
X1163755Y1449347D02*
D03*
X1529954Y1225080D02*
D03*
X1359228Y1132955D02*
D03*
X1308262Y1182084D02*
D03*
X1304124Y1251130D02*
D03*
X1304641Y1231587D02*
D03*
X1287610Y1263989D02*
D03*
X1520132Y1257580D02*
D03*
X1530749Y1255830D02*
D03*
X1269248Y1493080D02*
D03*
X1122753Y1466098D02*
D03*
X1130999Y1443232D02*
D03*
X1485749Y1255580D02*
D03*
X1471999Y1151830D02*
D03*
X1325513Y1342842D02*
D03*
X1344764Y1346842D02*
D03*
X1356928Y1345489D02*
D03*
X1372998Y1213580D02*
D03*
X1361015Y1223086D02*
D03*
X1270513Y1264023D02*
D03*
X1237249Y1326830D02*
D03*
X1246999Y1329080D02*
D03*
X1516749Y1207127D02*
D03*
X1357249Y1430080D02*
D03*
X1379249Y1429330D02*
D03*
X1351249Y1417330D02*
D03*
X1344998Y1423579D02*
D03*
X1321636Y1432080D02*
D03*
X1082575Y1157330D02*
D03*
X1062499Y1157580D02*
D03*
X1046003Y1146580D02*
D03*
Y1137208D02*
D03*
X1099749Y1129705D02*
D03*
Y1120580D02*
D03*
X1365086Y1261665D02*
D03*
X1363249Y1381535D02*
D03*
X1320749Y1451580D02*
D03*
X1420854Y1451830D02*
D03*
Y1467837D02*
D03*
X1410581Y1482203D02*
D03*
X1195998Y1484579D02*
D03*
X1381099Y1417580D02*
D03*
X1523874Y1252080D02*
D03*
X1516749Y1249837D02*
D03*
X1553999Y1206580D02*
D03*
X1523999Y1187580D02*
D03*
Y1195047D02*
D03*
X1522249Y1202337D02*
D03*
X1509749Y1257080D02*
D03*
X1526749Y1264080D02*
D03*
X1502249Y1257080D02*
D03*
X1526749Y1271338D02*
D03*
X1473249Y1227830D02*
D03*
X1409749Y1501729D02*
D03*
X1388499Y1508580D02*
D03*
X1130999Y1466580D02*
D03*
X1177756Y1478598D02*
D03*
X1306749Y1299830D02*
D03*
X1305999Y1309830D02*
D03*
X1304641Y1216837D02*
D03*
X1129753Y1142833D02*
D03*
Y1160833D02*
D03*
M02*
