G04*
G04 #@! TF.GenerationSoftware,Altium Limited,Altium Designer,18.1.9 (240)*
G04*
G04 Layer_Color=8421504*
%FSLAX44Y44*%
%MOMM*%
G71*
G01*
G75*
%ADD10C,0.2000*%
%ADD11C,0.3000*%
%ADD12C,0.1000*%
%ADD13C,0.2500*%
%ADD14C,0.3500*%
%ADD15C,0.3550*%
%ADD16R,1.2000X0.5000*%
%ADD17R,0.5000X1.2000*%
%ADD18R,1.3000X1.3000*%
%ADD19R,0.5500X0.5500*%
%ADD20R,1.0000X0.5000*%
%ADD21R,2.3000X0.5500*%
%ADD22R,0.6000X0.6500*%
%ADD23R,0.6500X1.6000*%
G04:AMPARAMS|DCode=24|XSize=1.1mm|YSize=2.3mm|CornerRadius=0.55mm|HoleSize=0mm|Usage=FLASHONLY|Rotation=180.000|XOffset=0mm|YOffset=0mm|HoleType=Round|Shape=RoundedRectangle|*
%AMROUNDEDRECTD24*
21,1,1.1000,1.2000,0,0,180.0*
21,1,0.0000,2.3000,0,0,180.0*
1,1,1.1000,0.0000,0.6000*
1,1,1.1000,0.0000,0.6000*
1,1,1.1000,0.0000,-0.6000*
1,1,1.1000,0.0000,-0.6000*
%
%ADD24ROUNDEDRECTD24*%
%ADD25R,1.4000X2.0000*%
%ADD26R,1.6000X0.4000*%
G36*
X1465556Y1691101D02*
X1463207D01*
Y1693800D01*
X1465556D01*
Y1691101D01*
D02*
G37*
G36*
X1416319D02*
X1413970D01*
Y1693800D01*
X1416319D01*
Y1691101D01*
D02*
G37*
G36*
X1431140Y1674580D02*
X1428941D01*
Y1676354D01*
X1428916Y1676329D01*
X1428891Y1676254D01*
X1428791Y1676154D01*
X1428691Y1676030D01*
X1428566Y1675880D01*
X1428391Y1675705D01*
X1428191Y1675505D01*
X1427966Y1675330D01*
X1427691Y1675130D01*
X1427416Y1674930D01*
X1427091Y1674755D01*
X1426741Y1674605D01*
X1426366Y1674480D01*
X1425941Y1674380D01*
X1425517Y1674305D01*
X1425042Y1674280D01*
X1424867D01*
X1424767Y1674305D01*
X1424617D01*
X1424442Y1674330D01*
X1424042Y1674405D01*
X1423567Y1674505D01*
X1423042Y1674655D01*
X1422492Y1674880D01*
X1421967Y1675180D01*
X1421942D01*
X1421918Y1675230D01*
X1421842Y1675280D01*
X1421743Y1675355D01*
X1421493Y1675555D01*
X1421193Y1675854D01*
X1420843Y1676204D01*
X1420493Y1676654D01*
X1420143Y1677154D01*
X1419818Y1677729D01*
Y1677754D01*
X1419793Y1677804D01*
X1419743Y1677904D01*
X1419693Y1678029D01*
X1419643Y1678179D01*
X1419593Y1678354D01*
X1419518Y1678579D01*
X1419443Y1678829D01*
X1419318Y1679379D01*
X1419193Y1680029D01*
X1419093Y1680728D01*
X1419068Y1681503D01*
Y1681528D01*
Y1681603D01*
Y1681703D01*
Y1681853D01*
X1419093Y1682053D01*
Y1682253D01*
X1419118Y1682503D01*
X1419143Y1682753D01*
X1419243Y1683353D01*
X1419343Y1683978D01*
X1419518Y1684627D01*
X1419743Y1685277D01*
Y1685302D01*
X1419768Y1685352D01*
X1419818Y1685452D01*
X1419868Y1685552D01*
X1419943Y1685702D01*
X1420043Y1685852D01*
X1420268Y1686252D01*
X1420568Y1686652D01*
X1420918Y1687102D01*
X1421343Y1687502D01*
X1421817Y1687876D01*
X1421842D01*
X1421893Y1687926D01*
X1421967Y1687951D01*
X1422067Y1688026D01*
X1422192Y1688101D01*
X1422342Y1688176D01*
X1422742Y1688351D01*
X1423192Y1688501D01*
X1423717Y1688651D01*
X1424317Y1688751D01*
X1424942Y1688801D01*
X1425142D01*
X1425392Y1688776D01*
X1425692Y1688726D01*
X1426041Y1688676D01*
X1426416Y1688576D01*
X1426791Y1688426D01*
X1427166Y1688251D01*
X1427216Y1688226D01*
X1427341Y1688151D01*
X1427516Y1688051D01*
X1427741Y1687876D01*
X1427991Y1687677D01*
X1428266Y1687452D01*
X1428541Y1687177D01*
X1428791Y1686877D01*
Y1693800D01*
X1431140D01*
Y1674580D01*
D02*
G37*
G36*
X1540362Y1688751D02*
X1540662Y1688701D01*
X1541037Y1688601D01*
X1541462Y1688476D01*
X1541887Y1688276D01*
X1542362Y1688026D01*
X1541537Y1685852D01*
X1541487Y1685877D01*
X1541387Y1685927D01*
X1541212Y1686002D01*
X1540987Y1686102D01*
X1540737Y1686202D01*
X1540437Y1686277D01*
X1540112Y1686327D01*
X1539787Y1686352D01*
X1539662D01*
X1539512Y1686327D01*
X1539312Y1686302D01*
X1539113Y1686227D01*
X1538862Y1686152D01*
X1538638Y1686027D01*
X1538388Y1685877D01*
X1538363Y1685852D01*
X1538288Y1685802D01*
X1538188Y1685677D01*
X1538063Y1685527D01*
X1537913Y1685352D01*
X1537763Y1685127D01*
X1537638Y1684877D01*
X1537513Y1684577D01*
Y1684552D01*
X1537488Y1684527D01*
Y1684452D01*
X1537463Y1684352D01*
X1537388Y1684102D01*
X1537338Y1683777D01*
X1537263Y1683353D01*
X1537188Y1682903D01*
X1537163Y1682378D01*
X1537138Y1681828D01*
Y1674580D01*
X1534789D01*
Y1688501D01*
X1536913D01*
Y1686377D01*
X1536938Y1686427D01*
X1536988Y1686502D01*
X1537038Y1686602D01*
X1537213Y1686852D01*
X1537388Y1687152D01*
X1537613Y1687502D01*
X1537863Y1687827D01*
X1538138Y1688101D01*
X1538388Y1688326D01*
X1538413Y1688351D01*
X1538513Y1688401D01*
X1538663Y1688476D01*
X1538837Y1688576D01*
X1539062Y1688651D01*
X1539337Y1688726D01*
X1539612Y1688776D01*
X1539912Y1688801D01*
X1540112D01*
X1540362Y1688751D01*
D02*
G37*
G36*
X1455784Y1688776D02*
X1455984D01*
X1456209Y1688751D01*
X1456434Y1688701D01*
X1456709Y1688651D01*
X1457283Y1688526D01*
X1457908Y1688326D01*
X1458508Y1688026D01*
X1458808Y1687852D01*
X1459083Y1687652D01*
X1459108Y1687626D01*
X1459158Y1687601D01*
X1459208Y1687527D01*
X1459308Y1687452D01*
X1459433Y1687327D01*
X1459558Y1687177D01*
X1459708Y1687002D01*
X1459858Y1686827D01*
X1460183Y1686352D01*
X1460483Y1685802D01*
X1460757Y1685152D01*
X1460957Y1684402D01*
X1458658Y1684052D01*
Y1684077D01*
X1458633Y1684102D01*
Y1684177D01*
X1458583Y1684277D01*
X1458508Y1684527D01*
X1458383Y1684827D01*
X1458208Y1685152D01*
X1458008Y1685502D01*
X1457783Y1685827D01*
X1457483Y1686127D01*
X1457458Y1686152D01*
X1457333Y1686252D01*
X1457159Y1686352D01*
X1456933Y1686502D01*
X1456634Y1686627D01*
X1456284Y1686752D01*
X1455909Y1686827D01*
X1455484Y1686852D01*
X1455309D01*
X1455184Y1686827D01*
X1455034Y1686802D01*
X1454859Y1686777D01*
X1454459Y1686702D01*
X1454009Y1686552D01*
X1453534Y1686327D01*
X1453284Y1686177D01*
X1453060Y1686002D01*
X1452835Y1685802D01*
X1452610Y1685577D01*
Y1685552D01*
X1452560Y1685527D01*
X1452510Y1685452D01*
X1452435Y1685327D01*
X1452360Y1685202D01*
X1452260Y1685027D01*
X1452160Y1684827D01*
X1452060Y1684602D01*
X1451960Y1684327D01*
X1451860Y1684027D01*
X1451760Y1683703D01*
X1451685Y1683353D01*
X1451610Y1682953D01*
X1451560Y1682528D01*
X1451535Y1682053D01*
X1451510Y1681553D01*
Y1681528D01*
Y1681428D01*
Y1681278D01*
X1451535Y1681103D01*
Y1680853D01*
X1451560Y1680603D01*
X1451610Y1680303D01*
X1451635Y1680004D01*
X1451760Y1679329D01*
X1451960Y1678654D01*
X1452210Y1678029D01*
X1452385Y1677729D01*
X1452560Y1677479D01*
X1452585Y1677454D01*
X1452610Y1677429D01*
X1452760Y1677279D01*
X1452984Y1677079D01*
X1453309Y1676854D01*
X1453709Y1676629D01*
X1454184Y1676429D01*
X1454734Y1676279D01*
X1455034Y1676254D01*
X1455359Y1676229D01*
X1455484D01*
X1455584Y1676254D01*
X1455834Y1676279D01*
X1456159Y1676329D01*
X1456534Y1676429D01*
X1456909Y1676579D01*
X1457283Y1676779D01*
X1457658Y1677054D01*
X1457708Y1677104D01*
X1457808Y1677204D01*
X1457983Y1677429D01*
X1458158Y1677704D01*
X1458358Y1678079D01*
X1458558Y1678529D01*
X1458733Y1679054D01*
X1458858Y1679679D01*
X1461182Y1679354D01*
Y1679329D01*
X1461157Y1679254D01*
X1461132Y1679129D01*
X1461107Y1678954D01*
X1461033Y1678754D01*
X1460983Y1678529D01*
X1460883Y1678254D01*
X1460782Y1677979D01*
X1460533Y1677379D01*
X1460183Y1676754D01*
X1459983Y1676454D01*
X1459758Y1676154D01*
X1459483Y1675880D01*
X1459208Y1675605D01*
X1459183Y1675580D01*
X1459133Y1675555D01*
X1459058Y1675480D01*
X1458933Y1675405D01*
X1458783Y1675305D01*
X1458608Y1675180D01*
X1458383Y1675055D01*
X1458158Y1674955D01*
X1457883Y1674830D01*
X1457583Y1674705D01*
X1456933Y1674480D01*
X1456209Y1674330D01*
X1455809Y1674305D01*
X1455384Y1674280D01*
X1455259D01*
X1455109Y1674305D01*
X1454909D01*
X1454659Y1674330D01*
X1454384Y1674380D01*
X1454084Y1674430D01*
X1453734Y1674505D01*
X1453384Y1674605D01*
X1453009Y1674730D01*
X1452635Y1674880D01*
X1452260Y1675055D01*
X1451885Y1675280D01*
X1451510Y1675530D01*
X1451135Y1675804D01*
X1450810Y1676129D01*
X1450785Y1676154D01*
X1450735Y1676229D01*
X1450660Y1676329D01*
X1450535Y1676479D01*
X1450410Y1676679D01*
X1450260Y1676904D01*
X1450110Y1677179D01*
X1449960Y1677504D01*
X1449785Y1677854D01*
X1449635Y1678254D01*
X1449485Y1678704D01*
X1449360Y1679179D01*
X1449236Y1679704D01*
X1449160Y1680253D01*
X1449111Y1680853D01*
X1449086Y1681478D01*
Y1681503D01*
Y1681578D01*
Y1681703D01*
Y1681853D01*
X1449111Y1682053D01*
X1449135Y1682278D01*
Y1682528D01*
X1449185Y1682803D01*
X1449261Y1683428D01*
X1449385Y1684077D01*
X1449560Y1684752D01*
X1449810Y1685402D01*
Y1685427D01*
X1449835Y1685477D01*
X1449885Y1685577D01*
X1449960Y1685677D01*
X1450135Y1685977D01*
X1450385Y1686352D01*
X1450685Y1686777D01*
X1451085Y1687202D01*
X1451560Y1687601D01*
X1452085Y1687951D01*
X1452110D01*
X1452160Y1687976D01*
X1452235Y1688026D01*
X1452360Y1688076D01*
X1452485Y1688151D01*
X1452660Y1688226D01*
X1453085Y1688376D01*
X1453559Y1688526D01*
X1454134Y1688676D01*
X1454759Y1688776D01*
X1455409Y1688801D01*
X1455634D01*
X1455784Y1688776D01*
D02*
G37*
G36*
X1516093Y1674580D02*
X1513644D01*
Y1690676D01*
X1508020Y1674580D01*
X1505746D01*
X1500197Y1690951D01*
Y1674580D01*
X1497748D01*
Y1693800D01*
X1501547D01*
X1506096Y1680178D01*
Y1680153D01*
X1506121Y1680103D01*
X1506146Y1680004D01*
X1506196Y1679879D01*
X1506246Y1679704D01*
X1506321Y1679529D01*
X1506446Y1679104D01*
X1506596Y1678654D01*
X1506746Y1678179D01*
X1506896Y1677729D01*
X1507021Y1677329D01*
X1507046Y1677379D01*
X1507096Y1677529D01*
X1507171Y1677779D01*
X1507271Y1678104D01*
X1507421Y1678554D01*
X1507596Y1679079D01*
X1507796Y1679704D01*
X1508045Y1680428D01*
X1512669Y1693800D01*
X1516093D01*
Y1674580D01*
D02*
G37*
G36*
X1446086D02*
X1443987D01*
Y1676629D01*
X1443962Y1676604D01*
X1443912Y1676529D01*
X1443812Y1676404D01*
X1443687Y1676254D01*
X1443512Y1676080D01*
X1443312Y1675880D01*
X1443087Y1675680D01*
X1442812Y1675455D01*
X1442512Y1675230D01*
X1442187Y1675030D01*
X1441812Y1674830D01*
X1441438Y1674655D01*
X1441013Y1674505D01*
X1440563Y1674380D01*
X1440063Y1674305D01*
X1439563Y1674280D01*
X1439363D01*
X1439113Y1674305D01*
X1438813Y1674330D01*
X1438463Y1674380D01*
X1438088Y1674480D01*
X1437663Y1674580D01*
X1437263Y1674730D01*
X1437214Y1674755D01*
X1437089Y1674805D01*
X1436889Y1674930D01*
X1436664Y1675055D01*
X1436414Y1675230D01*
X1436139Y1675430D01*
X1435889Y1675655D01*
X1435664Y1675905D01*
X1435639Y1675930D01*
X1435589Y1676030D01*
X1435489Y1676180D01*
X1435389Y1676404D01*
X1435264Y1676654D01*
X1435139Y1676954D01*
X1435039Y1677304D01*
X1434939Y1677679D01*
Y1677704D01*
X1434914Y1677804D01*
X1434889Y1677979D01*
Y1678229D01*
X1434864Y1678529D01*
X1434839Y1678904D01*
X1434814Y1679354D01*
Y1679879D01*
Y1688501D01*
X1437164D01*
Y1680778D01*
Y1680753D01*
Y1680703D01*
Y1680603D01*
Y1680478D01*
Y1680328D01*
Y1680153D01*
X1437189Y1679778D01*
Y1679354D01*
X1437214Y1678954D01*
X1437239Y1678579D01*
X1437263Y1678404D01*
X1437289Y1678279D01*
Y1678229D01*
X1437339Y1678129D01*
X1437388Y1677954D01*
X1437489Y1677754D01*
X1437614Y1677529D01*
X1437788Y1677279D01*
X1437988Y1677054D01*
X1438238Y1676829D01*
X1438263Y1676804D01*
X1438363Y1676754D01*
X1438513Y1676654D01*
X1438738Y1676579D01*
X1438988Y1676479D01*
X1439288Y1676379D01*
X1439638Y1676329D01*
X1440013Y1676304D01*
X1440188D01*
X1440413Y1676329D01*
X1440663Y1676379D01*
X1440963Y1676429D01*
X1441313Y1676529D01*
X1441662Y1676654D01*
X1442012Y1676829D01*
X1442062Y1676854D01*
X1442162Y1676929D01*
X1442337Y1677054D01*
X1442537Y1677229D01*
X1442762Y1677429D01*
X1442962Y1677679D01*
X1443162Y1677979D01*
X1443337Y1678304D01*
X1443362Y1678354D01*
X1443412Y1678479D01*
X1443462Y1678704D01*
X1443537Y1679004D01*
X1443612Y1679379D01*
X1443687Y1679854D01*
X1443712Y1680403D01*
X1443737Y1681028D01*
Y1688501D01*
X1446086D01*
Y1674580D01*
D02*
G37*
G36*
X1546111Y1682828D02*
X1551684Y1688501D01*
X1554758D01*
X1549435Y1683328D01*
X1555308Y1674580D01*
X1552384D01*
X1547760Y1681703D01*
X1546111Y1680078D01*
Y1674580D01*
X1543761D01*
Y1693800D01*
X1546111D01*
Y1682828D01*
D02*
G37*
G36*
X1526391Y1688776D02*
X1526791Y1688751D01*
X1527240Y1688701D01*
X1527740Y1688626D01*
X1528190Y1688526D01*
X1528640Y1688376D01*
X1528665D01*
X1528690Y1688351D01*
X1528815Y1688301D01*
X1529015Y1688201D01*
X1529265Y1688076D01*
X1529540Y1687926D01*
X1529815Y1687751D01*
X1530065Y1687527D01*
X1530290Y1687302D01*
X1530315Y1687277D01*
X1530365Y1687202D01*
X1530465Y1687052D01*
X1530590Y1686877D01*
X1530715Y1686652D01*
X1530840Y1686377D01*
X1530940Y1686077D01*
X1531039Y1685727D01*
Y1685702D01*
X1531064Y1685602D01*
X1531089Y1685452D01*
X1531115Y1685227D01*
Y1684927D01*
X1531140Y1684552D01*
X1531165Y1684102D01*
Y1683553D01*
Y1680403D01*
Y1680378D01*
Y1680253D01*
Y1680103D01*
Y1679879D01*
Y1679629D01*
Y1679329D01*
Y1679004D01*
X1531190Y1678654D01*
Y1677954D01*
X1531214Y1677279D01*
X1531239Y1676954D01*
Y1676679D01*
X1531264Y1676454D01*
X1531290Y1676254D01*
Y1676204D01*
X1531315Y1676104D01*
X1531364Y1675930D01*
X1531414Y1675730D01*
X1531514Y1675455D01*
X1531614Y1675180D01*
X1531739Y1674880D01*
X1531889Y1674580D01*
X1529415D01*
X1529390Y1674605D01*
X1529365Y1674705D01*
X1529290Y1674855D01*
X1529240Y1675080D01*
X1529140Y1675330D01*
X1529090Y1675630D01*
X1529015Y1675954D01*
X1528965Y1676329D01*
X1528940D01*
X1528915Y1676279D01*
X1528840Y1676229D01*
X1528740Y1676154D01*
X1528490Y1675954D01*
X1528140Y1675705D01*
X1527765Y1675455D01*
X1527341Y1675180D01*
X1526866Y1674930D01*
X1526416Y1674730D01*
X1526391D01*
X1526366Y1674705D01*
X1526291Y1674680D01*
X1526216Y1674655D01*
X1525966Y1674580D01*
X1525641Y1674505D01*
X1525266Y1674430D01*
X1524816Y1674355D01*
X1524341Y1674305D01*
X1523841Y1674280D01*
X1523616D01*
X1523466Y1674305D01*
X1523266D01*
X1523042Y1674330D01*
X1522542Y1674430D01*
X1521967Y1674555D01*
X1521392Y1674755D01*
X1520817Y1675030D01*
X1520567Y1675180D01*
X1520317Y1675380D01*
X1520292Y1675405D01*
X1520267Y1675430D01*
X1520117Y1675580D01*
X1519942Y1675829D01*
X1519717Y1676154D01*
X1519492Y1676579D01*
X1519292Y1677054D01*
X1519143Y1677604D01*
X1519118Y1677904D01*
X1519093Y1678229D01*
Y1678279D01*
Y1678404D01*
X1519118Y1678604D01*
X1519143Y1678854D01*
X1519193Y1679129D01*
X1519292Y1679454D01*
X1519393Y1679778D01*
X1519543Y1680103D01*
X1519568Y1680153D01*
X1519617Y1680253D01*
X1519742Y1680403D01*
X1519867Y1680603D01*
X1520042Y1680803D01*
X1520267Y1681028D01*
X1520492Y1681253D01*
X1520767Y1681453D01*
X1520792Y1681478D01*
X1520892Y1681528D01*
X1521067Y1681628D01*
X1521267Y1681753D01*
X1521517Y1681878D01*
X1521792Y1682003D01*
X1522117Y1682128D01*
X1522467Y1682228D01*
X1522492D01*
X1522592Y1682253D01*
X1522767Y1682303D01*
X1522992Y1682328D01*
X1523291Y1682403D01*
X1523641Y1682453D01*
X1524066Y1682503D01*
X1524566Y1682578D01*
X1524591D01*
X1524691Y1682603D01*
X1524841D01*
X1525041Y1682653D01*
X1525266Y1682678D01*
X1525541Y1682703D01*
X1525841Y1682753D01*
X1526166Y1682803D01*
X1526841Y1682928D01*
X1527540Y1683078D01*
X1528190Y1683228D01*
X1528490Y1683328D01*
X1528765Y1683403D01*
Y1683428D01*
Y1683478D01*
Y1683553D01*
X1528790Y1683652D01*
Y1683853D01*
Y1683952D01*
Y1684002D01*
Y1684027D01*
Y1684077D01*
Y1684152D01*
Y1684227D01*
X1528765Y1684502D01*
X1528715Y1684802D01*
X1528615Y1685152D01*
X1528515Y1685477D01*
X1528340Y1685802D01*
X1528115Y1686052D01*
X1528065Y1686077D01*
X1527940Y1686177D01*
X1527740Y1686302D01*
X1527440Y1686452D01*
X1527041Y1686602D01*
X1526591Y1686727D01*
X1526041Y1686827D01*
X1525416Y1686852D01*
X1525141D01*
X1524841Y1686827D01*
X1524491Y1686777D01*
X1524066Y1686702D01*
X1523666Y1686602D01*
X1523266Y1686452D01*
X1522942Y1686252D01*
X1522917Y1686227D01*
X1522817Y1686152D01*
X1522667Y1686002D01*
X1522517Y1685777D01*
X1522317Y1685502D01*
X1522142Y1685152D01*
X1521942Y1684702D01*
X1521792Y1684202D01*
X1519492Y1684527D01*
Y1684552D01*
X1519518Y1684602D01*
Y1684677D01*
X1519543Y1684777D01*
X1519617Y1685052D01*
X1519742Y1685377D01*
X1519867Y1685752D01*
X1520042Y1686152D01*
X1520267Y1686552D01*
X1520517Y1686902D01*
X1520542Y1686952D01*
X1520642Y1687052D01*
X1520817Y1687202D01*
X1521042Y1687427D01*
X1521342Y1687652D01*
X1521692Y1687876D01*
X1522117Y1688101D01*
X1522592Y1688301D01*
X1522617D01*
X1522667Y1688326D01*
X1522742Y1688351D01*
X1522842Y1688376D01*
X1522967Y1688426D01*
X1523117Y1688451D01*
X1523517Y1688551D01*
X1523966Y1688651D01*
X1524516Y1688726D01*
X1525116Y1688776D01*
X1525766Y1688801D01*
X1526216D01*
X1526391Y1688776D01*
D02*
G37*
G36*
X1486401Y1674580D02*
X1484052D01*
Y1693800D01*
X1486401D01*
Y1674580D01*
D02*
G37*
G36*
X1475679Y1688776D02*
X1476079Y1688751D01*
X1476528Y1688701D01*
X1477028Y1688626D01*
X1477478Y1688526D01*
X1477928Y1688376D01*
X1477953D01*
X1477978Y1688351D01*
X1478103Y1688301D01*
X1478303Y1688201D01*
X1478553Y1688076D01*
X1478828Y1687926D01*
X1479103Y1687751D01*
X1479353Y1687527D01*
X1479578Y1687302D01*
X1479603Y1687277D01*
X1479653Y1687202D01*
X1479753Y1687052D01*
X1479878Y1686877D01*
X1480003Y1686652D01*
X1480128Y1686377D01*
X1480228Y1686077D01*
X1480327Y1685727D01*
Y1685702D01*
X1480352Y1685602D01*
X1480378Y1685452D01*
X1480403Y1685227D01*
Y1684927D01*
X1480428Y1684552D01*
X1480453Y1684102D01*
Y1683553D01*
Y1680403D01*
Y1680378D01*
Y1680253D01*
Y1680103D01*
Y1679879D01*
Y1679629D01*
Y1679329D01*
Y1679004D01*
X1480477Y1678654D01*
Y1677954D01*
X1480502Y1677279D01*
X1480527Y1676954D01*
Y1676679D01*
X1480553Y1676454D01*
X1480578Y1676254D01*
Y1676204D01*
X1480602Y1676104D01*
X1480652Y1675930D01*
X1480702Y1675730D01*
X1480802Y1675455D01*
X1480902Y1675180D01*
X1481027Y1674880D01*
X1481177Y1674580D01*
X1478703D01*
X1478678Y1674605D01*
X1478653Y1674705D01*
X1478578Y1674855D01*
X1478528Y1675080D01*
X1478428Y1675330D01*
X1478378Y1675630D01*
X1478303Y1675954D01*
X1478253Y1676329D01*
X1478228D01*
X1478203Y1676279D01*
X1478128Y1676229D01*
X1478028Y1676154D01*
X1477778Y1675954D01*
X1477428Y1675705D01*
X1477053Y1675455D01*
X1476629Y1675180D01*
X1476154Y1674930D01*
X1475704Y1674730D01*
X1475679D01*
X1475654Y1674705D01*
X1475579Y1674680D01*
X1475504Y1674655D01*
X1475254Y1674580D01*
X1474929Y1674505D01*
X1474554Y1674430D01*
X1474104Y1674355D01*
X1473629Y1674305D01*
X1473129Y1674280D01*
X1472904D01*
X1472755Y1674305D01*
X1472554D01*
X1472330Y1674330D01*
X1471830Y1674430D01*
X1471255Y1674555D01*
X1470680Y1674755D01*
X1470105Y1675030D01*
X1469855Y1675180D01*
X1469605Y1675380D01*
X1469580Y1675405D01*
X1469555Y1675430D01*
X1469405Y1675580D01*
X1469230Y1675829D01*
X1469005Y1676154D01*
X1468781Y1676579D01*
X1468580Y1677054D01*
X1468431Y1677604D01*
X1468406Y1677904D01*
X1468381Y1678229D01*
Y1678279D01*
Y1678404D01*
X1468406Y1678604D01*
X1468431Y1678854D01*
X1468481Y1679129D01*
X1468580Y1679454D01*
X1468681Y1679778D01*
X1468831Y1680103D01*
X1468855Y1680153D01*
X1468905Y1680253D01*
X1469030Y1680403D01*
X1469155Y1680603D01*
X1469330Y1680803D01*
X1469555Y1681028D01*
X1469780Y1681253D01*
X1470055Y1681453D01*
X1470080Y1681478D01*
X1470180Y1681528D01*
X1470355Y1681628D01*
X1470555Y1681753D01*
X1470805Y1681878D01*
X1471080Y1682003D01*
X1471405Y1682128D01*
X1471755Y1682228D01*
X1471780D01*
X1471880Y1682253D01*
X1472055Y1682303D01*
X1472280Y1682328D01*
X1472579Y1682403D01*
X1472929Y1682453D01*
X1473354Y1682503D01*
X1473854Y1682578D01*
X1473879D01*
X1473979Y1682603D01*
X1474129D01*
X1474329Y1682653D01*
X1474554Y1682678D01*
X1474829Y1682703D01*
X1475129Y1682753D01*
X1475454Y1682803D01*
X1476129Y1682928D01*
X1476828Y1683078D01*
X1477478Y1683228D01*
X1477778Y1683328D01*
X1478053Y1683403D01*
Y1683428D01*
Y1683478D01*
Y1683553D01*
X1478078Y1683652D01*
Y1683853D01*
Y1683952D01*
Y1684002D01*
Y1684027D01*
Y1684077D01*
Y1684152D01*
Y1684227D01*
X1478053Y1684502D01*
X1478003Y1684802D01*
X1477903Y1685152D01*
X1477803Y1685477D01*
X1477628Y1685802D01*
X1477403Y1686052D01*
X1477353Y1686077D01*
X1477228Y1686177D01*
X1477028Y1686302D01*
X1476728Y1686452D01*
X1476328Y1686602D01*
X1475879Y1686727D01*
X1475329Y1686827D01*
X1474704Y1686852D01*
X1474429D01*
X1474129Y1686827D01*
X1473779Y1686777D01*
X1473354Y1686702D01*
X1472954Y1686602D01*
X1472554Y1686452D01*
X1472230Y1686252D01*
X1472205Y1686227D01*
X1472105Y1686152D01*
X1471955Y1686002D01*
X1471805Y1685777D01*
X1471605Y1685502D01*
X1471430Y1685152D01*
X1471230Y1684702D01*
X1471080Y1684202D01*
X1468781Y1684527D01*
Y1684552D01*
X1468806Y1684602D01*
Y1684677D01*
X1468831Y1684777D01*
X1468905Y1685052D01*
X1469030Y1685377D01*
X1469155Y1685752D01*
X1469330Y1686152D01*
X1469555Y1686552D01*
X1469805Y1686902D01*
X1469830Y1686952D01*
X1469930Y1687052D01*
X1470105Y1687202D01*
X1470330Y1687427D01*
X1470630Y1687652D01*
X1470980Y1687876D01*
X1471405Y1688101D01*
X1471880Y1688301D01*
X1471905D01*
X1471955Y1688326D01*
X1472030Y1688351D01*
X1472130Y1688376D01*
X1472255Y1688426D01*
X1472404Y1688451D01*
X1472804Y1688551D01*
X1473254Y1688651D01*
X1473804Y1688726D01*
X1474404Y1688776D01*
X1475054Y1688801D01*
X1475504D01*
X1475679Y1688776D01*
D02*
G37*
G36*
X1465556Y1674580D02*
X1463207D01*
Y1688501D01*
X1465556D01*
Y1674580D01*
D02*
G37*
G36*
X1416319D02*
X1413970D01*
Y1688501D01*
X1416319D01*
Y1674580D01*
D02*
G37*
G36*
X1410970Y1691526D02*
X1400548D01*
Y1685577D01*
X1409571D01*
Y1683303D01*
X1400548D01*
Y1674580D01*
X1397999D01*
Y1693800D01*
X1410970D01*
Y1691526D01*
D02*
G37*
G36*
X1144499Y1605080D02*
X1147999D01*
Y1600080D01*
X1144499D01*
Y1596580D01*
X1139499D01*
Y1600080D01*
X1135999D01*
Y1605080D01*
X1139499D01*
Y1608580D01*
X1144499D01*
Y1605080D01*
D02*
G37*
G36*
X1098721Y1506330D02*
Y1504930D01*
X1095521Y1501730D01*
X1094521D01*
X1091221Y1504730D01*
Y1506330D01*
X1092321Y1507330D01*
X1097721D01*
X1098721Y1506330D01*
D02*
G37*
G36*
X1079699D02*
Y1504930D01*
X1076499Y1501730D01*
X1075499D01*
X1072199Y1504730D01*
Y1506330D01*
X1073299Y1507330D01*
X1078699D01*
X1079699Y1506330D01*
D02*
G37*
G36*
X1185321Y1505580D02*
Y1504180D01*
X1182121Y1500980D01*
X1181121D01*
X1177821Y1503980D01*
Y1505580D01*
X1178921Y1506580D01*
X1184321D01*
X1185321Y1505580D01*
D02*
G37*
G36*
X1165199D02*
Y1504180D01*
X1161999Y1500980D01*
X1160999D01*
X1157699Y1503980D01*
Y1505580D01*
X1158799Y1506580D01*
X1164199D01*
X1165199Y1505580D01*
D02*
G37*
G36*
X1261499Y1507080D02*
X1262499Y1506080D01*
Y1500580D01*
X1261499Y1499580D01*
X1256499Y1499580D01*
X1255499Y1500580D01*
Y1506080D01*
X1256499Y1507080D01*
X1261499Y1507080D01*
D02*
G37*
G36*
X1242499D02*
X1243499Y1506080D01*
Y1500580D01*
X1242499Y1499580D01*
X1237499Y1499580D01*
X1236499Y1500580D01*
Y1506080D01*
X1237499Y1507080D01*
X1242499Y1507080D01*
D02*
G37*
G36*
X1220749D02*
X1221749Y1506080D01*
Y1500580D01*
X1220749Y1499580D01*
X1215749Y1499580D01*
X1214749Y1500580D01*
Y1506080D01*
X1215749Y1507080D01*
X1220749Y1507080D01*
D02*
G37*
G36*
X1201749D02*
X1202748Y1506080D01*
Y1500580D01*
X1201749Y1499580D01*
X1196749Y1499580D01*
X1195749Y1500580D01*
Y1506080D01*
X1196749Y1507080D01*
X1201749Y1507080D01*
D02*
G37*
G36*
X1136249Y1506330D02*
X1137249Y1505330D01*
Y1499830D01*
X1136249Y1498830D01*
X1131249Y1498830D01*
X1130249Y1499830D01*
Y1505330D01*
X1131249Y1506330D01*
X1136249Y1506330D01*
D02*
G37*
G36*
X1117249D02*
X1118249Y1505330D01*
Y1499830D01*
X1117249Y1498830D01*
X1112249Y1498830D01*
X1111249Y1499830D01*
Y1505330D01*
X1112249Y1506330D01*
X1117249Y1506330D01*
D02*
G37*
G36*
X1385749Y1498580D02*
Y1497580D01*
X1384749Y1496580D01*
X1371749D01*
X1370749Y1497580D01*
Y1498580D01*
X1371749Y1499580D01*
X1384749D01*
X1385749Y1498580D01*
D02*
G37*
G36*
X1328249Y1498580D02*
Y1497580D01*
X1327249Y1496580D01*
X1314249D01*
X1313249Y1497580D01*
Y1498580D01*
X1314249Y1499580D01*
X1327249D01*
X1328249Y1498580D01*
D02*
G37*
G36*
X1403449Y1498330D02*
Y1496930D01*
X1400249Y1493730D01*
X1399249D01*
X1395949Y1496730D01*
Y1498330D01*
X1397049Y1499330D01*
X1402449D01*
X1403449Y1498330D01*
D02*
G37*
G36*
X1385749Y1492080D02*
Y1491080D01*
X1384749Y1490080D01*
X1371749D01*
X1370749Y1491080D01*
Y1492080D01*
X1371749Y1493080D01*
X1384749D01*
X1385749Y1492080D01*
D02*
G37*
G36*
X1328249Y1492080D02*
Y1491080D01*
X1327249Y1490080D01*
X1314249D01*
X1313249Y1491080D01*
Y1492080D01*
X1314249Y1493080D01*
X1327249D01*
X1328249Y1492080D01*
D02*
G37*
G36*
X1098821Y1489930D02*
Y1488330D01*
X1097721Y1487330D01*
X1092321D01*
X1091321Y1488330D01*
Y1489730D01*
X1094521Y1492930D01*
X1095521D01*
X1098821Y1489930D01*
D02*
G37*
G36*
X1079799D02*
Y1488330D01*
X1078699Y1487330D01*
X1073299D01*
X1072299Y1488330D01*
Y1489730D01*
X1075499Y1492930D01*
X1076499D01*
X1079799Y1489930D01*
D02*
G37*
G36*
X1185421Y1489180D02*
Y1487580D01*
X1184321Y1486580D01*
X1178921D01*
X1177921Y1487580D01*
Y1488980D01*
X1181121Y1492180D01*
X1182121D01*
X1185421Y1489180D01*
D02*
G37*
G36*
X1165299D02*
Y1487580D01*
X1164199Y1486580D01*
X1158799D01*
X1157799Y1487580D01*
Y1488980D01*
X1160999Y1492180D01*
X1161999D01*
X1165299Y1489180D01*
D02*
G37*
G36*
X1385749Y1485580D02*
Y1484580D01*
X1384749Y1483580D01*
X1371749D01*
X1370749Y1484580D01*
Y1485580D01*
X1371749Y1486580D01*
X1384749D01*
X1385749Y1485580D01*
D02*
G37*
G36*
X1328249Y1485580D02*
Y1484580D01*
X1327249Y1483580D01*
X1314249D01*
X1313249Y1484580D01*
Y1485580D01*
X1314249Y1486580D01*
X1327249D01*
X1328249Y1485580D01*
D02*
G37*
G36*
X1403549Y1481930D02*
Y1480330D01*
X1402449Y1479330D01*
X1397049D01*
X1396049Y1480330D01*
Y1481730D01*
X1399249Y1484930D01*
X1400249D01*
X1403549Y1481930D01*
D02*
G37*
G36*
X1251999Y1485580D02*
X1252999Y1484580D01*
Y1479080D01*
X1251999Y1478080D01*
X1246999Y1478080D01*
X1245999Y1479080D01*
Y1484580D01*
X1246999Y1485580D01*
X1251999Y1485580D01*
D02*
G37*
G36*
X1211249D02*
X1212249Y1484580D01*
Y1479080D01*
X1211249Y1478080D01*
X1206249Y1478080D01*
X1205248Y1479080D01*
Y1484580D01*
X1206249Y1485580D01*
X1211249Y1485580D01*
D02*
G37*
G36*
X1126749Y1484830D02*
X1127749Y1483830D01*
Y1478330D01*
X1126749Y1477330D01*
X1121749Y1477330D01*
X1120749Y1478330D01*
Y1483830D01*
X1121749Y1484830D01*
X1126749Y1484830D01*
D02*
G37*
G36*
X1385749Y1479080D02*
Y1478080D01*
X1384749Y1477080D01*
X1371749D01*
X1370749Y1478080D01*
Y1479080D01*
X1371749Y1480080D01*
X1384749D01*
X1385749Y1479080D01*
D02*
G37*
G36*
X1328249Y1479080D02*
Y1478080D01*
X1327249Y1477080D01*
X1314249D01*
X1313249Y1478080D01*
Y1479080D01*
X1314249Y1480080D01*
X1327249D01*
X1328249Y1479080D01*
D02*
G37*
G36*
X1385749Y1472580D02*
Y1471580D01*
X1384749Y1470580D01*
X1371749D01*
X1370749Y1471580D01*
Y1472580D01*
X1371749Y1473580D01*
X1384749D01*
X1385749Y1472580D01*
D02*
G37*
G36*
X1328249Y1472580D02*
Y1471580D01*
X1327249Y1470580D01*
X1314249D01*
X1313249Y1471580D01*
Y1472580D01*
X1314249Y1473580D01*
X1327249D01*
X1328249Y1472580D01*
D02*
G37*
G36*
X1166648Y1474580D02*
X1167648Y1473580D01*
Y1468080D01*
X1166648Y1467080D01*
X1161648Y1467080D01*
X1160648Y1468080D01*
Y1473580D01*
X1161648Y1474580D01*
X1166648Y1474580D01*
D02*
G37*
G36*
X1147648D02*
X1148648Y1473580D01*
Y1468080D01*
X1147648Y1467080D01*
X1142648Y1467080D01*
X1141648Y1468080D01*
Y1473580D01*
X1142648Y1474580D01*
X1147648Y1474580D01*
D02*
G37*
G36*
X1082548Y1474580D02*
X1083548Y1473580D01*
Y1468080D01*
X1082548Y1467080D01*
X1077548Y1467080D01*
X1076548Y1468080D01*
Y1473580D01*
X1077548Y1474580D01*
X1082548Y1474580D01*
D02*
G37*
G36*
X1063548D02*
X1064548Y1473580D01*
Y1468080D01*
X1063548Y1467080D01*
X1058548Y1467080D01*
X1057548Y1468080D01*
Y1473580D01*
X1058548Y1474580D01*
X1063548Y1474580D01*
D02*
G37*
G36*
X1414249Y1470795D02*
Y1465395D01*
X1413249Y1464395D01*
X1411849D01*
X1408649Y1467595D01*
Y1468595D01*
X1411649Y1471895D01*
X1413249D01*
X1414249Y1470795D01*
D02*
G37*
G36*
X1399849Y1468595D02*
Y1467595D01*
X1396849Y1464295D01*
X1395249D01*
X1394249Y1465395D01*
Y1470795D01*
X1395249Y1471795D01*
X1396649D01*
X1399849Y1468595D01*
D02*
G37*
G36*
X1385749Y1466080D02*
Y1465080D01*
X1384749Y1464080D01*
X1371749D01*
X1370749Y1465080D01*
Y1466080D01*
X1371749Y1467080D01*
X1384749D01*
X1385749Y1466080D01*
D02*
G37*
G36*
X1328249Y1466080D02*
Y1465080D01*
X1327249Y1464080D01*
X1314249D01*
X1313249Y1465080D01*
Y1466080D01*
X1314249Y1467080D01*
X1327249D01*
X1328249Y1466080D01*
D02*
G37*
G36*
X1385749Y1459580D02*
Y1458580D01*
X1384749Y1457580D01*
X1371749D01*
X1370749Y1458580D01*
Y1459580D01*
X1371749Y1460580D01*
X1384749D01*
X1385749Y1459580D01*
D02*
G37*
G36*
X1328249Y1459580D02*
Y1458580D01*
X1327249Y1457580D01*
X1314249D01*
X1313249Y1458580D01*
Y1459580D01*
X1314249Y1460580D01*
X1327249D01*
X1328249Y1459580D01*
D02*
G37*
G36*
X1414249Y1454787D02*
Y1449387D01*
X1413249Y1448387D01*
X1411849D01*
X1408649Y1451587D01*
Y1452587D01*
X1411649Y1455887D01*
X1413249D01*
X1414249Y1454787D01*
D02*
G37*
G36*
X1399849Y1452587D02*
Y1451587D01*
X1396849Y1448287D01*
X1395249D01*
X1394249Y1449387D01*
Y1454787D01*
X1395249Y1455787D01*
X1396649D01*
X1399849Y1452587D01*
D02*
G37*
G36*
X1157148Y1453080D02*
X1158148Y1452080D01*
Y1446580D01*
X1157148Y1445580D01*
X1152148Y1445580D01*
X1151148Y1446580D01*
Y1452080D01*
X1152148Y1453080D01*
X1157148Y1453080D01*
D02*
G37*
G36*
X1073048Y1453080D02*
X1074048Y1452080D01*
Y1446580D01*
X1073048Y1445580D01*
X1068048Y1445580D01*
X1067048Y1446580D01*
Y1452080D01*
X1068048Y1453080D01*
X1073048Y1453080D01*
D02*
G37*
G36*
X1314199Y1448830D02*
Y1447430D01*
X1310999Y1444230D01*
X1309999D01*
X1306699Y1447230D01*
Y1448830D01*
X1307799Y1449830D01*
X1313199D01*
X1314199Y1448830D01*
D02*
G37*
G36*
X1298199D02*
Y1447430D01*
X1294999Y1444230D01*
X1293999D01*
X1290699Y1447230D01*
Y1448830D01*
X1291799Y1449830D01*
X1297199D01*
X1298199Y1448830D01*
D02*
G37*
G36*
X1464499Y1445080D02*
X1467999D01*
Y1440080D01*
X1464499D01*
Y1436580D01*
X1459499D01*
Y1440080D01*
X1455999D01*
Y1445080D01*
X1459499D01*
Y1448580D01*
X1464499D01*
Y1445080D01*
D02*
G37*
G36*
X1314299Y1432430D02*
Y1430830D01*
X1313199Y1429830D01*
X1307799D01*
X1306799Y1430830D01*
Y1432230D01*
X1309999Y1435430D01*
X1310999D01*
X1314299Y1432430D01*
D02*
G37*
G36*
X1298299D02*
Y1430830D01*
X1297199Y1429830D01*
X1291799D01*
X1290799Y1430830D01*
Y1432230D01*
X1293999Y1435430D01*
X1294999D01*
X1298299Y1432430D01*
D02*
G37*
G36*
X1380499Y1373984D02*
Y1368584D01*
X1379498Y1367584D01*
X1378098D01*
X1374899Y1370784D01*
Y1371784D01*
X1377899Y1375084D01*
X1379498D01*
X1380499Y1373984D01*
D02*
G37*
G36*
X1366098Y1371784D02*
Y1370784D01*
X1363098Y1367484D01*
X1361499D01*
X1360499Y1368584D01*
Y1373984D01*
X1361499Y1374984D01*
X1362899D01*
X1366098Y1371784D01*
D02*
G37*
G36*
X1347999Y1359189D02*
Y1353789D01*
X1346998Y1352789D01*
X1345598D01*
X1342399Y1355989D01*
Y1356989D01*
X1345399Y1360289D01*
X1346998D01*
X1347999Y1359189D01*
D02*
G37*
G36*
X1333598Y1356989D02*
Y1355989D01*
X1330598Y1352689D01*
X1328999D01*
X1327999Y1353789D01*
Y1359189D01*
X1328999Y1360189D01*
X1330399D01*
X1333598Y1356989D01*
D02*
G37*
G36*
X1375499Y1358689D02*
Y1353289D01*
X1374498Y1352289D01*
X1373098D01*
X1369899Y1355489D01*
Y1356489D01*
X1372899Y1359789D01*
X1374498D01*
X1375499Y1358689D01*
D02*
G37*
G36*
X1315999D02*
Y1353289D01*
X1314998Y1352289D01*
X1313598D01*
X1310399Y1355489D01*
Y1356489D01*
X1313398Y1359789D01*
X1314998D01*
X1315999Y1358689D01*
D02*
G37*
G36*
X1361098Y1356489D02*
Y1355489D01*
X1358098Y1352189D01*
X1356499D01*
X1355499Y1353289D01*
Y1358689D01*
X1356499Y1359689D01*
X1357899D01*
X1361098Y1356489D01*
D02*
G37*
G36*
X1301599D02*
Y1355489D01*
X1298598Y1352189D01*
X1296998D01*
X1295999Y1353289D01*
Y1358689D01*
X1296998Y1359689D01*
X1298398D01*
X1301599Y1356489D01*
D02*
G37*
G36*
X1477249Y1352032D02*
Y1346633D01*
X1476249Y1345632D01*
X1474849D01*
X1471649Y1348833D01*
Y1349832D01*
X1474649Y1353132D01*
X1476249D01*
X1477249Y1352032D01*
D02*
G37*
G36*
X1462849Y1349832D02*
Y1348833D01*
X1459849Y1345533D01*
X1458249D01*
X1457249Y1346633D01*
Y1352032D01*
X1458249Y1353033D01*
X1459649D01*
X1462849Y1349832D01*
D02*
G37*
G36*
X1477249Y1336532D02*
Y1331132D01*
X1476249Y1330132D01*
X1474849D01*
X1471649Y1333332D01*
Y1334332D01*
X1474649Y1337632D01*
X1476249D01*
X1477249Y1336532D01*
D02*
G37*
G36*
X1462849Y1334332D02*
Y1333332D01*
X1459849Y1330032D01*
X1458249D01*
X1457249Y1331132D01*
Y1336532D01*
X1458249Y1337532D01*
X1459649D01*
X1462849Y1334332D01*
D02*
G37*
G36*
X1477249Y1320282D02*
Y1314882D01*
X1476249Y1313882D01*
X1474849D01*
X1471649Y1317082D01*
Y1318082D01*
X1474649Y1321382D01*
X1476249D01*
X1477249Y1320282D01*
D02*
G37*
G36*
X1462849Y1318082D02*
Y1317082D01*
X1459849Y1313782D01*
X1458249D01*
X1457249Y1314882D01*
Y1320282D01*
X1458249Y1321282D01*
X1459649D01*
X1462849Y1318082D01*
D02*
G37*
G36*
X1477249Y1304030D02*
Y1298630D01*
X1476249Y1297630D01*
X1474849D01*
X1471649Y1300830D01*
Y1301830D01*
X1474649Y1305130D01*
X1476249D01*
X1477249Y1304030D01*
D02*
G37*
G36*
X1462849Y1301830D02*
Y1300830D01*
X1459849Y1297530D01*
X1458249D01*
X1457249Y1298630D01*
Y1304030D01*
X1458249Y1305030D01*
X1459649D01*
X1462849Y1301830D01*
D02*
G37*
G36*
X1469868Y1288030D02*
Y1285055D01*
X1468918Y1284080D01*
X1467043D01*
X1465592Y1285955D01*
Y1287205D01*
X1467043Y1289080D01*
X1468893D01*
X1469868Y1288030D01*
D02*
G37*
G36*
X1461642Y1287205D02*
Y1285955D01*
X1460193Y1284080D01*
X1458318D01*
X1457368Y1285055D01*
Y1288030D01*
X1458342Y1289080D01*
X1460193D01*
X1461642Y1287205D01*
D02*
G37*
G36*
X1525553Y1288984D02*
Y1283584D01*
X1524553Y1282584D01*
X1523153D01*
X1519953Y1285784D01*
Y1286784D01*
X1522953Y1290084D01*
X1524553D01*
X1525553Y1288984D01*
D02*
G37*
G36*
X1511153Y1286784D02*
Y1285784D01*
X1508153Y1282484D01*
X1506553D01*
X1505553Y1283584D01*
Y1288984D01*
X1506553Y1289984D01*
X1507953D01*
X1511153Y1286784D01*
D02*
G37*
G36*
X1521053Y1272734D02*
Y1269759D01*
X1520103Y1268784D01*
X1518228D01*
X1516778Y1270659D01*
Y1271909D01*
X1518228Y1273784D01*
X1520078D01*
X1521053Y1272734D01*
D02*
G37*
G36*
X1512828Y1271909D02*
Y1270659D01*
X1511378Y1268784D01*
X1509503D01*
X1508553Y1269759D01*
Y1272734D01*
X1509528Y1273784D01*
X1511378D01*
X1512828Y1271909D01*
D02*
G37*
G36*
X1475249Y1274780D02*
Y1269380D01*
X1474249Y1268380D01*
X1472849D01*
X1469649Y1271580D01*
Y1272580D01*
X1472649Y1275880D01*
X1474249D01*
X1475249Y1274780D01*
D02*
G37*
G36*
X1460849Y1272580D02*
Y1271580D01*
X1457849Y1268280D01*
X1456249D01*
X1455249Y1269380D01*
Y1274780D01*
X1456249Y1275780D01*
X1457649D01*
X1460849Y1272580D01*
D02*
G37*
G36*
X1434999Y1263780D02*
X1434999Y1258380D01*
X1433999Y1257380D01*
X1432599D01*
X1429399Y1260580D01*
X1429399Y1261580D01*
X1432399Y1264880D01*
X1433999Y1264880D01*
X1434999Y1263780D01*
D02*
G37*
G36*
X1417399Y1264780D02*
X1420599Y1261580D01*
X1420599Y1260580D01*
X1417599Y1257280D01*
X1415999D01*
X1414999Y1258380D01*
X1414999Y1263780D01*
X1415999Y1264780D01*
X1417399Y1264780D01*
D02*
G37*
G36*
X1475249Y1259280D02*
Y1253880D01*
X1474249Y1252880D01*
X1472849D01*
X1469649Y1256080D01*
Y1257080D01*
X1472649Y1260380D01*
X1474249D01*
X1475249Y1259280D01*
D02*
G37*
G36*
X1460849Y1257080D02*
Y1256080D01*
X1457849Y1252780D01*
X1456249D01*
X1455249Y1253880D01*
Y1259280D01*
X1456249Y1260280D01*
X1457649D01*
X1460849Y1257080D01*
D02*
G37*
G36*
X1417249Y1249422D02*
X1418249Y1248322D01*
X1418249Y1242922D01*
X1417249Y1241922D01*
X1415849D01*
X1412649Y1245122D01*
Y1246122D01*
X1415649Y1249422D01*
X1417249Y1249422D01*
D02*
G37*
G36*
X1403849Y1246122D02*
Y1245122D01*
X1400849Y1241822D01*
X1399249Y1241822D01*
X1398249Y1242922D01*
X1398248Y1248322D01*
X1399249Y1249322D01*
X1400649D01*
X1403849Y1246122D01*
D02*
G37*
G36*
X1470249Y1243280D02*
Y1237880D01*
X1469249Y1236880D01*
X1467849D01*
X1464649Y1240080D01*
Y1241080D01*
X1467649Y1244380D01*
X1469249D01*
X1470249Y1243280D01*
D02*
G37*
G36*
X1455849Y1241080D02*
Y1240080D01*
X1452849Y1236780D01*
X1451249D01*
X1450249Y1237880D01*
Y1243280D01*
X1451249Y1244280D01*
X1452649D01*
X1455849Y1241080D01*
D02*
G37*
G36*
X1542499Y1237630D02*
Y1235755D01*
X1540624Y1234305D01*
X1539374D01*
X1537499Y1235755D01*
Y1237605D01*
X1538549Y1238580D01*
X1541524D01*
X1542499Y1237630D01*
D02*
G37*
G36*
X1556199Y1237330D02*
Y1235930D01*
X1552999Y1232730D01*
X1551999D01*
X1548699Y1235730D01*
Y1237330D01*
X1549799Y1238330D01*
X1555199D01*
X1556199Y1237330D01*
D02*
G37*
G36*
X1386449Y1234330D02*
Y1232930D01*
X1383248Y1229730D01*
X1382249D01*
X1378949Y1232730D01*
Y1234330D01*
X1380049Y1235330D01*
X1385448D01*
X1386449Y1234330D01*
D02*
G37*
G36*
X1330386Y1234284D02*
Y1228884D01*
X1329386Y1227884D01*
X1327986D01*
X1324786Y1231084D01*
Y1232084D01*
X1327786Y1235384D01*
X1329386D01*
X1330386Y1234284D01*
D02*
G37*
G36*
X1370499Y1234234D02*
Y1228834D01*
X1369498Y1227834D01*
X1368098D01*
X1364899Y1231034D01*
Y1232034D01*
X1367899Y1235334D01*
X1369498D01*
X1370499Y1234234D01*
D02*
G37*
G36*
X1315986Y1232084D02*
Y1231084D01*
X1312986Y1227784D01*
X1311386D01*
X1310386Y1228884D01*
Y1234284D01*
X1311386Y1235284D01*
X1312786D01*
X1315986Y1232084D01*
D02*
G37*
G36*
X1356098Y1232034D02*
Y1231034D01*
X1353098Y1227734D01*
X1351499D01*
X1350499Y1228834D01*
Y1234234D01*
X1351499Y1235234D01*
X1352899D01*
X1356098Y1232034D01*
D02*
G37*
G36*
X1542499Y1228905D02*
Y1227030D01*
X1541524Y1226080D01*
X1538549D01*
X1537499Y1227055D01*
Y1228905D01*
X1539374Y1230355D01*
X1540624D01*
X1542499Y1228905D01*
D02*
G37*
G36*
X1462749Y1227780D02*
Y1222380D01*
X1461749Y1221380D01*
X1460349D01*
X1457149Y1224580D01*
Y1225580D01*
X1460149Y1228880D01*
X1461749D01*
X1462749Y1227780D01*
D02*
G37*
G36*
X1448349Y1225580D02*
Y1224580D01*
X1445349Y1221280D01*
X1443749D01*
X1442749Y1222380D01*
Y1227780D01*
X1443749Y1228780D01*
X1445149D01*
X1448349Y1225580D01*
D02*
G37*
G36*
X1556299Y1220930D02*
Y1219330D01*
X1555199Y1218330D01*
X1549799D01*
X1548799Y1219330D01*
Y1220730D01*
X1551999Y1223930D01*
X1552999D01*
X1556299Y1220930D01*
D02*
G37*
G36*
X1386548Y1217930D02*
Y1216330D01*
X1385448Y1215330D01*
X1380049D01*
X1379048Y1216330D01*
Y1217730D01*
X1382249Y1220930D01*
X1383248D01*
X1386548Y1217930D01*
D02*
G37*
G36*
X1330386Y1219534D02*
Y1214134D01*
X1329386Y1213134D01*
X1327986D01*
X1324786Y1216334D01*
Y1217334D01*
X1327786Y1220634D01*
X1329386D01*
X1330386Y1219534D01*
D02*
G37*
G36*
X1315986Y1217334D02*
Y1216334D01*
X1312986Y1213034D01*
X1311386D01*
X1310386Y1214134D01*
Y1219534D01*
X1311386Y1220534D01*
X1312786D01*
X1315986Y1217334D01*
D02*
G37*
G36*
X1462748Y1212280D02*
Y1206880D01*
X1461748Y1205880D01*
X1460348D01*
X1457148Y1209080D01*
Y1210080D01*
X1460148Y1213380D01*
X1461748D01*
X1462748Y1212280D01*
D02*
G37*
G36*
X1448348Y1210080D02*
Y1209080D01*
X1445348Y1205780D01*
X1443748D01*
X1442748Y1206880D01*
Y1212280D01*
X1443748Y1213280D01*
X1445148D01*
X1448348Y1210080D01*
D02*
G37*
G36*
X1402449Y1205030D02*
Y1203630D01*
X1399249Y1200430D01*
X1398249D01*
X1394949Y1203429D01*
Y1205030D01*
X1396049Y1206030D01*
X1401449D01*
X1402449Y1205030D01*
D02*
G37*
G36*
X1418199Y1204830D02*
Y1203430D01*
X1414999Y1200230D01*
X1413999D01*
X1410699Y1203230D01*
Y1204830D01*
X1411799Y1205830D01*
X1417199D01*
X1418199Y1204830D01*
D02*
G37*
G36*
X1433449Y1204830D02*
Y1203430D01*
X1430249Y1200230D01*
X1429249D01*
X1425949Y1203230D01*
Y1204830D01*
X1427049Y1205830D01*
X1432449D01*
X1433449Y1204830D01*
D02*
G37*
G36*
X1517649Y1198609D02*
Y1195634D01*
X1516674Y1194585D01*
X1514824D01*
X1513374Y1196460D01*
Y1197709D01*
X1514824Y1199584D01*
X1516699D01*
X1517649Y1198609D01*
D02*
G37*
G36*
X1509424Y1197709D02*
Y1196460D01*
X1507974Y1194585D01*
X1506124D01*
X1505149Y1195634D01*
Y1198609D01*
X1506099Y1199584D01*
X1507974D01*
X1509424Y1197709D01*
D02*
G37*
G36*
X1462749Y1197030D02*
Y1191630D01*
X1461749Y1190630D01*
X1460349D01*
X1457149Y1193830D01*
Y1194830D01*
X1460149Y1198130D01*
X1461749D01*
X1462749Y1197030D01*
D02*
G37*
G36*
X1448349Y1194830D02*
Y1193830D01*
X1445349Y1190530D01*
X1443749D01*
X1442749Y1191630D01*
Y1197030D01*
X1443749Y1198030D01*
X1445149D01*
X1448349Y1194830D01*
D02*
G37*
G36*
X1478501Y1193705D02*
Y1192305D01*
X1475301Y1189105D01*
X1474301D01*
X1471001Y1192105D01*
Y1193705D01*
X1472101Y1194705D01*
X1477501D01*
X1478501Y1193705D01*
D02*
G37*
G36*
X1402549Y1188630D02*
Y1187029D01*
X1401449Y1186030D01*
X1396049D01*
X1395049Y1187029D01*
Y1188429D01*
X1398249Y1191629D01*
X1399249D01*
X1402549Y1188630D01*
D02*
G37*
G36*
X1418299Y1188430D02*
Y1186830D01*
X1417199Y1185830D01*
X1411799D01*
X1410799Y1186830D01*
Y1188230D01*
X1413999Y1191430D01*
X1414999D01*
X1418299Y1188430D01*
D02*
G37*
G36*
X1433549Y1188430D02*
Y1186830D01*
X1432449Y1185830D01*
X1427049D01*
X1426049Y1186830D01*
Y1188230D01*
X1429249Y1191430D01*
X1430249D01*
X1433549Y1188430D01*
D02*
G37*
G36*
X1462749Y1182030D02*
Y1176630D01*
X1461749Y1175630D01*
X1460349D01*
X1457149Y1178830D01*
Y1179830D01*
X1460149Y1183130D01*
X1461749D01*
X1462749Y1182030D01*
D02*
G37*
G36*
X1448349Y1179830D02*
Y1178830D01*
X1445349Y1175530D01*
X1443749D01*
X1442749Y1176630D01*
Y1182030D01*
X1443749Y1183030D01*
X1445149D01*
X1448349Y1179830D01*
D02*
G37*
G36*
X1505054Y1181530D02*
Y1176130D01*
X1504054Y1175130D01*
X1502654D01*
X1499454Y1178330D01*
Y1179330D01*
X1502454Y1182630D01*
X1504054D01*
X1505054Y1181530D01*
D02*
G37*
G36*
X1490654Y1179330D02*
Y1178330D01*
X1487654Y1175030D01*
X1486054D01*
X1485054Y1176130D01*
Y1181530D01*
X1486054Y1182530D01*
X1487454D01*
X1490654Y1179330D01*
D02*
G37*
G36*
X1478601Y1177305D02*
Y1175705D01*
X1477501Y1174705D01*
X1472101D01*
X1471101Y1175705D01*
Y1177105D01*
X1474301Y1180305D01*
X1475301D01*
X1478601Y1177305D01*
D02*
G37*
G36*
X1525053Y1178760D02*
X1524853Y1178160D01*
X1519603Y1171910D01*
X1518003D01*
X1512753Y1178160D01*
X1512553Y1178760D01*
X1513553Y1179760D01*
X1524053D01*
X1525053Y1178760D01*
D02*
G37*
G36*
X1369798Y1162080D02*
Y1160680D01*
X1366599Y1157480D01*
X1365598D01*
X1362298Y1160480D01*
Y1162080D01*
X1363398Y1163080D01*
X1368799D01*
X1369798Y1162080D01*
D02*
G37*
G36*
X1155499Y1163530D02*
Y1158130D01*
X1154499Y1157130D01*
X1153099D01*
X1149899Y1160330D01*
Y1161330D01*
X1152899Y1164630D01*
X1154499D01*
X1155499Y1163530D01*
D02*
G37*
G36*
X1141099Y1161330D02*
Y1160330D01*
X1138099Y1157030D01*
X1136499D01*
X1135499Y1158130D01*
Y1163530D01*
X1136499Y1164530D01*
X1137899D01*
X1141099Y1161330D01*
D02*
G37*
G36*
X1524853Y1152860D02*
X1525053Y1152260D01*
X1524053Y1151260D01*
X1513553D01*
X1512553Y1152260D01*
X1512753Y1152860D01*
X1518003Y1159110D01*
X1519603D01*
X1524853Y1152860D01*
D02*
G37*
G36*
X1369899Y1145680D02*
Y1144080D01*
X1368799Y1143080D01*
X1363398D01*
X1362399Y1144080D01*
Y1145480D01*
X1365598Y1148680D01*
X1366599D01*
X1369899Y1145680D01*
D02*
G37*
G36*
X1155499Y1145530D02*
Y1140130D01*
X1154499Y1139130D01*
X1153099D01*
X1149899Y1142330D01*
Y1143330D01*
X1152899Y1146630D01*
X1154499D01*
X1155499Y1145530D01*
D02*
G37*
G36*
X1141099Y1143330D02*
Y1142330D01*
X1138099Y1139030D01*
X1136499D01*
X1135499Y1140130D01*
Y1145530D01*
X1136499Y1146530D01*
X1137899D01*
X1141099Y1143330D01*
D02*
G37*
G36*
X1495999Y1140530D02*
X1499499D01*
Y1135530D01*
X1495999D01*
Y1132030D01*
X1490999D01*
Y1135530D01*
X1487499D01*
Y1140530D01*
X1490999D01*
Y1144030D01*
X1495999D01*
Y1140530D01*
D02*
G37*
G36*
X1374509Y1037101D02*
X1372160D01*
Y1039800D01*
X1374509D01*
Y1037101D01*
D02*
G37*
G36*
X1400027Y1034776D02*
X1400352Y1034751D01*
X1400702Y1034676D01*
X1401102Y1034601D01*
X1401502Y1034476D01*
X1401902Y1034326D01*
X1401952Y1034301D01*
X1402077Y1034251D01*
X1402252Y1034151D01*
X1402502Y1034001D01*
X1402752Y1033851D01*
X1403002Y1033652D01*
X1403252Y1033401D01*
X1403477Y1033152D01*
X1403502Y1033127D01*
X1403552Y1033027D01*
X1403652Y1032877D01*
X1403777Y1032652D01*
X1403876Y1032402D01*
X1404001Y1032102D01*
X1404102Y1031777D01*
X1404201Y1031402D01*
Y1031377D01*
X1404226Y1031277D01*
X1404251Y1031102D01*
X1404276Y1030877D01*
X1404301Y1030552D01*
X1404326Y1030177D01*
X1404351Y1029703D01*
Y1029128D01*
Y1020580D01*
X1402002D01*
Y1029028D01*
Y1029053D01*
Y1029103D01*
Y1029153D01*
Y1029253D01*
X1401977Y1029528D01*
Y1029827D01*
X1401927Y1030177D01*
X1401877Y1030527D01*
X1401802Y1030852D01*
X1401702Y1031152D01*
Y1031177D01*
X1401652Y1031277D01*
X1401577Y1031402D01*
X1401477Y1031577D01*
X1401352Y1031752D01*
X1401177Y1031952D01*
X1400977Y1032127D01*
X1400727Y1032302D01*
X1400702Y1032327D01*
X1400602Y1032377D01*
X1400452Y1032452D01*
X1400252Y1032527D01*
X1400027Y1032602D01*
X1399753Y1032677D01*
X1399428Y1032727D01*
X1399103Y1032752D01*
X1398953D01*
X1398853Y1032727D01*
X1398553Y1032702D01*
X1398203Y1032627D01*
X1397803Y1032527D01*
X1397353Y1032352D01*
X1396903Y1032102D01*
X1396478Y1031777D01*
X1396428Y1031727D01*
X1396378Y1031677D01*
X1396304Y1031577D01*
X1396228Y1031477D01*
X1396129Y1031327D01*
X1396053Y1031177D01*
X1395954Y1030977D01*
X1395854Y1030727D01*
X1395754Y1030477D01*
X1395654Y1030177D01*
X1395579Y1029852D01*
X1395504Y1029477D01*
X1395454Y1029078D01*
X1395429Y1028628D01*
X1395404Y1028153D01*
Y1020580D01*
X1393054D01*
Y1034501D01*
X1395179D01*
Y1032502D01*
X1395204Y1032527D01*
X1395254Y1032602D01*
X1395329Y1032727D01*
X1395454Y1032852D01*
X1395629Y1033027D01*
X1395804Y1033227D01*
X1396028Y1033427D01*
X1396304Y1033652D01*
X1396603Y1033876D01*
X1396928Y1034076D01*
X1397278Y1034276D01*
X1397678Y1034451D01*
X1398103Y1034601D01*
X1398553Y1034701D01*
X1399053Y1034776D01*
X1399578Y1034801D01*
X1399803D01*
X1400027Y1034776D01*
D02*
G37*
G36*
X1355339Y1034751D02*
X1355639Y1034701D01*
X1356014Y1034601D01*
X1356439Y1034476D01*
X1356864Y1034276D01*
X1357338Y1034026D01*
X1356514Y1031852D01*
X1356464Y1031877D01*
X1356364Y1031927D01*
X1356189Y1032002D01*
X1355964Y1032102D01*
X1355714Y1032202D01*
X1355414Y1032277D01*
X1355089Y1032327D01*
X1354764Y1032352D01*
X1354639D01*
X1354489Y1032327D01*
X1354289Y1032302D01*
X1354089Y1032227D01*
X1353839Y1032152D01*
X1353614Y1032027D01*
X1353365Y1031877D01*
X1353340Y1031852D01*
X1353264Y1031802D01*
X1353165Y1031677D01*
X1353040Y1031527D01*
X1352890Y1031352D01*
X1352740Y1031127D01*
X1352615Y1030877D01*
X1352490Y1030577D01*
Y1030552D01*
X1352465Y1030527D01*
Y1030452D01*
X1352440Y1030352D01*
X1352365Y1030102D01*
X1352315Y1029778D01*
X1352240Y1029353D01*
X1352165Y1028903D01*
X1352140Y1028378D01*
X1352115Y1027828D01*
Y1020580D01*
X1349765D01*
Y1034501D01*
X1351890D01*
Y1032377D01*
X1351915Y1032427D01*
X1351965Y1032502D01*
X1352015Y1032602D01*
X1352190Y1032852D01*
X1352365Y1033152D01*
X1352590Y1033502D01*
X1352840Y1033826D01*
X1353114Y1034101D01*
X1353365Y1034326D01*
X1353389Y1034351D01*
X1353489Y1034401D01*
X1353639Y1034476D01*
X1353814Y1034576D01*
X1354039Y1034651D01*
X1354314Y1034726D01*
X1354589Y1034776D01*
X1354889Y1034801D01*
X1355089D01*
X1355339Y1034751D01*
D02*
G37*
G36*
X1212075D02*
X1212375Y1034701D01*
X1212750Y1034601D01*
X1213175Y1034476D01*
X1213600Y1034276D01*
X1214074Y1034026D01*
X1213250Y1031852D01*
X1213200Y1031877D01*
X1213100Y1031927D01*
X1212925Y1032002D01*
X1212700Y1032102D01*
X1212450Y1032202D01*
X1212150Y1032277D01*
X1211825Y1032327D01*
X1211500Y1032352D01*
X1211375D01*
X1211225Y1032327D01*
X1211025Y1032302D01*
X1210825Y1032227D01*
X1210575Y1032152D01*
X1210350Y1032027D01*
X1210100Y1031877D01*
X1210076Y1031852D01*
X1210001Y1031802D01*
X1209901Y1031677D01*
X1209776Y1031527D01*
X1209626Y1031352D01*
X1209476Y1031127D01*
X1209351Y1030877D01*
X1209226Y1030577D01*
Y1030552D01*
X1209201Y1030527D01*
Y1030452D01*
X1209176Y1030352D01*
X1209101Y1030102D01*
X1209051Y1029778D01*
X1208976Y1029353D01*
X1208901Y1028903D01*
X1208876Y1028378D01*
X1208851Y1027828D01*
Y1020580D01*
X1206501D01*
Y1034501D01*
X1208626D01*
Y1032377D01*
X1208651Y1032427D01*
X1208701Y1032502D01*
X1208751Y1032602D01*
X1208926Y1032852D01*
X1209101Y1033152D01*
X1209326Y1033502D01*
X1209576Y1033826D01*
X1209851Y1034101D01*
X1210100Y1034326D01*
X1210126Y1034351D01*
X1210226Y1034401D01*
X1210376Y1034476D01*
X1210550Y1034576D01*
X1210775Y1034651D01*
X1211050Y1034726D01*
X1211325Y1034776D01*
X1211625Y1034801D01*
X1211825D01*
X1212075Y1034751D01*
D02*
G37*
G36*
X1218823Y1031802D02*
X1216124D01*
Y1034501D01*
X1218823D01*
Y1031802D01*
D02*
G37*
G36*
X1363737Y1034776D02*
X1363887D01*
X1364287Y1034751D01*
X1364711Y1034676D01*
X1365211Y1034601D01*
X1365686Y1034476D01*
X1366161Y1034326D01*
X1366186D01*
X1366211Y1034301D01*
X1366361Y1034251D01*
X1366586Y1034126D01*
X1366861Y1033976D01*
X1367161Y1033801D01*
X1367461Y1033577D01*
X1367761Y1033327D01*
X1368011Y1033027D01*
X1368036Y1033002D01*
X1368111Y1032877D01*
X1368211Y1032702D01*
X1368336Y1032452D01*
X1368486Y1032152D01*
X1368611Y1031802D01*
X1368736Y1031377D01*
X1368835Y1030902D01*
X1366536Y1030577D01*
Y1030627D01*
X1366486Y1030752D01*
X1366436Y1030952D01*
X1366361Y1031177D01*
X1366236Y1031452D01*
X1366061Y1031727D01*
X1365861Y1031977D01*
X1365611Y1032227D01*
X1365586Y1032252D01*
X1365461Y1032327D01*
X1365311Y1032427D01*
X1365061Y1032552D01*
X1364762Y1032652D01*
X1364387Y1032752D01*
X1363962Y1032827D01*
X1363462Y1032852D01*
X1363187D01*
X1362912Y1032827D01*
X1362562Y1032777D01*
X1362187Y1032727D01*
X1361787Y1032627D01*
X1361437Y1032477D01*
X1361138Y1032302D01*
X1361113Y1032277D01*
X1361037Y1032202D01*
X1360912Y1032102D01*
X1360813Y1031952D01*
X1360688Y1031777D01*
X1360563Y1031552D01*
X1360488Y1031327D01*
X1360463Y1031052D01*
Y1031027D01*
Y1030977D01*
X1360488Y1030902D01*
Y1030777D01*
X1360588Y1030527D01*
X1360638Y1030377D01*
X1360738Y1030227D01*
X1360763Y1030202D01*
X1360788Y1030177D01*
X1360862Y1030102D01*
X1360963Y1030002D01*
X1361087Y1029902D01*
X1361237Y1029802D01*
X1361437Y1029703D01*
X1361637Y1029603D01*
X1361662D01*
X1361712Y1029577D01*
X1361837Y1029528D01*
X1362037Y1029477D01*
X1362312Y1029403D01*
X1362487Y1029353D01*
X1362687Y1029303D01*
X1362912Y1029228D01*
X1363162Y1029178D01*
X1363437Y1029078D01*
X1363737Y1029003D01*
X1363762D01*
X1363837Y1028978D01*
X1363987Y1028953D01*
X1364137Y1028903D01*
X1364337Y1028828D01*
X1364587Y1028778D01*
X1365111Y1028628D01*
X1365686Y1028453D01*
X1366261Y1028278D01*
X1366786Y1028103D01*
X1367011Y1028003D01*
X1367211Y1027928D01*
X1367261Y1027903D01*
X1367386Y1027853D01*
X1367561Y1027753D01*
X1367786Y1027603D01*
X1368036Y1027428D01*
X1368286Y1027228D01*
X1368561Y1026978D01*
X1368786Y1026678D01*
X1368810Y1026653D01*
X1368885Y1026528D01*
X1368961Y1026353D01*
X1369085Y1026128D01*
X1369185Y1025828D01*
X1369260Y1025504D01*
X1369335Y1025104D01*
X1369360Y1024679D01*
Y1024654D01*
Y1024629D01*
Y1024479D01*
X1369335Y1024254D01*
X1369285Y1023954D01*
X1369185Y1023604D01*
X1369060Y1023229D01*
X1368885Y1022829D01*
X1368660Y1022429D01*
X1368636Y1022379D01*
X1368536Y1022254D01*
X1368361Y1022079D01*
X1368161Y1021854D01*
X1367861Y1021580D01*
X1367511Y1021330D01*
X1367111Y1021055D01*
X1366661Y1020830D01*
X1366636D01*
X1366611Y1020805D01*
X1366536Y1020780D01*
X1366436Y1020755D01*
X1366161Y1020655D01*
X1365811Y1020555D01*
X1365386Y1020455D01*
X1364886Y1020355D01*
X1364337Y1020305D01*
X1363737Y1020280D01*
X1363487D01*
X1363287Y1020305D01*
X1363062D01*
X1362812Y1020330D01*
X1362512Y1020380D01*
X1362187Y1020430D01*
X1361537Y1020555D01*
X1360838Y1020755D01*
X1360188Y1021030D01*
X1359863Y1021180D01*
X1359588Y1021380D01*
X1359563Y1021405D01*
X1359538Y1021430D01*
X1359463Y1021505D01*
X1359363Y1021580D01*
X1359238Y1021704D01*
X1359113Y1021854D01*
X1358988Y1022029D01*
X1358838Y1022229D01*
X1358688Y1022454D01*
X1358513Y1022704D01*
X1358363Y1022979D01*
X1358238Y1023279D01*
X1358088Y1023604D01*
X1357963Y1023954D01*
X1357863Y1024329D01*
X1357788Y1024729D01*
X1360113Y1025104D01*
Y1025079D01*
Y1025054D01*
X1360138Y1024979D01*
X1360163Y1024879D01*
X1360213Y1024629D01*
X1360313Y1024304D01*
X1360463Y1023954D01*
X1360638Y1023604D01*
X1360887Y1023254D01*
X1361187Y1022954D01*
X1361237Y1022929D01*
X1361362Y1022854D01*
X1361562Y1022729D01*
X1361837Y1022604D01*
X1362212Y1022454D01*
X1362637Y1022354D01*
X1363137Y1022254D01*
X1363712Y1022229D01*
X1363987D01*
X1364262Y1022254D01*
X1364637Y1022304D01*
X1365011Y1022379D01*
X1365411Y1022504D01*
X1365811Y1022654D01*
X1366136Y1022879D01*
X1366161Y1022904D01*
X1366261Y1023004D01*
X1366386Y1023129D01*
X1366536Y1023329D01*
X1366686Y1023554D01*
X1366811Y1023804D01*
X1366911Y1024104D01*
X1366936Y1024429D01*
Y1024454D01*
Y1024554D01*
X1366911Y1024704D01*
X1366861Y1024879D01*
X1366761Y1025079D01*
X1366636Y1025279D01*
X1366461Y1025479D01*
X1366236Y1025678D01*
X1366211Y1025704D01*
X1366136Y1025729D01*
X1365986Y1025804D01*
X1365736Y1025879D01*
X1365586Y1025953D01*
X1365436Y1026003D01*
X1365236Y1026053D01*
X1365011Y1026128D01*
X1364762Y1026203D01*
X1364462Y1026278D01*
X1364162Y1026378D01*
X1363812Y1026453D01*
X1363787D01*
X1363687Y1026478D01*
X1363562Y1026528D01*
X1363387Y1026578D01*
X1363187Y1026628D01*
X1362937Y1026703D01*
X1362387Y1026853D01*
X1361787Y1027028D01*
X1361187Y1027228D01*
X1360912Y1027328D01*
X1360663Y1027428D01*
X1360413Y1027503D01*
X1360213Y1027603D01*
X1360163Y1027628D01*
X1360038Y1027703D01*
X1359863Y1027803D01*
X1359638Y1027953D01*
X1359413Y1028128D01*
X1359138Y1028353D01*
X1358913Y1028603D01*
X1358688Y1028903D01*
X1358663Y1028953D01*
X1358613Y1029053D01*
X1358538Y1029228D01*
X1358438Y1029453D01*
X1358338Y1029727D01*
X1358263Y1030052D01*
X1358213Y1030402D01*
X1358188Y1030777D01*
Y1030827D01*
Y1030927D01*
X1358213Y1031102D01*
X1358238Y1031352D01*
X1358288Y1031602D01*
X1358363Y1031902D01*
X1358463Y1032202D01*
X1358613Y1032502D01*
X1358638Y1032527D01*
X1358688Y1032627D01*
X1358788Y1032777D01*
X1358913Y1032977D01*
X1359088Y1033177D01*
X1359288Y1033401D01*
X1359513Y1033626D01*
X1359763Y1033826D01*
X1359788Y1033851D01*
X1359863Y1033901D01*
X1359988Y1033976D01*
X1360163Y1034051D01*
X1360363Y1034176D01*
X1360638Y1034276D01*
X1360938Y1034401D01*
X1361262Y1034501D01*
X1361312Y1034526D01*
X1361437Y1034551D01*
X1361612Y1034601D01*
X1361887Y1034651D01*
X1362187Y1034701D01*
X1362537Y1034751D01*
X1362912Y1034801D01*
X1363587D01*
X1363737Y1034776D01*
D02*
G37*
G36*
X1184507Y1026353D02*
X1177259D01*
Y1028728D01*
X1184507D01*
Y1026353D01*
D02*
G37*
G36*
X1202552Y1020580D02*
X1199928D01*
X1189856Y1035651D01*
Y1020580D01*
X1187406D01*
Y1039800D01*
X1190006D01*
X1200103Y1024704D01*
Y1039800D01*
X1202552D01*
Y1020580D01*
D02*
G37*
G36*
X1325397D02*
X1322747D01*
X1315299Y1039800D01*
X1318073D01*
X1323072Y1025828D01*
Y1025804D01*
X1323097Y1025753D01*
X1323122Y1025654D01*
X1323172Y1025554D01*
X1323222Y1025404D01*
X1323272Y1025229D01*
X1323422Y1024804D01*
X1323572Y1024329D01*
X1323747Y1023804D01*
X1323922Y1023229D01*
X1324072Y1022679D01*
Y1022704D01*
X1324097Y1022754D01*
X1324122Y1022829D01*
X1324147Y1022954D01*
X1324197Y1023104D01*
X1324247Y1023254D01*
X1324372Y1023654D01*
X1324522Y1024129D01*
X1324697Y1024679D01*
X1324897Y1025254D01*
X1325122Y1025828D01*
X1330320Y1039800D01*
X1332895D01*
X1325397Y1020580D01*
D02*
G37*
G36*
X1433719D02*
X1431020D01*
Y1023279D01*
X1433719D01*
Y1020580D01*
D02*
G37*
G36*
X1421547Y1039850D02*
X1421797Y1039825D01*
X1422072Y1039800D01*
X1422372Y1039750D01*
X1422697Y1039675D01*
X1423396Y1039500D01*
X1423746Y1039375D01*
X1424121Y1039225D01*
X1424496Y1039050D01*
X1424846Y1038825D01*
X1425171Y1038600D01*
X1425496Y1038325D01*
X1425521Y1038300D01*
X1425571Y1038250D01*
X1425646Y1038175D01*
X1425746Y1038050D01*
X1425871Y1037900D01*
X1426021Y1037725D01*
X1426146Y1037525D01*
X1426321Y1037275D01*
X1426471Y1037026D01*
X1426596Y1036726D01*
X1426871Y1036076D01*
X1426971Y1035726D01*
X1427046Y1035351D01*
X1427096Y1034951D01*
X1427121Y1034526D01*
Y1034476D01*
Y1034326D01*
X1427096Y1034101D01*
X1427071Y1033801D01*
X1426996Y1033476D01*
X1426921Y1033077D01*
X1426796Y1032677D01*
X1426646Y1032252D01*
X1426621Y1032202D01*
X1426546Y1032052D01*
X1426446Y1031827D01*
X1426271Y1031552D01*
X1426046Y1031202D01*
X1425771Y1030802D01*
X1425446Y1030352D01*
X1425071Y1029902D01*
Y1029877D01*
X1425021Y1029852D01*
X1424946Y1029778D01*
X1424871Y1029678D01*
X1424746Y1029553D01*
X1424596Y1029403D01*
X1424421Y1029228D01*
X1424196Y1029028D01*
X1423971Y1028803D01*
X1423696Y1028553D01*
X1423396Y1028253D01*
X1423072Y1027953D01*
X1422697Y1027628D01*
X1422322Y1027303D01*
X1421872Y1026928D01*
X1421422Y1026528D01*
X1421397Y1026503D01*
X1421322Y1026453D01*
X1421222Y1026353D01*
X1421072Y1026253D01*
X1420922Y1026103D01*
X1420722Y1025928D01*
X1420297Y1025554D01*
X1419822Y1025154D01*
X1419373Y1024754D01*
X1419173Y1024579D01*
X1418998Y1024404D01*
X1418823Y1024229D01*
X1418698Y1024104D01*
X1418673Y1024079D01*
X1418598Y1024004D01*
X1418498Y1023879D01*
X1418348Y1023704D01*
X1418198Y1023529D01*
X1418023Y1023304D01*
X1417698Y1022854D01*
X1427146D01*
Y1020580D01*
X1414424D01*
Y1020630D01*
Y1020730D01*
Y1020880D01*
X1414449Y1021105D01*
X1414474Y1021355D01*
X1414524Y1021630D01*
X1414599Y1021905D01*
X1414699Y1022204D01*
Y1022229D01*
X1414724Y1022254D01*
X1414749Y1022329D01*
X1414799Y1022429D01*
X1414899Y1022679D01*
X1415074Y1023004D01*
X1415299Y1023404D01*
X1415549Y1023829D01*
X1415873Y1024279D01*
X1416248Y1024754D01*
X1416273Y1024779D01*
X1416298Y1024804D01*
X1416373Y1024879D01*
X1416448Y1024979D01*
X1416698Y1025254D01*
X1417048Y1025603D01*
X1417473Y1026028D01*
X1417998Y1026528D01*
X1418623Y1027078D01*
X1419348Y1027678D01*
X1419373Y1027703D01*
X1419473Y1027803D01*
X1419648Y1027928D01*
X1419847Y1028103D01*
X1420097Y1028328D01*
X1420397Y1028578D01*
X1420722Y1028853D01*
X1421047Y1029153D01*
X1421747Y1029802D01*
X1422447Y1030477D01*
X1422772Y1030827D01*
X1423072Y1031152D01*
X1423347Y1031452D01*
X1423571Y1031752D01*
X1423596Y1031777D01*
X1423622Y1031827D01*
X1423671Y1031902D01*
X1423746Y1032002D01*
X1423821Y1032152D01*
X1423921Y1032302D01*
X1424146Y1032677D01*
X1424346Y1033102D01*
X1424521Y1033577D01*
X1424646Y1034101D01*
X1424696Y1034351D01*
Y1034601D01*
Y1034626D01*
Y1034676D01*
Y1034726D01*
X1424671Y1034826D01*
X1424646Y1035101D01*
X1424571Y1035426D01*
X1424446Y1035801D01*
X1424271Y1036176D01*
X1424021Y1036576D01*
X1423671Y1036951D01*
X1423622Y1037001D01*
X1423497Y1037101D01*
X1423272Y1037251D01*
X1422972Y1037450D01*
X1422597Y1037626D01*
X1422147Y1037775D01*
X1421622Y1037875D01*
X1421047Y1037925D01*
X1420872D01*
X1420772Y1037900D01*
X1420622D01*
X1420447Y1037875D01*
X1420072Y1037800D01*
X1419648Y1037675D01*
X1419173Y1037501D01*
X1418723Y1037251D01*
X1418323Y1036901D01*
X1418273Y1036851D01*
X1418173Y1036726D01*
X1417998Y1036476D01*
X1417823Y1036176D01*
X1417623Y1035751D01*
X1417448Y1035276D01*
X1417348Y1034726D01*
X1417298Y1034076D01*
X1414874Y1034326D01*
Y1034351D01*
X1414899Y1034451D01*
Y1034576D01*
X1414924Y1034776D01*
X1414974Y1035001D01*
X1415024Y1035251D01*
X1415099Y1035551D01*
X1415199Y1035851D01*
X1415424Y1036526D01*
X1415573Y1036876D01*
X1415748Y1037201D01*
X1415948Y1037551D01*
X1416173Y1037875D01*
X1416423Y1038175D01*
X1416723Y1038450D01*
X1416748Y1038475D01*
X1416798Y1038500D01*
X1416898Y1038575D01*
X1417023Y1038675D01*
X1417198Y1038775D01*
X1417398Y1038900D01*
X1417623Y1039025D01*
X1417898Y1039175D01*
X1418198Y1039300D01*
X1418523Y1039425D01*
X1418873Y1039550D01*
X1419273Y1039650D01*
X1419673Y1039750D01*
X1420122Y1039825D01*
X1420597Y1039850D01*
X1421097Y1039875D01*
X1421372D01*
X1421547Y1039850D01*
D02*
G37*
G36*
X1374509Y1020580D02*
X1372160D01*
Y1034501D01*
X1374509D01*
Y1020580D01*
D02*
G37*
G36*
X1301103Y1034776D02*
X1301503Y1034751D01*
X1301953Y1034701D01*
X1302453Y1034626D01*
X1302902Y1034526D01*
X1303352Y1034376D01*
X1303377D01*
X1303402Y1034351D01*
X1303527Y1034301D01*
X1303727Y1034201D01*
X1303977Y1034076D01*
X1304252Y1033926D01*
X1304527Y1033752D01*
X1304777Y1033527D01*
X1305002Y1033302D01*
X1305027Y1033277D01*
X1305077Y1033202D01*
X1305177Y1033052D01*
X1305302Y1032877D01*
X1305427Y1032652D01*
X1305552Y1032377D01*
X1305652Y1032077D01*
X1305752Y1031727D01*
Y1031702D01*
X1305777Y1031602D01*
X1305802Y1031452D01*
X1305827Y1031227D01*
Y1030927D01*
X1305852Y1030552D01*
X1305877Y1030102D01*
Y1029553D01*
Y1026403D01*
Y1026378D01*
Y1026253D01*
Y1026103D01*
Y1025879D01*
Y1025629D01*
Y1025329D01*
Y1025004D01*
X1305902Y1024654D01*
Y1023954D01*
X1305927Y1023279D01*
X1305952Y1022954D01*
Y1022679D01*
X1305977Y1022454D01*
X1306002Y1022254D01*
Y1022204D01*
X1306027Y1022104D01*
X1306077Y1021929D01*
X1306127Y1021730D01*
X1306227Y1021455D01*
X1306326Y1021180D01*
X1306452Y1020880D01*
X1306601Y1020580D01*
X1304127D01*
X1304102Y1020605D01*
X1304077Y1020705D01*
X1304002Y1020855D01*
X1303952Y1021080D01*
X1303852Y1021330D01*
X1303802Y1021630D01*
X1303727Y1021954D01*
X1303677Y1022329D01*
X1303652D01*
X1303627Y1022279D01*
X1303552Y1022229D01*
X1303452Y1022154D01*
X1303202Y1021954D01*
X1302852Y1021704D01*
X1302478Y1021455D01*
X1302053Y1021180D01*
X1301578Y1020930D01*
X1301128Y1020730D01*
X1301103D01*
X1301078Y1020705D01*
X1301003Y1020680D01*
X1300928Y1020655D01*
X1300678Y1020580D01*
X1300353Y1020505D01*
X1299978Y1020430D01*
X1299528Y1020355D01*
X1299053Y1020305D01*
X1298553Y1020280D01*
X1298329D01*
X1298179Y1020305D01*
X1297979D01*
X1297754Y1020330D01*
X1297254Y1020430D01*
X1296679Y1020555D01*
X1296104Y1020755D01*
X1295529Y1021030D01*
X1295279Y1021180D01*
X1295029Y1021380D01*
X1295004Y1021405D01*
X1294979Y1021430D01*
X1294829Y1021580D01*
X1294655Y1021830D01*
X1294429Y1022154D01*
X1294205Y1022579D01*
X1294005Y1023054D01*
X1293855Y1023604D01*
X1293830Y1023904D01*
X1293805Y1024229D01*
Y1024279D01*
Y1024404D01*
X1293830Y1024604D01*
X1293855Y1024854D01*
X1293905Y1025129D01*
X1294005Y1025454D01*
X1294105Y1025779D01*
X1294255Y1026103D01*
X1294280Y1026153D01*
X1294330Y1026253D01*
X1294454Y1026403D01*
X1294579Y1026603D01*
X1294754Y1026803D01*
X1294979Y1027028D01*
X1295204Y1027253D01*
X1295479Y1027453D01*
X1295504Y1027478D01*
X1295604Y1027528D01*
X1295779Y1027628D01*
X1295979Y1027753D01*
X1296229Y1027878D01*
X1296504Y1028003D01*
X1296829Y1028128D01*
X1297179Y1028228D01*
X1297204D01*
X1297304Y1028253D01*
X1297479Y1028303D01*
X1297704Y1028328D01*
X1298004Y1028403D01*
X1298353Y1028453D01*
X1298778Y1028503D01*
X1299278Y1028578D01*
X1299303D01*
X1299403Y1028603D01*
X1299553D01*
X1299753Y1028653D01*
X1299978Y1028678D01*
X1300253Y1028703D01*
X1300553Y1028753D01*
X1300878Y1028803D01*
X1301553Y1028928D01*
X1302253Y1029078D01*
X1302902Y1029228D01*
X1303202Y1029328D01*
X1303477Y1029403D01*
Y1029428D01*
Y1029477D01*
Y1029553D01*
X1303502Y1029652D01*
Y1029852D01*
Y1029952D01*
Y1030002D01*
Y1030027D01*
Y1030077D01*
Y1030152D01*
Y1030227D01*
X1303477Y1030502D01*
X1303427Y1030802D01*
X1303327Y1031152D01*
X1303227Y1031477D01*
X1303052Y1031802D01*
X1302827Y1032052D01*
X1302777Y1032077D01*
X1302652Y1032177D01*
X1302453Y1032302D01*
X1302153Y1032452D01*
X1301753Y1032602D01*
X1301303Y1032727D01*
X1300753Y1032827D01*
X1300128Y1032852D01*
X1299853D01*
X1299553Y1032827D01*
X1299203Y1032777D01*
X1298778Y1032702D01*
X1298378Y1032602D01*
X1297979Y1032452D01*
X1297654Y1032252D01*
X1297629Y1032227D01*
X1297529Y1032152D01*
X1297379Y1032002D01*
X1297229Y1031777D01*
X1297029Y1031502D01*
X1296854Y1031152D01*
X1296654Y1030702D01*
X1296504Y1030202D01*
X1294205Y1030527D01*
Y1030552D01*
X1294230Y1030602D01*
Y1030677D01*
X1294255Y1030777D01*
X1294330Y1031052D01*
X1294454Y1031377D01*
X1294579Y1031752D01*
X1294754Y1032152D01*
X1294979Y1032552D01*
X1295229Y1032902D01*
X1295254Y1032952D01*
X1295354Y1033052D01*
X1295529Y1033202D01*
X1295754Y1033427D01*
X1296054Y1033652D01*
X1296404Y1033876D01*
X1296829Y1034101D01*
X1297304Y1034301D01*
X1297329D01*
X1297379Y1034326D01*
X1297454Y1034351D01*
X1297554Y1034376D01*
X1297679Y1034426D01*
X1297829Y1034451D01*
X1298229Y1034551D01*
X1298678Y1034651D01*
X1299228Y1034726D01*
X1299828Y1034776D01*
X1300478Y1034801D01*
X1300928D01*
X1301103Y1034776D01*
D02*
G37*
G36*
X1284707Y1039775D02*
X1284932D01*
X1285207Y1039750D01*
X1285507Y1039725D01*
X1286132Y1039675D01*
X1286781Y1039575D01*
X1287406Y1039450D01*
X1287706Y1039375D01*
X1287956Y1039275D01*
X1287981D01*
X1288006Y1039250D01*
X1288081Y1039225D01*
X1288181Y1039175D01*
X1288431Y1039050D01*
X1288731Y1038850D01*
X1289081Y1038600D01*
X1289431Y1038275D01*
X1289781Y1037875D01*
X1290106Y1037426D01*
Y1037401D01*
X1290131Y1037375D01*
X1290181Y1037300D01*
X1290231Y1037201D01*
X1290356Y1036926D01*
X1290506Y1036576D01*
X1290656Y1036151D01*
X1290780Y1035651D01*
X1290880Y1035101D01*
X1290905Y1034526D01*
Y1034501D01*
Y1034426D01*
Y1034326D01*
X1290880Y1034176D01*
X1290856Y1034001D01*
X1290831Y1033801D01*
X1290730Y1033327D01*
X1290580Y1032777D01*
X1290356Y1032202D01*
X1290206Y1031927D01*
X1290031Y1031627D01*
X1289806Y1031352D01*
X1289581Y1031077D01*
X1289556Y1031052D01*
X1289531Y1031027D01*
X1289431Y1030952D01*
X1289331Y1030852D01*
X1289181Y1030752D01*
X1289006Y1030627D01*
X1288806Y1030477D01*
X1288581Y1030327D01*
X1288306Y1030177D01*
X1288006Y1030027D01*
X1287656Y1029877D01*
X1287281Y1029727D01*
X1286882Y1029603D01*
X1286457Y1029477D01*
X1285982Y1029378D01*
X1285482Y1029303D01*
X1285532Y1029278D01*
X1285657Y1029228D01*
X1285832Y1029128D01*
X1286057Y1029003D01*
X1286557Y1028678D01*
X1286781Y1028503D01*
X1287006Y1028328D01*
X1287031D01*
X1287056Y1028278D01*
X1287206Y1028153D01*
X1287406Y1027928D01*
X1287706Y1027628D01*
X1288031Y1027278D01*
X1288381Y1026828D01*
X1288756Y1026328D01*
X1289131Y1025779D01*
X1292455Y1020580D01*
X1289256D01*
X1286732Y1024554D01*
Y1024579D01*
X1286682Y1024629D01*
X1286631Y1024729D01*
X1286557Y1024829D01*
X1286457Y1024979D01*
X1286332Y1025154D01*
X1286082Y1025529D01*
X1285782Y1025953D01*
X1285482Y1026378D01*
X1285182Y1026803D01*
X1284882Y1027178D01*
X1284857Y1027228D01*
X1284757Y1027328D01*
X1284632Y1027503D01*
X1284457Y1027678D01*
X1284257Y1027903D01*
X1284032Y1028128D01*
X1283807Y1028303D01*
X1283582Y1028478D01*
X1283557Y1028503D01*
X1283482Y1028528D01*
X1283382Y1028603D01*
X1283232Y1028678D01*
X1283058Y1028778D01*
X1282858Y1028853D01*
X1282433Y1029003D01*
X1282408D01*
X1282358Y1029028D01*
X1282258D01*
X1282108Y1029053D01*
X1281908Y1029078D01*
X1281658D01*
X1281383Y1029103D01*
X1278084D01*
Y1020580D01*
X1275534D01*
Y1039800D01*
X1284482D01*
X1284707Y1039775D01*
D02*
G37*
G36*
X1248116Y1022854D02*
X1257564D01*
Y1020580D01*
X1245567D01*
Y1039800D01*
X1248116D01*
Y1022854D01*
D02*
G37*
G36*
X1218823Y1020580D02*
X1216124D01*
Y1023279D01*
X1218823D01*
Y1020580D01*
D02*
G37*
G36*
X1168911Y1039775D02*
X1169361Y1039750D01*
X1169861Y1039725D01*
X1170336Y1039675D01*
X1170736Y1039600D01*
X1170811D01*
X1170861Y1039575D01*
X1170960Y1039550D01*
X1171236Y1039500D01*
X1171560Y1039400D01*
X1171935Y1039275D01*
X1172310Y1039125D01*
X1172710Y1038925D01*
X1173085Y1038700D01*
X1173135Y1038675D01*
X1173235Y1038575D01*
X1173435Y1038425D01*
X1173635Y1038225D01*
X1173885Y1037975D01*
X1174160Y1037651D01*
X1174410Y1037275D01*
X1174635Y1036851D01*
Y1036826D01*
X1174660Y1036801D01*
X1174685Y1036726D01*
X1174735Y1036651D01*
X1174835Y1036401D01*
X1174934Y1036076D01*
X1175034Y1035676D01*
X1175135Y1035226D01*
X1175210Y1034751D01*
X1175235Y1034226D01*
Y1034201D01*
Y1034126D01*
Y1034001D01*
X1175210Y1033826D01*
X1175184Y1033602D01*
X1175160Y1033352D01*
X1175109Y1033077D01*
X1175034Y1032802D01*
X1174860Y1032127D01*
X1174735Y1031802D01*
X1174560Y1031452D01*
X1174385Y1031102D01*
X1174185Y1030752D01*
X1173935Y1030402D01*
X1173660Y1030077D01*
X1173635Y1030052D01*
X1173585Y1030002D01*
X1173485Y1029927D01*
X1173360Y1029802D01*
X1173185Y1029678D01*
X1172960Y1029553D01*
X1172685Y1029378D01*
X1172385Y1029228D01*
X1172010Y1029078D01*
X1171610Y1028928D01*
X1171135Y1028778D01*
X1170636Y1028653D01*
X1170061Y1028528D01*
X1169436Y1028453D01*
X1168761Y1028403D01*
X1168036Y1028378D01*
X1163138D01*
Y1020580D01*
X1160588D01*
Y1039800D01*
X1168486D01*
X1168911Y1039775D01*
D02*
G37*
G36*
X1148116Y1022854D02*
X1157564D01*
Y1020580D01*
X1145567D01*
Y1039800D01*
X1148116D01*
Y1022854D01*
D02*
G37*
G36*
X1384232Y1034776D02*
X1384482Y1034751D01*
X1384756Y1034701D01*
X1385081Y1034651D01*
X1385431Y1034576D01*
X1385781Y1034476D01*
X1386156Y1034326D01*
X1386556Y1034176D01*
X1386956Y1034001D01*
X1387356Y1033776D01*
X1387731Y1033527D01*
X1388106Y1033227D01*
X1388456Y1032902D01*
X1388481Y1032877D01*
X1388530Y1032827D01*
X1388630Y1032702D01*
X1388730Y1032552D01*
X1388880Y1032377D01*
X1389030Y1032127D01*
X1389205Y1031852D01*
X1389380Y1031552D01*
X1389530Y1031202D01*
X1389705Y1030827D01*
X1389855Y1030402D01*
X1390005Y1029927D01*
X1390105Y1029428D01*
X1390205Y1028903D01*
X1390255Y1028328D01*
X1390280Y1027728D01*
Y1027703D01*
Y1027603D01*
Y1027478D01*
Y1027278D01*
X1390255Y1027053D01*
X1390230Y1026803D01*
X1390205Y1026503D01*
X1390180Y1026203D01*
X1390080Y1025529D01*
X1389930Y1024829D01*
X1389730Y1024129D01*
X1389605Y1023804D01*
X1389455Y1023504D01*
Y1023479D01*
X1389430Y1023429D01*
X1389380Y1023354D01*
X1389305Y1023254D01*
X1389130Y1022979D01*
X1388855Y1022629D01*
X1388530Y1022254D01*
X1388130Y1021854D01*
X1387656Y1021480D01*
X1387106Y1021130D01*
X1387081D01*
X1387031Y1021105D01*
X1386956Y1021055D01*
X1386831Y1021005D01*
X1386706Y1020930D01*
X1386531Y1020855D01*
X1386106Y1020705D01*
X1385631Y1020555D01*
X1385056Y1020405D01*
X1384431Y1020305D01*
X1383757Y1020280D01*
X1383632D01*
X1383482Y1020305D01*
X1383282D01*
X1383032Y1020330D01*
X1382757Y1020380D01*
X1382432Y1020430D01*
X1382082Y1020505D01*
X1381707Y1020605D01*
X1381332Y1020730D01*
X1380957Y1020880D01*
X1380558Y1021055D01*
X1380158Y1021280D01*
X1379783Y1021530D01*
X1379408Y1021805D01*
X1379058Y1022129D01*
X1379033Y1022154D01*
X1378983Y1022229D01*
X1378883Y1022329D01*
X1378783Y1022479D01*
X1378633Y1022679D01*
X1378483Y1022904D01*
X1378333Y1023179D01*
X1378158Y1023504D01*
X1377983Y1023879D01*
X1377833Y1024279D01*
X1377683Y1024704D01*
X1377533Y1025204D01*
X1377433Y1025729D01*
X1377333Y1026278D01*
X1377283Y1026878D01*
X1377258Y1027528D01*
Y1027578D01*
Y1027703D01*
X1377283Y1027903D01*
Y1028153D01*
X1377333Y1028478D01*
X1377383Y1028853D01*
X1377433Y1029253D01*
X1377533Y1029678D01*
X1377633Y1030152D01*
X1377783Y1030627D01*
X1377958Y1031102D01*
X1378158Y1031577D01*
X1378408Y1032027D01*
X1378683Y1032477D01*
X1379008Y1032877D01*
X1379383Y1033252D01*
X1379408Y1033277D01*
X1379458Y1033327D01*
X1379558Y1033401D01*
X1379708Y1033502D01*
X1379883Y1033602D01*
X1380083Y1033752D01*
X1380332Y1033876D01*
X1380607Y1034026D01*
X1380907Y1034176D01*
X1381232Y1034301D01*
X1381607Y1034451D01*
X1381982Y1034551D01*
X1382407Y1034651D01*
X1382832Y1034726D01*
X1383282Y1034776D01*
X1383757Y1034801D01*
X1384032D01*
X1384232Y1034776D01*
D02*
G37*
G36*
X1341018D02*
X1341243Y1034751D01*
X1341517Y1034701D01*
X1341842Y1034651D01*
X1342167Y1034576D01*
X1342517Y1034476D01*
X1342892Y1034326D01*
X1343267Y1034176D01*
X1343642Y1034001D01*
X1344042Y1033776D01*
X1344417Y1033527D01*
X1344767Y1033227D01*
X1345117Y1032902D01*
X1345142Y1032877D01*
X1345191Y1032802D01*
X1345291Y1032702D01*
X1345392Y1032552D01*
X1345517Y1032352D01*
X1345666Y1032127D01*
X1345841Y1031852D01*
X1346016Y1031527D01*
X1346166Y1031152D01*
X1346341Y1030752D01*
X1346491Y1030327D01*
X1346616Y1029852D01*
X1346716Y1029328D01*
X1346816Y1028778D01*
X1346866Y1028178D01*
X1346891Y1027553D01*
Y1027503D01*
Y1027403D01*
Y1027203D01*
X1346866Y1026928D01*
X1336494D01*
Y1026903D01*
Y1026828D01*
X1336519Y1026703D01*
X1336544Y1026553D01*
X1336569Y1026353D01*
X1336594Y1026128D01*
X1336694Y1025629D01*
X1336869Y1025054D01*
X1337094Y1024479D01*
X1337393Y1023929D01*
X1337569Y1023679D01*
X1337768Y1023429D01*
X1337793Y1023404D01*
X1337818Y1023379D01*
X1337893Y1023329D01*
X1337968Y1023254D01*
X1338243Y1023054D01*
X1338568Y1022829D01*
X1338993Y1022604D01*
X1339493Y1022429D01*
X1340068Y1022279D01*
X1340368Y1022254D01*
X1340693Y1022229D01*
X1340918D01*
X1341143Y1022254D01*
X1341467Y1022304D01*
X1341792Y1022404D01*
X1342167Y1022504D01*
X1342542Y1022679D01*
X1342892Y1022904D01*
X1342942Y1022929D01*
X1343042Y1023029D01*
X1343217Y1023204D01*
X1343417Y1023429D01*
X1343642Y1023729D01*
X1343892Y1024129D01*
X1344142Y1024579D01*
X1344342Y1025104D01*
X1346791Y1024779D01*
Y1024754D01*
X1346766Y1024679D01*
X1346741Y1024579D01*
X1346666Y1024429D01*
X1346616Y1024254D01*
X1346516Y1024029D01*
X1346316Y1023554D01*
X1346016Y1023029D01*
X1345641Y1022479D01*
X1345191Y1021929D01*
X1344667Y1021455D01*
X1344642D01*
X1344592Y1021405D01*
X1344517Y1021355D01*
X1344392Y1021280D01*
X1344242Y1021180D01*
X1344042Y1021080D01*
X1343842Y1020980D01*
X1343592Y1020880D01*
X1343317Y1020755D01*
X1343017Y1020655D01*
X1342692Y1020555D01*
X1342342Y1020455D01*
X1341568Y1020330D01*
X1341143Y1020305D01*
X1340693Y1020280D01*
X1340568D01*
X1340393Y1020305D01*
X1340193D01*
X1339943Y1020330D01*
X1339643Y1020380D01*
X1339293Y1020430D01*
X1338943Y1020505D01*
X1338568Y1020605D01*
X1338168Y1020730D01*
X1337768Y1020880D01*
X1337368Y1021080D01*
X1336969Y1021280D01*
X1336569Y1021530D01*
X1336194Y1021830D01*
X1335844Y1022154D01*
X1335819Y1022179D01*
X1335769Y1022254D01*
X1335669Y1022354D01*
X1335569Y1022504D01*
X1335444Y1022704D01*
X1335294Y1022929D01*
X1335119Y1023204D01*
X1334969Y1023504D01*
X1334794Y1023879D01*
X1334619Y1024254D01*
X1334469Y1024704D01*
X1334344Y1025154D01*
X1334244Y1025678D01*
X1334144Y1026203D01*
X1334094Y1026778D01*
X1334069Y1027403D01*
Y1027453D01*
Y1027553D01*
X1334094Y1027753D01*
Y1027978D01*
X1334119Y1028278D01*
X1334169Y1028628D01*
X1334219Y1029003D01*
X1334294Y1029403D01*
X1334394Y1029827D01*
X1334519Y1030277D01*
X1334644Y1030727D01*
X1334819Y1031177D01*
X1335044Y1031627D01*
X1335269Y1032077D01*
X1335544Y1032477D01*
X1335869Y1032852D01*
X1335894Y1032877D01*
X1335944Y1032927D01*
X1336044Y1033027D01*
X1336194Y1033152D01*
X1336369Y1033302D01*
X1336594Y1033476D01*
X1336844Y1033652D01*
X1337119Y1033826D01*
X1337444Y1034001D01*
X1337793Y1034176D01*
X1338193Y1034351D01*
X1338593Y1034501D01*
X1339043Y1034626D01*
X1339518Y1034726D01*
X1340018Y1034776D01*
X1340543Y1034801D01*
X1340818D01*
X1341018Y1034776D01*
D02*
G37*
G36*
X1266387D02*
X1266637Y1034751D01*
X1266912Y1034701D01*
X1267236Y1034651D01*
X1267586Y1034576D01*
X1267936Y1034476D01*
X1268311Y1034326D01*
X1268711Y1034176D01*
X1269111Y1034001D01*
X1269511Y1033776D01*
X1269886Y1033527D01*
X1270261Y1033227D01*
X1270611Y1032902D01*
X1270636Y1032877D01*
X1270686Y1032827D01*
X1270786Y1032702D01*
X1270886Y1032552D01*
X1271036Y1032377D01*
X1271186Y1032127D01*
X1271360Y1031852D01*
X1271535Y1031552D01*
X1271685Y1031202D01*
X1271860Y1030827D01*
X1272010Y1030402D01*
X1272160Y1029927D01*
X1272260Y1029428D01*
X1272360Y1028903D01*
X1272410Y1028328D01*
X1272435Y1027728D01*
Y1027703D01*
Y1027603D01*
Y1027478D01*
Y1027278D01*
X1272410Y1027053D01*
X1272385Y1026803D01*
X1272360Y1026503D01*
X1272335Y1026203D01*
X1272235Y1025529D01*
X1272085Y1024829D01*
X1271885Y1024129D01*
X1271760Y1023804D01*
X1271610Y1023504D01*
Y1023479D01*
X1271585Y1023429D01*
X1271535Y1023354D01*
X1271460Y1023254D01*
X1271285Y1022979D01*
X1271011Y1022629D01*
X1270686Y1022254D01*
X1270286Y1021854D01*
X1269811Y1021480D01*
X1269261Y1021130D01*
X1269236D01*
X1269186Y1021105D01*
X1269111Y1021055D01*
X1268986Y1021005D01*
X1268861Y1020930D01*
X1268686Y1020855D01*
X1268261Y1020705D01*
X1267786Y1020555D01*
X1267212Y1020405D01*
X1266587Y1020305D01*
X1265912Y1020280D01*
X1265787D01*
X1265637Y1020305D01*
X1265437D01*
X1265187Y1020330D01*
X1264912Y1020380D01*
X1264587Y1020430D01*
X1264237Y1020505D01*
X1263862Y1020605D01*
X1263487Y1020730D01*
X1263113Y1020880D01*
X1262713Y1021055D01*
X1262313Y1021280D01*
X1261938Y1021530D01*
X1261563Y1021805D01*
X1261213Y1022129D01*
X1261188Y1022154D01*
X1261138Y1022229D01*
X1261038Y1022329D01*
X1260938Y1022479D01*
X1260788Y1022679D01*
X1260638Y1022904D01*
X1260488Y1023179D01*
X1260313Y1023504D01*
X1260138Y1023879D01*
X1259988Y1024279D01*
X1259838Y1024704D01*
X1259688Y1025204D01*
X1259588Y1025729D01*
X1259489Y1026278D01*
X1259438Y1026878D01*
X1259414Y1027528D01*
Y1027578D01*
Y1027703D01*
X1259438Y1027903D01*
Y1028153D01*
X1259489Y1028478D01*
X1259538Y1028853D01*
X1259588Y1029253D01*
X1259688Y1029678D01*
X1259788Y1030152D01*
X1259938Y1030627D01*
X1260113Y1031102D01*
X1260313Y1031577D01*
X1260563Y1032027D01*
X1260838Y1032477D01*
X1261163Y1032877D01*
X1261538Y1033252D01*
X1261563Y1033277D01*
X1261613Y1033327D01*
X1261713Y1033401D01*
X1261863Y1033502D01*
X1262038Y1033602D01*
X1262238Y1033752D01*
X1262488Y1033876D01*
X1262763Y1034026D01*
X1263063Y1034176D01*
X1263388Y1034301D01*
X1263762Y1034451D01*
X1264137Y1034551D01*
X1264562Y1034651D01*
X1264987Y1034726D01*
X1265437Y1034776D01*
X1265912Y1034801D01*
X1266187D01*
X1266387Y1034776D01*
D02*
G37*
G36*
X1443791Y1039850D02*
X1443941D01*
X1444316Y1039800D01*
X1444741Y1039725D01*
X1445191Y1039600D01*
X1445666Y1039450D01*
X1446116Y1039250D01*
X1446141D01*
X1446166Y1039225D01*
X1446316Y1039125D01*
X1446516Y1039000D01*
X1446790Y1038800D01*
X1447090Y1038525D01*
X1447415Y1038225D01*
X1447740Y1037875D01*
X1448040Y1037450D01*
Y1037426D01*
X1448065Y1037401D01*
X1448115Y1037326D01*
X1448165Y1037251D01*
X1448290Y1037001D01*
X1448465Y1036651D01*
X1448665Y1036226D01*
X1448865Y1035751D01*
X1449040Y1035176D01*
X1449215Y1034576D01*
Y1034551D01*
X1449240Y1034501D01*
X1449265Y1034401D01*
X1449290Y1034276D01*
X1449315Y1034101D01*
X1449365Y1033901D01*
X1449390Y1033652D01*
X1449440Y1033376D01*
X1449490Y1033077D01*
X1449515Y1032727D01*
X1449565Y1032377D01*
X1449590Y1031952D01*
X1449615Y1031527D01*
X1449640Y1031077D01*
X1449665Y1030577D01*
Y1030052D01*
Y1030002D01*
Y1029902D01*
Y1029727D01*
Y1029477D01*
X1449640Y1029203D01*
Y1028878D01*
X1449615Y1028503D01*
X1449590Y1028103D01*
X1449490Y1027228D01*
X1449365Y1026303D01*
X1449190Y1025404D01*
X1449090Y1024979D01*
X1448965Y1024579D01*
Y1024554D01*
X1448940Y1024479D01*
X1448890Y1024379D01*
X1448840Y1024229D01*
X1448765Y1024054D01*
X1448665Y1023854D01*
X1448440Y1023404D01*
X1448140Y1022879D01*
X1447790Y1022354D01*
X1447365Y1021830D01*
X1446866Y1021380D01*
X1446841D01*
X1446815Y1021330D01*
X1446716Y1021280D01*
X1446616Y1021205D01*
X1446491Y1021130D01*
X1446316Y1021030D01*
X1446141Y1020930D01*
X1445916Y1020830D01*
X1445416Y1020605D01*
X1444816Y1020430D01*
X1444141Y1020305D01*
X1443766Y1020280D01*
X1443391Y1020255D01*
X1443266D01*
X1443116Y1020280D01*
X1442941D01*
X1442692Y1020305D01*
X1442442Y1020355D01*
X1442142Y1020430D01*
X1441817Y1020505D01*
X1441467Y1020605D01*
X1441117Y1020730D01*
X1440742Y1020905D01*
X1440367Y1021080D01*
X1440017Y1021305D01*
X1439667Y1021580D01*
X1439342Y1021880D01*
X1439017Y1022229D01*
X1438992Y1022254D01*
X1438943Y1022354D01*
X1438843Y1022479D01*
X1438718Y1022679D01*
X1438593Y1022954D01*
X1438418Y1023279D01*
X1438268Y1023654D01*
X1438093Y1024104D01*
X1437918Y1024629D01*
X1437743Y1025204D01*
X1437568Y1025828D01*
X1437443Y1026553D01*
X1437318Y1027328D01*
X1437218Y1028153D01*
X1437168Y1029078D01*
X1437143Y1030052D01*
Y1030102D01*
Y1030202D01*
Y1030377D01*
Y1030627D01*
X1437168Y1030902D01*
X1437193Y1031227D01*
Y1031602D01*
X1437243Y1032002D01*
X1437318Y1032877D01*
X1437443Y1033801D01*
X1437618Y1034701D01*
X1437718Y1035126D01*
X1437843Y1035526D01*
Y1035551D01*
X1437868Y1035626D01*
X1437918Y1035726D01*
X1437968Y1035876D01*
X1438043Y1036051D01*
X1438143Y1036251D01*
X1438368Y1036726D01*
X1438668Y1037226D01*
X1439017Y1037775D01*
X1439442Y1038300D01*
X1439917Y1038750D01*
X1439942Y1038775D01*
X1439992Y1038800D01*
X1440067Y1038850D01*
X1440167Y1038925D01*
X1440292Y1039000D01*
X1440467Y1039100D01*
X1440642Y1039200D01*
X1440867Y1039325D01*
X1441367Y1039525D01*
X1441967Y1039700D01*
X1442642Y1039825D01*
X1443017Y1039875D01*
X1443641D01*
X1443791Y1039850D01*
D02*
G37*
G36*
X1260613Y990580D02*
X1258064D01*
Y999628D01*
X1248116D01*
Y990580D01*
X1245567D01*
Y1009800D01*
X1248116D01*
Y1001902D01*
X1258064D01*
Y1009800D01*
X1260613D01*
Y990580D01*
D02*
G37*
G36*
X1474470Y1009850D02*
X1474620D01*
X1474820Y1009825D01*
X1475269Y1009750D01*
X1475794Y1009625D01*
X1476369Y1009450D01*
X1476969Y1009200D01*
X1477569Y1008850D01*
X1477594D01*
X1477644Y1008800D01*
X1477719Y1008750D01*
X1477819Y1008675D01*
X1478094Y1008425D01*
X1478444Y1008125D01*
X1478819Y1007700D01*
X1479218Y1007226D01*
X1479593Y1006651D01*
X1479918Y1005976D01*
Y1005951D01*
X1479943Y1005901D01*
X1479993Y1005776D01*
X1480043Y1005626D01*
X1480118Y1005426D01*
X1480168Y1005201D01*
X1480243Y1004926D01*
X1480343Y1004601D01*
X1480418Y1004226D01*
X1480493Y1003826D01*
X1480543Y1003401D01*
X1480618Y1002902D01*
X1480668Y1002377D01*
X1480718Y1001827D01*
X1480743Y1001227D01*
Y1000577D01*
Y1000527D01*
Y1000427D01*
Y1000227D01*
Y999977D01*
X1480718Y999652D01*
X1480693Y999303D01*
X1480668Y998903D01*
X1480643Y998453D01*
X1480593Y998003D01*
X1480543Y997528D01*
X1480418Y996528D01*
X1480218Y995579D01*
X1480093Y995129D01*
X1479943Y994704D01*
Y994679D01*
X1479918Y994604D01*
X1479868Y994504D01*
X1479793Y994354D01*
X1479718Y994154D01*
X1479618Y993954D01*
X1479343Y993479D01*
X1479019Y992929D01*
X1478594Y992379D01*
X1478119Y991854D01*
X1477544Y991380D01*
X1477519D01*
X1477469Y991330D01*
X1477394Y991280D01*
X1477269Y991205D01*
X1477119Y991130D01*
X1476944Y991030D01*
X1476719Y990930D01*
X1476494Y990830D01*
X1475944Y990605D01*
X1475320Y990430D01*
X1474620Y990305D01*
X1474245Y990280D01*
X1473845Y990255D01*
X1473620D01*
X1473470Y990280D01*
X1473270Y990305D01*
X1473070Y990330D01*
X1472820Y990355D01*
X1472545Y990405D01*
X1471970Y990555D01*
X1471346Y990780D01*
X1471046Y990930D01*
X1470746Y991105D01*
X1470446Y991280D01*
X1470171Y991505D01*
X1470146Y991530D01*
X1470121Y991555D01*
X1470046Y991630D01*
X1469946Y991730D01*
X1469821Y991854D01*
X1469696Y992029D01*
X1469571Y992204D01*
X1469421Y992404D01*
X1469271Y992654D01*
X1469121Y992904D01*
X1468996Y993204D01*
X1468846Y993529D01*
X1468721Y993854D01*
X1468621Y994229D01*
X1468546Y994604D01*
X1468471Y995029D01*
X1470746Y995204D01*
Y995179D01*
X1470771Y995129D01*
Y995054D01*
X1470796Y994954D01*
X1470871Y994654D01*
X1470996Y994329D01*
X1471120Y993929D01*
X1471320Y993554D01*
X1471545Y993204D01*
X1471820Y992904D01*
X1471870Y992879D01*
X1471970Y992804D01*
X1472145Y992679D01*
X1472395Y992554D01*
X1472695Y992429D01*
X1473045Y992304D01*
X1473470Y992229D01*
X1473920Y992204D01*
X1474095D01*
X1474295Y992229D01*
X1474570Y992254D01*
X1474845Y992329D01*
X1475170Y992404D01*
X1475494Y992529D01*
X1475819Y992679D01*
X1475844Y992704D01*
X1475969Y992779D01*
X1476119Y992879D01*
X1476294Y993029D01*
X1476519Y993229D01*
X1476744Y993454D01*
X1476969Y993704D01*
X1477169Y994004D01*
X1477194Y994054D01*
X1477269Y994154D01*
X1477344Y994354D01*
X1477469Y994604D01*
X1477619Y994929D01*
X1477769Y995304D01*
X1477919Y995753D01*
X1478044Y996253D01*
Y996278D01*
X1478069Y996328D01*
Y996403D01*
X1478094Y996503D01*
X1478119Y996628D01*
X1478144Y996778D01*
X1478219Y997153D01*
X1478294Y997578D01*
X1478344Y998078D01*
X1478369Y998603D01*
X1478394Y999153D01*
Y999178D01*
Y999278D01*
Y999428D01*
Y999628D01*
X1478369Y999577D01*
X1478269Y999453D01*
X1478094Y999228D01*
X1477869Y998978D01*
X1477594Y998678D01*
X1477269Y998378D01*
X1476869Y998078D01*
X1476444Y997803D01*
X1476419D01*
X1476394Y997778D01*
X1476319Y997728D01*
X1476219Y997703D01*
X1475994Y997578D01*
X1475644Y997453D01*
X1475269Y997328D01*
X1474820Y997203D01*
X1474320Y997128D01*
X1473795Y997103D01*
X1473570D01*
X1473395Y997128D01*
X1473195Y997153D01*
X1472945Y997203D01*
X1472695Y997253D01*
X1472395Y997328D01*
X1472095Y997403D01*
X1471770Y997528D01*
X1471445Y997653D01*
X1471095Y997828D01*
X1470746Y998028D01*
X1470421Y998253D01*
X1470096Y998528D01*
X1469771Y998828D01*
X1469746Y998853D01*
X1469696Y998903D01*
X1469621Y999003D01*
X1469521Y999153D01*
X1469396Y999303D01*
X1469246Y999528D01*
X1469096Y999778D01*
X1468946Y1000052D01*
X1468796Y1000352D01*
X1468646Y1000702D01*
X1468496Y1001077D01*
X1468371Y1001477D01*
X1468271Y1001902D01*
X1468196Y1002377D01*
X1468146Y1002852D01*
X1468121Y1003377D01*
Y1003401D01*
Y1003502D01*
Y1003652D01*
X1468146Y1003851D01*
X1468171Y1004101D01*
X1468221Y1004401D01*
X1468271Y1004726D01*
X1468346Y1005051D01*
X1468546Y1005801D01*
X1468671Y1006201D01*
X1468846Y1006601D01*
X1469046Y1006976D01*
X1469271Y1007375D01*
X1469521Y1007725D01*
X1469821Y1008075D01*
X1469846Y1008100D01*
X1469896Y1008150D01*
X1469996Y1008250D01*
X1470121Y1008350D01*
X1470296Y1008500D01*
X1470496Y1008650D01*
X1470746Y1008800D01*
X1471021Y1008975D01*
X1471295Y1009150D01*
X1471645Y1009300D01*
X1471995Y1009450D01*
X1472370Y1009600D01*
X1472770Y1009700D01*
X1473220Y1009800D01*
X1473670Y1009850D01*
X1474145Y1009875D01*
X1474320D01*
X1474470Y1009850D01*
D02*
G37*
G36*
X1462073Y990580D02*
X1459723D01*
Y1005601D01*
X1459673Y1005576D01*
X1459574Y1005476D01*
X1459373Y1005301D01*
X1459124Y1005101D01*
X1458799Y1004851D01*
X1458399Y1004576D01*
X1457974Y1004276D01*
X1457474Y1003976D01*
X1457449D01*
X1457424Y1003951D01*
X1457349Y1003901D01*
X1457249Y1003851D01*
X1456974Y1003701D01*
X1456649Y1003527D01*
X1456274Y1003327D01*
X1455849Y1003127D01*
X1455424Y1002927D01*
X1455000Y1002752D01*
Y1005051D01*
X1455025D01*
X1455100Y1005101D01*
X1455200Y1005151D01*
X1455325Y1005226D01*
X1455500Y1005301D01*
X1455699Y1005426D01*
X1456174Y1005676D01*
X1456699Y1006001D01*
X1457299Y1006401D01*
X1457874Y1006826D01*
X1458449Y1007301D01*
X1458474Y1007326D01*
X1458524Y1007350D01*
X1458599Y1007426D01*
X1458699Y1007525D01*
X1458949Y1007775D01*
X1459274Y1008125D01*
X1459599Y1008500D01*
X1459948Y1008950D01*
X1460273Y1009400D01*
X1460548Y1009875D01*
X1462073D01*
Y990580D01*
D02*
G37*
G36*
X1430131Y1009850D02*
X1430381Y1009825D01*
X1430656Y1009800D01*
X1430956Y1009750D01*
X1431281Y1009675D01*
X1431980Y1009500D01*
X1432330Y1009375D01*
X1432705Y1009225D01*
X1433080Y1009050D01*
X1433430Y1008825D01*
X1433755Y1008600D01*
X1434080Y1008325D01*
X1434105Y1008300D01*
X1434155Y1008250D01*
X1434230Y1008175D01*
X1434330Y1008050D01*
X1434455Y1007900D01*
X1434605Y1007725D01*
X1434730Y1007525D01*
X1434905Y1007276D01*
X1435055Y1007026D01*
X1435180Y1006726D01*
X1435455Y1006076D01*
X1435555Y1005726D01*
X1435630Y1005351D01*
X1435680Y1004951D01*
X1435705Y1004526D01*
Y1004476D01*
Y1004326D01*
X1435680Y1004101D01*
X1435655Y1003801D01*
X1435580Y1003476D01*
X1435505Y1003077D01*
X1435380Y1002677D01*
X1435230Y1002252D01*
X1435205Y1002202D01*
X1435130Y1002052D01*
X1435030Y1001827D01*
X1434855Y1001552D01*
X1434630Y1001202D01*
X1434355Y1000802D01*
X1434030Y1000352D01*
X1433655Y999902D01*
Y999877D01*
X1433605Y999853D01*
X1433530Y999778D01*
X1433455Y999678D01*
X1433330Y999553D01*
X1433180Y999403D01*
X1433005Y999228D01*
X1432780Y999028D01*
X1432555Y998803D01*
X1432280Y998553D01*
X1431980Y998253D01*
X1431656Y997953D01*
X1431281Y997628D01*
X1430906Y997303D01*
X1430456Y996928D01*
X1430006Y996528D01*
X1429981Y996503D01*
X1429906Y996453D01*
X1429806Y996353D01*
X1429656Y996253D01*
X1429506Y996103D01*
X1429306Y995928D01*
X1428881Y995554D01*
X1428407Y995154D01*
X1427957Y994754D01*
X1427757Y994579D01*
X1427582Y994404D01*
X1427407Y994229D01*
X1427282Y994104D01*
X1427257Y994079D01*
X1427182Y994004D01*
X1427082Y993879D01*
X1426932Y993704D01*
X1426782Y993529D01*
X1426607Y993304D01*
X1426282Y992854D01*
X1435730D01*
Y990580D01*
X1423008D01*
Y990630D01*
Y990730D01*
Y990880D01*
X1423033Y991105D01*
X1423058Y991355D01*
X1423108Y991630D01*
X1423183Y991905D01*
X1423283Y992204D01*
Y992229D01*
X1423308Y992254D01*
X1423333Y992329D01*
X1423383Y992429D01*
X1423483Y992679D01*
X1423658Y993004D01*
X1423883Y993404D01*
X1424133Y993829D01*
X1424458Y994279D01*
X1424832Y994754D01*
X1424857Y994779D01*
X1424882Y994804D01*
X1424957Y994879D01*
X1425032Y994979D01*
X1425282Y995254D01*
X1425632Y995603D01*
X1426057Y996028D01*
X1426582Y996528D01*
X1427207Y997078D01*
X1427932Y997678D01*
X1427957Y997703D01*
X1428057Y997803D01*
X1428232Y997928D01*
X1428432Y998103D01*
X1428681Y998328D01*
X1428981Y998578D01*
X1429306Y998853D01*
X1429631Y999153D01*
X1430331Y999802D01*
X1431031Y1000477D01*
X1431356Y1000827D01*
X1431656Y1001152D01*
X1431931Y1001452D01*
X1432155Y1001752D01*
X1432180Y1001777D01*
X1432206Y1001827D01*
X1432256Y1001902D01*
X1432330Y1002002D01*
X1432405Y1002152D01*
X1432505Y1002302D01*
X1432730Y1002677D01*
X1432930Y1003102D01*
X1433105Y1003577D01*
X1433230Y1004101D01*
X1433280Y1004351D01*
Y1004601D01*
Y1004626D01*
Y1004676D01*
Y1004726D01*
X1433255Y1004826D01*
X1433230Y1005101D01*
X1433155Y1005426D01*
X1433030Y1005801D01*
X1432855Y1006176D01*
X1432605Y1006576D01*
X1432256Y1006951D01*
X1432206Y1007001D01*
X1432081Y1007101D01*
X1431856Y1007251D01*
X1431556Y1007450D01*
X1431181Y1007626D01*
X1430731Y1007775D01*
X1430206Y1007875D01*
X1429631Y1007925D01*
X1429456D01*
X1429356Y1007900D01*
X1429206D01*
X1429031Y1007875D01*
X1428656Y1007800D01*
X1428232Y1007675D01*
X1427757Y1007501D01*
X1427307Y1007251D01*
X1426907Y1006901D01*
X1426857Y1006851D01*
X1426757Y1006726D01*
X1426582Y1006476D01*
X1426407Y1006176D01*
X1426207Y1005751D01*
X1426032Y1005276D01*
X1425932Y1004726D01*
X1425882Y1004076D01*
X1423458Y1004326D01*
Y1004351D01*
X1423483Y1004451D01*
Y1004576D01*
X1423508Y1004776D01*
X1423558Y1005001D01*
X1423608Y1005251D01*
X1423683Y1005551D01*
X1423783Y1005851D01*
X1424008Y1006526D01*
X1424158Y1006876D01*
X1424332Y1007201D01*
X1424532Y1007551D01*
X1424757Y1007875D01*
X1425007Y1008175D01*
X1425307Y1008450D01*
X1425332Y1008475D01*
X1425382Y1008500D01*
X1425482Y1008575D01*
X1425607Y1008675D01*
X1425782Y1008775D01*
X1425982Y1008900D01*
X1426207Y1009025D01*
X1426482Y1009175D01*
X1426782Y1009300D01*
X1427107Y1009425D01*
X1427457Y1009550D01*
X1427857Y1009650D01*
X1428257Y1009750D01*
X1428706Y1009825D01*
X1429181Y1009850D01*
X1429681Y1009875D01*
X1429956D01*
X1430131Y1009850D01*
D02*
G37*
G36*
X1419934Y990580D02*
X1417234D01*
Y993279D01*
X1419934D01*
Y990580D01*
D02*
G37*
G36*
X1382643D02*
X1379944D01*
Y993279D01*
X1382643D01*
Y990580D01*
D02*
G37*
G36*
X1376270Y1007700D02*
X1376245Y1007675D01*
X1376195Y1007600D01*
X1376095Y1007501D01*
X1375945Y1007350D01*
X1375795Y1007151D01*
X1375595Y1006901D01*
X1375370Y1006626D01*
X1375120Y1006326D01*
X1374845Y1005976D01*
X1374570Y1005576D01*
X1374270Y1005151D01*
X1373945Y1004676D01*
X1373620Y1004201D01*
X1373296Y1003652D01*
X1372971Y1003102D01*
X1372621Y1002502D01*
X1372596Y1002477D01*
X1372546Y1002352D01*
X1372446Y1002177D01*
X1372321Y1001952D01*
X1372171Y1001652D01*
X1372021Y1001302D01*
X1371821Y1000902D01*
X1371621Y1000452D01*
X1371396Y999977D01*
X1371171Y999453D01*
X1370946Y998903D01*
X1370721Y998328D01*
X1370271Y997128D01*
X1369872Y995854D01*
Y995828D01*
X1369846Y995753D01*
X1369796Y995603D01*
X1369747Y995429D01*
X1369697Y995204D01*
X1369621Y994929D01*
X1369572Y994629D01*
X1369496Y994279D01*
X1369422Y993904D01*
X1369322Y993504D01*
X1369247Y993054D01*
X1369197Y992604D01*
X1369072Y991630D01*
X1368972Y990580D01*
X1366547D01*
Y990605D01*
Y990680D01*
Y990805D01*
X1366572Y990980D01*
Y991205D01*
X1366597Y991455D01*
X1366622Y991755D01*
X1366672Y992104D01*
X1366722Y992479D01*
X1366772Y992904D01*
X1366847Y993354D01*
X1366922Y993829D01*
X1367022Y994329D01*
X1367147Y994879D01*
X1367272Y995429D01*
X1367422Y996028D01*
Y996078D01*
X1367472Y996178D01*
X1367522Y996353D01*
X1367572Y996578D01*
X1367672Y996878D01*
X1367772Y997203D01*
X1367897Y997578D01*
X1368047Y998003D01*
X1368197Y998478D01*
X1368397Y998953D01*
X1368797Y1000002D01*
X1369297Y1001102D01*
X1369846Y1002227D01*
X1369872Y1002252D01*
X1369921Y1002352D01*
X1369996Y1002527D01*
X1370121Y1002727D01*
X1370271Y1002977D01*
X1370446Y1003277D01*
X1370646Y1003626D01*
X1370871Y1003976D01*
X1371371Y1004776D01*
X1371946Y1005626D01*
X1372596Y1006476D01*
X1373246Y1007276D01*
X1363848D01*
Y1009550D01*
X1376270D01*
Y1007700D01*
D02*
G37*
G36*
X1355550Y1009850D02*
X1355800Y1009825D01*
X1356075Y1009800D01*
X1356375Y1009750D01*
X1356700Y1009675D01*
X1357400Y1009500D01*
X1357750Y1009375D01*
X1358125Y1009225D01*
X1358499Y1009050D01*
X1358849Y1008825D01*
X1359174Y1008600D01*
X1359499Y1008325D01*
X1359524Y1008300D01*
X1359574Y1008250D01*
X1359649Y1008175D01*
X1359749Y1008050D01*
X1359874Y1007900D01*
X1360024Y1007725D01*
X1360149Y1007525D01*
X1360324Y1007276D01*
X1360474Y1007026D01*
X1360599Y1006726D01*
X1360874Y1006076D01*
X1360974Y1005726D01*
X1361049Y1005351D01*
X1361099Y1004951D01*
X1361124Y1004526D01*
Y1004476D01*
Y1004326D01*
X1361099Y1004101D01*
X1361074Y1003801D01*
X1360999Y1003476D01*
X1360924Y1003077D01*
X1360799Y1002677D01*
X1360649Y1002252D01*
X1360624Y1002202D01*
X1360549Y1002052D01*
X1360449Y1001827D01*
X1360274Y1001552D01*
X1360049Y1001202D01*
X1359774Y1000802D01*
X1359449Y1000352D01*
X1359074Y999902D01*
Y999877D01*
X1359024Y999853D01*
X1358949Y999778D01*
X1358874Y999678D01*
X1358749Y999553D01*
X1358599Y999403D01*
X1358424Y999228D01*
X1358199Y999028D01*
X1357975Y998803D01*
X1357700Y998553D01*
X1357400Y998253D01*
X1357075Y997953D01*
X1356700Y997628D01*
X1356325Y997303D01*
X1355875Y996928D01*
X1355425Y996528D01*
X1355400Y996503D01*
X1355325Y996453D01*
X1355225Y996353D01*
X1355075Y996253D01*
X1354925Y996103D01*
X1354725Y995928D01*
X1354300Y995554D01*
X1353826Y995154D01*
X1353376Y994754D01*
X1353176Y994579D01*
X1353001Y994404D01*
X1352826Y994229D01*
X1352701Y994104D01*
X1352676Y994079D01*
X1352601Y994004D01*
X1352501Y993879D01*
X1352351Y993704D01*
X1352201Y993529D01*
X1352026Y993304D01*
X1351701Y992854D01*
X1361149D01*
Y990580D01*
X1348427D01*
Y990630D01*
Y990730D01*
Y990880D01*
X1348452Y991105D01*
X1348477Y991355D01*
X1348527Y991630D01*
X1348602Y991905D01*
X1348702Y992204D01*
Y992229D01*
X1348727Y992254D01*
X1348752Y992329D01*
X1348802Y992429D01*
X1348902Y992679D01*
X1349077Y993004D01*
X1349302Y993404D01*
X1349552Y993829D01*
X1349877Y994279D01*
X1350251Y994754D01*
X1350276Y994779D01*
X1350302Y994804D01*
X1350376Y994879D01*
X1350451Y994979D01*
X1350701Y995254D01*
X1351051Y995603D01*
X1351476Y996028D01*
X1352001Y996528D01*
X1352626Y997078D01*
X1353351Y997678D01*
X1353376Y997703D01*
X1353476Y997803D01*
X1353651Y997928D01*
X1353851Y998103D01*
X1354100Y998328D01*
X1354400Y998578D01*
X1354725Y998853D01*
X1355050Y999153D01*
X1355750Y999802D01*
X1356450Y1000477D01*
X1356775Y1000827D01*
X1357075Y1001152D01*
X1357350Y1001452D01*
X1357575Y1001752D01*
X1357600Y1001777D01*
X1357625Y1001827D01*
X1357675Y1001902D01*
X1357750Y1002002D01*
X1357825Y1002152D01*
X1357924Y1002302D01*
X1358150Y1002677D01*
X1358349Y1003102D01*
X1358524Y1003577D01*
X1358649Y1004101D01*
X1358699Y1004351D01*
Y1004601D01*
Y1004626D01*
Y1004676D01*
Y1004726D01*
X1358674Y1004826D01*
X1358649Y1005101D01*
X1358574Y1005426D01*
X1358449Y1005801D01*
X1358274Y1006176D01*
X1358024Y1006576D01*
X1357675Y1006951D01*
X1357625Y1007001D01*
X1357500Y1007101D01*
X1357275Y1007251D01*
X1356975Y1007450D01*
X1356600Y1007626D01*
X1356150Y1007775D01*
X1355625Y1007875D01*
X1355050Y1007925D01*
X1354875D01*
X1354775Y1007900D01*
X1354625D01*
X1354450Y1007875D01*
X1354075Y1007800D01*
X1353651Y1007675D01*
X1353176Y1007501D01*
X1352726Y1007251D01*
X1352326Y1006901D01*
X1352276Y1006851D01*
X1352176Y1006726D01*
X1352001Y1006476D01*
X1351826Y1006176D01*
X1351626Y1005751D01*
X1351451Y1005276D01*
X1351351Y1004726D01*
X1351301Y1004076D01*
X1348877Y1004326D01*
Y1004351D01*
X1348902Y1004451D01*
Y1004576D01*
X1348927Y1004776D01*
X1348977Y1005001D01*
X1349027Y1005251D01*
X1349102Y1005551D01*
X1349202Y1005851D01*
X1349427Y1006526D01*
X1349577Y1006876D01*
X1349752Y1007201D01*
X1349952Y1007551D01*
X1350177Y1007875D01*
X1350426Y1008175D01*
X1350726Y1008450D01*
X1350751Y1008475D01*
X1350801Y1008500D01*
X1350901Y1008575D01*
X1351026Y1008675D01*
X1351201Y1008775D01*
X1351401Y1008900D01*
X1351626Y1009025D01*
X1351901Y1009175D01*
X1352201Y1009300D01*
X1352526Y1009425D01*
X1352876Y1009550D01*
X1353276Y1009650D01*
X1353676Y1009750D01*
X1354126Y1009825D01*
X1354600Y1009850D01*
X1355100Y1009875D01*
X1355375D01*
X1355550Y1009850D01*
D02*
G37*
G36*
X1312775Y1009775D02*
X1313000D01*
X1313500Y1009725D01*
X1314050Y1009650D01*
X1314649Y1009550D01*
X1315224Y1009400D01*
X1315749Y1009200D01*
X1315774D01*
X1315799Y1009175D01*
X1315874Y1009150D01*
X1315974Y1009100D01*
X1316199Y1008950D01*
X1316499Y1008750D01*
X1316849Y1008500D01*
X1317174Y1008200D01*
X1317524Y1007825D01*
X1317824Y1007401D01*
Y1007375D01*
X1317849Y1007350D01*
X1317948Y1007201D01*
X1318073Y1006951D01*
X1318223Y1006626D01*
X1318348Y1006251D01*
X1318473Y1005826D01*
X1318573Y1005376D01*
X1318598Y1004876D01*
Y1004851D01*
Y1004826D01*
Y1004751D01*
Y1004676D01*
X1318573Y1004426D01*
X1318523Y1004126D01*
X1318423Y1003752D01*
X1318323Y1003352D01*
X1318148Y1002952D01*
X1317923Y1002527D01*
X1317899Y1002477D01*
X1317799Y1002352D01*
X1317649Y1002152D01*
X1317424Y1001902D01*
X1317124Y1001627D01*
X1316774Y1001352D01*
X1316374Y1001052D01*
X1315899Y1000802D01*
X1315924D01*
X1315974Y1000777D01*
X1316074Y1000752D01*
X1316199Y1000702D01*
X1316324Y1000652D01*
X1316499Y1000577D01*
X1316899Y1000377D01*
X1317324Y1000127D01*
X1317774Y999827D01*
X1318199Y999453D01*
X1318573Y999028D01*
Y999003D01*
X1318623Y998978D01*
X1318673Y998903D01*
X1318723Y998803D01*
X1318873Y998553D01*
X1319048Y998203D01*
X1319223Y997778D01*
X1319373Y997278D01*
X1319473Y996728D01*
X1319523Y996128D01*
Y996103D01*
Y996078D01*
Y996003D01*
Y995903D01*
X1319498Y995654D01*
X1319448Y995304D01*
X1319373Y994929D01*
X1319273Y994504D01*
X1319148Y994079D01*
X1318948Y993629D01*
X1318923Y993579D01*
X1318848Y993429D01*
X1318723Y993229D01*
X1318548Y992979D01*
X1318348Y992679D01*
X1318098Y992379D01*
X1317824Y992104D01*
X1317524Y991830D01*
X1317499Y991805D01*
X1317374Y991730D01*
X1317199Y991605D01*
X1316949Y991480D01*
X1316649Y991330D01*
X1316299Y991155D01*
X1315874Y991005D01*
X1315424Y990880D01*
X1315374D01*
X1315299Y990855D01*
X1315199Y990830D01*
X1315074Y990805D01*
X1314924Y990780D01*
X1314574Y990730D01*
X1314124Y990680D01*
X1313600Y990630D01*
X1313000Y990605D01*
X1312325Y990580D01*
X1305027D01*
Y1009800D01*
X1312600D01*
X1312775Y1009775D01*
D02*
G37*
G36*
X1303052Y990580D02*
X1300178D01*
X1297954Y996403D01*
X1289906D01*
X1287806Y990580D01*
X1285132D01*
X1292455Y1009800D01*
X1295229D01*
X1303052Y990580D01*
D02*
G37*
G36*
X1270661Y1004776D02*
X1270911Y1004751D01*
X1271186Y1004701D01*
X1271510Y1004651D01*
X1271860Y1004576D01*
X1272210Y1004476D01*
X1272585Y1004326D01*
X1272985Y1004176D01*
X1273385Y1004001D01*
X1273785Y1003776D01*
X1274160Y1003527D01*
X1274535Y1003227D01*
X1274884Y1002902D01*
X1274910Y1002877D01*
X1274959Y1002827D01*
X1275060Y1002702D01*
X1275160Y1002552D01*
X1275309Y1002377D01*
X1275459Y1002127D01*
X1275634Y1001852D01*
X1275809Y1001552D01*
X1275959Y1001202D01*
X1276134Y1000827D01*
X1276284Y1000402D01*
X1276434Y999927D01*
X1276534Y999428D01*
X1276634Y998903D01*
X1276684Y998328D01*
X1276709Y997728D01*
Y997703D01*
Y997603D01*
Y997478D01*
Y997278D01*
X1276684Y997053D01*
X1276659Y996803D01*
X1276634Y996503D01*
X1276609Y996203D01*
X1276509Y995529D01*
X1276359Y994829D01*
X1276159Y994129D01*
X1276034Y993804D01*
X1275884Y993504D01*
Y993479D01*
X1275859Y993429D01*
X1275809Y993354D01*
X1275734Y993254D01*
X1275559Y992979D01*
X1275284Y992629D01*
X1274959Y992254D01*
X1274560Y991854D01*
X1274085Y991480D01*
X1273535Y991130D01*
X1273510D01*
X1273460Y991105D01*
X1273385Y991055D01*
X1273260Y991005D01*
X1273135Y990930D01*
X1272960Y990855D01*
X1272535Y990705D01*
X1272060Y990555D01*
X1271485Y990405D01*
X1270861Y990305D01*
X1270186Y990280D01*
X1270061D01*
X1269911Y990305D01*
X1269711D01*
X1269461Y990330D01*
X1269186Y990380D01*
X1268861Y990430D01*
X1268511Y990505D01*
X1268136Y990605D01*
X1267761Y990730D01*
X1267386Y990880D01*
X1266987Y991055D01*
X1266587Y991280D01*
X1266212Y991530D01*
X1265837Y991805D01*
X1265487Y992129D01*
X1265462Y992154D01*
X1265412Y992229D01*
X1265312Y992329D01*
X1265212Y992479D01*
X1265062Y992679D01*
X1264912Y992904D01*
X1264762Y993179D01*
X1264587Y993504D01*
X1264412Y993879D01*
X1264262Y994279D01*
X1264112Y994704D01*
X1263962Y995204D01*
X1263862Y995729D01*
X1263762Y996278D01*
X1263712Y996878D01*
X1263687Y997528D01*
Y997578D01*
Y997703D01*
X1263712Y997903D01*
Y998153D01*
X1263762Y998478D01*
X1263812Y998853D01*
X1263862Y999253D01*
X1263962Y999678D01*
X1264062Y1000152D01*
X1264212Y1000627D01*
X1264387Y1001102D01*
X1264587Y1001577D01*
X1264837Y1002027D01*
X1265112Y1002477D01*
X1265437Y1002877D01*
X1265812Y1003252D01*
X1265837Y1003277D01*
X1265887Y1003327D01*
X1265987Y1003401D01*
X1266137Y1003502D01*
X1266312Y1003602D01*
X1266512Y1003752D01*
X1266762Y1003876D01*
X1267037Y1004026D01*
X1267337Y1004176D01*
X1267661Y1004301D01*
X1268036Y1004451D01*
X1268411Y1004551D01*
X1268836Y1004651D01*
X1269261Y1004726D01*
X1269711Y1004776D01*
X1270186Y1004801D01*
X1270461D01*
X1270661Y1004776D01*
D02*
G37*
G36*
X1444927Y1009850D02*
X1445077D01*
X1445452Y1009800D01*
X1445877Y1009725D01*
X1446327Y1009600D01*
X1446802Y1009450D01*
X1447252Y1009250D01*
X1447277D01*
X1447302Y1009225D01*
X1447452Y1009125D01*
X1447652Y1009000D01*
X1447926Y1008800D01*
X1448226Y1008525D01*
X1448551Y1008225D01*
X1448876Y1007875D01*
X1449176Y1007450D01*
Y1007426D01*
X1449201Y1007401D01*
X1449251Y1007326D01*
X1449301Y1007251D01*
X1449426Y1007001D01*
X1449601Y1006651D01*
X1449801Y1006226D01*
X1450001Y1005751D01*
X1450176Y1005176D01*
X1450351Y1004576D01*
Y1004551D01*
X1450376Y1004501D01*
X1450401Y1004401D01*
X1450426Y1004276D01*
X1450451Y1004101D01*
X1450501Y1003901D01*
X1450526Y1003652D01*
X1450576Y1003377D01*
X1450626Y1003077D01*
X1450651Y1002727D01*
X1450701Y1002377D01*
X1450726Y1001952D01*
X1450751Y1001527D01*
X1450776Y1001077D01*
X1450801Y1000577D01*
Y1000052D01*
Y1000002D01*
Y999902D01*
Y999727D01*
Y999478D01*
X1450776Y999203D01*
Y998878D01*
X1450751Y998503D01*
X1450726Y998103D01*
X1450626Y997228D01*
X1450501Y996303D01*
X1450326Y995404D01*
X1450226Y994979D01*
X1450101Y994579D01*
Y994554D01*
X1450076Y994479D01*
X1450026Y994379D01*
X1449976Y994229D01*
X1449901Y994054D01*
X1449801Y993854D01*
X1449576Y993404D01*
X1449276Y992879D01*
X1448926Y992354D01*
X1448501Y991830D01*
X1448001Y991380D01*
X1447977D01*
X1447952Y991330D01*
X1447852Y991280D01*
X1447751Y991205D01*
X1447626Y991130D01*
X1447452Y991030D01*
X1447277Y990930D01*
X1447052Y990830D01*
X1446552Y990605D01*
X1445952Y990430D01*
X1445277Y990305D01*
X1444902Y990280D01*
X1444527Y990255D01*
X1444402D01*
X1444252Y990280D01*
X1444077D01*
X1443828Y990305D01*
X1443578Y990355D01*
X1443278Y990430D01*
X1442953Y990505D01*
X1442603Y990605D01*
X1442253Y990730D01*
X1441878Y990905D01*
X1441503Y991080D01*
X1441153Y991305D01*
X1440803Y991580D01*
X1440478Y991880D01*
X1440154Y992229D01*
X1440128Y992254D01*
X1440078Y992354D01*
X1439978Y992479D01*
X1439854Y992679D01*
X1439729Y992954D01*
X1439554Y993279D01*
X1439404Y993654D01*
X1439229Y994104D01*
X1439054Y994629D01*
X1438879Y995204D01*
X1438704Y995828D01*
X1438579Y996553D01*
X1438454Y997328D01*
X1438354Y998153D01*
X1438304Y999078D01*
X1438279Y1000052D01*
Y1000102D01*
Y1000202D01*
Y1000377D01*
Y1000627D01*
X1438304Y1000902D01*
X1438329Y1001227D01*
Y1001602D01*
X1438379Y1002002D01*
X1438454Y1002877D01*
X1438579Y1003801D01*
X1438754Y1004701D01*
X1438854Y1005126D01*
X1438979Y1005526D01*
Y1005551D01*
X1439004Y1005626D01*
X1439054Y1005726D01*
X1439104Y1005876D01*
X1439179Y1006051D01*
X1439279Y1006251D01*
X1439504Y1006726D01*
X1439803Y1007226D01*
X1440154Y1007775D01*
X1440578Y1008300D01*
X1441053Y1008750D01*
X1441078Y1008775D01*
X1441128Y1008800D01*
X1441203Y1008850D01*
X1441303Y1008925D01*
X1441428Y1009000D01*
X1441603Y1009100D01*
X1441778Y1009200D01*
X1442003Y1009325D01*
X1442503Y1009525D01*
X1443103Y1009700D01*
X1443777Y1009825D01*
X1444152Y1009875D01*
X1444777D01*
X1444927Y1009850D01*
D02*
G37*
G36*
X1407662D02*
X1407862Y1009825D01*
X1408112Y1009800D01*
X1408387Y1009750D01*
X1408687Y1009700D01*
X1409336Y1009525D01*
X1409661Y1009400D01*
X1410011Y1009250D01*
X1410336Y1009075D01*
X1410686Y1008900D01*
X1410986Y1008650D01*
X1411286Y1008400D01*
X1411311Y1008375D01*
X1411361Y1008325D01*
X1411436Y1008250D01*
X1411536Y1008150D01*
X1411636Y1008000D01*
X1411786Y1007825D01*
X1411911Y1007626D01*
X1412061Y1007426D01*
X1412336Y1006901D01*
X1412585Y1006301D01*
X1412686Y1005951D01*
X1412760Y1005601D01*
X1412811Y1005226D01*
X1412836Y1004851D01*
Y1004826D01*
Y1004801D01*
Y1004726D01*
Y1004626D01*
X1412811Y1004376D01*
X1412735Y1004051D01*
X1412661Y1003677D01*
X1412536Y1003302D01*
X1412361Y1002902D01*
X1412111Y1002502D01*
X1412086Y1002452D01*
X1411986Y1002352D01*
X1411811Y1002177D01*
X1411586Y1001952D01*
X1411286Y1001702D01*
X1410911Y1001452D01*
X1410486Y1001202D01*
X1409986Y1000977D01*
X1410011D01*
X1410061Y1000952D01*
X1410161Y1000927D01*
X1410286Y1000877D01*
X1410436Y1000802D01*
X1410586Y1000727D01*
X1410986Y1000527D01*
X1411436Y1000277D01*
X1411886Y999952D01*
X1412311Y999577D01*
X1412686Y999128D01*
Y999103D01*
X1412735Y999078D01*
X1412760Y999003D01*
X1412836Y998903D01*
X1412910Y998778D01*
X1412985Y998628D01*
X1413160Y998278D01*
X1413310Y997828D01*
X1413460Y997303D01*
X1413560Y996703D01*
X1413610Y996053D01*
Y996028D01*
Y995954D01*
Y995828D01*
X1413585Y995654D01*
X1413560Y995429D01*
X1413510Y995179D01*
X1413460Y994929D01*
X1413385Y994629D01*
X1413310Y994304D01*
X1413185Y993979D01*
X1413035Y993629D01*
X1412885Y993279D01*
X1412661Y992929D01*
X1412436Y992579D01*
X1412161Y992254D01*
X1411861Y991929D01*
X1411836Y991905D01*
X1411786Y991854D01*
X1411686Y991779D01*
X1411536Y991680D01*
X1411361Y991530D01*
X1411161Y991405D01*
X1410911Y991255D01*
X1410636Y991105D01*
X1410311Y990930D01*
X1409986Y990780D01*
X1409611Y990655D01*
X1409186Y990530D01*
X1408761Y990405D01*
X1408287Y990330D01*
X1407812Y990280D01*
X1407287Y990255D01*
X1407012D01*
X1406812Y990280D01*
X1406562Y990305D01*
X1406287Y990355D01*
X1405987Y990405D01*
X1405637Y990455D01*
X1404913Y990655D01*
X1404538Y990805D01*
X1404138Y990955D01*
X1403763Y991155D01*
X1403388Y991380D01*
X1403038Y991630D01*
X1402688Y991929D01*
X1402663Y991954D01*
X1402613Y992004D01*
X1402538Y992104D01*
X1402413Y992229D01*
X1402288Y992404D01*
X1402138Y992604D01*
X1401988Y992829D01*
X1401838Y993079D01*
X1401663Y993379D01*
X1401513Y993679D01*
X1401363Y994029D01*
X1401238Y994404D01*
X1401113Y994804D01*
X1401039Y995229D01*
X1400988Y995678D01*
X1400963Y996128D01*
Y996153D01*
Y996203D01*
Y996303D01*
X1400988Y996453D01*
Y996603D01*
X1401013Y996778D01*
X1401089Y997228D01*
X1401188Y997728D01*
X1401363Y998228D01*
X1401588Y998753D01*
X1401913Y999253D01*
Y999278D01*
X1401963Y999303D01*
X1402088Y999453D01*
X1402313Y999678D01*
X1402613Y999952D01*
X1402988Y1000227D01*
X1403463Y1000527D01*
X1403988Y1000777D01*
X1404613Y1000977D01*
X1404588D01*
X1404538Y1001002D01*
X1404463Y1001027D01*
X1404363Y1001077D01*
X1404113Y1001202D01*
X1403788Y1001377D01*
X1403438Y1001602D01*
X1403063Y1001852D01*
X1402738Y1002177D01*
X1402438Y1002527D01*
X1402413Y1002577D01*
X1402338Y1002702D01*
X1402213Y1002927D01*
X1402088Y1003202D01*
X1401963Y1003551D01*
X1401838Y1003951D01*
X1401763Y1004401D01*
X1401738Y1004901D01*
Y1004926D01*
Y1005001D01*
Y1005101D01*
X1401763Y1005251D01*
X1401788Y1005426D01*
X1401813Y1005651D01*
X1401938Y1006126D01*
X1402113Y1006676D01*
X1402238Y1006976D01*
X1402363Y1007276D01*
X1402538Y1007576D01*
X1402738Y1007875D01*
X1402963Y1008150D01*
X1403238Y1008425D01*
X1403263Y1008450D01*
X1403313Y1008500D01*
X1403388Y1008550D01*
X1403513Y1008650D01*
X1403663Y1008750D01*
X1403838Y1008875D01*
X1404063Y1009025D01*
X1404313Y1009150D01*
X1404563Y1009275D01*
X1404863Y1009425D01*
X1405212Y1009550D01*
X1405562Y1009650D01*
X1405937Y1009750D01*
X1406337Y1009825D01*
X1406787Y1009850D01*
X1407237Y1009875D01*
X1407487D01*
X1407662Y1009850D01*
D02*
G37*
G36*
X1392716D02*
X1392866D01*
X1393241Y1009800D01*
X1393665Y1009725D01*
X1394115Y1009600D01*
X1394590Y1009450D01*
X1395040Y1009250D01*
X1395065D01*
X1395090Y1009225D01*
X1395240Y1009125D01*
X1395440Y1009000D01*
X1395715Y1008800D01*
X1396015Y1008525D01*
X1396340Y1008225D01*
X1396665Y1007875D01*
X1396965Y1007450D01*
Y1007426D01*
X1396989Y1007401D01*
X1397039Y1007326D01*
X1397090Y1007251D01*
X1397215Y1007001D01*
X1397389Y1006651D01*
X1397589Y1006226D01*
X1397789Y1005751D01*
X1397964Y1005176D01*
X1398139Y1004576D01*
Y1004551D01*
X1398164Y1004501D01*
X1398189Y1004401D01*
X1398214Y1004276D01*
X1398239Y1004101D01*
X1398289Y1003901D01*
X1398314Y1003652D01*
X1398364Y1003377D01*
X1398414Y1003077D01*
X1398439Y1002727D01*
X1398489Y1002377D01*
X1398514Y1001952D01*
X1398539Y1001527D01*
X1398564Y1001077D01*
X1398589Y1000577D01*
Y1000052D01*
Y1000002D01*
Y999902D01*
Y999727D01*
Y999478D01*
X1398564Y999203D01*
Y998878D01*
X1398539Y998503D01*
X1398514Y998103D01*
X1398414Y997228D01*
X1398289Y996303D01*
X1398114Y995404D01*
X1398014Y994979D01*
X1397889Y994579D01*
Y994554D01*
X1397864Y994479D01*
X1397814Y994379D01*
X1397764Y994229D01*
X1397689Y994054D01*
X1397589Y993854D01*
X1397364Y993404D01*
X1397065Y992879D01*
X1396715Y992354D01*
X1396290Y991830D01*
X1395790Y991380D01*
X1395765D01*
X1395740Y991330D01*
X1395640Y991280D01*
X1395540Y991205D01*
X1395415Y991130D01*
X1395240Y991030D01*
X1395065Y990930D01*
X1394840Y990830D01*
X1394340Y990605D01*
X1393740Y990430D01*
X1393065Y990305D01*
X1392691Y990280D01*
X1392316Y990255D01*
X1392191D01*
X1392041Y990280D01*
X1391866D01*
X1391616Y990305D01*
X1391366Y990355D01*
X1391066Y990430D01*
X1390741Y990505D01*
X1390391Y990605D01*
X1390041Y990730D01*
X1389666Y990905D01*
X1389292Y991080D01*
X1388942Y991305D01*
X1388592Y991580D01*
X1388267Y991880D01*
X1387942Y992229D01*
X1387917Y992254D01*
X1387867Y992354D01*
X1387767Y992479D01*
X1387642Y992679D01*
X1387517Y992954D01*
X1387342Y993279D01*
X1387192Y993654D01*
X1387017Y994104D01*
X1386842Y994629D01*
X1386667Y995204D01*
X1386492Y995828D01*
X1386367Y996553D01*
X1386242Y997328D01*
X1386142Y998153D01*
X1386092Y999078D01*
X1386067Y1000052D01*
Y1000102D01*
Y1000202D01*
Y1000377D01*
Y1000627D01*
X1386092Y1000902D01*
X1386117Y1001227D01*
Y1001602D01*
X1386167Y1002002D01*
X1386242Y1002877D01*
X1386367Y1003801D01*
X1386542Y1004701D01*
X1386642Y1005126D01*
X1386767Y1005526D01*
Y1005551D01*
X1386792Y1005626D01*
X1386842Y1005726D01*
X1386892Y1005876D01*
X1386967Y1006051D01*
X1387067Y1006251D01*
X1387292Y1006726D01*
X1387592Y1007226D01*
X1387942Y1007775D01*
X1388367Y1008300D01*
X1388842Y1008750D01*
X1388867Y1008775D01*
X1388917Y1008800D01*
X1388992Y1008850D01*
X1389091Y1008925D01*
X1389216Y1009000D01*
X1389391Y1009100D01*
X1389566Y1009200D01*
X1389791Y1009325D01*
X1390291Y1009525D01*
X1390891Y1009700D01*
X1391566Y1009825D01*
X1391941Y1009875D01*
X1392566D01*
X1392716Y1009850D01*
D02*
G37*
G36*
X1279608Y990255D02*
X1277709D01*
X1283282Y1010125D01*
X1285182D01*
X1279608Y990255D01*
D02*
G37*
G36*
X1306156Y977101D02*
X1303807D01*
Y979800D01*
X1306156D01*
Y977101D01*
D02*
G37*
G36*
X1274489Y974776D02*
X1274639D01*
X1274839Y974751D01*
X1275264Y974676D01*
X1275739Y974576D01*
X1276289Y974401D01*
X1276814Y974176D01*
X1277339Y973876D01*
X1277364D01*
X1277389Y973826D01*
X1277464Y973776D01*
X1277563Y973701D01*
X1277813Y973502D01*
X1278113Y973202D01*
X1278438Y972827D01*
X1278788Y972402D01*
X1279113Y971877D01*
X1279413Y971277D01*
Y971252D01*
X1279438Y971202D01*
X1279488Y971102D01*
X1279513Y970977D01*
X1279588Y970827D01*
X1279638Y970652D01*
X1279688Y970427D01*
X1279763Y970202D01*
X1279888Y969652D01*
X1280013Y969053D01*
X1280088Y968353D01*
X1280113Y967628D01*
Y967603D01*
Y967528D01*
Y967428D01*
Y967278D01*
X1280088Y967078D01*
X1280063Y966853D01*
X1280038Y966628D01*
X1280013Y966353D01*
X1279913Y965753D01*
X1279788Y965104D01*
X1279588Y964429D01*
X1279338Y963779D01*
Y963754D01*
X1279313Y963704D01*
X1279263Y963629D01*
X1279188Y963504D01*
X1279113Y963354D01*
X1279013Y963204D01*
X1278763Y962829D01*
X1278438Y962404D01*
X1278063Y961954D01*
X1277614Y961555D01*
X1277089Y961180D01*
X1277064D01*
X1277014Y961130D01*
X1276939Y961105D01*
X1276839Y961030D01*
X1276714Y960980D01*
X1276539Y960905D01*
X1276164Y960730D01*
X1275714Y960555D01*
X1275189Y960430D01*
X1274614Y960330D01*
X1274014Y960280D01*
X1273814D01*
X1273590Y960305D01*
X1273315Y960355D01*
X1272990Y960405D01*
X1272615Y960480D01*
X1272265Y960605D01*
X1271890Y960780D01*
X1271840Y960805D01*
X1271740Y960880D01*
X1271565Y960980D01*
X1271365Y961130D01*
X1271115Y961305D01*
X1270865Y961530D01*
X1270615Y961755D01*
X1270365Y962029D01*
Y955256D01*
X1268016D01*
Y974501D01*
X1270165D01*
Y972677D01*
X1270190Y972727D01*
X1270290Y972852D01*
X1270465Y973027D01*
X1270665Y973277D01*
X1270915Y973527D01*
X1271190Y973776D01*
X1271515Y974026D01*
X1271865Y974251D01*
X1271915Y974276D01*
X1272040Y974326D01*
X1272240Y974426D01*
X1272515Y974526D01*
X1272865Y974626D01*
X1273265Y974726D01*
X1273715Y974776D01*
X1274189Y974801D01*
X1274364D01*
X1274489Y974776D01*
D02*
G37*
G36*
X1337698Y960580D02*
X1335274D01*
X1333049Y968903D01*
X1332500Y971277D01*
X1329675Y960580D01*
X1327201D01*
X1322977Y974501D01*
X1325426D01*
X1327651Y966453D01*
X1328450Y963454D01*
Y963479D01*
X1328475Y963529D01*
X1328501Y963654D01*
X1328526Y963779D01*
X1328551Y963904D01*
X1328600Y964054D01*
X1328651Y964254D01*
X1328700Y964479D01*
X1328775Y964754D01*
X1328850Y965079D01*
X1328950Y965454D01*
X1329050Y965854D01*
X1329175Y966328D01*
X1331375Y974501D01*
X1333799D01*
X1335899Y966403D01*
X1336573Y963754D01*
X1337373Y966453D01*
X1339773Y974501D01*
X1342072D01*
X1337698Y960580D01*
D02*
G37*
G36*
X1296459D02*
X1294184D01*
X1288936Y974501D01*
X1291435D01*
X1294409Y966153D01*
Y966128D01*
X1294434Y966103D01*
X1294459Y966028D01*
X1294484Y965928D01*
X1294584Y965654D01*
X1294709Y965304D01*
X1294859Y964879D01*
X1295009Y964404D01*
X1295159Y963879D01*
X1295309Y963354D01*
Y963379D01*
X1295334Y963404D01*
X1295359Y963554D01*
X1295434Y963779D01*
X1295534Y964104D01*
X1295659Y964479D01*
X1295809Y964929D01*
X1295984Y965454D01*
X1296184Y966003D01*
X1299258Y974501D01*
X1301707D01*
X1296459Y960580D01*
D02*
G37*
G36*
X1306156D02*
X1303807D01*
Y974501D01*
X1306156D01*
Y960580D01*
D02*
G37*
G36*
X1248396Y974501D02*
X1250770D01*
Y972677D01*
X1248396D01*
Y964529D01*
Y964479D01*
Y964354D01*
Y964179D01*
X1248421Y963979D01*
Y963754D01*
X1248446Y963529D01*
X1248471Y963354D01*
X1248496Y963204D01*
X1248521Y963154D01*
X1248596Y963054D01*
X1248721Y962904D01*
X1248896Y962754D01*
X1248921D01*
X1248946Y962729D01*
X1249021Y962704D01*
X1249121Y962679D01*
X1249371Y962629D01*
X1249721Y962604D01*
X1249996D01*
X1250146Y962629D01*
X1250346D01*
X1250546Y962654D01*
X1250770Y962679D01*
X1251095Y960605D01*
X1251045D01*
X1250920Y960580D01*
X1250745Y960555D01*
X1250496Y960505D01*
X1250220Y960480D01*
X1249921Y960430D01*
X1249296Y960405D01*
X1249096D01*
X1248846Y960430D01*
X1248571Y960455D01*
X1248246Y960505D01*
X1247921Y960580D01*
X1247596Y960680D01*
X1247321Y960805D01*
X1247296Y960830D01*
X1247196Y960880D01*
X1247096Y960955D01*
X1246946Y961080D01*
X1246771Y961230D01*
X1246597Y961430D01*
X1246447Y961630D01*
X1246321Y961854D01*
Y961880D01*
X1246272Y962004D01*
X1246247Y962179D01*
X1246197Y962454D01*
X1246172Y962629D01*
X1246147Y962829D01*
X1246122Y963054D01*
X1246097Y963329D01*
X1246072Y963604D01*
Y963929D01*
X1246047Y964279D01*
Y964654D01*
Y972677D01*
X1244297D01*
Y974501D01*
X1246047D01*
Y977925D01*
X1248396Y979350D01*
Y974501D01*
D02*
G37*
G36*
X1315929Y974776D02*
X1316154Y974751D01*
X1316429Y974701D01*
X1316754Y974651D01*
X1317078Y974576D01*
X1317428Y974476D01*
X1317803Y974326D01*
X1318178Y974176D01*
X1318553Y974001D01*
X1318953Y973776D01*
X1319328Y973527D01*
X1319678Y973227D01*
X1320028Y972902D01*
X1320053Y972877D01*
X1320103Y972802D01*
X1320203Y972702D01*
X1320303Y972552D01*
X1320428Y972352D01*
X1320578Y972127D01*
X1320753Y971852D01*
X1320927Y971527D01*
X1321077Y971152D01*
X1321252Y970752D01*
X1321402Y970327D01*
X1321527Y969853D01*
X1321627Y969328D01*
X1321727Y968778D01*
X1321777Y968178D01*
X1321802Y967553D01*
Y967503D01*
Y967403D01*
Y967203D01*
X1321777Y966928D01*
X1311405D01*
Y966903D01*
Y966828D01*
X1311430Y966703D01*
X1311455Y966553D01*
X1311480Y966353D01*
X1311505Y966128D01*
X1311605Y965629D01*
X1311780Y965054D01*
X1312005Y964479D01*
X1312305Y963929D01*
X1312480Y963679D01*
X1312679Y963429D01*
X1312704Y963404D01*
X1312729Y963379D01*
X1312805Y963329D01*
X1312879Y963254D01*
X1313154Y963054D01*
X1313479Y962829D01*
X1313904Y962604D01*
X1314404Y962429D01*
X1314979Y962279D01*
X1315279Y962254D01*
X1315604Y962229D01*
X1315829D01*
X1316054Y962254D01*
X1316379Y962304D01*
X1316703Y962404D01*
X1317078Y962504D01*
X1317453Y962679D01*
X1317803Y962904D01*
X1317853Y962929D01*
X1317953Y963029D01*
X1318128Y963204D01*
X1318328Y963429D01*
X1318553Y963729D01*
X1318803Y964129D01*
X1319053Y964579D01*
X1319253Y965104D01*
X1321702Y964779D01*
Y964754D01*
X1321677Y964679D01*
X1321652Y964579D01*
X1321577Y964429D01*
X1321527Y964254D01*
X1321427Y964029D01*
X1321227Y963554D01*
X1320927Y963029D01*
X1320553Y962479D01*
X1320103Y961929D01*
X1319578Y961455D01*
X1319553D01*
X1319503Y961405D01*
X1319428Y961355D01*
X1319303Y961280D01*
X1319153Y961180D01*
X1318953Y961080D01*
X1318753Y960980D01*
X1318503Y960880D01*
X1318228Y960755D01*
X1317928Y960655D01*
X1317603Y960555D01*
X1317253Y960455D01*
X1316479Y960330D01*
X1316054Y960305D01*
X1315604Y960280D01*
X1315479D01*
X1315304Y960305D01*
X1315104D01*
X1314854Y960330D01*
X1314554Y960380D01*
X1314204Y960430D01*
X1313854Y960505D01*
X1313479Y960605D01*
X1313079Y960730D01*
X1312679Y960880D01*
X1312280Y961080D01*
X1311880Y961280D01*
X1311480Y961530D01*
X1311105Y961830D01*
X1310755Y962154D01*
X1310730Y962179D01*
X1310680Y962254D01*
X1310580Y962354D01*
X1310480Y962504D01*
X1310355Y962704D01*
X1310205Y962929D01*
X1310030Y963204D01*
X1309880Y963504D01*
X1309705Y963879D01*
X1309530Y964254D01*
X1309380Y964704D01*
X1309255Y965154D01*
X1309155Y965678D01*
X1309055Y966203D01*
X1309005Y966778D01*
X1308981Y967403D01*
Y967453D01*
Y967553D01*
X1309005Y967753D01*
Y967978D01*
X1309030Y968278D01*
X1309081Y968628D01*
X1309131Y969003D01*
X1309205Y969403D01*
X1309305Y969827D01*
X1309430Y970277D01*
X1309555Y970727D01*
X1309730Y971177D01*
X1309955Y971627D01*
X1310180Y972077D01*
X1310455Y972477D01*
X1310780Y972852D01*
X1310805Y972877D01*
X1310855Y972927D01*
X1310955Y973027D01*
X1311105Y973152D01*
X1311280Y973302D01*
X1311505Y973476D01*
X1311755Y973652D01*
X1312030Y973826D01*
X1312355Y974001D01*
X1312704Y974176D01*
X1313104Y974351D01*
X1313504Y974501D01*
X1313954Y974626D01*
X1314429Y974726D01*
X1314929Y974776D01*
X1315454Y974801D01*
X1315729D01*
X1315929Y974776D01*
D02*
G37*
G36*
X1259193D02*
X1259443Y974751D01*
X1259718Y974701D01*
X1260043Y974651D01*
X1260393Y974576D01*
X1260743Y974476D01*
X1261118Y974326D01*
X1261518Y974176D01*
X1261917Y974001D01*
X1262317Y973776D01*
X1262692Y973527D01*
X1263067Y973227D01*
X1263417Y972902D01*
X1263442Y972877D01*
X1263492Y972827D01*
X1263592Y972702D01*
X1263692Y972552D01*
X1263842Y972377D01*
X1263992Y972127D01*
X1264167Y971852D01*
X1264342Y971552D01*
X1264492Y971202D01*
X1264667Y970827D01*
X1264817Y970402D01*
X1264967Y969927D01*
X1265067Y969428D01*
X1265167Y968903D01*
X1265217Y968328D01*
X1265242Y967728D01*
Y967703D01*
Y967603D01*
Y967478D01*
Y967278D01*
X1265217Y967053D01*
X1265192Y966803D01*
X1265167Y966503D01*
X1265142Y966203D01*
X1265042Y965529D01*
X1264892Y964829D01*
X1264692Y964129D01*
X1264567Y963804D01*
X1264417Y963504D01*
Y963479D01*
X1264392Y963429D01*
X1264342Y963354D01*
X1264267Y963254D01*
X1264092Y962979D01*
X1263817Y962629D01*
X1263492Y962254D01*
X1263092Y961854D01*
X1262617Y961480D01*
X1262067Y961130D01*
X1262042D01*
X1261992Y961105D01*
X1261917Y961055D01*
X1261793Y961005D01*
X1261668Y960930D01*
X1261493Y960855D01*
X1261068Y960705D01*
X1260593Y960555D01*
X1260018Y960405D01*
X1259393Y960305D01*
X1258718Y960280D01*
X1258593D01*
X1258443Y960305D01*
X1258243D01*
X1257993Y960330D01*
X1257719Y960380D01*
X1257394Y960430D01*
X1257044Y960505D01*
X1256669Y960605D01*
X1256294Y960730D01*
X1255919Y960880D01*
X1255519Y961055D01*
X1255119Y961280D01*
X1254744Y961530D01*
X1254370Y961805D01*
X1254020Y962129D01*
X1253995Y962154D01*
X1253945Y962229D01*
X1253845Y962329D01*
X1253745Y962479D01*
X1253595Y962679D01*
X1253445Y962904D01*
X1253295Y963179D01*
X1253120Y963504D01*
X1252945Y963879D01*
X1252795Y964279D01*
X1252645Y964704D01*
X1252495Y965204D01*
X1252395Y965729D01*
X1252295Y966278D01*
X1252245Y966878D01*
X1252220Y967528D01*
Y967578D01*
Y967703D01*
X1252245Y967903D01*
Y968153D01*
X1252295Y968478D01*
X1252345Y968853D01*
X1252395Y969253D01*
X1252495Y969678D01*
X1252595Y970152D01*
X1252745Y970627D01*
X1252920Y971102D01*
X1253120Y971577D01*
X1253370Y972027D01*
X1253645Y972477D01*
X1253970Y972877D01*
X1254344Y973252D01*
X1254370Y973277D01*
X1254419Y973327D01*
X1254519Y973402D01*
X1254669Y973502D01*
X1254844Y973602D01*
X1255044Y973752D01*
X1255294Y973876D01*
X1255569Y974026D01*
X1255869Y974176D01*
X1256194Y974301D01*
X1256569Y974451D01*
X1256944Y974551D01*
X1257369Y974651D01*
X1257794Y974726D01*
X1258243Y974776D01*
X1258718Y974801D01*
X1258993D01*
X1259193Y974776D01*
D02*
G37*
%LPC*%
G36*
X1425167Y1686852D02*
X1425017D01*
X1424917Y1686827D01*
X1424617Y1686777D01*
X1424242Y1686702D01*
X1423842Y1686527D01*
X1423392Y1686302D01*
X1423167Y1686152D01*
X1422967Y1685977D01*
X1422742Y1685777D01*
X1422542Y1685552D01*
Y1685527D01*
X1422492Y1685502D01*
X1422442Y1685427D01*
X1422367Y1685302D01*
X1422292Y1685177D01*
X1422217Y1685002D01*
X1422117Y1684802D01*
X1422018Y1684577D01*
X1421918Y1684302D01*
X1421817Y1684002D01*
X1421743Y1683678D01*
X1421667Y1683328D01*
X1421593Y1682928D01*
X1421543Y1682503D01*
X1421518Y1682028D01*
X1421493Y1681528D01*
Y1681503D01*
Y1681403D01*
Y1681278D01*
X1421518Y1681078D01*
Y1680878D01*
X1421543Y1680603D01*
X1421593Y1680328D01*
X1421642Y1680029D01*
X1421767Y1679379D01*
X1421967Y1678704D01*
X1422242Y1678079D01*
X1422417Y1677804D01*
X1422617Y1677529D01*
X1422642Y1677504D01*
X1422667Y1677479D01*
X1422817Y1677329D01*
X1423067Y1677129D01*
X1423367Y1676879D01*
X1423767Y1676629D01*
X1424217Y1676429D01*
X1424742Y1676279D01*
X1425017Y1676254D01*
X1425292Y1676229D01*
X1425442D01*
X1425542Y1676254D01*
X1425842Y1676304D01*
X1426191Y1676379D01*
X1426616Y1676529D01*
X1427041Y1676754D01*
X1427266Y1676904D01*
X1427491Y1677079D01*
X1427716Y1677254D01*
X1427916Y1677479D01*
X1427941Y1677504D01*
X1427966Y1677529D01*
X1428016Y1677604D01*
X1428091Y1677704D01*
X1428166Y1677854D01*
X1428266Y1678004D01*
X1428366Y1678204D01*
X1428466Y1678429D01*
X1428566Y1678679D01*
X1428666Y1678979D01*
X1428766Y1679279D01*
X1428841Y1679629D01*
X1428916Y1680004D01*
X1428966Y1680428D01*
X1429016Y1680853D01*
Y1681328D01*
Y1681353D01*
Y1681453D01*
Y1681603D01*
X1428991Y1681803D01*
Y1682028D01*
X1428966Y1682303D01*
X1428916Y1682603D01*
X1428866Y1682928D01*
X1428741Y1683603D01*
X1428541Y1684302D01*
X1428266Y1684952D01*
X1428091Y1685227D01*
X1427891Y1685502D01*
Y1685527D01*
X1427841Y1685552D01*
X1427691Y1685702D01*
X1427466Y1685927D01*
X1427141Y1686177D01*
X1426741Y1686427D01*
X1426266Y1686652D01*
X1425741Y1686802D01*
X1425467Y1686827D01*
X1425167Y1686852D01*
D02*
G37*
G36*
X1528765Y1681553D02*
X1528740D01*
X1528715Y1681528D01*
X1528640Y1681503D01*
X1528515Y1681478D01*
X1528390Y1681428D01*
X1528215Y1681378D01*
X1528015Y1681303D01*
X1527790Y1681253D01*
X1527540Y1681178D01*
X1527265Y1681103D01*
X1526941Y1681028D01*
X1526591Y1680953D01*
X1526216Y1680878D01*
X1525816Y1680803D01*
X1525391Y1680728D01*
X1524916Y1680653D01*
X1524841D01*
X1524791Y1680628D01*
X1524691D01*
X1524416Y1680578D01*
X1524116Y1680528D01*
X1523791Y1680453D01*
X1523441Y1680378D01*
X1523117Y1680278D01*
X1522867Y1680178D01*
X1522842D01*
X1522767Y1680128D01*
X1522667Y1680078D01*
X1522517Y1680004D01*
X1522217Y1679754D01*
X1522067Y1679604D01*
X1521942Y1679429D01*
X1521917Y1679404D01*
X1521892Y1679354D01*
X1521842Y1679229D01*
X1521792Y1679104D01*
X1521717Y1678929D01*
X1521667Y1678754D01*
X1521642Y1678529D01*
X1521617Y1678304D01*
Y1678254D01*
Y1678154D01*
X1521667Y1677979D01*
X1521717Y1677754D01*
X1521792Y1677529D01*
X1521917Y1677254D01*
X1522092Y1677004D01*
X1522317Y1676754D01*
X1522342Y1676729D01*
X1522442Y1676654D01*
X1522617Y1676554D01*
X1522842Y1676454D01*
X1523142Y1676329D01*
X1523517Y1676229D01*
X1523941Y1676154D01*
X1524416Y1676129D01*
X1524641D01*
X1524891Y1676154D01*
X1525216Y1676204D01*
X1525591Y1676279D01*
X1525991Y1676379D01*
X1526416Y1676504D01*
X1526816Y1676704D01*
X1526841D01*
X1526866Y1676729D01*
X1526991Y1676804D01*
X1527191Y1676954D01*
X1527415Y1677129D01*
X1527665Y1677354D01*
X1527940Y1677654D01*
X1528190Y1677954D01*
X1528390Y1678329D01*
X1528415Y1678379D01*
X1528440Y1678479D01*
X1528515Y1678654D01*
X1528590Y1678929D01*
X1528640Y1679254D01*
X1528715Y1679654D01*
X1528740Y1680128D01*
X1528765Y1680678D01*
Y1681553D01*
D02*
G37*
G36*
X1478053D02*
X1478028D01*
X1478003Y1681528D01*
X1477928Y1681503D01*
X1477803Y1681478D01*
X1477678Y1681428D01*
X1477503Y1681378D01*
X1477303Y1681303D01*
X1477078Y1681253D01*
X1476828Y1681178D01*
X1476553Y1681103D01*
X1476229Y1681028D01*
X1475879Y1680953D01*
X1475504Y1680878D01*
X1475104Y1680803D01*
X1474679Y1680728D01*
X1474204Y1680653D01*
X1474129D01*
X1474079Y1680628D01*
X1473979D01*
X1473704Y1680578D01*
X1473404Y1680528D01*
X1473079Y1680453D01*
X1472729Y1680378D01*
X1472404Y1680278D01*
X1472155Y1680178D01*
X1472130D01*
X1472055Y1680128D01*
X1471955Y1680078D01*
X1471805Y1680004D01*
X1471505Y1679754D01*
X1471355Y1679604D01*
X1471230Y1679429D01*
X1471205Y1679404D01*
X1471180Y1679354D01*
X1471130Y1679229D01*
X1471080Y1679104D01*
X1471005Y1678929D01*
X1470955Y1678754D01*
X1470930Y1678529D01*
X1470905Y1678304D01*
Y1678254D01*
Y1678154D01*
X1470955Y1677979D01*
X1471005Y1677754D01*
X1471080Y1677529D01*
X1471205Y1677254D01*
X1471380Y1677004D01*
X1471605Y1676754D01*
X1471630Y1676729D01*
X1471730Y1676654D01*
X1471905Y1676554D01*
X1472130Y1676454D01*
X1472430Y1676329D01*
X1472804Y1676229D01*
X1473229Y1676154D01*
X1473704Y1676129D01*
X1473929D01*
X1474179Y1676154D01*
X1474504Y1676204D01*
X1474879Y1676279D01*
X1475279Y1676379D01*
X1475704Y1676504D01*
X1476104Y1676704D01*
X1476129D01*
X1476154Y1676729D01*
X1476279Y1676804D01*
X1476478Y1676954D01*
X1476703Y1677129D01*
X1476953Y1677354D01*
X1477228Y1677654D01*
X1477478Y1677954D01*
X1477678Y1678329D01*
X1477703Y1678379D01*
X1477728Y1678479D01*
X1477803Y1678654D01*
X1477878Y1678929D01*
X1477928Y1679254D01*
X1478003Y1679654D01*
X1478028Y1680128D01*
X1478053Y1680678D01*
Y1681553D01*
D02*
G37*
G36*
X1303477Y1027553D02*
X1303452D01*
X1303427Y1027528D01*
X1303352Y1027503D01*
X1303227Y1027478D01*
X1303102Y1027428D01*
X1302927Y1027378D01*
X1302727Y1027303D01*
X1302502Y1027253D01*
X1302253Y1027178D01*
X1301978Y1027103D01*
X1301653Y1027028D01*
X1301303Y1026953D01*
X1300928Y1026878D01*
X1300528Y1026803D01*
X1300103Y1026728D01*
X1299628Y1026653D01*
X1299553D01*
X1299503Y1026628D01*
X1299403D01*
X1299128Y1026578D01*
X1298828Y1026528D01*
X1298504Y1026453D01*
X1298154Y1026378D01*
X1297829Y1026278D01*
X1297579Y1026178D01*
X1297554D01*
X1297479Y1026128D01*
X1297379Y1026078D01*
X1297229Y1026003D01*
X1296929Y1025753D01*
X1296779Y1025603D01*
X1296654Y1025429D01*
X1296629Y1025404D01*
X1296604Y1025354D01*
X1296554Y1025229D01*
X1296504Y1025104D01*
X1296429Y1024929D01*
X1296379Y1024754D01*
X1296354Y1024529D01*
X1296329Y1024304D01*
Y1024254D01*
Y1024154D01*
X1296379Y1023979D01*
X1296429Y1023754D01*
X1296504Y1023529D01*
X1296629Y1023254D01*
X1296804Y1023004D01*
X1297029Y1022754D01*
X1297054Y1022729D01*
X1297154Y1022654D01*
X1297329Y1022554D01*
X1297554Y1022454D01*
X1297854Y1022329D01*
X1298229Y1022229D01*
X1298654Y1022154D01*
X1299128Y1022129D01*
X1299353D01*
X1299603Y1022154D01*
X1299928Y1022204D01*
X1300303Y1022279D01*
X1300703Y1022379D01*
X1301128Y1022504D01*
X1301528Y1022704D01*
X1301553D01*
X1301578Y1022729D01*
X1301703Y1022804D01*
X1301903Y1022954D01*
X1302128Y1023129D01*
X1302377Y1023354D01*
X1302652Y1023654D01*
X1302902Y1023954D01*
X1303102Y1024329D01*
X1303127Y1024379D01*
X1303152Y1024479D01*
X1303227Y1024654D01*
X1303302Y1024929D01*
X1303352Y1025254D01*
X1303427Y1025654D01*
X1303452Y1026128D01*
X1303477Y1026678D01*
Y1027553D01*
D02*
G37*
G36*
X1284532Y1037675D02*
X1278084D01*
Y1031302D01*
X1283957D01*
X1284132Y1031327D01*
X1284532Y1031352D01*
X1284957Y1031377D01*
X1285432Y1031452D01*
X1285857Y1031527D01*
X1286257Y1031652D01*
X1286307Y1031677D01*
X1286432Y1031727D01*
X1286606Y1031802D01*
X1286832Y1031927D01*
X1287056Y1032077D01*
X1287306Y1032277D01*
X1287556Y1032527D01*
X1287756Y1032802D01*
X1287781Y1032827D01*
X1287831Y1032952D01*
X1287931Y1033102D01*
X1288031Y1033327D01*
X1288106Y1033577D01*
X1288206Y1033876D01*
X1288256Y1034176D01*
X1288281Y1034526D01*
Y1034551D01*
Y1034576D01*
Y1034651D01*
X1288256Y1034751D01*
X1288231Y1035001D01*
X1288156Y1035326D01*
X1288031Y1035676D01*
X1287856Y1036051D01*
X1287606Y1036426D01*
X1287281Y1036776D01*
X1287231Y1036826D01*
X1287081Y1036926D01*
X1286857Y1037051D01*
X1286507Y1037226D01*
X1286307Y1037300D01*
X1286082Y1037401D01*
X1285832Y1037476D01*
X1285532Y1037525D01*
X1285232Y1037600D01*
X1284907Y1037626D01*
X1284532Y1037675D01*
D02*
G37*
G36*
X1168636Y1037525D02*
X1163138D01*
Y1030652D01*
X1168311D01*
X1168486Y1030677D01*
X1168686D01*
X1168911Y1030702D01*
X1169436Y1030777D01*
X1170011Y1030877D01*
X1170586Y1031027D01*
X1171111Y1031252D01*
X1171360Y1031402D01*
X1171560Y1031552D01*
X1171610Y1031602D01*
X1171735Y1031727D01*
X1171885Y1031927D01*
X1172085Y1032227D01*
X1172285Y1032602D01*
X1172435Y1033052D01*
X1172560Y1033551D01*
X1172610Y1034151D01*
Y1034176D01*
Y1034201D01*
Y1034351D01*
X1172585Y1034576D01*
X1172535Y1034851D01*
X1172460Y1035176D01*
X1172335Y1035526D01*
X1172185Y1035876D01*
X1171985Y1036201D01*
X1171960Y1036251D01*
X1171885Y1036351D01*
X1171735Y1036501D01*
X1171560Y1036676D01*
X1171336Y1036876D01*
X1171060Y1037051D01*
X1170736Y1037226D01*
X1170386Y1037350D01*
X1170361D01*
X1170261Y1037375D01*
X1170086Y1037401D01*
X1169861Y1037450D01*
X1169536Y1037476D01*
X1169136Y1037501D01*
X1168636Y1037525D01*
D02*
G37*
G36*
X1383757Y1032852D02*
X1383582D01*
X1383457Y1032827D01*
X1383307Y1032802D01*
X1383132Y1032777D01*
X1382732Y1032677D01*
X1382282Y1032527D01*
X1381782Y1032302D01*
X1381532Y1032152D01*
X1381307Y1031977D01*
X1381057Y1031752D01*
X1380832Y1031527D01*
Y1031502D01*
X1380782Y1031477D01*
X1380732Y1031377D01*
X1380658Y1031277D01*
X1380558Y1031127D01*
X1380457Y1030977D01*
X1380358Y1030777D01*
X1380258Y1030527D01*
X1380158Y1030277D01*
X1380058Y1029977D01*
X1379958Y1029652D01*
X1379858Y1029278D01*
X1379783Y1028903D01*
X1379733Y1028478D01*
X1379708Y1028003D01*
X1379683Y1027528D01*
Y1027503D01*
Y1027403D01*
Y1027278D01*
X1379708Y1027103D01*
Y1026878D01*
X1379733Y1026628D01*
X1379783Y1026328D01*
X1379833Y1026028D01*
X1379958Y1025404D01*
X1380158Y1024729D01*
X1380457Y1024104D01*
X1380632Y1023829D01*
X1380832Y1023554D01*
X1380857Y1023529D01*
X1380882Y1023504D01*
X1380957Y1023429D01*
X1381032Y1023354D01*
X1381307Y1023129D01*
X1381632Y1022904D01*
X1382057Y1022654D01*
X1382557Y1022429D01*
X1383132Y1022279D01*
X1383432Y1022254D01*
X1383757Y1022229D01*
X1383932D01*
X1384057Y1022254D01*
X1384207Y1022279D01*
X1384382Y1022304D01*
X1384781Y1022404D01*
X1385231Y1022554D01*
X1385731Y1022779D01*
X1385981Y1022929D01*
X1386231Y1023129D01*
X1386456Y1023329D01*
X1386681Y1023554D01*
X1386706Y1023579D01*
X1386731Y1023629D01*
X1386781Y1023704D01*
X1386856Y1023804D01*
X1386956Y1023954D01*
X1387056Y1024129D01*
X1387156Y1024329D01*
X1387281Y1024554D01*
X1387381Y1024829D01*
X1387481Y1025129D01*
X1387581Y1025454D01*
X1387681Y1025828D01*
X1387756Y1026228D01*
X1387806Y1026653D01*
X1387856Y1027103D01*
Y1027603D01*
Y1027628D01*
Y1027728D01*
Y1027853D01*
X1387831Y1028028D01*
Y1028253D01*
X1387806Y1028478D01*
X1387756Y1028753D01*
X1387706Y1029053D01*
X1387581Y1029678D01*
X1387356Y1030327D01*
X1387081Y1030952D01*
X1386881Y1031252D01*
X1386681Y1031502D01*
X1386656Y1031527D01*
X1386631Y1031552D01*
X1386556Y1031627D01*
X1386481Y1031702D01*
X1386206Y1031927D01*
X1385881Y1032177D01*
X1385456Y1032427D01*
X1384956Y1032652D01*
X1384382Y1032802D01*
X1384082Y1032827D01*
X1383757Y1032852D01*
D02*
G37*
G36*
X1340568D02*
X1340418D01*
X1340293Y1032827D01*
X1340168D01*
X1339993Y1032802D01*
X1339618Y1032727D01*
X1339193Y1032577D01*
X1338718Y1032377D01*
X1338268Y1032127D01*
X1338043Y1031952D01*
X1337818Y1031752D01*
X1337768Y1031702D01*
X1337643Y1031552D01*
X1337469Y1031327D01*
X1337269Y1031002D01*
X1337044Y1030577D01*
X1336844Y1030077D01*
X1336694Y1029528D01*
X1336619Y1028878D01*
X1344392D01*
Y1028903D01*
Y1028953D01*
X1344367Y1029053D01*
X1344342Y1029153D01*
Y1029303D01*
X1344292Y1029477D01*
X1344217Y1029852D01*
X1344092Y1030277D01*
X1343942Y1030702D01*
X1343742Y1031127D01*
X1343492Y1031477D01*
Y1031502D01*
X1343442Y1031527D01*
X1343367Y1031602D01*
X1343292Y1031702D01*
X1343042Y1031902D01*
X1342717Y1032177D01*
X1342292Y1032427D01*
X1341792Y1032627D01*
X1341218Y1032802D01*
X1340893Y1032827D01*
X1340568Y1032852D01*
D02*
G37*
G36*
X1265912D02*
X1265737D01*
X1265612Y1032827D01*
X1265462Y1032802D01*
X1265287Y1032777D01*
X1264887Y1032677D01*
X1264437Y1032527D01*
X1263937Y1032302D01*
X1263687Y1032152D01*
X1263463Y1031977D01*
X1263213Y1031752D01*
X1262988Y1031527D01*
Y1031502D01*
X1262938Y1031477D01*
X1262888Y1031377D01*
X1262813Y1031277D01*
X1262713Y1031127D01*
X1262613Y1030977D01*
X1262513Y1030777D01*
X1262413Y1030527D01*
X1262313Y1030277D01*
X1262213Y1029977D01*
X1262113Y1029652D01*
X1262013Y1029278D01*
X1261938Y1028903D01*
X1261888Y1028478D01*
X1261863Y1028003D01*
X1261838Y1027528D01*
Y1027503D01*
Y1027403D01*
Y1027278D01*
X1261863Y1027103D01*
Y1026878D01*
X1261888Y1026628D01*
X1261938Y1026328D01*
X1261988Y1026028D01*
X1262113Y1025404D01*
X1262313Y1024729D01*
X1262613Y1024104D01*
X1262788Y1023829D01*
X1262988Y1023554D01*
X1263013Y1023529D01*
X1263038Y1023504D01*
X1263113Y1023429D01*
X1263187Y1023354D01*
X1263463Y1023129D01*
X1263787Y1022904D01*
X1264212Y1022654D01*
X1264712Y1022429D01*
X1265287Y1022279D01*
X1265587Y1022254D01*
X1265912Y1022229D01*
X1266087D01*
X1266212Y1022254D01*
X1266362Y1022279D01*
X1266537Y1022304D01*
X1266937Y1022404D01*
X1267386Y1022554D01*
X1267886Y1022779D01*
X1268136Y1022929D01*
X1268386Y1023129D01*
X1268611Y1023329D01*
X1268836Y1023554D01*
X1268861Y1023579D01*
X1268886Y1023629D01*
X1268936Y1023704D01*
X1269011Y1023804D01*
X1269111Y1023954D01*
X1269211Y1024129D01*
X1269311Y1024329D01*
X1269436Y1024554D01*
X1269536Y1024829D01*
X1269636Y1025129D01*
X1269736Y1025454D01*
X1269836Y1025828D01*
X1269911Y1026228D01*
X1269961Y1026653D01*
X1270011Y1027103D01*
Y1027603D01*
Y1027628D01*
Y1027728D01*
Y1027853D01*
X1269986Y1028028D01*
Y1028253D01*
X1269961Y1028478D01*
X1269911Y1028753D01*
X1269861Y1029053D01*
X1269736Y1029678D01*
X1269511Y1030327D01*
X1269236Y1030952D01*
X1269036Y1031252D01*
X1268836Y1031502D01*
X1268811Y1031527D01*
X1268786Y1031552D01*
X1268711Y1031627D01*
X1268636Y1031702D01*
X1268361Y1031927D01*
X1268036Y1032177D01*
X1267611Y1032427D01*
X1267112Y1032652D01*
X1266537Y1032802D01*
X1266237Y1032827D01*
X1265912Y1032852D01*
D02*
G37*
G36*
X1443366Y1037925D02*
X1443216D01*
X1443091Y1037900D01*
X1442792Y1037850D01*
X1442442Y1037750D01*
X1442017Y1037576D01*
X1441592Y1037326D01*
X1441367Y1037176D01*
X1441167Y1037001D01*
X1440967Y1036776D01*
X1440767Y1036526D01*
X1440742Y1036501D01*
X1440717Y1036451D01*
X1440667Y1036326D01*
X1440592Y1036176D01*
X1440492Y1035976D01*
X1440392Y1035726D01*
X1440292Y1035426D01*
X1440167Y1035051D01*
X1440067Y1034651D01*
X1439942Y1034176D01*
X1439842Y1033652D01*
X1439767Y1033052D01*
X1439667Y1032402D01*
X1439617Y1031677D01*
X1439592Y1030902D01*
X1439567Y1030052D01*
Y1030027D01*
Y1030002D01*
Y1029852D01*
Y1029603D01*
X1439592Y1029278D01*
Y1028903D01*
X1439617Y1028478D01*
X1439667Y1028003D01*
X1439717Y1027478D01*
X1439842Y1026428D01*
X1439917Y1025903D01*
X1440042Y1025404D01*
X1440167Y1024904D01*
X1440317Y1024479D01*
X1440467Y1024079D01*
X1440667Y1023754D01*
X1440692Y1023729D01*
X1440717Y1023679D01*
X1440792Y1023604D01*
X1440867Y1023504D01*
X1441092Y1023254D01*
X1441417Y1022979D01*
X1441817Y1022704D01*
X1442292Y1022454D01*
X1442542Y1022354D01*
X1442816Y1022279D01*
X1443091Y1022229D01*
X1443391Y1022204D01*
X1443541D01*
X1443666Y1022229D01*
X1443791Y1022254D01*
X1443966Y1022279D01*
X1444341Y1022404D01*
X1444766Y1022579D01*
X1444991Y1022704D01*
X1445216Y1022854D01*
X1445466Y1023029D01*
X1445691Y1023254D01*
X1445916Y1023479D01*
X1446116Y1023754D01*
X1446141Y1023779D01*
X1446166Y1023829D01*
X1446216Y1023929D01*
X1446291Y1024079D01*
X1446366Y1024254D01*
X1446466Y1024504D01*
X1446566Y1024779D01*
X1446691Y1025129D01*
X1446790Y1025529D01*
X1446891Y1025978D01*
X1446991Y1026503D01*
X1447065Y1027078D01*
X1447140Y1027728D01*
X1447190Y1028428D01*
X1447240Y1029203D01*
Y1030052D01*
Y1030077D01*
Y1030102D01*
Y1030252D01*
Y1030502D01*
X1447215Y1030827D01*
Y1031202D01*
X1447190Y1031627D01*
X1447140Y1032127D01*
X1447090Y1032627D01*
X1446965Y1033677D01*
X1446866Y1034201D01*
X1446765Y1034726D01*
X1446641Y1035201D01*
X1446491Y1035626D01*
X1446316Y1036026D01*
X1446116Y1036351D01*
Y1036376D01*
X1446066Y1036426D01*
X1446016Y1036501D01*
X1445916Y1036601D01*
X1445691Y1036851D01*
X1445366Y1037151D01*
X1444966Y1037426D01*
X1444491Y1037675D01*
X1444241Y1037775D01*
X1443966Y1037850D01*
X1443666Y1037900D01*
X1443366Y1037925D01*
D02*
G37*
G36*
X1474420Y1007925D02*
X1474270D01*
X1474145Y1007900D01*
X1474020Y1007875D01*
X1473870Y1007850D01*
X1473495Y1007775D01*
X1473070Y1007600D01*
X1472595Y1007375D01*
X1472370Y1007226D01*
X1472145Y1007051D01*
X1471920Y1006851D01*
X1471695Y1006626D01*
Y1006601D01*
X1471645Y1006576D01*
X1471595Y1006501D01*
X1471520Y1006401D01*
X1471420Y1006276D01*
X1471320Y1006126D01*
X1471221Y1005926D01*
X1471120Y1005726D01*
X1470921Y1005251D01*
X1470721Y1004676D01*
X1470596Y1004026D01*
X1470571Y1003677D01*
X1470546Y1003302D01*
Y1003277D01*
Y1003227D01*
Y1003127D01*
X1470571Y1003002D01*
Y1002827D01*
X1470596Y1002652D01*
X1470671Y1002227D01*
X1470821Y1001752D01*
X1470996Y1001252D01*
X1471270Y1000752D01*
X1471420Y1000527D01*
X1471620Y1000302D01*
X1471645D01*
X1471670Y1000252D01*
X1471820Y1000127D01*
X1472045Y999952D01*
X1472370Y999753D01*
X1472770Y999528D01*
X1473245Y999353D01*
X1473770Y999228D01*
X1474070Y999203D01*
X1474370Y999178D01*
X1474520D01*
X1474645Y999203D01*
X1474770D01*
X1474944Y999228D01*
X1475320Y999328D01*
X1475744Y999453D01*
X1476194Y999652D01*
X1476619Y999927D01*
X1476844Y1000102D01*
X1477044Y1000302D01*
X1477069Y1000327D01*
X1477094Y1000352D01*
X1477144Y1000427D01*
X1477219Y1000527D01*
X1477294Y1000627D01*
X1477394Y1000777D01*
X1477594Y1001127D01*
X1477769Y1001577D01*
X1477944Y1002127D01*
X1478069Y1002777D01*
X1478119Y1003127D01*
Y1003502D01*
Y1003527D01*
Y1003602D01*
Y1003701D01*
X1478094Y1003826D01*
Y1004001D01*
X1478069Y1004201D01*
X1477994Y1004676D01*
X1477869Y1005176D01*
X1477669Y1005726D01*
X1477394Y1006251D01*
X1477244Y1006501D01*
X1477044Y1006726D01*
Y1006751D01*
X1476994Y1006776D01*
X1476844Y1006926D01*
X1476619Y1007101D01*
X1476319Y1007326D01*
X1475944Y1007551D01*
X1475494Y1007750D01*
X1474969Y1007875D01*
X1474695Y1007900D01*
X1474420Y1007925D01*
D02*
G37*
G36*
X1312125Y1007525D02*
X1307576D01*
Y1001727D01*
X1312300D01*
X1312650Y1001752D01*
X1313050Y1001777D01*
X1313450Y1001802D01*
X1313825Y1001852D01*
X1314124Y1001927D01*
X1314174Y1001952D01*
X1314274Y1001977D01*
X1314449Y1002052D01*
X1314674Y1002152D01*
X1314924Y1002302D01*
X1315149Y1002452D01*
X1315399Y1002652D01*
X1315599Y1002877D01*
X1315624Y1002902D01*
X1315674Y1003002D01*
X1315749Y1003152D01*
X1315849Y1003352D01*
X1315949Y1003577D01*
X1316024Y1003876D01*
X1316074Y1004201D01*
X1316099Y1004576D01*
Y1004626D01*
Y1004726D01*
X1316074Y1004926D01*
X1316049Y1005151D01*
X1315974Y1005401D01*
X1315899Y1005676D01*
X1315774Y1005976D01*
X1315624Y1006251D01*
X1315599Y1006276D01*
X1315549Y1006376D01*
X1315449Y1006501D01*
X1315299Y1006651D01*
X1315099Y1006826D01*
X1314899Y1006976D01*
X1314624Y1007126D01*
X1314324Y1007251D01*
X1314274Y1007276D01*
X1314149Y1007301D01*
X1313949Y1007350D01*
X1313650Y1007401D01*
X1313450Y1007426D01*
X1313250Y1007450D01*
X1313000D01*
X1312725Y1007476D01*
X1312450Y1007501D01*
X1312125Y1007525D01*
D02*
G37*
G36*
X1312000Y999453D02*
X1307576D01*
Y992854D01*
X1313025D01*
X1313600Y992879D01*
X1313850Y992904D01*
X1314075Y992929D01*
X1314124D01*
X1314225Y992954D01*
X1314374Y993004D01*
X1314574Y993054D01*
X1314824Y993129D01*
X1315049Y993204D01*
X1315299Y993329D01*
X1315524Y993454D01*
X1315549Y993479D01*
X1315624Y993529D01*
X1315724Y993604D01*
X1315874Y993729D01*
X1316024Y993879D01*
X1316199Y994079D01*
X1316349Y994279D01*
X1316499Y994529D01*
X1316524Y994554D01*
X1316574Y994654D01*
X1316624Y994804D01*
X1316699Y995004D01*
X1316774Y995229D01*
X1316849Y995504D01*
X1316874Y995828D01*
X1316899Y996153D01*
Y996203D01*
Y996328D01*
X1316874Y996528D01*
X1316824Y996778D01*
X1316749Y997078D01*
X1316649Y997378D01*
X1316524Y997703D01*
X1316324Y998003D01*
X1316299Y998028D01*
X1316224Y998128D01*
X1316099Y998278D01*
X1315924Y998453D01*
X1315699Y998628D01*
X1315449Y998828D01*
X1315149Y998978D01*
X1314799Y999128D01*
X1314749Y999153D01*
X1314624Y999178D01*
X1314399Y999228D01*
X1314075Y999303D01*
X1313700Y999353D01*
X1313200Y999403D01*
X1312650Y999428D01*
X1312000Y999453D01*
D02*
G37*
G36*
X1293780Y1007800D02*
Y1007775D01*
X1293755Y1007725D01*
X1293730Y1007626D01*
X1293705Y1007476D01*
X1293680Y1007301D01*
X1293630Y1007101D01*
X1293580Y1006876D01*
X1293505Y1006626D01*
X1293355Y1006076D01*
X1293180Y1005451D01*
X1292980Y1004776D01*
X1292730Y1004101D01*
X1290630Y998478D01*
X1297154D01*
X1295154Y1003776D01*
Y1003801D01*
X1295104Y1003876D01*
X1295054Y1004001D01*
X1295004Y1004176D01*
X1294929Y1004376D01*
X1294829Y1004626D01*
X1294729Y1004901D01*
X1294630Y1005201D01*
X1294404Y1005826D01*
X1294180Y1006501D01*
X1293980Y1007176D01*
X1293780Y1007800D01*
D02*
G37*
G36*
X1270186Y1002852D02*
X1270011D01*
X1269886Y1002827D01*
X1269736Y1002802D01*
X1269561Y1002777D01*
X1269161Y1002677D01*
X1268711Y1002527D01*
X1268211Y1002302D01*
X1267961Y1002152D01*
X1267736Y1001977D01*
X1267486Y1001752D01*
X1267262Y1001527D01*
Y1001502D01*
X1267212Y1001477D01*
X1267161Y1001377D01*
X1267086Y1001277D01*
X1266987Y1001127D01*
X1266887Y1000977D01*
X1266787Y1000777D01*
X1266687Y1000527D01*
X1266587Y1000277D01*
X1266487Y999977D01*
X1266387Y999652D01*
X1266287Y999278D01*
X1266212Y998903D01*
X1266162Y998478D01*
X1266137Y998003D01*
X1266112Y997528D01*
Y997503D01*
Y997403D01*
Y997278D01*
X1266137Y997103D01*
Y996878D01*
X1266162Y996628D01*
X1266212Y996328D01*
X1266262Y996028D01*
X1266387Y995404D01*
X1266587Y994729D01*
X1266887Y994104D01*
X1267062Y993829D01*
X1267262Y993554D01*
X1267287Y993529D01*
X1267311Y993504D01*
X1267386Y993429D01*
X1267461Y993354D01*
X1267736Y993129D01*
X1268061Y992904D01*
X1268486Y992654D01*
X1268986Y992429D01*
X1269561Y992279D01*
X1269861Y992254D01*
X1270186Y992229D01*
X1270361D01*
X1270486Y992254D01*
X1270636Y992279D01*
X1270811Y992304D01*
X1271210Y992404D01*
X1271660Y992554D01*
X1272160Y992779D01*
X1272410Y992929D01*
X1272660Y993129D01*
X1272885Y993329D01*
X1273110Y993554D01*
X1273135Y993579D01*
X1273160Y993629D01*
X1273210Y993704D01*
X1273285Y993804D01*
X1273385Y993954D01*
X1273485Y994129D01*
X1273585Y994329D01*
X1273710Y994554D01*
X1273810Y994829D01*
X1273910Y995129D01*
X1274010Y995454D01*
X1274110Y995828D01*
X1274185Y996228D01*
X1274235Y996653D01*
X1274285Y997103D01*
Y997603D01*
Y997628D01*
Y997728D01*
Y997853D01*
X1274260Y998028D01*
Y998253D01*
X1274235Y998478D01*
X1274185Y998753D01*
X1274135Y999053D01*
X1274010Y999678D01*
X1273785Y1000327D01*
X1273510Y1000952D01*
X1273310Y1001252D01*
X1273110Y1001502D01*
X1273085Y1001527D01*
X1273060Y1001552D01*
X1272985Y1001627D01*
X1272910Y1001702D01*
X1272635Y1001927D01*
X1272310Y1002177D01*
X1271885Y1002427D01*
X1271385Y1002652D01*
X1270811Y1002802D01*
X1270511Y1002827D01*
X1270186Y1002852D01*
D02*
G37*
G36*
X1444502Y1007925D02*
X1444352D01*
X1444227Y1007900D01*
X1443927Y1007850D01*
X1443578Y1007750D01*
X1443153Y1007576D01*
X1442728Y1007326D01*
X1442503Y1007176D01*
X1442303Y1007001D01*
X1442103Y1006776D01*
X1441903Y1006526D01*
X1441878Y1006501D01*
X1441853Y1006451D01*
X1441803Y1006326D01*
X1441728Y1006176D01*
X1441628Y1005976D01*
X1441528Y1005726D01*
X1441428Y1005426D01*
X1441303Y1005051D01*
X1441203Y1004651D01*
X1441078Y1004176D01*
X1440978Y1003652D01*
X1440903Y1003052D01*
X1440803Y1002402D01*
X1440753Y1001677D01*
X1440728Y1000902D01*
X1440703Y1000052D01*
Y1000027D01*
Y1000002D01*
Y999853D01*
Y999603D01*
X1440728Y999278D01*
Y998903D01*
X1440753Y998478D01*
X1440803Y998003D01*
X1440853Y997478D01*
X1440978Y996428D01*
X1441053Y995903D01*
X1441178Y995404D01*
X1441303Y994904D01*
X1441453Y994479D01*
X1441603Y994079D01*
X1441803Y993754D01*
X1441828Y993729D01*
X1441853Y993679D01*
X1441928Y993604D01*
X1442003Y993504D01*
X1442228Y993254D01*
X1442553Y992979D01*
X1442953Y992704D01*
X1443428Y992454D01*
X1443678Y992354D01*
X1443952Y992279D01*
X1444227Y992229D01*
X1444527Y992204D01*
X1444677D01*
X1444802Y992229D01*
X1444927Y992254D01*
X1445102Y992279D01*
X1445477Y992404D01*
X1445902Y992579D01*
X1446127Y992704D01*
X1446352Y992854D01*
X1446602Y993029D01*
X1446827Y993254D01*
X1447052Y993479D01*
X1447252Y993754D01*
X1447277Y993779D01*
X1447302Y993829D01*
X1447352Y993929D01*
X1447427Y994079D01*
X1447502Y994254D01*
X1447601Y994504D01*
X1447702Y994779D01*
X1447827Y995129D01*
X1447926Y995529D01*
X1448026Y995978D01*
X1448126Y996503D01*
X1448201Y997078D01*
X1448276Y997728D01*
X1448326Y998428D01*
X1448376Y999203D01*
Y1000052D01*
Y1000077D01*
Y1000102D01*
Y1000252D01*
Y1000502D01*
X1448351Y1000827D01*
Y1001202D01*
X1448326Y1001627D01*
X1448276Y1002127D01*
X1448226Y1002627D01*
X1448101Y1003677D01*
X1448001Y1004201D01*
X1447901Y1004726D01*
X1447776Y1005201D01*
X1447626Y1005626D01*
X1447452Y1006026D01*
X1447252Y1006351D01*
Y1006376D01*
X1447202Y1006426D01*
X1447152Y1006501D01*
X1447052Y1006601D01*
X1446827Y1006851D01*
X1446502Y1007151D01*
X1446102Y1007426D01*
X1445627Y1007675D01*
X1445377Y1007775D01*
X1445102Y1007850D01*
X1444802Y1007900D01*
X1444502Y1007925D01*
D02*
G37*
G36*
X1407287D02*
X1407162D01*
X1407062Y1007900D01*
X1406812Y1007875D01*
X1406487Y1007825D01*
X1406137Y1007700D01*
X1405762Y1007551D01*
X1405387Y1007350D01*
X1405037Y1007051D01*
X1405013Y1007001D01*
X1404913Y1006901D01*
X1404763Y1006701D01*
X1404613Y1006476D01*
X1404438Y1006151D01*
X1404313Y1005801D01*
X1404213Y1005401D01*
X1404163Y1004976D01*
Y1004951D01*
Y1004926D01*
Y1004851D01*
X1404188Y1004751D01*
X1404213Y1004501D01*
X1404263Y1004201D01*
X1404363Y1003851D01*
X1404513Y1003476D01*
X1404738Y1003102D01*
X1405013Y1002752D01*
X1405062Y1002727D01*
X1405162Y1002627D01*
X1405362Y1002477D01*
X1405637Y1002327D01*
X1405962Y1002177D01*
X1406362Y1002027D01*
X1406812Y1001927D01*
X1407312Y1001902D01*
X1407437D01*
X1407537Y1001927D01*
X1407787Y1001952D01*
X1408087Y1002002D01*
X1408437Y1002102D01*
X1408811Y1002252D01*
X1409186Y1002477D01*
X1409536Y1002752D01*
X1409586Y1002802D01*
X1409686Y1002902D01*
X1409811Y1003077D01*
X1409986Y1003327D01*
X1410136Y1003626D01*
X1410286Y1004001D01*
X1410386Y1004401D01*
X1410411Y1004851D01*
Y1004876D01*
Y1004901D01*
Y1004976D01*
X1410386Y1005076D01*
X1410361Y1005301D01*
X1410311Y1005601D01*
X1410186Y1005951D01*
X1410036Y1006326D01*
X1409811Y1006676D01*
X1409511Y1007026D01*
X1409461Y1007076D01*
X1409361Y1007176D01*
X1409161Y1007301D01*
X1408887Y1007476D01*
X1408562Y1007651D01*
X1408187Y1007775D01*
X1407762Y1007875D01*
X1407287Y1007925D01*
D02*
G37*
G36*
X1407537Y999977D02*
X1407062D01*
X1406937Y999952D01*
X1406787D01*
X1406637Y999927D01*
X1406237Y999853D01*
X1405812Y999703D01*
X1405337Y999502D01*
X1404888Y999253D01*
X1404662Y999078D01*
X1404463Y998878D01*
X1404413Y998828D01*
X1404288Y998678D01*
X1404113Y998453D01*
X1403938Y998128D01*
X1403738Y997728D01*
X1403563Y997253D01*
X1403438Y996728D01*
X1403413Y996428D01*
X1403388Y996128D01*
Y996078D01*
Y995954D01*
X1403413Y995753D01*
X1403438Y995504D01*
X1403488Y995204D01*
X1403588Y994854D01*
X1403688Y994504D01*
X1403838Y994154D01*
X1403863Y994104D01*
X1403938Y994004D01*
X1404038Y993829D01*
X1404188Y993629D01*
X1404388Y993404D01*
X1404638Y993154D01*
X1404937Y992929D01*
X1405262Y992704D01*
X1405312Y992679D01*
X1405437Y992629D01*
X1405612Y992554D01*
X1405862Y992454D01*
X1406187Y992354D01*
X1406512Y992279D01*
X1406887Y992229D01*
X1407287Y992204D01*
X1407462D01*
X1407562Y992229D01*
X1407712D01*
X1407887Y992254D01*
X1408287Y992329D01*
X1408712Y992479D01*
X1409186Y992654D01*
X1409661Y992929D01*
X1409886Y993079D01*
X1410086Y993279D01*
X1410111Y993304D01*
X1410136Y993329D01*
X1410261Y993479D01*
X1410436Y993704D01*
X1410636Y994029D01*
X1410836Y994429D01*
X1411011Y994904D01*
X1411136Y995429D01*
X1411186Y995729D01*
Y996028D01*
Y996053D01*
Y996103D01*
Y996203D01*
X1411161Y996328D01*
Y996453D01*
X1411136Y996628D01*
X1411036Y997028D01*
X1410911Y997478D01*
X1410711Y997953D01*
X1410436Y998428D01*
X1410261Y998653D01*
X1410061Y998853D01*
Y998878D01*
X1410011Y998903D01*
X1409861Y999028D01*
X1409611Y999203D01*
X1409286Y999428D01*
X1408862Y999628D01*
X1408387Y999802D01*
X1407837Y999927D01*
X1407537Y999977D01*
D02*
G37*
G36*
X1392291Y1007925D02*
X1392141D01*
X1392016Y1007900D01*
X1391716Y1007850D01*
X1391366Y1007750D01*
X1390941Y1007576D01*
X1390516Y1007326D01*
X1390291Y1007176D01*
X1390091Y1007001D01*
X1389891Y1006776D01*
X1389691Y1006526D01*
X1389666Y1006501D01*
X1389641Y1006451D01*
X1389591Y1006326D01*
X1389516Y1006176D01*
X1389416Y1005976D01*
X1389317Y1005726D01*
X1389216Y1005426D01*
X1389091Y1005051D01*
X1388992Y1004651D01*
X1388867Y1004176D01*
X1388767Y1003652D01*
X1388692Y1003052D01*
X1388592Y1002402D01*
X1388542Y1001677D01*
X1388517Y1000902D01*
X1388492Y1000052D01*
Y1000027D01*
Y1000002D01*
Y999853D01*
Y999603D01*
X1388517Y999278D01*
Y998903D01*
X1388542Y998478D01*
X1388592Y998003D01*
X1388642Y997478D01*
X1388767Y996428D01*
X1388842Y995903D01*
X1388967Y995404D01*
X1389091Y994904D01*
X1389241Y994479D01*
X1389391Y994079D01*
X1389591Y993754D01*
X1389616Y993729D01*
X1389641Y993679D01*
X1389716Y993604D01*
X1389791Y993504D01*
X1390016Y993254D01*
X1390341Y992979D01*
X1390741Y992704D01*
X1391216Y992454D01*
X1391466Y992354D01*
X1391741Y992279D01*
X1392016Y992229D01*
X1392316Y992204D01*
X1392466D01*
X1392591Y992229D01*
X1392716Y992254D01*
X1392891Y992279D01*
X1393266Y992404D01*
X1393690Y992579D01*
X1393915Y992704D01*
X1394140Y992854D01*
X1394390Y993029D01*
X1394615Y993254D01*
X1394840Y993479D01*
X1395040Y993754D01*
X1395065Y993779D01*
X1395090Y993829D01*
X1395140Y993929D01*
X1395215Y994079D01*
X1395290Y994254D01*
X1395390Y994504D01*
X1395490Y994779D01*
X1395615Y995129D01*
X1395715Y995529D01*
X1395815Y995978D01*
X1395915Y996503D01*
X1395990Y997078D01*
X1396065Y997728D01*
X1396115Y998428D01*
X1396165Y999203D01*
Y1000052D01*
Y1000077D01*
Y1000102D01*
Y1000252D01*
Y1000502D01*
X1396140Y1000827D01*
Y1001202D01*
X1396115Y1001627D01*
X1396065Y1002127D01*
X1396015Y1002627D01*
X1395890Y1003677D01*
X1395790Y1004201D01*
X1395690Y1004726D01*
X1395565Y1005201D01*
X1395415Y1005626D01*
X1395240Y1006026D01*
X1395040Y1006351D01*
Y1006376D01*
X1394990Y1006426D01*
X1394940Y1006501D01*
X1394840Y1006601D01*
X1394615Y1006851D01*
X1394290Y1007151D01*
X1393890Y1007426D01*
X1393415Y1007675D01*
X1393165Y1007775D01*
X1392891Y1007850D01*
X1392591Y1007900D01*
X1392291Y1007925D01*
D02*
G37*
G36*
X1273964Y972952D02*
X1273814D01*
X1273715Y972927D01*
X1273415Y972877D01*
X1273065Y972777D01*
X1272640Y972602D01*
X1272415Y972502D01*
X1272190Y972352D01*
X1271965Y972177D01*
X1271740Y972002D01*
X1271515Y971777D01*
X1271290Y971527D01*
Y971502D01*
X1271240Y971452D01*
X1271190Y971377D01*
X1271115Y971277D01*
X1271015Y971127D01*
X1270915Y970952D01*
X1270815Y970727D01*
X1270715Y970502D01*
X1270615Y970227D01*
X1270515Y969927D01*
X1270415Y969577D01*
X1270315Y969228D01*
X1270240Y968828D01*
X1270190Y968403D01*
X1270165Y967928D01*
X1270140Y967453D01*
Y967428D01*
Y967328D01*
Y967203D01*
X1270165Y967028D01*
Y966803D01*
X1270190Y966528D01*
X1270240Y966253D01*
X1270265Y965954D01*
X1270415Y965304D01*
X1270590Y964654D01*
X1270865Y964029D01*
X1271015Y963754D01*
X1271215Y963504D01*
X1271240Y963479D01*
X1271265Y963454D01*
X1271415Y963304D01*
X1271640Y963104D01*
X1271965Y962879D01*
X1272340Y962629D01*
X1272790Y962429D01*
X1273315Y962279D01*
X1273590Y962254D01*
X1273865Y962229D01*
X1274014D01*
X1274139Y962254D01*
X1274264Y962279D01*
X1274414Y962304D01*
X1274789Y962404D01*
X1275214Y962554D01*
X1275664Y962779D01*
X1275889Y962929D01*
X1276114Y963129D01*
X1276339Y963329D01*
X1276564Y963554D01*
X1276589Y963579D01*
X1276614Y963629D01*
X1276664Y963704D01*
X1276739Y963804D01*
X1276814Y963954D01*
X1276914Y964129D01*
X1277014Y964329D01*
X1277139Y964554D01*
X1277239Y964829D01*
X1277339Y965129D01*
X1277439Y965479D01*
X1277514Y965854D01*
X1277589Y966253D01*
X1277638Y966678D01*
X1277689Y967153D01*
Y967653D01*
Y967678D01*
Y967778D01*
Y967903D01*
X1277663Y968078D01*
Y968303D01*
X1277638Y968553D01*
X1277589Y968853D01*
X1277563Y969153D01*
X1277414Y969778D01*
X1277214Y970452D01*
X1276964Y971077D01*
X1276789Y971377D01*
X1276589Y971627D01*
Y971652D01*
X1276539Y971677D01*
X1276389Y971827D01*
X1276164Y972052D01*
X1275839Y972302D01*
X1275464Y972527D01*
X1275014Y972752D01*
X1274514Y972902D01*
X1274239Y972927D01*
X1273964Y972952D01*
D02*
G37*
G36*
X1315479Y972852D02*
X1315329D01*
X1315204Y972827D01*
X1315079D01*
X1314904Y972802D01*
X1314529Y972727D01*
X1314104Y972577D01*
X1313629Y972377D01*
X1313179Y972127D01*
X1312955Y971952D01*
X1312729Y971752D01*
X1312679Y971702D01*
X1312555Y971552D01*
X1312380Y971327D01*
X1312180Y971002D01*
X1311955Y970577D01*
X1311755Y970077D01*
X1311605Y969528D01*
X1311530Y968878D01*
X1319303D01*
Y968903D01*
Y968953D01*
X1319278Y969053D01*
X1319253Y969153D01*
Y969303D01*
X1319203Y969478D01*
X1319128Y969853D01*
X1319003Y970277D01*
X1318853Y970702D01*
X1318653Y971127D01*
X1318403Y971477D01*
Y971502D01*
X1318353Y971527D01*
X1318278Y971602D01*
X1318203Y971702D01*
X1317953Y971902D01*
X1317628Y972177D01*
X1317203Y972427D01*
X1316703Y972627D01*
X1316129Y972802D01*
X1315804Y972827D01*
X1315479Y972852D01*
D02*
G37*
G36*
X1258718D02*
X1258543D01*
X1258418Y972827D01*
X1258269Y972802D01*
X1258093Y972777D01*
X1257694Y972677D01*
X1257244Y972527D01*
X1256744Y972302D01*
X1256494Y972152D01*
X1256269Y971977D01*
X1256019Y971752D01*
X1255794Y971527D01*
Y971502D01*
X1255744Y971477D01*
X1255694Y971377D01*
X1255619Y971277D01*
X1255519Y971127D01*
X1255419Y970977D01*
X1255319Y970777D01*
X1255219Y970527D01*
X1255119Y970277D01*
X1255019Y969977D01*
X1254919Y969652D01*
X1254819Y969278D01*
X1254744Y968903D01*
X1254694Y968478D01*
X1254669Y968003D01*
X1254644Y967528D01*
Y967503D01*
Y967403D01*
Y967278D01*
X1254669Y967103D01*
Y966878D01*
X1254694Y966628D01*
X1254744Y966328D01*
X1254794Y966028D01*
X1254919Y965404D01*
X1255119Y964729D01*
X1255419Y964104D01*
X1255594Y963829D01*
X1255794Y963554D01*
X1255819Y963529D01*
X1255844Y963504D01*
X1255919Y963429D01*
X1255994Y963354D01*
X1256269Y963129D01*
X1256594Y962904D01*
X1257019Y962654D01*
X1257519Y962429D01*
X1258093Y962279D01*
X1258393Y962254D01*
X1258718Y962229D01*
X1258893D01*
X1259018Y962254D01*
X1259168Y962279D01*
X1259343Y962304D01*
X1259743Y962404D01*
X1260193Y962554D01*
X1260693Y962779D01*
X1260943Y962929D01*
X1261193Y963129D01*
X1261418Y963329D01*
X1261643Y963554D01*
X1261668Y963579D01*
X1261693Y963629D01*
X1261743Y963704D01*
X1261818Y963804D01*
X1261917Y963954D01*
X1262018Y964129D01*
X1262117Y964329D01*
X1262243Y964554D01*
X1262342Y964829D01*
X1262442Y965129D01*
X1262542Y965454D01*
X1262642Y965828D01*
X1262717Y966228D01*
X1262767Y966653D01*
X1262817Y967103D01*
Y967603D01*
Y967628D01*
Y967728D01*
Y967853D01*
X1262792Y968028D01*
Y968253D01*
X1262767Y968478D01*
X1262717Y968753D01*
X1262667Y969053D01*
X1262542Y969678D01*
X1262317Y970327D01*
X1262042Y970952D01*
X1261843Y971252D01*
X1261643Y971502D01*
X1261618Y971527D01*
X1261593Y971552D01*
X1261518Y971627D01*
X1261443Y971702D01*
X1261168Y971927D01*
X1260843Y972177D01*
X1260418Y972427D01*
X1259918Y972652D01*
X1259343Y972802D01*
X1259043Y972827D01*
X1258718Y972852D01*
D02*
G37*
%LPD*%
D10*
X1031999Y1102580D02*
Y1652580D01*
X1581998D01*
X1581999Y1102580D01*
X1031999D02*
X1581999D01*
X1493553Y1220875D02*
Y1233875D01*
X1506553D01*
X1493553Y1220875D02*
X1506553D01*
Y1233875D01*
X1548499Y1247080D02*
Y1252080D01*
X1538499D02*
X1548499D01*
X1538499Y1247330D02*
Y1252080D01*
Y1247080D02*
Y1247330D01*
Y1247080D02*
X1548499D01*
X1538499Y1271080D02*
X1548499D01*
X1538499D02*
Y1271330D01*
Y1276080D01*
X1548499D01*
Y1271080D02*
Y1276080D01*
X1533997Y1163377D02*
X1556998D01*
X1533997D02*
Y1168877D01*
X1556998D01*
Y1163377D02*
Y1168877D01*
X1533997Y1193877D02*
X1556998D01*
X1533997D02*
Y1199377D01*
X1556998D01*
Y1193877D02*
Y1199377D01*
X1294998Y1394489D02*
X1308998D01*
X1294998Y1374489D02*
Y1394489D01*
Y1374489D02*
X1308998D01*
Y1394489D01*
X1346998Y1374489D02*
Y1394489D01*
X1332998Y1374489D02*
X1346998D01*
X1332998D02*
Y1394489D01*
X1346998D01*
X1347499Y1172955D02*
Y1176955D01*
X1331499D02*
X1347499D01*
X1331499Y1172955D02*
Y1176955D01*
Y1172955D02*
X1347499D01*
X1331499Y1130955D02*
X1347499D01*
X1331499D02*
Y1134955D01*
X1347499D01*
Y1130955D02*
Y1134955D01*
D11*
X1135567Y950580D02*
X1485567D01*
X1135567D02*
Y1047580D01*
X1485567Y950580D02*
Y1047580D01*
X1135567D02*
X1485567D01*
D12*
X1414999Y1201090D02*
G03*
X1414999Y1201090I-500J0D01*
G01*
X1412199Y1204830D02*
G03*
X1412199Y1204830I-500J0D01*
G01*
X1417699D02*
G03*
X1417699Y1204830I-500J0D01*
G01*
X1412299Y1186830D02*
G03*
X1412299Y1186830I-500J0D01*
G01*
X1417799D02*
G03*
X1417799Y1186830I-500J0D01*
G01*
X1414999Y1190570D02*
G03*
X1414999Y1190570I-500J0D01*
G01*
X1473009Y1317582D02*
G03*
X1473009Y1317582I-500J0D01*
G01*
X1476749Y1320382D02*
G03*
X1476749Y1320382I-500J0D01*
G01*
Y1314882D02*
G03*
X1476749Y1314882I-500J0D01*
G01*
X1458749Y1320282D02*
G03*
X1458749Y1320282I-500J0D01*
G01*
Y1314782D02*
G03*
X1458749Y1314782I-500J0D01*
G01*
X1462489Y1317582D02*
G03*
X1462489Y1317582I-500J0D01*
G01*
X1473009Y1301330D02*
G03*
X1473009Y1301330I-500J0D01*
G01*
X1476749Y1304130D02*
G03*
X1476749Y1304130I-500J0D01*
G01*
Y1298630D02*
G03*
X1476749Y1298630I-500J0D01*
G01*
X1458749Y1304030D02*
G03*
X1458749Y1304030I-500J0D01*
G01*
Y1298530D02*
G03*
X1458749Y1298530I-500J0D01*
G01*
X1462489Y1301330D02*
G03*
X1462489Y1301330I-500J0D01*
G01*
X1399249Y1201290D02*
G03*
X1399249Y1201290I-500J0D01*
G01*
X1396449Y1205030D02*
G03*
X1396449Y1205030I-500J0D01*
G01*
X1401949D02*
G03*
X1401949Y1205030I-500J0D01*
G01*
X1396549Y1187029D02*
G03*
X1396549Y1187029I-500J0D01*
G01*
X1402049D02*
G03*
X1402049Y1187029I-500J0D01*
G01*
X1399249Y1190770D02*
G03*
X1399249Y1190770I-500J0D01*
G01*
X1460489Y1256580D02*
G03*
X1460489Y1256580I-500J0D01*
G01*
X1456749Y1253780D02*
G03*
X1456749Y1253780I-500J0D01*
G01*
Y1259280D02*
G03*
X1456749Y1259280I-500J0D01*
G01*
X1474749Y1253880D02*
G03*
X1474749Y1253880I-500J0D01*
G01*
Y1259380D02*
G03*
X1474749Y1259380I-500J0D01*
G01*
X1471009Y1256580D02*
G03*
X1471009Y1256580I-500J0D01*
G01*
Y1272080D02*
G03*
X1471009Y1272080I-500J0D01*
G01*
X1474749Y1274880D02*
G03*
X1474749Y1274880I-500J0D01*
G01*
Y1269380D02*
G03*
X1474749Y1269380I-500J0D01*
G01*
X1456749Y1274780D02*
G03*
X1456749Y1274780I-500J0D01*
G01*
Y1269280D02*
G03*
X1456749Y1269280I-500J0D01*
G01*
X1460489Y1272080D02*
G03*
X1460489Y1272080I-500J0D01*
G01*
X1458509Y1225080D02*
G03*
X1458509Y1225080I-500J0D01*
G01*
X1462249Y1227880D02*
G03*
X1462249Y1227880I-500J0D01*
G01*
Y1222380D02*
G03*
X1462249Y1222380I-500J0D01*
G01*
X1444249Y1227780D02*
G03*
X1444249Y1227780I-500J0D01*
G01*
Y1222280D02*
G03*
X1444249Y1222280I-500J0D01*
G01*
X1447989Y1225080D02*
G03*
X1447989Y1225080I-500J0D01*
G01*
X1458508Y1209580D02*
G03*
X1458508Y1209580I-500J0D01*
G01*
X1462248Y1212380D02*
G03*
X1462248Y1212380I-500J0D01*
G01*
Y1206880D02*
G03*
X1462248Y1206880I-500J0D01*
G01*
X1444248Y1212280D02*
G03*
X1444248Y1212280I-500J0D01*
G01*
Y1206780D02*
G03*
X1444248Y1206780I-500J0D01*
G01*
X1447988Y1209580D02*
G03*
X1447988Y1209580I-500J0D01*
G01*
X1447989Y1194330D02*
G03*
X1447989Y1194330I-500J0D01*
G01*
X1444249Y1191530D02*
G03*
X1444249Y1191530I-500J0D01*
G01*
Y1197030D02*
G03*
X1444249Y1197030I-500J0D01*
G01*
X1462249Y1191630D02*
G03*
X1462249Y1191630I-500J0D01*
G01*
Y1197130D02*
G03*
X1462249Y1197130I-500J0D01*
G01*
X1458509Y1194330D02*
G03*
X1458509Y1194330I-500J0D01*
G01*
Y1179330D02*
G03*
X1458509Y1179330I-500J0D01*
G01*
X1462249Y1182130D02*
G03*
X1462249Y1182130I-500J0D01*
G01*
Y1176630D02*
G03*
X1462249Y1176630I-500J0D01*
G01*
X1444249Y1182030D02*
G03*
X1444249Y1182030I-500J0D01*
G01*
Y1176530D02*
G03*
X1444249Y1176530I-500J0D01*
G01*
X1447989Y1179330D02*
G03*
X1447989Y1179330I-500J0D01*
G01*
X1462489Y1333832D02*
G03*
X1462489Y1333832I-500J0D01*
G01*
X1458749Y1331032D02*
G03*
X1458749Y1331032I-500J0D01*
G01*
Y1336532D02*
G03*
X1458749Y1336532I-500J0D01*
G01*
X1476749Y1331132D02*
G03*
X1476749Y1331132I-500J0D01*
G01*
Y1336632D02*
G03*
X1476749Y1336632I-500J0D01*
G01*
X1473009Y1333832D02*
G03*
X1473009Y1333832I-500J0D01*
G01*
Y1349332D02*
G03*
X1473009Y1349332I-500J0D01*
G01*
X1476749Y1352133D02*
G03*
X1476749Y1352133I-500J0D01*
G01*
Y1346633D02*
G03*
X1476749Y1346633I-500J0D01*
G01*
X1458749Y1352032D02*
G03*
X1458749Y1352032I-500J0D01*
G01*
Y1346532D02*
G03*
X1458749Y1346532I-500J0D01*
G01*
X1462489Y1349332D02*
G03*
X1462489Y1349332I-500J0D01*
G01*
X1466008Y1240580D02*
G03*
X1466008Y1240580I-500J0D01*
G01*
X1469749Y1243380D02*
G03*
X1469749Y1243380I-500J0D01*
G01*
Y1237880D02*
G03*
X1469749Y1237880I-500J0D01*
G01*
X1451749Y1243280D02*
G03*
X1451749Y1243280I-500J0D01*
G01*
Y1237780D02*
G03*
X1451749Y1237780I-500J0D01*
G01*
X1455489Y1240580D02*
G03*
X1455489Y1240580I-500J0D01*
G01*
X1420239Y1261080D02*
G03*
X1420239Y1261080I-500J0D01*
G01*
X1416499Y1258280D02*
G03*
X1416499Y1258280I-500J0D01*
G01*
X1416499Y1263780D02*
G03*
X1416499Y1263780I-500J0D01*
G01*
X1434499Y1258380D02*
G03*
X1434499Y1258380I-500J0D01*
G01*
X1434499Y1263880D02*
G03*
X1434499Y1263880I-500J0D01*
G01*
X1430759Y1261080D02*
G03*
X1430759Y1261080I-500J0D01*
G01*
X1403489Y1245622D02*
G03*
X1403489Y1245622I-500J0D01*
G01*
X1399749Y1242822D02*
G03*
X1399749Y1242822I-500J0D01*
G01*
X1399749Y1248322D02*
G03*
X1399749Y1248322I-500J0D01*
G01*
X1417749Y1242922D02*
G03*
X1417749Y1242922I-500J0D01*
G01*
X1417749Y1248422D02*
G03*
X1417749Y1248422I-500J0D01*
G01*
X1414009Y1245622D02*
G03*
X1414009Y1245622I-500J0D01*
G01*
X1314749Y1498580D02*
G03*
X1314749Y1498580I-500J0D01*
G01*
Y1497580D02*
G03*
X1314749Y1497580I-500J0D01*
G01*
X1327749Y1498580D02*
G03*
X1327749Y1498580I-500J0D01*
G01*
Y1497580D02*
G03*
X1327749Y1497580I-500J0D01*
G01*
Y1491080D02*
G03*
X1327749Y1491080I-500J0D01*
G01*
Y1492080D02*
G03*
X1327749Y1492080I-500J0D01*
G01*
X1314749Y1491080D02*
G03*
X1314749Y1491080I-500J0D01*
G01*
Y1492080D02*
G03*
X1314749Y1492080I-500J0D01*
G01*
X1327749Y1484580D02*
G03*
X1327749Y1484580I-500J0D01*
G01*
Y1485580D02*
G03*
X1327749Y1485580I-500J0D01*
G01*
X1314749Y1484580D02*
G03*
X1314749Y1484580I-500J0D01*
G01*
Y1485580D02*
G03*
X1314749Y1485580I-500J0D01*
G01*
X1327749Y1478080D02*
G03*
X1327749Y1478080I-500J0D01*
G01*
Y1479080D02*
G03*
X1327749Y1479080I-500J0D01*
G01*
X1314749Y1478080D02*
G03*
X1314749Y1478080I-500J0D01*
G01*
Y1479080D02*
G03*
X1314749Y1479080I-500J0D01*
G01*
X1327749Y1471580D02*
G03*
X1327749Y1471580I-500J0D01*
G01*
Y1472580D02*
G03*
X1327749Y1472580I-500J0D01*
G01*
X1314749Y1471580D02*
G03*
X1314749Y1471580I-500J0D01*
G01*
Y1472580D02*
G03*
X1314749Y1472580I-500J0D01*
G01*
X1327749Y1465080D02*
G03*
X1327749Y1465080I-500J0D01*
G01*
Y1466080D02*
G03*
X1327749Y1466080I-500J0D01*
G01*
X1314749Y1465080D02*
G03*
X1314749Y1465080I-500J0D01*
G01*
Y1466080D02*
G03*
X1314749Y1466080I-500J0D01*
G01*
X1327749Y1458580D02*
G03*
X1327749Y1458580I-500J0D01*
G01*
Y1459580D02*
G03*
X1327749Y1459580I-500J0D01*
G01*
X1314749Y1458580D02*
G03*
X1314749Y1458580I-500J0D01*
G01*
Y1459580D02*
G03*
X1314749Y1459580I-500J0D01*
G01*
X1372249Y1459580D02*
G03*
X1372249Y1459580I-500J0D01*
G01*
Y1458580D02*
G03*
X1372249Y1458580I-500J0D01*
G01*
X1385249Y1459580D02*
G03*
X1385249Y1459580I-500J0D01*
G01*
Y1458580D02*
G03*
X1385249Y1458580I-500J0D01*
G01*
X1372249Y1466080D02*
G03*
X1372249Y1466080I-500J0D01*
G01*
Y1465080D02*
G03*
X1372249Y1465080I-500J0D01*
G01*
X1385249Y1466080D02*
G03*
X1385249Y1466080I-500J0D01*
G01*
Y1465080D02*
G03*
X1385249Y1465080I-500J0D01*
G01*
X1372249Y1472580D02*
G03*
X1372249Y1472580I-500J0D01*
G01*
Y1471580D02*
G03*
X1372249Y1471580I-500J0D01*
G01*
X1385249Y1472580D02*
G03*
X1385249Y1472580I-500J0D01*
G01*
Y1471580D02*
G03*
X1385249Y1471580I-500J0D01*
G01*
X1372249Y1479080D02*
G03*
X1372249Y1479080I-500J0D01*
G01*
Y1478080D02*
G03*
X1372249Y1478080I-500J0D01*
G01*
X1385249Y1479080D02*
G03*
X1385249Y1479080I-500J0D01*
G01*
Y1478080D02*
G03*
X1385249Y1478080I-500J0D01*
G01*
X1372249Y1485580D02*
G03*
X1372249Y1485580I-500J0D01*
G01*
Y1484580D02*
G03*
X1372249Y1484580I-500J0D01*
G01*
X1385249Y1485580D02*
G03*
X1385249Y1485580I-500J0D01*
G01*
Y1484580D02*
G03*
X1385249Y1484580I-500J0D01*
G01*
X1372249Y1492080D02*
G03*
X1372249Y1492080I-500J0D01*
G01*
Y1491080D02*
G03*
X1372249Y1491080I-500J0D01*
G01*
X1385249Y1492080D02*
G03*
X1385249Y1492080I-500J0D01*
G01*
Y1491080D02*
G03*
X1385249Y1491080I-500J0D01*
G01*
X1372249Y1498580D02*
G03*
X1372249Y1498580I-500J0D01*
G01*
Y1497580D02*
G03*
X1372249Y1497580I-500J0D01*
G01*
X1385249Y1498580D02*
G03*
X1385249Y1498580I-500J0D01*
G01*
Y1497580D02*
G03*
X1385249Y1497580I-500J0D01*
G01*
X1399489Y1452087D02*
G03*
X1399489Y1452087I-500J0D01*
G01*
X1395749Y1449287D02*
G03*
X1395749Y1449287I-500J0D01*
G01*
Y1454787D02*
G03*
X1395749Y1454787I-500J0D01*
G01*
X1413749Y1449387D02*
G03*
X1413749Y1449387I-500J0D01*
G01*
Y1454887D02*
G03*
X1413749Y1454887I-500J0D01*
G01*
X1410009Y1452087D02*
G03*
X1410009Y1452087I-500J0D01*
G01*
X1310999Y1445090D02*
G03*
X1310999Y1445090I-500J0D01*
G01*
X1308199Y1448830D02*
G03*
X1308199Y1448830I-500J0D01*
G01*
X1313699D02*
G03*
X1313699Y1448830I-500J0D01*
G01*
X1308299Y1430830D02*
G03*
X1308299Y1430830I-500J0D01*
G01*
X1313799D02*
G03*
X1313799Y1430830I-500J0D01*
G01*
X1310999Y1434570D02*
G03*
X1310999Y1434570I-500J0D01*
G01*
X1294999Y1445090D02*
G03*
X1294999Y1445090I-500J0D01*
G01*
X1292199Y1448830D02*
G03*
X1292199Y1448830I-500J0D01*
G01*
X1297699D02*
G03*
X1297699Y1448830I-500J0D01*
G01*
X1292299Y1430830D02*
G03*
X1292299Y1430830I-500J0D01*
G01*
X1297799D02*
G03*
X1297799Y1430830I-500J0D01*
G01*
X1294999Y1434570D02*
G03*
X1294999Y1434570I-500J0D01*
G01*
X1399489Y1468095D02*
G03*
X1399489Y1468095I-500J0D01*
G01*
X1395749Y1465295D02*
G03*
X1395749Y1465295I-500J0D01*
G01*
Y1470795D02*
G03*
X1395749Y1470795I-500J0D01*
G01*
X1413749Y1465395D02*
G03*
X1413749Y1465395I-500J0D01*
G01*
Y1470895D02*
G03*
X1413749Y1470895I-500J0D01*
G01*
X1410009Y1468095D02*
G03*
X1410009Y1468095I-500J0D01*
G01*
X1400249Y1494590D02*
G03*
X1400249Y1494590I-500J0D01*
G01*
X1397449Y1498330D02*
G03*
X1397449Y1498330I-500J0D01*
G01*
X1402949D02*
G03*
X1402949Y1498330I-500J0D01*
G01*
X1397549Y1480330D02*
G03*
X1397549Y1480330I-500J0D01*
G01*
X1403049D02*
G03*
X1403049Y1480330I-500J0D01*
G01*
X1400249Y1484070D02*
G03*
X1400249Y1484070I-500J0D01*
G01*
X1383248Y1230590D02*
G03*
X1383248Y1230590I-500J0D01*
G01*
X1380448Y1234330D02*
G03*
X1380448Y1234330I-500J0D01*
G01*
X1385948D02*
G03*
X1385948Y1234330I-500J0D01*
G01*
X1380549Y1216330D02*
G03*
X1380549Y1216330I-500J0D01*
G01*
X1386048D02*
G03*
X1386048Y1216330I-500J0D01*
G01*
X1383248Y1220070D02*
G03*
X1383248Y1220070I-500J0D01*
G01*
X1376258Y1371284D02*
G03*
X1376258Y1371284I-500J0D01*
G01*
X1379998Y1374084D02*
G03*
X1379998Y1374084I-500J0D01*
G01*
Y1368584D02*
G03*
X1379998Y1368584I-500J0D01*
G01*
X1361998Y1373984D02*
G03*
X1361998Y1373984I-500J0D01*
G01*
Y1368484D02*
G03*
X1361998Y1368484I-500J0D01*
G01*
X1365739Y1371284D02*
G03*
X1365739Y1371284I-500J0D01*
G01*
X1216249Y1506080D02*
G03*
X1216249Y1506080I-500J0D01*
G01*
X1221249D02*
G03*
X1221249Y1506080I-500J0D01*
G01*
X1216249Y1500580D02*
G03*
X1216249Y1500580I-500J0D01*
G01*
X1221249D02*
G03*
X1221249Y1500580I-500J0D01*
G01*
X1202249D02*
G03*
X1202249Y1500580I-500J0D01*
G01*
X1197249D02*
G03*
X1197249Y1500580I-500J0D01*
G01*
X1202249Y1506080D02*
G03*
X1202249Y1506080I-500J0D01*
G01*
X1197249D02*
G03*
X1197249Y1506080I-500J0D01*
G01*
X1211749Y1479080D02*
G03*
X1211749Y1479080I-500J0D01*
G01*
X1206749D02*
G03*
X1206749Y1479080I-500J0D01*
G01*
X1211749Y1484580D02*
G03*
X1211749Y1484580I-500J0D01*
G01*
X1206749D02*
G03*
X1206749Y1484580I-500J0D01*
G01*
X1256999Y1506080D02*
G03*
X1256999Y1506080I-500J0D01*
G01*
X1261999D02*
G03*
X1261999Y1506080I-500J0D01*
G01*
X1256999Y1500580D02*
G03*
X1256999Y1500580I-500J0D01*
G01*
X1261999D02*
G03*
X1261999Y1500580I-500J0D01*
G01*
X1242999D02*
G03*
X1242999Y1500580I-500J0D01*
G01*
X1237999D02*
G03*
X1237999Y1500580I-500J0D01*
G01*
X1242999Y1506080D02*
G03*
X1242999Y1506080I-500J0D01*
G01*
X1237999D02*
G03*
X1237999Y1506080I-500J0D01*
G01*
X1252499Y1479080D02*
G03*
X1252499Y1479080I-500J0D01*
G01*
X1247499D02*
G03*
X1247499Y1479080I-500J0D01*
G01*
X1252499Y1484580D02*
G03*
X1252499Y1484580I-500J0D01*
G01*
X1247499D02*
G03*
X1247499Y1484580I-500J0D01*
G01*
X1161999Y1491320D02*
G03*
X1161999Y1491320I-500J0D01*
G01*
X1164799Y1487580D02*
G03*
X1164799Y1487580I-500J0D01*
G01*
X1159299D02*
G03*
X1159299Y1487580I-500J0D01*
G01*
X1164699Y1505580D02*
G03*
X1164699Y1505580I-500J0D01*
G01*
X1159199D02*
G03*
X1159199Y1505580I-500J0D01*
G01*
X1161999Y1501840D02*
G03*
X1161999Y1501840I-500J0D01*
G01*
X1182121Y1491320D02*
G03*
X1182121Y1491320I-500J0D01*
G01*
X1184921Y1487580D02*
G03*
X1184921Y1487580I-500J0D01*
G01*
X1179421D02*
G03*
X1179421Y1487580I-500J0D01*
G01*
X1184821Y1505580D02*
G03*
X1184821Y1505580I-500J0D01*
G01*
X1179321D02*
G03*
X1179321Y1505580I-500J0D01*
G01*
X1182121Y1501840D02*
G03*
X1182121Y1501840I-500J0D01*
G01*
X1131749Y1505330D02*
G03*
X1131749Y1505330I-500J0D01*
G01*
X1136749D02*
G03*
X1136749Y1505330I-500J0D01*
G01*
X1131749Y1499830D02*
G03*
X1131749Y1499830I-500J0D01*
G01*
X1136749D02*
G03*
X1136749Y1499830I-500J0D01*
G01*
X1117749D02*
G03*
X1117749Y1499830I-500J0D01*
G01*
X1112749D02*
G03*
X1112749Y1499830I-500J0D01*
G01*
X1117749Y1505330D02*
G03*
X1117749Y1505330I-500J0D01*
G01*
X1112749D02*
G03*
X1112749Y1505330I-500J0D01*
G01*
X1127249Y1478330D02*
G03*
X1127249Y1478330I-500J0D01*
G01*
X1122249D02*
G03*
X1122249Y1478330I-500J0D01*
G01*
X1127249Y1483830D02*
G03*
X1127249Y1483830I-500J0D01*
G01*
X1122249D02*
G03*
X1122249Y1483830I-500J0D01*
G01*
X1076499Y1492070D02*
G03*
X1076499Y1492070I-500J0D01*
G01*
X1079299Y1488330D02*
G03*
X1079299Y1488330I-500J0D01*
G01*
X1073799D02*
G03*
X1073799Y1488330I-500J0D01*
G01*
X1079199Y1506330D02*
G03*
X1079199Y1506330I-500J0D01*
G01*
X1073699D02*
G03*
X1073699Y1506330I-500J0D01*
G01*
X1076499Y1502590D02*
G03*
X1076499Y1502590I-500J0D01*
G01*
X1095521Y1492070D02*
G03*
X1095521Y1492070I-500J0D01*
G01*
X1098321Y1488330D02*
G03*
X1098321Y1488330I-500J0D01*
G01*
X1092821D02*
G03*
X1092821Y1488330I-500J0D01*
G01*
X1098221Y1506330D02*
G03*
X1098221Y1506330I-500J0D01*
G01*
X1092721D02*
G03*
X1092721Y1506330I-500J0D01*
G01*
X1095521Y1502590D02*
G03*
X1095521Y1502590I-500J0D01*
G01*
X1078048Y1473580D02*
G03*
X1078048Y1473580I-500J0D01*
G01*
X1083048D02*
G03*
X1083048Y1473580I-500J0D01*
G01*
X1078048Y1468080D02*
G03*
X1078048Y1468080I-500J0D01*
G01*
X1083048D02*
G03*
X1083048Y1468080I-500J0D01*
G01*
X1064048D02*
G03*
X1064048Y1468080I-500J0D01*
G01*
X1059048D02*
G03*
X1059048Y1468080I-500J0D01*
G01*
X1064048Y1473580D02*
G03*
X1064048Y1473580I-500J0D01*
G01*
X1059048D02*
G03*
X1059048Y1473580I-500J0D01*
G01*
X1073548Y1446580D02*
G03*
X1073548Y1446580I-500J0D01*
G01*
X1068548D02*
G03*
X1068548Y1446580I-500J0D01*
G01*
X1073548Y1452080D02*
G03*
X1073548Y1452080I-500J0D01*
G01*
X1068548D02*
G03*
X1068548Y1452080I-500J0D01*
G01*
X1512553Y1271284D02*
G03*
X1512553Y1271284I-500J0D01*
G01*
X1510053Y1269784D02*
G03*
X1510053Y1269784I-500J0D01*
G01*
X1510053Y1272784D02*
G03*
X1510053Y1272784I-500J0D01*
G01*
X1520553D02*
G03*
X1520553Y1272784I-500J0D01*
G01*
X1520553Y1269784D02*
G03*
X1520553Y1269784I-500J0D01*
G01*
X1518053Y1271284D02*
G03*
X1518053Y1271284I-500J0D01*
G01*
X1521313Y1286284D02*
G03*
X1521313Y1286284I-500J0D01*
G01*
X1525053Y1289084D02*
G03*
X1525053Y1289084I-500J0D01*
G01*
Y1283584D02*
G03*
X1525053Y1283584I-500J0D01*
G01*
X1507053Y1288984D02*
G03*
X1507053Y1288984I-500J0D01*
G01*
Y1283484D02*
G03*
X1507053Y1283484I-500J0D01*
G01*
X1510793Y1286284D02*
G03*
X1510793Y1286284I-500J0D01*
G01*
X1514649Y1197084D02*
G03*
X1514649Y1197084I-500J0D01*
G01*
X1517149Y1198584D02*
G03*
X1517149Y1198584I-500J0D01*
G01*
X1517149Y1195584D02*
G03*
X1517149Y1195584I-500J0D01*
G01*
X1506649D02*
G03*
X1506649Y1195584I-500J0D01*
G01*
X1506649Y1198584D02*
G03*
X1506649Y1198584I-500J0D01*
G01*
X1509149Y1197084D02*
G03*
X1509149Y1197084I-500J0D01*
G01*
X1514053Y1152260D02*
G03*
X1514053Y1152260I-500J0D01*
G01*
X1524553D02*
G03*
X1524553Y1152260I-500J0D01*
G01*
X1519303Y1158510D02*
G03*
X1519303Y1158510I-500J0D01*
G01*
Y1172510D02*
G03*
X1519303Y1172510I-500J0D01*
G01*
X1514053Y1178760D02*
G03*
X1514053Y1178760I-500J0D01*
G01*
X1524553D02*
G03*
X1524553Y1178760I-500J0D01*
G01*
X1475301Y1189965D02*
G03*
X1475301Y1189965I-500J0D01*
G01*
X1472501Y1193705D02*
G03*
X1472501Y1193705I-500J0D01*
G01*
X1478001D02*
G03*
X1478001Y1193705I-500J0D01*
G01*
X1472601Y1175705D02*
G03*
X1472601Y1175705I-500J0D01*
G01*
X1478101D02*
G03*
X1478101Y1175705I-500J0D01*
G01*
X1475301Y1179445D02*
G03*
X1475301Y1179445I-500J0D01*
G01*
X1540499Y1229580D02*
G03*
X1540499Y1229580I-500J0D01*
G01*
X1541999Y1227080D02*
G03*
X1541999Y1227080I-500J0D01*
G01*
X1538999Y1227080D02*
G03*
X1538999Y1227080I-500J0D01*
G01*
Y1237580D02*
G03*
X1538999Y1237580I-500J0D01*
G01*
X1541999Y1237580D02*
G03*
X1541999Y1237580I-500J0D01*
G01*
X1540499Y1235080D02*
G03*
X1540499Y1235080I-500J0D01*
G01*
X1552999Y1233590D02*
G03*
X1552999Y1233590I-500J0D01*
G01*
X1550199Y1237330D02*
G03*
X1550199Y1237330I-500J0D01*
G01*
X1555699D02*
G03*
X1555699Y1237330I-500J0D01*
G01*
X1550299Y1219330D02*
G03*
X1550299Y1219330I-500J0D01*
G01*
X1555799D02*
G03*
X1555799Y1219330I-500J0D01*
G01*
X1552999Y1223070D02*
G03*
X1552999Y1223070I-500J0D01*
G01*
X1461367Y1286580D02*
G03*
X1461367Y1286580I-500J0D01*
G01*
X1458867Y1285080D02*
G03*
X1458867Y1285080I-500J0D01*
G01*
X1458867Y1288080D02*
G03*
X1458867Y1288080I-500J0D01*
G01*
X1469368D02*
G03*
X1469368Y1288080I-500J0D01*
G01*
X1469368Y1285080D02*
G03*
X1469368Y1285080I-500J0D01*
G01*
X1466868Y1286580D02*
G03*
X1466868Y1286580I-500J0D01*
G01*
X1490294Y1178830D02*
G03*
X1490294Y1178830I-500J0D01*
G01*
X1486554Y1176030D02*
G03*
X1486554Y1176030I-500J0D01*
G01*
Y1181530D02*
G03*
X1486554Y1181530I-500J0D01*
G01*
X1504554Y1176130D02*
G03*
X1504554Y1176130I-500J0D01*
G01*
Y1181630D02*
G03*
X1504554Y1181630I-500J0D01*
G01*
X1500814Y1178830D02*
G03*
X1500814Y1178830I-500J0D01*
G01*
X1343758Y1356489D02*
G03*
X1343758Y1356489I-500J0D01*
G01*
X1347498Y1359289D02*
G03*
X1347498Y1359289I-500J0D01*
G01*
Y1353789D02*
G03*
X1347498Y1353789I-500J0D01*
G01*
X1329498Y1359189D02*
G03*
X1329498Y1359189I-500J0D01*
G01*
Y1353689D02*
G03*
X1329498Y1353689I-500J0D01*
G01*
X1333239Y1356489D02*
G03*
X1333239Y1356489I-500J0D01*
G01*
X1301239Y1355989D02*
G03*
X1301239Y1355989I-500J0D01*
G01*
X1297498Y1353189D02*
G03*
X1297498Y1353189I-500J0D01*
G01*
Y1358689D02*
G03*
X1297498Y1358689I-500J0D01*
G01*
X1315499Y1353289D02*
G03*
X1315499Y1353289I-500J0D01*
G01*
Y1358789D02*
G03*
X1315499Y1358789I-500J0D01*
G01*
X1311758Y1355989D02*
G03*
X1311758Y1355989I-500J0D01*
G01*
X1366599Y1158340D02*
G03*
X1366599Y1158340I-500J0D01*
G01*
X1363799Y1162080D02*
G03*
X1363799Y1162080I-500J0D01*
G01*
X1369299D02*
G03*
X1369299Y1162080I-500J0D01*
G01*
X1363898Y1144080D02*
G03*
X1363898Y1144080I-500J0D01*
G01*
X1369398D02*
G03*
X1369398Y1144080I-500J0D01*
G01*
X1366599Y1147820D02*
G03*
X1366599Y1147820I-500J0D01*
G01*
X1430249Y1201090D02*
G03*
X1430249Y1201090I-500J0D01*
G01*
X1427449Y1204830D02*
G03*
X1427449Y1204830I-500J0D01*
G01*
X1432949D02*
G03*
X1432949Y1204830I-500J0D01*
G01*
X1427549Y1186830D02*
G03*
X1427549Y1186830I-500J0D01*
G01*
X1433049D02*
G03*
X1433049Y1186830I-500J0D01*
G01*
X1430249Y1190570D02*
G03*
X1430249Y1190570I-500J0D01*
G01*
X1151258Y1160830D02*
G03*
X1151258Y1160830I-500J0D01*
G01*
X1154999Y1163630D02*
G03*
X1154999Y1163630I-500J0D01*
G01*
Y1158130D02*
G03*
X1154999Y1158130I-500J0D01*
G01*
X1136999Y1163530D02*
G03*
X1136999Y1163530I-500J0D01*
G01*
Y1158030D02*
G03*
X1136999Y1158030I-500J0D01*
G01*
X1140739Y1160830D02*
G03*
X1140739Y1160830I-500J0D01*
G01*
X1151258Y1142830D02*
G03*
X1151258Y1142830I-500J0D01*
G01*
X1154999Y1145630D02*
G03*
X1154999Y1145630I-500J0D01*
G01*
Y1140130D02*
G03*
X1154999Y1140130I-500J0D01*
G01*
X1136999Y1145530D02*
G03*
X1136999Y1145530I-500J0D01*
G01*
Y1140030D02*
G03*
X1136999Y1140030I-500J0D01*
G01*
X1140739Y1142830D02*
G03*
X1140739Y1142830I-500J0D01*
G01*
X1371258Y1355989D02*
G03*
X1371258Y1355989I-500J0D01*
G01*
X1374998Y1358789D02*
G03*
X1374998Y1358789I-500J0D01*
G01*
Y1353289D02*
G03*
X1374998Y1353289I-500J0D01*
G01*
X1356998Y1358689D02*
G03*
X1356998Y1358689I-500J0D01*
G01*
Y1353189D02*
G03*
X1356998Y1353189I-500J0D01*
G01*
X1360739Y1355989D02*
G03*
X1360739Y1355989I-500J0D01*
G01*
X1326146Y1231584D02*
G03*
X1326146Y1231584I-500J0D01*
G01*
X1329886Y1234384D02*
G03*
X1329886Y1234384I-500J0D01*
G01*
Y1228884D02*
G03*
X1329886Y1228884I-500J0D01*
G01*
X1311886Y1234284D02*
G03*
X1311886Y1234284I-500J0D01*
G01*
Y1228784D02*
G03*
X1311886Y1228784I-500J0D01*
G01*
X1315626Y1231584D02*
G03*
X1315626Y1231584I-500J0D01*
G01*
X1326146Y1216834D02*
G03*
X1326146Y1216834I-500J0D01*
G01*
X1329886Y1219634D02*
G03*
X1329886Y1219634I-500J0D01*
G01*
Y1214134D02*
G03*
X1329886Y1214134I-500J0D01*
G01*
X1311886Y1219534D02*
G03*
X1311886Y1219534I-500J0D01*
G01*
Y1214034D02*
G03*
X1311886Y1214034I-500J0D01*
G01*
X1315626Y1216834D02*
G03*
X1315626Y1216834I-500J0D01*
G01*
X1355739Y1231534D02*
G03*
X1355739Y1231534I-500J0D01*
G01*
X1351998Y1228734D02*
G03*
X1351998Y1228734I-500J0D01*
G01*
Y1234234D02*
G03*
X1351998Y1234234I-500J0D01*
G01*
X1369998Y1228834D02*
G03*
X1369998Y1228834I-500J0D01*
G01*
Y1234334D02*
G03*
X1369998Y1234334I-500J0D01*
G01*
X1366259Y1231534D02*
G03*
X1366259Y1231534I-500J0D01*
G01*
X1162148Y1473580D02*
G03*
X1162148Y1473580I-500J0D01*
G01*
X1167148D02*
G03*
X1167148Y1473580I-500J0D01*
G01*
X1162148Y1468080D02*
G03*
X1162148Y1468080I-500J0D01*
G01*
X1167148D02*
G03*
X1167148Y1468080I-500J0D01*
G01*
X1148148D02*
G03*
X1148148Y1468080I-500J0D01*
G01*
X1143148D02*
G03*
X1143148Y1468080I-500J0D01*
G01*
X1148148Y1473580D02*
G03*
X1148148Y1473580I-500J0D01*
G01*
X1143148D02*
G03*
X1143148Y1473580I-500J0D01*
G01*
X1157648Y1446580D02*
G03*
X1157648Y1446580I-500J0D01*
G01*
X1152648D02*
G03*
X1152648Y1446580I-500J0D01*
G01*
X1157648Y1452080D02*
G03*
X1157648Y1452080I-500J0D01*
G01*
X1152648D02*
G03*
X1152648Y1452080I-500J0D01*
G01*
X1386898Y1166148D02*
Y1171648D01*
X1381399Y1166148D02*
X1386898D01*
X1381399D02*
Y1171648D01*
X1386898D01*
X1414898D02*
X1420398D01*
Y1166148D02*
Y1171648D01*
X1414898Y1166148D02*
X1420398D01*
X1414898D02*
Y1171648D01*
X1285257Y1188882D02*
Y1194382D01*
X1290757D01*
Y1188882D02*
Y1194382D01*
X1285257Y1188882D02*
X1290757D01*
X1251757D02*
X1257257D01*
X1251757D02*
Y1194382D01*
X1257257D01*
Y1188882D02*
Y1194382D01*
D13*
X1514553Y1237375D02*
X1520053D01*
X1514553Y1232375D02*
X1520053D01*
X1514553Y1227375D02*
X1520053D01*
X1514553Y1222375D02*
X1520053D01*
X1514553Y1217375D02*
X1520053D01*
X1510053Y1207375D02*
Y1212875D01*
X1505053Y1207375D02*
Y1212875D01*
X1500053Y1207375D02*
Y1212875D01*
X1495053Y1207375D02*
Y1212875D01*
X1490053Y1207375D02*
Y1212875D01*
X1480053Y1217375D02*
X1485553D01*
X1480053Y1222375D02*
X1485553D01*
X1480053Y1227375D02*
X1485553D01*
X1480053Y1232375D02*
X1485553D01*
X1480053Y1237375D02*
X1485553D01*
X1490053Y1241875D02*
Y1247375D01*
X1495053Y1241875D02*
Y1247375D01*
X1500053Y1241875D02*
Y1247375D01*
X1505053Y1241875D02*
Y1247375D01*
X1510053Y1241875D02*
Y1247375D01*
D14*
X1388999Y1245989D02*
Y1252989D01*
X1380999Y1245989D02*
Y1252989D01*
X1372999Y1245989D02*
Y1252989D01*
X1364999Y1245989D02*
Y1252989D01*
X1356999Y1245989D02*
Y1252989D01*
X1348999Y1245989D02*
Y1252989D01*
X1340999Y1245989D02*
Y1252989D01*
X1399998Y1319989D02*
X1406999D01*
X1399998Y1311989D02*
X1406999D01*
X1399998Y1303989D02*
X1406999D01*
X1399998Y1295989D02*
X1406999D01*
X1399998Y1287989D02*
X1406999D01*
X1399998Y1279989D02*
X1406999D01*
X1399998Y1271989D02*
X1406999D01*
X1399998Y1263989D02*
X1406999D01*
X1332998Y1245989D02*
Y1252989D01*
Y1330989D02*
Y1337989D01*
X1340999Y1330989D02*
Y1337989D01*
X1348999Y1330989D02*
Y1337989D01*
X1356999Y1330989D02*
Y1337989D01*
X1364999Y1330989D02*
Y1337989D01*
X1372999Y1330989D02*
Y1337989D01*
X1380999Y1330989D02*
Y1337989D01*
X1388999Y1330989D02*
Y1337989D01*
D15*
X1314998Y1263989D02*
X1321998D01*
X1314998Y1271989D02*
X1321998D01*
X1314998Y1279989D02*
X1321998D01*
X1314998Y1287989D02*
X1321998D01*
X1314998Y1295989D02*
X1321998D01*
X1314998Y1303989D02*
X1321998D01*
X1314998Y1311989D02*
X1321998D01*
X1314998Y1319989D02*
X1321998D01*
D16*
X1374498Y1684580D02*
D03*
D17*
X1374499D02*
D03*
D18*
X1500054Y1227374D02*
D03*
D19*
X1384198Y1168898D02*
D03*
X1417598D02*
D03*
X1287957Y1191631D02*
D03*
X1254557D02*
D03*
D20*
X1543499Y1273580D02*
D03*
Y1249580D02*
D03*
D21*
X1545497Y1196628D02*
D03*
Y1166127D02*
D03*
D22*
X1072499Y1156880D02*
D03*
D23*
X1057748Y1141830D02*
D03*
X1087249D02*
D03*
D24*
X1212498Y1184830D02*
D03*
X1192498D02*
D03*
X1092499Y1334830D02*
D03*
X1172498Y1184830D02*
D03*
X1152499D02*
D03*
X1132499D02*
D03*
X1112499D02*
D03*
X1092499D02*
D03*
X1072499D02*
D03*
Y1334830D02*
D03*
X1112499D02*
D03*
X1132499D02*
D03*
X1152499D02*
D03*
X1172498D02*
D03*
X1192498D02*
D03*
X1212498D02*
D03*
D25*
X1339998Y1384489D02*
D03*
X1301999D02*
D03*
D26*
X1339499Y1132955D02*
D03*
Y1174955D02*
D03*
M02*
