M48
;Layer_Color=9474304
;FILE_FORMAT=4:4
METRIC,LZ
;TYPE=PLATED
T1F00S00C0.3000
T2F00S00C0.7000
T3F00S00C0.8000
T4F00S00C1.0000
T5F00S00C1.6000
%
T01
X01046012Y01118455
X01046009Y0112783
X01046003Y01137208
Y0114658
Y01155952
X01046Y01165327
X01045997Y01174702
X01045995Y01184077
X01060499Y0118508
X01060749Y0117533
X01062423Y0116633
X01062499Y0115758
X01082575Y0115733
Y0116708
X01092575
Y01157455
X01099743Y01148455
X01099746Y0113908
X01099749Y01129705
Y0112058
X01092251Y01115966
X01092249Y01125341
X01082874Y01125339
X01082876Y01115964
X01073502Y01115961
X01073499Y01125336
X01064124Y01125333
X01054749Y0112533
X01054752Y01115955
X01064127Y01115958
X01137999Y0113308
X01129753Y01142833
Y01160833
X01308262Y01182084
X0131636
X01398766Y01180334
X01359228Y01132955
X01471999Y0115183
X01498999Y0116558
X01505999
X01502021Y01188334
X01510249Y01188425
X01523999Y0118758
Y01195047
X01522249Y01202337
X01516749Y01207127
X0150661Y01220669
X01500054Y01227374
X0150676Y0123393
X01493499Y0123408
X01493349Y01220818
X01491978Y01196627
X01477624Y0120458
X01473249Y0122783
X01485749Y0125558
X01502249Y0125708
X01509749
X01520132Y0125758
X01523874Y0125208
X01516749Y01249837
X01530749Y0125583
X01526749Y0126408
Y01271338
X01529749Y0123183
X01529954Y0122508
X01553999Y0120658
X01488499Y0128658
X01475117Y0128633
X01416249Y0129558
X01416408Y01273163
X01414998Y0123558
X01405144Y01232375
X01395749Y01232579
X01405144Y0121958
X01398749Y0121189
X01372998Y0121358
X01361015Y01223086
X01342249Y01231384
X01329097Y01207127
X01320999
X01304641Y01216837
Y01231587
X01304124Y0125113
X0128761Y01263989
X01270513Y01264023
X01333998Y0126058
X01365086Y01261665
X01373493Y01313835
X01356514Y0131434
X01356999Y0132243
X01356928Y01345489
X01344764Y01346842
X01325513Y01342842
X01320999Y0133558
X0133389Y0131358
X01305999Y0130983
X01306749Y0129983
X01246999Y0132908
X01237249Y0132683
X01225749Y01327122
Y01343622
X01219272Y0140958
X01239999Y01429579
X01272607Y01433688
X01284999Y0143258
X01265999Y0144158
X01269248Y0149308
X01307998Y01465579
X01320749Y0145158
X01321636Y0143208
X01344998Y01423579
X01351249Y0141733
X01357249Y0143008
X01379249Y0142933
X01379265Y01441346
X01381099Y0141758
X01408999Y0142408
X01399999Y01433455
X01420854Y0145183
Y01467837
X01410581Y01482203
X01411651Y0149208
X01409749Y01501729
X01388499Y0150858
X01378198Y0150783
X01359999Y0148083
X01359749Y0145383
X01363249Y01381535
X01393766Y01357592
X01412162Y0134833
X01418517Y01343092
X01410249Y01328613
X01438499Y01332301
X01415767Y01406095
X01271999Y01379266
X01265999Y0138458
X01195999Y0144508
X01195998Y01484579
X01177756Y01478598
X01155148Y0146958
X01130999Y0146658
X01122753Y01466098
X01122749Y0145258
X01130999Y01443232
X01163755Y01449347
X01187499Y01444637
X01072548Y0135258
X01059791Y0134308
Y0132658
X01055746Y01205955
X01045989Y01202827
X01045992Y01193452
X01060249Y01193925
X01065438Y0120108
X01074999Y01202882
X01082749Y0119783
X01092151Y0120233
T02
X01514999Y0133383
X01534999
X01535499Y0142833
X01515499
T03
X01259098Y0153758
Y0155758
Y01577579
X01343198
Y0155758
Y0153758
X01174998
Y0155758
Y01577579
X01090898
Y0155758
Y0153758
Y01597579
X01174998
X01259098
X01343198
T04
X01254848Y0125293
X01280249
Y0127833
Y0130373
X01254848
Y0127833
X01424513Y0138658
X01449913Y01386578
X01475313Y0138658
X01500713Y01386578
X01526113Y0138658
X01551513Y01386578
X01164149Y0141608
X01138749
X01113347Y01416078
X01087947Y01416077
X01062547Y01416078
T05
X01460629Y0155758
X01511429
M30
